<svg width="320" height="252" viewBox="0 0 320 252" fill="none" xmlns="http://www.w3.org/2000/svg">
<path d="M0 0.0585075C8.00056 0.0585075 8.00056 0.0585074 11.3589 2.67979C13.3793 4.12885 13.3793 4.12885 15.7277 4.86419C15.7277 5.15253 15.7277 5.44087 15.7277 5.73795C16.0419 5.78131 16.3562 5.82467 16.6799 5.86935C18.0782 6.21601 18.9601 6.76213 20.1511 7.56738C22.5227 9.16408 25.0067 10.504 27.5234 11.8543C28.3267 12.2871 29.1299 12.72 29.9331 13.153C30.3396 13.3719 30.746 13.5907 31.1648 13.8163C35.7608 16.294 40.3257 18.8205 44.8625 21.4051C45.4536 21.7417 45.4536 21.7417 46.0567 22.0851C46.4018 22.2823 46.7469 22.4795 47.1024 22.6827C47.4173 22.8578 47.7323 23.0328 48.0568 23.2131C48.2903 23.3657 48.5239 23.5183 48.7645 23.6755C50.2915 24.2797 51.7968 24.2134 53.4151 24.2103C53.9689 24.2143 53.9689 24.2143 54.5338 24.2185C55.7792 24.2265 57.0245 24.2283 58.2699 24.2302C59.1686 24.2346 60.0672 24.2394 60.9659 24.2446C63.4422 24.2576 65.9185 24.2651 68.3949 24.2716C70.5174 24.2778 72.64 24.2874 74.7626 24.2969C82.064 24.3297 89.3655 24.3509 96.667 24.3695C97.8814 24.3727 99.0958 24.3759 100.31 24.3791C111.61 24.4089 122.91 24.435 134.211 24.4515C137.161 24.4558 140.111 24.4603 143.061 24.4648C143.55 24.4655 143.55 24.4655 144.049 24.4663C154.601 24.4825 165.153 24.5193 175.705 24.5679C186.562 24.6177 197.418 24.649 208.275 24.6562C209.811 24.6572 211.348 24.6584 212.884 24.6598C213.187 24.66 213.489 24.6603 213.801 24.6605C218.649 24.6651 223.497 24.6889 228.345 24.7198C233.229 24.7505 238.113 24.7596 242.997 24.7486C245.639 24.7432 248.28 24.7468 250.922 24.7757C265.582 25.1947 265.582 25.1947 278.554 19.1603C280.487 17.7729 282.598 16.6826 284.682 15.5404C285.514 15.0696 286.345 14.5976 287.175 14.124C290.031 12.5077 292.911 10.939 295.794 9.3725C298.021 8.16241 300.246 6.94932 302.463 5.72099C303.124 5.35481 303.786 4.99034 304.449 4.62772C305.855 3.8534 307.201 3.06622 308.533 2.16611C312.584 -0.551239 313.673 0.0585075 319.359 0.0585075C319.359 65.8002 319.359 131.542 319.359 199.276C299.896 199.276 280.433 199.276 260.38 199.276C260.38 200.141 260.38 201.006 260.38 201.897C260.777 201.933 261.173 201.969 261.582 202.006C263.248 202.391 263.715 202.74 264.749 204.081C265.067 205.946 265.019 207.804 265.001 209.693C264.995 210.603 265.01 211.512 265.027 212.422C265.026 212.999 265.025 213.575 265.024 214.169C265.024 214.695 265.025 215.222 265.025 215.764C264.672 217.584 263.99 218.225 262.565 219.372C261.176 219.835 260.194 219.859 258.737 219.852C258.248 219.85 257.76 219.849 257.257 219.847C256.492 219.842 256.492 219.842 255.711 219.836C255.196 219.834 254.681 219.832 254.151 219.83C252.878 219.825 251.605 219.818 250.332 219.809C250.339 220.36 250.339 220.36 250.347 220.922C250.391 224.387 250.424 227.851 250.445 231.316C250.457 233.097 250.472 234.878 250.497 236.66C250.521 238.379 250.534 240.098 250.539 241.818C250.543 242.473 250.551 243.129 250.563 243.784C250.579 244.704 250.581 245.622 250.58 246.542C250.587 247.326 250.587 247.326 250.595 248.126C250.254 249.928 249.563 250.574 248.148 251.701C246.845 251.97 246.845 251.97 245.416 251.961C244.64 251.959 244.64 251.959 243.848 251.957C243.312 251.945 242.775 251.932 242.223 251.92C241.684 251.921 241.146 251.922 240.592 251.923C236.59 251.88 236.59 251.88 234.604 250.391C234.604 240.155 234.604 229.918 234.604 219.372C182.559 219.372 130.513 219.372 76.8909 219.372C76.8909 229.32 76.8909 239.268 76.8909 249.517C74.4292 251.979 74.4292 251.979 71.9742 251.991C71.1983 251.996 71.1983 251.996 70.4068 252C69.8704 251.991 69.3339 251.983 68.7813 251.974C68.2432 251.983 67.7051 251.991 67.1507 252C66.6339 251.997 66.1172 251.994 65.5849 251.991C65.1138 251.989 64.6426 251.986 64.1572 251.984C62.4621 251.6 62.0904 250.966 61.1632 249.517C60.953 248.11 60.953 248.11 60.9648 246.502C60.9645 246.207 60.9643 245.913 60.964 245.61C60.9652 244.643 60.9788 243.676 60.9925 242.709C60.9958 242.037 60.9983 241.364 61 240.691C61.0067 238.925 61.0238 237.159 61.0432 235.393C61.0611 233.589 61.0691 231.785 61.0778 229.981C61.0966 226.445 61.1264 222.908 61.1632 219.372C60.8731 219.398 60.5831 219.423 60.2843 219.449C57.1475 219.609 57.1475 219.609 55.4473 218.468C54.4342 216.919 54.3285 216.026 54.3199 214.184C54.317 213.61 54.3142 213.035 54.3113 212.444C54.3159 212.146 54.3205 211.849 54.3252 211.543C54.3369 210.637 54.3253 209.732 54.3113 208.826C54.3141 208.251 54.317 207.677 54.3199 207.085C54.3223 206.561 54.3248 206.037 54.3273 205.498C54.6882 203.689 55.3674 203.029 56.7944 201.897C58.0231 201.76 58.0231 201.76 58.9788 201.897C58.9788 201.032 58.9788 200.167 58.9788 199.276C58.5786 199.276 58.5786 199.276 58.1703 199.277C51.653 199.287 45.1357 199.294 38.6185 199.298C35.4666 199.301 32.3148 199.304 29.163 199.309C26.4132 199.313 23.6634 199.316 20.9135 199.317C19.46 199.317 18.0065 199.319 16.5529 199.322C14.923 199.325 13.2932 199.326 11.6633 199.325C11.191 199.327 10.7187 199.328 10.232 199.33C6.7837 199.325 3.4628 199.086 0 198.839C0 133.241 0 67.6438 0 0.0585075Z" fill="#435C75"/>
<path d="M0 0.0585075C8.00056 0.0585075 8.00056 0.0585074 11.3589 2.67979C13.3793 4.12885 13.3793 4.12885 15.7277 4.86419C15.7277 5.15253 15.7277 5.44087 15.7277 5.73795C16.0419 5.78131 16.3562 5.82467 16.6799 5.86935C18.0782 6.21601 18.9601 6.76213 20.1511 7.56738C22.5227 9.16408 25.0067 10.504 27.5234 11.8543C28.3267 12.2871 29.1299 12.72 29.9331 13.153C30.3396 13.3719 30.746 13.5907 31.1648 13.8163C35.7608 16.294 40.3257 18.8205 44.8625 21.4051C45.4536 21.7417 45.4536 21.7417 46.0567 22.0851C46.4018 22.2823 46.7469 22.4795 47.1024 22.6827C47.4173 22.8578 47.7323 23.0328 48.0568 23.2131C48.2903 23.3657 48.5239 23.5183 48.7645 23.6755C50.2915 24.2797 51.7968 24.2134 53.4151 24.2103C53.9689 24.2143 53.9689 24.2143 54.5338 24.2185C55.7792 24.2265 57.0245 24.2283 58.2699 24.2302C59.1686 24.2346 60.0672 24.2394 60.9659 24.2446C63.4422 24.2576 65.9185 24.2651 68.3949 24.2716C70.5174 24.2778 72.64 24.2874 74.7626 24.2969C82.064 24.3297 89.3655 24.3509 96.667 24.3695C97.8814 24.3727 99.0958 24.3759 100.31 24.3791C111.61 24.4089 122.91 24.435 134.211 24.4515C137.161 24.4558 140.111 24.4603 143.061 24.4648C143.55 24.4655 143.55 24.4655 144.049 24.4663C154.601 24.4825 165.153 24.5193 175.705 24.5679C186.562 24.6177 197.418 24.649 208.275 24.6562C209.811 24.6572 211.348 24.6584 212.884 24.6598C213.187 24.66 213.489 24.6603 213.801 24.6605C218.649 24.6651 223.497 24.6889 228.345 24.7198C233.229 24.7505 238.113 24.7596 242.997 24.7486C245.639 24.7432 248.28 24.7468 250.922 24.7757C265.582 25.1947 265.582 25.1947 278.554 19.1603C280.487 17.7729 282.598 16.6826 284.682 15.5404C285.514 15.0696 286.345 14.5976 287.175 14.124C290.031 12.5077 292.911 10.939 295.794 9.3725C298.021 8.16241 300.246 6.94932 302.463 5.72099C303.124 5.35481 303.786 4.99034 304.449 4.62772C305.855 3.8534 307.201 3.06622 308.533 2.16611C312.584 -0.551239 313.673 0.0585075 319.359 0.0585075C319.359 65.8002 319.359 131.542 319.359 199.276C302.635 199.276 285.912 199.276 268.681 199.276C268.681 141.752 268.681 84.2278 268.681 24.9607C196.74 24.9607 124.799 24.9607 50.6781 24.9607C50.6781 82.4846 50.6781 140.009 50.6781 199.276C6.11632 199.276 6.11632 199.276 0 198.839C0 133.241 0 67.6438 0 0.0585075Z" fill="#86972E"/>
<path d="M58.9788 33.2614C125.441 33.2614 191.904 33.2614 260.38 33.2614C260.38 85.3068 260.38 137.352 260.38 190.975C256.776 190.975 253.172 190.975 249.458 190.975C249.458 179.441 249.458 167.908 249.458 156.025C249.747 156.025 250.035 156.025 250.332 156.025C250.332 153.718 250.332 151.411 250.332 149.035C234.618 149.035 218.903 149.035 202.712 149.035C202.712 162.731 202.712 176.427 202.712 190.538C202.424 190.538 202.136 190.538 201.838 190.538C201.838 169.633 201.838 148.729 201.838 127.191C200.108 127.191 198.378 127.191 196.596 127.191C196.643 122.648 196.692 118.105 196.744 113.563C196.768 111.453 196.791 109.342 196.813 107.232C196.834 105.19 196.857 103.148 196.881 101.105C196.89 100.332 196.898 99.5592 196.906 98.7861C196.916 97.6901 196.93 96.5941 196.943 95.4981C196.946 95.1898 196.948 94.8815 196.951 94.5639C196.999 91.0088 197.26 87.5013 197.47 83.9394C165.896 83.9394 134.323 83.9394 101.793 83.9394C102.009 87.6158 102.009 87.6158 102.23 91.3664C102.262 92.7477 102.286 94.118 102.279 95.4981C102.28 95.8486 102.28 96.1991 102.28 96.5602C102.279 97.6829 102.276 98.8055 102.273 99.9282C102.272 100.721 102.271 101.513 102.271 102.306C102.269 104.365 102.265 106.424 102.26 108.483C102.255 110.968 102.253 113.453 102.25 115.938C102.246 119.689 102.237 123.44 102.23 127.191C91.2729 127.191 80.316 127.191 69.027 127.191C69.027 148.095 69.027 169 69.027 190.538C65.7111 190.538 62.3952 190.538 58.9788 190.538C58.9788 138.637 58.9788 86.7354 58.9788 33.2614Z" fill="#1C2E41"/>
<path d="M101.793 83.9395C133.366 83.9395 164.94 83.9395 197.47 83.9395C197.033 125.88 197.033 125.88 196.596 127.191C198.326 127.191 200.056 127.191 201.839 127.191C201.839 148.095 201.839 169 201.839 190.538C158.011 190.538 114.183 190.538 69.0271 190.538C69.0271 169.633 69.0271 148.729 69.0271 127.191C79.984 127.191 90.941 127.191 102.23 127.191C102.086 112.918 101.942 98.6448 101.793 83.9395Z" fill="#F7913B"/>
<path d="M60.2894 33.2614C126.319 33.2614 192.349 33.2614 260.38 33.2614C260.38 85.3068 260.38 137.352 260.38 190.975C256.776 190.975 253.172 190.975 249.458 190.975C249.458 179.441 249.458 167.908 249.458 156.025C249.747 156.025 250.035 156.025 250.332 156.025C250.332 153.718 250.332 151.411 250.332 149.035C234.618 149.035 218.903 149.035 202.712 149.035C202.712 162.731 202.712 176.427 202.712 190.538C202.424 190.538 202.136 190.538 201.838 190.538C201.838 169.633 201.838 148.729 201.838 127.191C200.108 127.191 198.378 127.191 196.596 127.191C196.643 122.648 196.693 118.105 196.744 113.563C196.768 111.453 196.791 109.342 196.813 107.232C196.834 105.19 196.857 103.148 196.881 101.105C196.89 100.332 196.898 99.5592 196.906 98.7861C196.917 97.6901 196.93 96.5941 196.943 95.4981C196.946 95.1898 196.948 94.8815 196.951 94.5639C197 91.0088 197.26 87.5013 197.47 83.9394C181.755 83.9394 166.041 83.9394 149.85 83.9394C149.85 83.7952 149.85 83.6511 149.85 83.5025C165.42 83.5025 180.991 83.5025 197.033 83.5025C197.033 78.4566 197.033 73.4106 197.033 68.2117C198.299 67.2622 199.374 66.5396 200.746 65.8089C201.165 65.5836 201.584 65.3584 202.016 65.1263C202.258 64.9962 202.5 64.8661 202.75 64.7321C204.49 63.7907 206.222 62.8321 207.955 61.877C210.281 60.5957 212.609 59.3175 214.945 58.0543C217.013 56.9298 219.04 55.741 221.07 54.549C222.713 53.5971 224.377 52.6885 226.048 51.7861C227.095 51.2184 228.133 50.6382 229.171 50.0539C230.852 49.1163 232.565 48.2574 234.29 47.4046C238.291 45.3841 242.183 43.1374 246.1 40.9614C246.59 40.6899 247.079 40.4185 247.584 40.1388C251.138 38.1649 254.666 36.1525 258.196 34.1351C160.232 33.9189 160.232 33.9189 60.2894 33.6982C60.2894 33.5541 60.2894 33.4099 60.2894 33.2614Z" fill="#20354A"/>
<path d="M136.307 127.628C157.932 127.628 179.558 127.628 201.839 127.628C201.839 148.388 201.839 169.149 201.839 190.538C180.213 190.538 158.588 190.538 136.307 190.538C136.307 169.778 136.307 149.017 136.307 127.628Z" fill="#FE9F45"/>
<path d="M55.0468 210.635C124.104 210.635 193.162 210.635 264.312 210.635C264.312 212.941 264.312 215.248 264.312 217.625C262.167 219.77 262.167 219.77 260.103 219.859C259.652 219.856 259.201 219.854 258.737 219.852C258.248 219.85 257.76 219.849 257.256 219.848C256.746 219.844 256.237 219.84 255.711 219.836C255.196 219.834 254.681 219.832 254.15 219.83C252.878 219.825 251.605 219.818 250.332 219.809C250.337 220.176 250.342 220.544 250.347 220.922C250.391 224.387 250.424 227.851 250.445 231.316C250.457 233.097 250.472 234.878 250.497 236.66C250.521 238.379 250.534 240.098 250.539 241.818C250.543 242.473 250.551 243.129 250.563 243.784C250.579 244.704 250.581 245.622 250.58 246.542C250.585 247.065 250.59 247.588 250.595 248.126C250.254 249.928 249.563 250.574 248.148 251.701C246.845 251.97 246.845 251.97 245.415 251.961C244.898 251.96 244.381 251.958 243.848 251.957C243.312 251.945 242.775 251.933 242.222 251.92C241.684 251.921 241.146 251.922 240.592 251.923C236.59 251.88 236.59 251.88 234.604 250.391C234.604 240.155 234.604 229.919 234.604 219.372C182.559 219.372 130.513 219.372 76.8907 219.372C76.8907 229.32 76.8907 239.268 76.8907 249.517C74.4291 251.979 74.4291 251.979 71.9741 251.991C71.4569 251.994 70.9396 251.997 70.4067 252C69.8702 251.992 69.3338 251.983 68.7812 251.974C67.974 251.987 67.974 251.987 67.1505 252C66.6338 251.997 66.1171 251.994 65.5848 251.991C65.1137 251.989 64.6425 251.987 64.1571 251.984C62.462 251.6 62.0903 250.966 61.1631 249.517C60.9529 248.11 60.9529 248.11 60.9647 246.502C60.9644 246.207 60.9642 245.913 60.9639 245.61C60.9651 244.643 60.9787 243.676 60.9924 242.709C60.9957 242.037 60.9982 241.364 60.9999 240.691C61.0066 238.925 61.0237 237.159 61.0431 235.393C61.061 233.589 61.0689 231.785 61.0777 229.981C61.0965 226.445 61.1263 222.908 61.1631 219.372C60.7204 219.395 60.7204 219.395 60.2688 219.418C59.8791 219.43 59.4894 219.442 59.0879 219.454C58.5101 219.477 58.5101 219.477 57.9206 219.5C56.7943 219.372 56.7943 219.372 55.0468 218.062C55.0468 215.611 55.0468 213.16 55.0468 210.635Z" fill="#192A39"/>
<path d="M202.712 149.035C218.427 149.035 234.141 149.035 250.332 149.035C250.332 151.341 250.332 153.648 250.332 156.025C250.044 156.025 249.756 156.025 249.458 156.025C249.458 167.414 249.458 178.804 249.458 190.538C234.176 190.538 218.894 190.538 203.149 190.538C203.005 176.842 202.861 163.146 202.712 149.035Z" fill="#EC7425"/>
<path d="M197.47 83.9394C197.47 86.3903 197.47 88.8412 197.47 91.3664C197.181 91.3664 196.893 91.3664 196.596 91.3664C196.596 102.612 196.596 113.857 196.596 125.443C181.458 125.443 166.32 125.443 150.724 125.443C150.724 114.054 150.724 102.664 150.724 90.9295C150.435 90.9295 150.147 90.9295 149.85 90.9295C149.85 88.767 149.85 86.6044 149.85 84.3763C154.575 84.3186 159.3 84.2616 164.025 84.2054C166.221 84.1793 168.416 84.153 170.611 84.1261C189.278 83.8979 189.278 83.8979 197.47 83.9394Z" fill="#EC7425"/>
<path d="M312.369 0.0583496C314.676 0.0583496 316.983 0.0583496 319.359 0.0583496C319.359 65.8 319.359 131.542 319.359 199.276C302.635 199.276 285.912 199.276 268.681 199.276C268.681 199.131 268.681 198.987 268.681 198.839C283.387 198.839 298.092 198.839 313.243 198.839C313.243 133.385 313.243 67.932 313.243 0.495229C312.81 0.278974 312.81 0.278974 312.369 0.0583496Z" fill="#BFD258"/>
<path d="M0 0.0583496C2.30673 0.0583496 4.61345 0.0583496 6.99008 0.0583496C6.55757 0.274605 6.55757 0.274605 6.11632 0.495229C6.11632 65.9486 6.11632 131.402 6.11632 198.839C4.09793 198.839 2.07955 198.839 0 198.839C0 133.241 0 67.6437 0 0.0583496Z" fill="#BED255"/>
<path d="M202.712 149.035C204.154 149.035 205.596 149.035 207.081 149.035C207.081 151.341 207.081 153.648 207.081 156.025C205.928 156.025 204.774 156.025 203.586 156.025C206.704 159.982 209.949 163.825 213.237 167.641C215.447 170.207 217.627 172.784 219.727 175.442C220.994 177.018 222.306 178.555 223.617 180.096C225.273 182.045 226.898 184.017 228.51 186.002C229.228 186.88 229.96 187.741 230.7 188.599C231.546 189.664 231.546 189.664 231.546 190.538C222.175 190.538 212.804 190.538 203.149 190.538C203.005 176.842 202.861 163.146 202.712 149.035Z" fill="#FEA046"/>
<path d="M59.4156 199.276C125.59 199.276 191.764 199.276 259.943 199.276C259.943 200.141 259.943 201.006 259.943 201.897C193.769 201.897 127.595 201.897 59.4156 201.897C59.4156 201.032 59.4156 200.167 59.4156 199.276Z" fill="#192A39"/>
<path d="M101.793 84.3763C103.235 84.3763 104.676 84.3763 106.162 84.3763C106.162 86.5389 106.162 88.7015 106.162 90.9295C105.008 90.9295 103.855 90.9295 102.667 90.9295C103.51 92.4144 104.403 93.663 105.561 94.9161C106.869 96.3597 108.129 97.8272 109.356 99.3395C112.121 102.744 114.939 106.106 117.848 109.388C122.003 114.113 122.003 114.113 123.2 116.705C123.488 116.705 123.777 116.705 124.074 116.705C124.625 117.347 124.625 117.347 125.248 118.235C126.436 119.881 127.719 121.387 129.091 122.883C129.753 123.696 129.753 123.696 130.627 125.443C121.256 125.443 111.885 125.443 102.23 125.443C102.086 111.891 101.942 98.339 101.793 84.3763Z" fill="#FEA046"/>
<path d="M234.604 219.372C243.399 219.372 252.193 219.372 261.254 219.372C261.254 219.516 261.254 219.661 261.254 219.809C257.65 219.809 254.046 219.809 250.332 219.809C250.344 220.698 250.355 221.586 250.367 222.501C250.403 225.44 250.427 228.378 250.445 231.316C250.457 233.097 250.472 234.878 250.497 236.66C250.521 238.379 250.534 240.098 250.539 241.818C250.543 242.473 250.551 243.129 250.563 243.784C250.579 244.704 250.581 245.622 250.58 246.542C250.587 247.326 250.587 247.326 250.595 248.126C250.254 249.928 249.563 250.574 248.148 251.701C246.845 251.97 246.845 251.97 245.416 251.961C244.898 251.96 244.381 251.958 243.848 251.957C243.312 251.945 242.775 251.933 242.223 251.92C241.684 251.921 241.146 251.922 240.592 251.923C236.703 251.881 236.703 251.881 235.413 251.222C234.22 249.995 234.394 249.083 234.406 247.394C234.406 247.092 234.406 246.789 234.405 246.477C234.406 245.477 234.42 244.477 234.434 243.477C234.437 242.784 234.44 242.09 234.441 241.397C234.448 239.572 234.465 237.747 234.484 235.922C234.505 233.732 234.513 231.542 234.524 229.352C234.541 226.025 234.574 222.699 234.604 219.372Z" fill="#23384D"/>
<path d="M61.1633 219.372C66.3534 219.372 71.5435 219.372 76.8909 219.372C76.9786 226.808 76.9786 226.808 76.9976 229.981C77.0107 232.145 77.0261 234.309 77.0557 236.473C77.0795 238.218 77.0925 239.963 77.0982 241.708C77.1022 242.373 77.1101 243.038 77.1219 243.703C77.1378 244.636 77.1399 245.569 77.1389 246.502C77.1462 247.298 77.1462 247.298 77.1536 248.11C76.815 249.924 76.1318 250.567 74.7065 251.701C73.4035 251.984 73.4035 251.984 71.9743 251.991C71.4571 251.994 70.9398 251.997 70.4069 252C69.8704 251.992 69.334 251.983 68.7814 251.974C67.9742 251.987 67.9742 251.987 67.1507 252C66.634 251.997 66.1173 251.994 65.585 251.991C65.1139 251.989 64.6427 251.986 64.1573 251.984C62.4622 251.6 62.0905 250.966 61.1633 249.517C60.9531 248.11 60.9531 248.11 60.9649 246.502C60.9646 246.207 60.9644 245.913 60.9641 245.61C60.9653 244.643 60.9789 243.676 60.9926 242.709C60.9959 242.037 60.9984 241.364 61.0001 240.691C61.0068 238.925 61.0239 237.159 61.0433 235.393C61.0643 233.272 61.0723 231.15 61.0825 229.029C61.0994 225.81 61.1329 222.591 61.1633 219.372Z" fill="#22374B"/>
<path d="M150.724 92.2402C152.507 92.8346 153.213 94.0668 154.301 95.5168C155.955 97.6746 157.65 99.75 159.48 101.763C160.445 102.85 161.36 103.97 162.274 105.101C163.578 106.711 164.917 108.268 166.315 109.797C167.691 111.307 168.93 112.85 170.129 114.501C170.935 115.544 171.81 116.5 172.704 117.47C178.684 124.009 178.684 124.009 178.684 125.443C169.457 125.443 160.23 125.443 150.724 125.443C150.724 114.486 150.724 103.529 150.724 92.2402Z" fill="#FEA046"/>
<path d="M101.793 83.9395C130.05 83.9395 158.308 83.9395 187.421 83.9395C187.421 84.0836 187.421 84.2278 187.421 84.3763C175.023 84.3763 162.624 84.3763 149.85 84.3763C149.85 86.5389 149.85 88.7014 149.85 90.9295C150.138 90.9295 150.426 90.9295 150.724 90.9295C150.724 102.319 150.724 113.708 150.724 125.443C165.861 125.443 180.999 125.443 196.596 125.443C196.596 114.198 196.596 102.952 196.596 91.3664C196.74 91.3664 196.884 91.3664 197.033 91.3664C197.043 95.8438 197.051 100.321 197.055 104.799C197.058 106.877 197.061 108.956 197.066 111.035C197.07 113.041 197.073 115.046 197.074 117.052C197.075 117.818 197.077 118.584 197.079 119.35C197.082 120.421 197.083 121.492 197.082 122.563C197.084 122.881 197.086 123.199 197.087 123.527C197.084 124.871 197.025 125.904 196.596 127.191C198.326 127.191 200.056 127.191 201.838 127.191C201.838 127.335 201.838 127.479 201.838 127.627C180.213 127.627 158.587 127.627 136.306 127.627C136.306 148.388 136.306 169.148 136.306 190.538C135.73 190.538 135.153 190.538 134.559 190.538C134.559 169.633 134.559 148.729 134.559 127.191C123.89 127.191 113.222 127.191 102.23 127.191C102.23 126.614 102.23 126.037 102.23 125.443C117.512 125.443 132.794 125.443 148.539 125.443C148.522 114.543 148.522 114.543 148.5 103.643C148.498 101.512 148.498 101.512 148.497 100.507C148.497 99.8206 148.495 99.1343 148.493 98.448C148.49 97.3947 148.489 96.3414 148.49 95.2881C148.488 94.994 148.486 94.6999 148.485 94.3969C148.492 91.0361 148.765 87.7519 148.976 84.3763C133.406 84.3763 117.835 84.3763 101.793 84.3763C101.793 84.2322 101.793 84.088 101.793 83.9395Z" fill="#DC4719"/>
<path d="M190.917 132.433C192.647 132.433 194.377 132.433 196.159 132.433C196.159 149.734 196.159 167.034 196.159 184.859C194.429 184.859 192.699 184.859 190.917 184.859C190.917 167.558 190.917 150.258 190.917 132.433Z" fill="#ED7427"/>
<path d="M74.2697 132.433C75.9997 132.433 77.7297 132.433 79.5122 132.433C79.5122 149.734 79.5122 167.034 79.5122 184.859C77.7822 184.859 76.0521 184.859 74.2697 184.859C74.2697 167.558 74.2697 150.258 74.2697 132.433Z" fill="#EE7528"/>
<path d="M174.752 132.433C176.338 132.433 177.924 132.433 179.558 132.433C179.558 149.734 179.558 167.034 179.558 184.859C177.972 184.859 176.386 184.859 174.752 184.859C174.752 167.558 174.752 150.258 174.752 132.433Z" fill="#EC7225"/>
<path d="M166.451 132.433C168.037 132.433 169.623 132.433 171.257 132.433C171.257 149.734 171.257 167.034 171.257 184.859C169.671 184.859 168.085 184.859 166.451 184.859C166.451 167.558 166.451 150.258 166.451 132.433Z" fill="#ED7425"/>
<path d="M158.151 132.433C159.736 132.433 161.322 132.433 162.956 132.433C162.956 149.734 162.956 167.034 162.956 184.859C161.37 184.859 159.784 184.859 158.151 184.859C158.151 167.558 158.151 150.258 158.151 132.433Z" fill="#EC7024"/>
<path d="M124.074 132.433C125.66 132.433 127.246 132.433 128.88 132.433C128.88 149.734 128.88 167.034 128.88 184.859C127.294 184.859 125.708 184.859 124.074 184.859C124.074 167.558 124.074 150.258 124.074 132.433Z" fill="#EB6F24"/>
<path d="M115.773 132.433C117.359 132.433 118.945 132.433 120.579 132.433C120.579 149.734 120.579 167.034 120.579 184.859C118.993 184.859 117.407 184.859 115.773 184.859C115.773 167.558 115.773 150.258 115.773 132.433Z" fill="#EC6F24"/>
<path d="M107.472 132.433C109.058 132.433 110.644 132.433 112.278 132.433C112.278 149.734 112.278 167.034 112.278 184.859C110.692 184.859 109.106 184.859 107.472 184.859C107.472 167.558 107.472 150.258 107.472 132.433Z" fill="#ED7325"/>
<path d="M83.0072 132.87C84.4489 132.87 85.8906 132.87 87.376 132.87C87.5202 150.026 87.6643 167.183 87.8129 184.859C86.227 184.859 84.6411 184.859 83.0072 184.859C83.0072 167.703 83.0072 150.546 83.0072 132.87Z" fill="#EC7224"/>
<path d="M183.053 132.87C184.494 132.87 185.936 132.87 187.422 132.87C187.422 150.026 187.422 167.183 187.422 184.859C185.98 184.859 184.538 184.859 183.053 184.859C183.053 167.703 183.053 150.546 183.053 132.87Z" fill="#ED7425"/>
<path d="M91.308 132.87C92.7497 132.87 94.1914 132.87 95.6768 132.87C95.6768 150.026 95.6768 167.183 95.6768 184.859C94.2351 184.859 92.7934 184.859 91.308 184.859C91.308 167.703 91.308 150.546 91.308 132.87Z" fill="#EC7324"/>
<path d="M150.287 132.87C151.728 132.87 153.17 132.87 154.656 132.87C154.656 149.882 154.656 166.894 154.656 184.422C153.214 184.422 151.772 184.422 150.287 184.422C150.287 167.41 150.287 150.398 150.287 132.87Z" fill="#ED7425"/>
<path d="M141.986 132.87C143.428 132.87 144.869 132.87 146.355 132.87C146.355 149.882 146.355 166.894 146.355 184.422C144.913 184.422 143.471 184.422 141.986 184.422C141.986 167.41 141.986 150.398 141.986 132.87Z" fill="#EC7324"/>
<path d="M99.6086 132.87C101.05 132.87 102.492 132.87 103.977 132.87C103.977 149.882 103.977 166.894 103.977 184.422C102.536 184.422 101.094 184.422 99.6086 184.422C99.6086 167.41 99.6086 150.398 99.6086 132.87Z" fill="#ED7325"/>
<path d="M212.761 149.035C221.843 149.035 230.926 149.035 240.284 149.035C240.284 151.341 240.284 153.648 240.284 156.025C231.201 156.025 222.119 156.025 212.761 156.025C212.761 153.718 212.761 151.411 212.761 149.035Z" fill="#FE9F45"/>
<path d="M159.461 84.3763C168.688 84.3763 177.915 84.3763 187.422 84.3763C187.422 86.5389 187.422 88.7015 187.422 90.9295C178.195 90.9295 168.968 90.9295 159.461 90.9295C159.461 88.767 159.461 86.6044 159.461 84.3763Z" fill="#FEA046"/>
<path d="M111.404 84.3763C120.631 84.3763 129.858 84.3763 139.365 84.3763C139.365 86.5389 139.365 88.7015 139.365 90.9295C130.138 90.9295 120.911 90.9295 111.404 90.9295C111.404 88.767 111.404 86.6044 111.404 84.3763Z" fill="#FEA046"/>
<path d="M101.793 83.9395C130.05 83.9395 158.308 83.9395 187.421 83.9395C187.421 84.0836 187.421 84.2278 187.421 84.3763C175.023 84.3763 162.624 84.3763 149.85 84.3763C149.85 86.5389 149.85 88.7014 149.85 90.9295C150.138 90.9295 150.426 90.9295 150.724 90.9295C150.724 102.319 150.724 113.708 150.724 125.443C165.861 125.443 180.999 125.443 196.596 125.443C196.596 114.198 196.596 102.952 196.596 91.3664C196.74 91.3664 196.884 91.3664 197.033 91.3664C197.033 102.756 197.033 114.145 197.033 125.88C185.437 125.897 185.437 125.897 180.501 125.901C177.131 125.904 173.761 125.907 170.391 125.913C167.674 125.918 164.958 125.92 162.241 125.921C161.204 125.922 160.166 125.924 159.129 125.926C157.678 125.929 156.227 125.93 154.776 125.93C154.345 125.931 153.915 125.933 153.471 125.934C153.075 125.934 152.679 125.933 152.271 125.932C151.928 125.933 151.585 125.933 151.232 125.934C150.283 125.88 149.451 125.705 148.539 125.443C148.529 121.121 148.521 116.798 148.516 112.476C148.514 110.468 148.511 108.461 148.506 106.453C148.501 104.51 148.499 102.566 148.498 100.623C148.497 99.8875 148.495 99.1519 148.493 98.4163C148.49 97.3736 148.489 96.3308 148.49 95.2881C148.488 94.9946 148.486 94.7011 148.485 94.3987C148.492 91.0372 148.765 87.7525 148.976 84.3763C133.406 84.3763 117.835 84.3763 101.793 84.3763C101.793 84.2322 101.793 84.088 101.793 83.9395Z" fill="#B36837"/>
<path d="M82.5704 131.996C94.803 131.996 94.803 131.996 96.1136 132.433C96.1136 149.589 96.1136 166.746 96.1136 184.422C97.1228 184.422 98.132 184.422 99.1718 184.422C99.1718 167.266 99.1718 150.109 99.1718 132.433C100.758 132.433 102.344 132.433 103.977 132.433C103.977 132.577 103.977 132.722 103.977 132.87C102.536 132.87 101.094 132.87 99.6087 132.87C99.6087 149.882 99.6087 166.894 99.6087 184.422C101.05 184.422 102.492 184.422 103.977 184.422C103.977 184.566 103.977 184.71 103.977 184.859C101.238 184.859 98.499 184.859 95.6768 184.859C95.6768 167.703 95.6768 150.546 95.6768 132.87C94.2351 132.87 92.7934 132.87 91.308 132.87C91.308 150.026 91.308 167.183 91.308 184.859C90.1546 184.859 89.0012 184.859 87.8129 184.859C87.8129 184.715 87.8129 184.57 87.8129 184.422C88.8221 184.422 89.8313 184.422 90.8711 184.422C90.8711 167.41 90.8711 150.398 90.8711 132.87C89.8619 132.87 88.8527 132.87 87.8129 132.87C87.8129 149.594 87.8129 166.318 87.8129 183.548C87.6688 183.548 87.5246 183.548 87.376 183.548C87.376 166.824 87.376 150.101 87.376 132.87C85.9343 132.87 84.4926 132.87 83.0072 132.87C83.0072 150.026 83.0072 167.183 83.0072 184.859C81.8539 184.859 80.7005 184.859 79.5122 184.859C79.5122 184.715 79.5122 184.57 79.5122 184.422C80.5214 184.422 81.5306 184.422 82.5704 184.422C82.5704 167.121 82.5704 149.821 82.5704 131.996Z" fill="#F48034"/>
<path d="M144.267 131.935C144.744 131.937 144.744 131.937 145.232 131.938C145.721 131.938 145.721 131.938 146.22 131.937C146.911 131.937 147.602 131.937 148.293 131.939C149.351 131.942 150.408 131.939 151.466 131.936C152.137 131.937 152.807 131.937 153.478 131.938C153.795 131.937 154.112 131.936 154.438 131.935C155.795 131.942 156.853 132.001 158.151 132.433C158.151 149.157 158.151 165.881 158.151 183.111C158.006 183.111 157.862 183.111 157.714 183.111C157.714 166.532 157.714 149.952 157.714 132.87C156.849 132.87 155.984 132.87 155.092 132.87C155.092 149.882 155.092 166.894 155.092 184.422C156.102 184.422 157.111 184.422 158.151 184.422C158.151 184.566 158.151 184.71 158.151 184.859C155.411 184.859 152.672 184.859 149.85 184.859C149.85 167.702 149.85 150.546 149.85 132.87C148.841 132.87 147.831 132.87 146.792 132.87C146.792 134.167 146.792 135.465 146.792 136.802C146.647 136.802 146.503 136.802 146.355 136.802C146.355 135.504 146.355 134.207 146.355 132.87C144.913 132.87 143.471 132.87 141.986 132.87C141.986 149.882 141.986 166.894 141.986 184.422C143.428 184.422 144.869 184.422 146.355 184.422C146.355 184.566 146.355 184.71 146.355 184.859C144.769 184.859 143.183 184.859 141.549 184.859C141.539 178.031 141.531 171.203 141.526 164.375C141.524 161.205 141.521 158.035 141.516 154.865C141.512 152.103 141.509 149.34 141.508 146.578C141.507 145.115 141.506 143.652 141.503 142.188C141.5 140.557 141.499 138.926 141.5 137.295C141.498 136.807 141.496 136.318 141.495 135.814C141.495 135.373 141.496 134.931 141.497 134.476C141.496 134.09 141.496 133.703 141.495 133.306C141.605 131.524 142.751 131.943 144.267 131.935ZM150.287 132.87C150.287 149.882 150.287 166.894 150.287 184.422C151.728 184.422 153.17 184.422 154.656 184.422C154.656 167.41 154.656 150.398 154.656 132.87C153.214 132.87 151.772 132.87 150.287 132.87Z" fill="#F58437"/>
<path d="M166.451 132.433C168.037 132.433 169.623 132.433 171.257 132.433C171.257 133.875 171.257 135.317 171.257 136.802C170.248 136.802 169.239 136.802 168.199 136.802C168.199 152.228 168.199 167.654 168.199 183.548C169.208 183.548 170.217 183.548 171.257 183.548C171.257 183.981 171.257 184.413 171.257 184.859C169.671 184.859 168.085 184.859 166.451 184.859C166.451 167.558 166.451 150.258 166.451 132.433Z" fill="#E14B19"/>
<path d="M107.472 132.433C109.058 132.433 110.644 132.433 112.278 132.433C112.278 133.875 112.278 135.317 112.278 136.802C111.269 136.802 110.26 136.802 109.22 136.802C109.22 152.228 109.22 167.654 109.22 183.548C110.229 183.548 111.238 183.548 112.278 183.548C112.278 183.981 112.278 184.413 112.278 184.859C110.692 184.859 109.106 184.859 107.472 184.859C107.472 167.558 107.472 150.258 107.472 132.433Z" fill="#E14C19"/>
<path d="M313.243 0.495361C313.243 65.9487 313.243 131.402 313.243 198.839C313.099 198.839 312.955 198.839 312.806 198.839C312.662 133.674 312.518 68.5088 312.369 1.36912C312.081 1.65746 311.792 1.9458 311.495 2.24288C311.063 1.95454 310.63 1.6662 310.185 1.36912C311.495 0.495361 311.495 0.495361 313.243 0.495361Z" fill="#8FA036"/>
<path d="M83.0072 132.87C84.4489 132.87 85.8906 132.87 87.376 132.87C87.376 134.168 87.376 135.465 87.376 136.802C86.3668 136.802 85.3576 136.802 84.3178 136.802C84.3178 152.228 84.3178 167.654 84.3178 183.548C85.4712 183.548 86.6246 183.548 87.8129 183.548C87.8129 183.981 87.8129 184.413 87.8129 184.859C86.227 184.859 84.6411 184.859 83.0072 184.859C83.0072 167.703 83.0072 150.546 83.0072 132.87Z" fill="#E3521D"/>
<path d="M74.7065 132.87C76.1482 132.87 77.5899 132.87 79.0753 132.87C79.0753 134.168 79.0753 135.465 79.0753 136.802C78.0661 136.802 77.057 136.802 76.0172 136.802C76.0172 152.228 76.0172 167.654 76.0172 183.548C77.1705 183.548 78.3239 183.548 79.5122 183.548C79.5122 183.981 79.5122 184.413 79.5122 184.859C77.9263 184.859 76.3405 184.859 74.7065 184.859C74.7065 167.703 74.7065 150.546 74.7065 132.87Z" fill="#DE4316"/>
<path d="M183.053 132.87C184.494 132.87 185.936 132.87 187.422 132.87C187.422 134.168 187.422 135.465 187.422 136.802C186.412 136.802 185.403 136.802 184.363 136.802C184.363 152.228 184.363 167.654 184.363 183.548C185.373 183.548 186.382 183.548 187.422 183.548C187.422 183.981 187.422 184.413 187.422 184.859C185.98 184.859 184.538 184.859 183.053 184.859C183.053 167.703 183.053 150.546 183.053 132.87Z" fill="#DE4215"/>
<path d="M91.308 132.87C92.7497 132.87 94.1914 132.87 95.6768 132.87C95.6768 134.168 95.6768 135.465 95.6768 136.802C94.6676 136.802 93.6584 136.802 92.6186 136.802C92.6186 152.228 92.6186 167.654 92.6186 183.548C93.6278 183.548 94.637 183.548 95.6768 183.548C95.6768 183.981 95.6768 184.413 95.6768 184.859C94.2351 184.859 92.7934 184.859 91.308 184.859C91.308 167.703 91.308 150.546 91.308 132.87Z" fill="#DE4215"/>
<path d="M191.353 132.87C192.795 132.87 194.237 132.87 195.722 132.87C195.722 134.168 195.722 135.465 195.722 136.802C194.713 136.802 193.704 136.802 192.664 136.802C192.664 152.228 192.664 167.654 192.664 183.548C193.673 183.548 194.682 183.548 195.722 183.548C195.722 183.837 195.722 184.125 195.722 184.422C194.28 184.422 192.839 184.422 191.353 184.422C191.353 167.41 191.353 150.398 191.353 132.87Z" fill="#DE4316"/>
<path d="M141.986 132.87C143.428 132.87 144.869 132.87 146.355 132.87C146.355 134.168 146.355 135.465 146.355 136.802C145.346 136.802 144.336 136.802 143.297 136.802C143.297 152.228 143.297 167.654 143.297 183.548C144.306 183.548 145.315 183.548 146.355 183.548C146.355 183.837 146.355 184.125 146.355 184.422C144.913 184.422 143.471 184.422 141.986 184.422C141.986 167.41 141.986 150.398 141.986 132.87Z" fill="#DE4114"/>
<path d="M174.752 132.87C176.194 132.87 177.635 132.87 179.121 132.87C179.121 134.168 179.121 135.465 179.121 136.802C178.112 136.802 177.102 136.802 176.063 136.802C176.063 152.228 176.063 167.654 176.063 183.548C177.072 183.548 178.081 183.548 179.121 183.548C179.121 183.837 179.121 184.125 179.121 184.422C177.679 184.422 176.237 184.422 174.752 184.422C174.752 167.41 174.752 150.398 174.752 132.87Z" fill="#DD3F13"/>
<path d="M150.287 132.87C151.728 132.87 153.17 132.87 154.656 132.87C154.656 134.168 154.656 135.465 154.656 136.802C153.646 136.802 152.637 136.802 151.597 136.802C151.597 152.228 151.597 167.654 151.597 183.548C152.607 183.548 153.616 183.548 154.656 183.548C154.656 183.837 154.656 184.125 154.656 184.422C153.214 184.422 151.772 184.422 150.287 184.422C150.287 167.41 150.287 150.398 150.287 132.87Z" fill="#DE4315"/>
<path d="M99.6086 132.87C101.05 132.87 102.492 132.87 103.977 132.87C103.977 134.168 103.977 135.465 103.977 136.802C102.968 136.802 101.959 136.802 100.919 136.802C100.919 152.228 100.919 167.654 100.919 183.548C101.928 183.548 102.938 183.548 103.977 183.548C103.977 183.837 103.977 184.125 103.977 184.422C102.536 184.422 101.094 184.422 99.6086 184.422C99.6086 167.41 99.6086 150.398 99.6086 132.87Z" fill="#DE4115"/>
<path d="M158.587 132.87C160.029 132.87 161.471 132.87 162.956 132.87C162.956 134.168 162.956 135.465 162.956 136.802C161.803 136.802 160.649 136.802 159.461 136.802C159.461 152.372 159.461 167.943 159.461 183.985C160.47 183.985 161.48 183.985 162.519 183.985C162.519 184.129 162.519 184.273 162.519 184.422C161.222 184.422 159.924 184.422 158.587 184.422C158.587 167.41 158.587 150.398 158.587 132.87Z" fill="#DD3F13"/>
<path d="M124.511 132.87C125.808 132.87 127.106 132.87 128.443 132.87C128.443 134.168 128.443 135.465 128.443 136.802C127.434 136.802 126.424 136.802 125.385 136.802C125.385 152.228 125.385 167.654 125.385 183.548C126.394 183.548 127.403 183.548 128.443 183.548C128.443 183.837 128.443 184.125 128.443 184.422C127.145 184.422 125.848 184.422 124.511 184.422C124.511 167.41 124.511 150.398 124.511 132.87Z" fill="#DD3E14"/>
<path d="M116.21 132.87C117.508 132.87 118.805 132.87 120.142 132.87C120.142 134.168 120.142 135.465 120.142 136.802C119.133 136.802 118.124 136.802 117.084 136.802C117.084 152.228 117.084 167.654 117.084 183.548C118.093 183.548 119.102 183.548 120.142 183.548C120.142 183.837 120.142 184.125 120.142 184.422C118.844 184.422 117.547 184.422 116.21 184.422C116.21 167.41 116.21 150.398 116.21 132.87Z" fill="#DD3E14"/>
<path d="M148.539 91.3665C149.116 91.3665 149.693 91.3665 150.287 91.3665C150.287 102.612 150.287 113.857 150.287 125.443C149.71 125.443 149.133 125.443 148.539 125.443C148.539 114.198 148.539 102.953 148.539 91.3665Z" fill="#3A3939"/>
<path d="M202.712 149.035C204.154 149.035 205.596 149.035 207.081 149.035C207.081 151.341 207.081 153.648 207.081 156.025C205.928 156.025 204.774 156.025 203.586 156.025C203.586 167.27 203.586 178.515 203.586 190.101C212.813 190.101 222.04 190.101 231.546 190.101C231.546 190.245 231.546 190.39 231.546 190.538C222.175 190.538 212.804 190.538 203.149 190.538C203.005 176.842 202.861 163.146 202.712 149.035Z" fill="#EB9646"/>
<path d="M82.5704 131.996C86.6071 131.996 90.6439 131.996 94.803 131.996C94.803 132.141 94.803 132.285 94.803 132.433C91.3429 132.649 91.3429 132.649 87.8129 132.87C87.8129 149.594 87.8129 166.318 87.8129 183.548C87.6688 183.548 87.5246 183.548 87.376 183.548C87.376 166.824 87.376 150.101 87.376 132.87C85.9343 132.87 84.4926 132.87 83.0072 132.87C83.0072 150.026 83.0072 167.183 83.0072 184.859C81.8539 184.859 80.7005 184.859 79.5122 184.859C79.5122 184.715 79.5122 184.57 79.5122 184.422C80.5214 184.422 81.5306 184.422 82.5704 184.422C82.5704 167.121 82.5704 149.821 82.5704 131.996Z" fill="#F78C39"/>
<path d="M187.421 83.9395C189.151 83.9395 190.881 83.9395 192.664 83.9395C192.664 87.1112 192.664 90.2829 192.664 93.5508C190.934 93.5508 189.204 93.5508 187.421 93.5508C187.421 90.3791 187.421 87.2073 187.421 83.9395Z" fill="#DB4015"/>
<path d="M240.284 149.035C242.014 149.035 243.744 149.035 245.526 149.035C245.526 152.206 245.526 155.378 245.526 158.646C243.796 158.646 242.066 158.646 240.284 158.646C240.284 155.474 240.284 152.302 240.284 149.035Z" fill="#DD4014"/>
<path d="M207.081 149.035C208.811 149.035 210.541 149.035 212.324 149.035C212.324 152.062 212.324 155.09 212.324 158.209C211.603 158.209 210.882 158.209 210.139 158.209C209.707 158.353 209.274 158.497 208.829 158.646C208.252 158.646 207.675 158.646 207.081 158.646C207.081 155.474 207.081 152.302 207.081 149.035Z" fill="#DE4114"/>
<path d="M154.219 84.3763C155.949 84.3763 157.679 84.3763 159.461 84.3763C159.461 87.4039 159.461 90.4315 159.461 93.5508C157.731 93.5508 156.001 93.5508 154.219 93.5508C154.219 90.5232 154.219 87.4957 154.219 84.3763Z" fill="#DE4215"/>
<path d="M139.365 84.3763C141.095 84.3763 142.825 84.3763 144.607 84.3763C144.607 87.4039 144.607 90.4315 144.607 93.5508C142.877 93.5508 141.147 93.5508 139.365 93.5508C139.365 90.5232 139.365 87.4957 139.365 84.3763Z" fill="#DD3F13"/>
<path d="M101.793 84.3763C103.235 84.3763 104.676 84.3763 106.162 84.3763C106.162 86.5389 106.162 88.7015 106.162 90.9295C105.008 90.9295 103.855 90.9295 102.667 90.9295C102.667 102.319 102.667 113.708 102.667 125.443C102.523 125.443 102.378 125.443 102.23 125.443C102.086 111.891 101.942 98.339 101.793 84.3763Z" fill="#F09846"/>
<path d="M106.162 84.3763C107.748 84.3763 109.333 84.3763 110.967 84.3763C110.967 87.2597 110.967 90.1432 110.967 93.1139C109.382 93.2581 107.796 93.4023 106.162 93.5508C106.162 90.5232 106.162 87.4957 106.162 84.3763Z" fill="#DD4014"/>
<path d="M83.444 132.87C84.7415 132.87 86.039 132.87 87.3759 132.87C87.3759 134.168 87.3759 135.465 87.3759 136.802C86.2225 136.802 85.0692 136.802 83.8808 136.802C83.8808 152.228 83.8808 167.654 83.8808 183.548C83.7367 183.548 83.5925 183.548 83.444 183.548C83.444 166.824 83.444 150.101 83.444 132.87Z" fill="#DD3E14"/>
<path d="M165.931 131.536C167.033 131.585 168.135 131.637 169.236 131.696C169.619 131.712 170.002 131.727 170.397 131.743C170.765 131.762 171.133 131.781 171.513 131.8C172.02 131.825 172.02 131.825 172.537 131.85C173.441 131.996 173.441 131.996 174.752 132.87C171.004 132.87 167.255 132.87 163.393 132.87C163.393 149.882 163.393 166.894 163.393 184.422C164.402 184.422 165.411 184.422 166.451 184.422C166.451 184.566 166.451 184.71 166.451 184.859C165.298 184.859 164.145 184.859 162.956 184.859C162.956 167.558 162.956 150.258 162.956 132.433C161.37 132.433 159.784 132.433 158.151 132.433C158.151 132.289 158.151 132.145 158.151 131.996C158.619 132.001 159.086 132.007 159.569 132.012C160.179 132.016 160.789 132.02 161.4 132.024C161.709 132.027 162.018 132.031 162.336 132.035C163.125 132.039 163.915 132.019 164.704 131.996C165.141 131.559 165.141 131.559 165.931 131.536Z" fill="#FB9540"/>
<path d="M245.526 149.035C246.968 149.035 248.41 149.035 249.895 149.035C249.895 151.197 249.895 153.36 249.895 155.588C248.454 155.588 247.012 155.588 245.526 155.588C245.526 153.425 245.526 151.263 245.526 149.035Z" fill="#FEA046"/>
<path d="M192.664 84.3763C194.106 84.3763 195.547 84.3763 197.033 84.3763C197.033 86.5389 197.033 88.7015 197.033 90.9295C195.591 90.9295 194.149 90.9295 192.664 90.9295C192.664 88.767 192.664 86.6044 192.664 84.3763Z" fill="#FE9E45"/>
<path d="M149.85 84.3763C151.292 84.3763 152.733 84.3763 154.219 84.3763C154.219 86.5389 154.219 88.7015 154.219 90.9295C152.777 90.9295 151.335 90.9295 149.85 90.9295C149.85 88.767 149.85 86.6044 149.85 84.3763Z" fill="#FE9F45"/>
<path d="M144.607 84.3763C146.049 84.3763 147.491 84.3763 148.976 84.3763C148.976 86.5389 148.976 88.7015 148.976 90.9295C147.534 90.9295 146.093 90.9295 144.607 90.9295C144.607 88.767 144.607 86.6044 144.607 84.3763Z" fill="#FD9E45"/>
<path d="M83.8808 136.802C84.025 136.802 84.1692 136.802 84.3177 136.802C84.3177 152.228 84.3177 167.654 84.3177 183.548C85.3269 183.548 86.3361 183.548 87.3759 183.548C87.3759 183.836 87.3759 184.125 87.3759 184.422C86.0784 184.422 84.7808 184.422 83.444 184.422C83.5881 168.707 83.7323 152.993 83.8808 136.802Z" fill="#E14A16"/>
</svg>
