<svg width="101" height="40" viewBox="0 0 101 40" fill="none" xmlns="http://www.w3.org/2000/svg">
<path d="M49.1572 0.000854981C49.3091 0.000646035 49.461 0.00043709 49.6175 0.000221813C49.7768 0.000848649 49.9361 0.00147549 50.1003 0.00212132C50.2595 0.00149448 50.4188 0.000867645 50.583 0.000221813C50.7349 0.000430759 50.8868 0.000639704 51.0433 0.000854981C51.1831 0.00103781 51.3229 0.00122064 51.467 0.001409C51.807 0.0223827 51.807 0.0223827 52.0801 0.184474C52.113 0.339345 52.113 0.339345 52.1111 0.530223C52.1111 0.601605 52.1111 0.672987 52.1111 0.746532C52.1097 0.823697 52.1083 0.900863 52.1068 0.980366C52.1062 1.09875 52.1062 1.09875 52.1056 1.21952C52.1041 1.47223 52.1007 1.72491 52.0972 1.97761C52.0958 2.14867 52.0946 2.31973 52.0935 2.49079C52.0905 2.91069 52.0859 3.33058 52.0801 3.75048C52.3955 3.75048 52.711 3.75048 53.0359 3.75048C53.0359 3.8842 53.0359 4.01793 53.0359 4.15571C66.8692 4.15571 80.7024 4.15571 94.9548 4.15571C94.9548 3.99524 94.9548 3.83476 94.9548 3.66943C95.3153 3.66943 95.6758 3.66943 96.0472 3.66943C96.045 3.51235 96.045 3.51235 96.0428 3.3521C96.0379 2.96453 96.0348 2.57697 96.0322 2.1894C96.0308 2.02148 96.0289 1.85356 96.0266 1.68564C96.0233 1.44463 96.0217 1.20365 96.0205 0.962638C96.0191 0.887245 96.0177 0.811852 96.0162 0.734175C96.0162 0.629536 96.0162 0.629536 96.0162 0.522784C96.0156 0.461234 96.0149 0.399684 96.0143 0.336268C96.0472 0.184474 96.0472 0.184474 96.3203 0.0223827C96.675 0.00269513 96.675 0.00269513 97.1187 0.00370424C97.2774 0.00386095 97.4361 0.00401766 97.5995 0.00417911C97.766 0.00517161 97.9324 0.0061641 98.1039 0.00718666C98.3543 0.00726502 98.3543 0.00726502 98.6098 0.00734496C99.8513 0.0110274 99.8513 0.0110274 100.007 0.103428C100.021 0.314113 100.025 0.522648 100.024 0.733376C100.024 0.800495 100.025 0.867613 100.025 0.936766C100.025 1.1646 100.025 1.39243 100.024 1.62026C100.024 1.78408 100.025 1.9479 100.025 2.11171C100.025 2.56416 100.025 3.0166 100.025 3.46904C100.024 3.9561 100.025 4.44315 100.025 4.9302C100.026 5.82995 100.026 6.72971 100.025 7.62946C100.025 8.46054 100.025 9.29162 100.025 10.1227C100.025 10.2053 100.025 10.2053 100.025 10.2895C100.025 10.5129 100.025 10.7363 100.025 10.9597C100.026 13.057 100.025 15.1544 100.025 17.2518C100.024 19.1169 100.024 20.982 100.025 22.8472C100.025 24.9406 100.026 27.034 100.025 29.1275C100.025 29.3505 100.025 29.5735 100.025 29.7965C100.025 29.8514 100.025 29.9063 100.025 29.9629C100.025 30.7936 100.025 31.6244 100.026 32.4551C100.026 33.3993 100.026 34.3435 100.025 35.2877C100.025 35.7699 100.025 36.2522 100.025 36.7344C100.025 37.1751 100.025 37.6158 100.024 38.0565C100.024 38.2167 100.024 38.3769 100.025 38.5371C100.025 38.7533 100.025 38.9696 100.024 39.1858C100.024 39.2493 100.025 39.3128 100.025 39.3782C100.023 39.8065 100.023 39.8065 99.8704 39.8968C99.609 39.9049 99.347 39.9074 99.0853 39.9076C98.9261 39.9077 98.767 39.9078 98.6031 39.9079C98.4355 39.9076 98.268 39.9072 98.0953 39.9069C97.9278 39.9072 97.7602 39.9076 97.5875 39.9079C97.3489 39.9077 97.3489 39.9077 97.1054 39.9076C96.9582 39.9075 96.8111 39.9074 96.6595 39.9073C96.3203 39.8968 96.3203 39.8968 96.1837 39.8157C96.1719 39.6892 96.1691 39.5623 96.1704 39.4355C96.1707 39.3666 96.1711 39.2977 96.1714 39.2267C96.1733 39.0945 96.1733 39.0945 96.1752 38.9597C96.178 38.6806 96.1808 38.4014 96.1837 38.1138C94.9221 38.1138 93.6604 38.1138 92.3605 38.1138C92.3605 37.9801 92.3605 37.8463 92.3605 37.7086C80.2846 37.7086 68.2087 37.7086 55.7668 37.7086C55.7668 37.8423 55.7668 37.976 55.7668 38.1138C54.5502 38.1138 53.3336 38.1138 52.0801 38.1138C52.0855 38.6703 52.0855 38.6703 52.0924 39.2267C52.0929 39.3301 52.0929 39.3301 52.0935 39.4355C52.0945 39.5418 52.0945 39.5418 52.0956 39.6503C52.0801 39.8157 52.0801 39.8157 51.9436 39.8968C51.6722 39.9049 51.4003 39.9074 51.1286 39.9076C50.9633 39.9077 50.798 39.9078 50.6278 39.9079C50.4537 39.9076 50.2796 39.9072 50.1003 39.9069C49.9262 39.9072 49.7521 39.9076 49.5727 39.9079C49.3248 39.9077 49.3248 39.9077 49.0719 39.9076C48.919 39.9075 48.7662 39.9074 48.6087 39.9073C48.2569 39.8968 48.2569 39.8968 48.1204 39.8157C48.1085 39.6951 48.1058 39.5741 48.107 39.4533C48.1074 39.3876 48.1077 39.322 48.1081 39.2544C48.1099 39.1286 48.1099 39.1286 48.1118 39.0002C48.1147 38.7344 48.1175 38.4687 48.1204 38.1948C46.9038 38.1948 45.6872 38.1948 44.4337 38.1948C44.4337 38.0611 44.4337 37.9274 44.4337 37.7896C32.3578 37.7896 20.2819 37.7896 7.84002 37.7896C7.84002 37.9233 7.84002 38.0571 7.84002 38.1948C6.62341 38.1948 5.40681 38.1948 4.15334 38.1948C4.16414 38.721 4.16414 38.721 4.17794 39.2471C4.17863 39.3125 4.17931 39.3779 4.18001 39.4453C4.18144 39.5124 4.18287 39.5795 4.18434 39.6486C4.15334 39.8157 4.15334 39.8157 3.88025 39.9778C3.54023 39.9988 3.54023 39.9988 3.11646 39.9994C2.96456 39.9996 2.81266 39.9998 2.65616 40C2.49687 39.9994 2.33758 39.9987 2.17346 39.9981C1.93452 39.999 1.93452 39.999 1.69076 40C1.53886 39.9998 1.38696 39.9996 1.23046 39.9994C1.09061 39.9992 0.95077 39.999 0.80669 39.9988C0.466665 39.9778 0.466665 39.9778 0.193578 39.8157C0.166773 39.6001 0.157273 39.3929 0.159592 39.1771C0.159236 39.11 0.158884 39.0429 0.158517 38.9738C0.15765 38.7466 0.158744 38.5194 0.159817 38.2922C0.1596 38.1287 0.159267 37.9651 0.158821 37.8016C0.157941 37.3502 0.158775 36.8989 0.159879 36.4476C0.160774 35.9616 0.160101 35.4756 0.159621 34.9896C0.159011 34.1469 0.159409 33.3042 0.160529 32.4615C0.161704 31.5774 0.162376 30.6933 0.16235 29.8092C0.162349 29.7543 0.162347 29.6994 0.162346 29.6428C0.162341 29.4199 0.162335 29.197 0.162321 28.9741C0.162197 26.8815 0.163555 24.7889 0.165655 22.6963C0.167515 20.8355 0.168368 18.9748 0.168276 17.114C0.16827 16.9945 0.168265 16.875 0.168259 16.7555C0.168256 16.6965 0.168254 16.6374 0.168251 16.5765C0.168237 16.2792 0.168224 15.9819 0.168213 15.6846C0.168211 15.6259 0.168207 15.5673 0.168205 15.5068C0.168155 13.9538 0.168778 12.4007 0.169626 10.8476C0.169656 10.7924 0.169682 10.7372 0.169713 10.6803C0.169835 10.4582 0.169959 10.2362 0.170084 10.0141C0.170516 9.24029 0.17072 8.46646 0.17078 7.69263C0.170862 6.69567 0.17142 5.69871 0.172751 4.70175C0.173384 4.22064 0.173797 3.73954 0.173626 3.25844C0.173478 2.81878 0.173951 2.37913 0.174943 1.93947C0.175192 1.77968 0.175208 1.61988 0.174976 1.46008C0.174697 1.24436 0.175243 1.02865 0.176014 0.81293C0.175733 0.749607 0.175453 0.686284 0.175164 0.621042C0.177991 0.193726 0.177991 0.193726 0.330121 0.103428C0.601511 0.0953374 0.873384 0.0928269 1.14512 0.0926644C1.31039 0.0925599 1.47567 0.0924554 1.64595 0.0923478C1.82003 0.0926612 1.99411 0.0929746 2.17346 0.0932976C2.43458 0.0928274 2.43458 0.0928274 2.70097 0.0923478C2.94888 0.0925045 2.94888 0.0925045 3.2018 0.0926644C3.35467 0.0927558 3.50754 0.0928472 3.66504 0.0929414C4.0168 0.103428 4.0168 0.103428 4.15334 0.184474C4.16601 0.296446 4.16938 0.408798 4.16884 0.521023C4.16883 0.592411 4.16882 0.663798 4.16881 0.73735C4.16811 0.814933 4.1674 0.892517 4.16668 0.972452C4.16648 1.05149 4.16629 1.13052 4.16609 1.21196C4.16532 1.46549 4.16361 1.71901 4.16188 1.97254C4.16119 2.14397 4.16057 2.3154 4.16001 2.48683C4.1585 2.90805 4.15621 3.32926 4.15334 3.75048C4.51382 3.75048 4.87429 3.75048 5.24569 3.75048C5.24569 3.8842 5.24569 4.01793 5.24569 4.15571C19.0339 4.15571 32.822 4.15571 47.028 4.15571C47.028 4.02198 47.028 3.88826 47.028 3.75048C47.3885 3.75048 47.749 3.75048 48.1204 3.75048C48.1198 3.70616 48.1192 3.66185 48.1185 3.61619C48.1125 3.15607 48.1084 2.69595 48.1054 2.23582C48.104 2.06397 48.1021 1.89211 48.0998 1.72026C48.0965 1.47363 48.0949 1.22701 48.0937 0.980366C48.0923 0.903201 48.0909 0.826036 48.0894 0.746532C48.0894 0.67515 48.0894 0.603768 48.0894 0.530223C48.0888 0.467234 48.0882 0.404244 48.0875 0.339345C48.1674 -0.0374384 48.6341 0.00153888 49.1572 0.000854981Z" fill="#20354A"/>
<path d="M7.84 27.3347C19.9159 27.3347 31.9918 27.3347 44.4337 27.3347C44.4337 27.4684 44.4337 27.6022 44.4337 27.7399C45.6503 27.7399 46.8669 27.7399 48.1203 27.7399C48.1203 30.1737 48.1203 32.6075 48.1203 35.1151C47.8049 35.1151 47.4895 35.1151 47.1645 35.1151C47.1645 35.2488 47.1645 35.3825 47.1645 35.5203C33.3313 35.5203 19.4981 35.5203 5.24567 35.5203C5.24567 35.3866 5.24567 35.2529 5.24567 35.1151C4.88519 35.1151 4.52472 35.1151 4.15332 35.1151C4.15332 32.6813 4.15332 30.2475 4.15332 27.7399C5.36992 27.7399 6.58653 27.7399 7.84 27.7399C7.84 27.6062 7.84 27.4725 7.84 27.3347Z" fill="#F2F3F5"/>
<path d="M7.84 16.8799C19.9159 16.8799 31.9918 16.8799 44.4337 16.8799C44.4337 17.0136 44.4337 17.1473 44.4337 17.2851C45.6503 17.2851 46.8669 17.2851 48.1203 17.2851C48.1203 19.7189 48.1203 22.1527 48.1203 24.6603C47.7599 24.6603 47.3994 24.6603 47.028 24.6603C47.028 24.794 47.028 24.9277 47.028 25.0655C33.1948 25.0655 19.3615 25.0655 5.10913 25.0655C5.10913 24.9318 5.10913 24.798 5.10913 24.6603C4.79371 24.6603 4.47829 24.6603 4.15332 24.6603C4.15332 22.2265 4.15332 19.7927 4.15332 17.2851C5.36992 17.2851 6.58653 17.2851 7.84 17.2851C7.84 17.1514 7.84 17.0177 7.84 16.8799Z" fill="#FEA047"/>
<path d="M55.7668 6.42505C67.8427 6.42505 79.9186 6.42505 92.3604 6.42505C92.3604 6.55877 92.3604 6.6925 92.3604 6.83028C93.577 6.83028 94.7936 6.83028 96.0471 6.83028C96.0471 9.26407 96.0471 11.6979 96.0471 14.2054C95.7317 14.2054 95.4163 14.2054 95.0913 14.2054C95.0913 14.3391 95.0913 14.4729 95.0913 14.6106C81.213 14.6106 67.3347 14.6106 53.0359 14.6106C53.0359 14.4502 53.0359 14.2897 53.0359 14.1244C52.7205 14.1244 52.4051 14.1244 52.0801 14.1244C52.0801 11.7173 52.0801 9.31027 52.0801 6.83028C53.2967 6.83028 54.5133 6.83028 55.7668 6.83028C55.7668 6.69655 55.7668 6.56283 55.7668 6.42505Z" fill="#ED7425"/>
<path d="M55.9033 16.8799C67.9342 16.8799 79.965 16.8799 92.3604 16.8799C92.3604 17.0136 92.3604 17.1473 92.3604 17.2851C93.577 17.2851 94.7936 17.2851 96.0471 17.2851C96.0471 19.6922 96.0471 22.0992 96.0471 24.5792C95.6866 24.5792 95.3262 24.5792 94.9548 24.5792C94.9548 24.7397 94.9548 24.9002 94.9548 25.0655C81.1215 25.0655 67.2883 25.0655 53.0359 25.0655C53.0359 24.905 53.0359 24.7445 53.0359 24.5792C52.7205 24.5792 52.4051 24.5792 52.0801 24.5792C52.0801 22.1722 52.0801 19.7651 52.0801 17.2851C53.3417 17.2851 54.6034 17.2851 55.9033 17.2851C55.9033 17.1514 55.9033 17.0177 55.9033 16.8799Z" fill="#EC7527"/>
<path d="M55.7668 27.2537C67.8427 27.2537 79.9186 27.2537 92.3604 27.2537C92.3604 27.4141 92.3604 27.5746 92.3604 27.7399C93.577 27.7399 94.7936 27.7399 96.0471 27.7399C96.0471 30.147 96.0471 32.554 96.0471 35.034C95.6866 35.034 95.3262 35.034 94.9548 35.034C94.9548 35.1678 94.9548 35.3015 94.9548 35.4393C81.1666 35.4393 67.3784 35.4393 53.1724 35.4393C53.1724 35.3055 53.1724 35.1718 53.1724 35.034C52.812 35.034 52.4515 35.034 52.0801 35.034C52.0801 32.6002 52.0801 30.1664 52.0801 27.6589C53.2967 27.6589 54.5133 27.6589 55.7668 27.6589C55.7668 27.5252 55.7668 27.3914 55.7668 27.2537Z" fill="#FEA147"/>
<path d="M7.84 6.42505C19.9159 6.42505 31.9918 6.42505 44.4337 6.42505C44.4337 6.55877 44.4337 6.6925 44.4337 6.83028C45.6503 6.83028 46.8669 6.83028 48.1203 6.83028C48.1203 9.26407 48.1203 11.6979 48.1203 14.2054C47.7599 14.2054 47.3994 14.2054 47.028 14.2054C47.028 14.3391 47.028 14.4729 47.028 14.6106C33.2398 14.6106 19.4517 14.6106 5.24567 14.6106C5.24567 14.4769 5.24567 14.3432 5.24567 14.2054C4.88519 14.2054 4.52472 14.2054 4.15332 14.2054C4.15332 11.7984 4.15332 9.39132 4.15332 6.91132C5.36992 6.91132 6.58653 6.91132 7.84 6.91132C7.84 6.75085 7.84 6.59038 7.84 6.42505Z" fill="#F1F2F4"/>
<path d="M6.33801 28.7125C14.9894 28.7125 23.6408 28.7125 32.5544 28.7125C32.5093 30.9591 32.4643 33.2057 32.4178 35.5204C23.9016 35.5204 15.3854 35.5204 6.6111 35.5204C6.6111 33.6749 6.6111 31.8295 6.6111 29.9282C6.52098 29.9282 6.43086 29.9282 6.33801 29.9282C6.33801 29.527 6.33801 29.1259 6.33801 28.7125Z" fill="#ED7425"/>
<path d="M13.0287 7.88379C21.6801 7.88379 30.3315 7.88379 39.2451 7.88379C39.2 10.1036 39.1549 12.3235 39.1085 14.6106C30.5472 14.6106 21.9859 14.6106 13.1652 14.6106C13.1202 12.3907 13.0751 10.1709 13.0287 7.88379Z" fill="#ED7325"/>
<path d="M7.84 16.8799C19.9159 16.8799 31.9918 16.8799 44.4337 16.8799C44.4337 17.0136 44.4337 17.1473 44.4337 17.2851C45.6503 17.2851 46.8669 17.2851 48.1203 17.2851C48.1203 19.7189 48.1203 22.1527 48.1203 24.6603C47.7599 24.6603 47.3994 24.6603 47.028 24.6603C47.028 24.794 47.028 24.9277 47.028 25.0655C46.9379 25.0655 46.8478 25.0655 46.7549 25.0655C46.7549 22.7654 46.7549 20.4653 46.7549 18.0956C37.8332 18.0956 28.9114 18.0956 19.7193 18.0956C19.7193 20.3956 19.7193 22.6957 19.7193 25.0655C14.8979 25.0655 10.0766 25.0655 5.10913 25.0655C5.10913 24.9318 5.10913 24.798 5.10913 24.6603C4.79371 24.6603 4.47829 24.6603 4.15332 24.6603C4.15332 22.2265 4.15332 19.7927 4.15332 17.2851C5.36992 17.2851 6.58653 17.2851 7.84 17.2851C7.84 17.1514 7.84 17.0177 7.84 16.8799Z" fill="#AAD3EE"/>
<path d="M55.7668 6.42505C67.8427 6.42505 79.9186 6.42505 92.3604 6.42505C92.3604 6.55877 92.3604 6.6925 92.3604 6.83028C93.577 6.83028 94.7936 6.83028 96.0471 6.83028C96.0471 9.26407 96.0471 11.6979 96.0471 14.2054C95.7317 14.2054 95.4163 14.2054 95.0913 14.2054C95.0913 14.3391 95.0913 14.4729 95.0913 14.6106C93.6043 14.6106 92.1174 14.6106 90.5854 14.6106C90.5822 14.0152 90.5795 13.4198 90.5779 12.8244C90.5772 12.6222 90.5763 12.4199 90.5751 12.2177C90.5734 11.9258 90.5726 11.6338 90.572 11.3419C90.5713 11.2526 90.5706 11.1632 90.5699 11.0711C90.5699 10.9422 90.5699 10.9422 90.5699 10.8107C90.5696 10.7364 90.5693 10.6621 90.5689 10.5855C90.5925 10.1973 90.6627 9.81058 90.7219 9.42373C84.0982 9.42373 77.4745 9.42373 70.65 9.42373C70.65 11.1087 70.65 12.7936 70.65 14.5296C70.5148 14.5296 70.3796 14.5296 70.2404 14.5296C70.2372 13.8187 70.2348 13.1077 70.2333 12.3968C70.2326 12.0666 70.2316 11.7364 70.2301 11.4062C70.2286 11.0867 70.2278 10.7672 70.2274 10.4477C70.2272 10.3266 70.2267 10.2056 70.2259 10.0845C70.2249 9.91313 70.2248 9.74178 70.2249 9.57041C70.2246 9.47341 70.2243 9.3764 70.224 9.27646C70.2465 8.81147 70.3168 8.34768 70.3769 7.88387C66.0963 7.88387 61.8156 7.88387 57.4053 7.88387C57.4729 8.44551 57.4729 8.44551 57.5418 9.01851C57.5519 9.2325 57.558 9.44659 57.5573 9.66066C57.5573 9.71537 57.5574 9.77008 57.5574 9.82644C57.5573 10.0018 57.5562 10.1772 57.5552 10.3526C57.5549 10.4763 57.5547 10.6001 57.5546 10.7239C57.5541 11.0455 57.5527 11.3671 57.5512 11.6887C57.5495 12.0768 57.5489 12.4649 57.5481 12.853C57.5468 13.4389 57.5442 14.0248 57.5418 14.6106C56.0549 14.6106 54.5679 14.6106 53.0359 14.6106C53.0359 14.4502 53.0359 14.2897 53.0359 14.1244C52.7205 14.1244 52.4051 14.1244 52.0801 14.1244C52.0801 11.7173 52.0801 9.31027 52.0801 6.83028C53.2967 6.83028 54.5133 6.83028 55.7668 6.83028C55.7668 6.69655 55.7668 6.56283 55.7668 6.42505Z" fill="#F2F2F3"/>
<path d="M52.7628 18.0956C55.1059 18.0956 57.449 18.0956 59.8631 18.0956C59.8631 19.2724 59.8631 20.4491 59.8631 21.6616C64.4141 21.6616 68.9651 21.6616 73.654 21.6616C73.654 20.4848 73.654 19.308 73.654 18.0956C73.8342 18.0956 74.0145 18.0956 74.2002 18.0956C74.2002 20.3689 74.2002 22.6422 74.2002 24.9845C76.363 24.9845 78.5259 24.9845 80.7542 24.9845C80.7542 22.7111 80.7542 20.4378 80.7542 18.0956C80.9795 18.0956 81.2048 18.0956 81.437 18.0956C81.437 20.3689 81.437 22.6422 81.437 24.9845C83.5998 24.9845 85.7627 24.9845 87.9911 24.9845C87.9911 22.7111 87.9911 20.4378 87.9911 18.0956C88.2164 18.0956 88.4417 18.0956 88.6738 18.0956C88.6738 20.3689 88.6738 22.6422 88.6738 24.9845C90.7465 24.9845 92.8192 24.9845 94.9548 24.9845C94.9548 25.0112 94.9548 25.0379 94.9548 25.0655C81.1216 25.0655 67.2883 25.0655 53.0359 25.0655C53.0359 24.905 53.0359 24.7446 53.0359 24.5792C52.9458 24.5792 52.8557 24.5792 52.7628 24.5792C52.7628 22.4396 52.7628 20.3 52.7628 18.0956Z" fill="#E77225"/>
<path d="M52.0801 14.6106C66.6343 14.6106 81.1884 14.6106 96.1837 14.6106C96.1837 15.3327 96.1837 16.0548 96.1837 16.7988C81.6295 16.7988 67.0753 16.7988 52.0801 16.7988C52.0801 16.0767 52.0801 15.3546 52.0801 14.6106Z" fill="#1C2B3A"/>
<path d="M4.15332 35.5204C18.6624 35.5204 33.1716 35.5204 48.1203 35.5204C48.1203 36.2425 48.1203 36.9646 48.1203 37.7086C33.6112 37.7086 19.1021 37.7086 4.15332 37.7086C4.15332 36.9865 4.15332 36.2644 4.15332 35.5204Z" fill="#1B2A3A"/>
<path d="M52.0801 25.0654C66.5892 25.0654 81.0983 25.0654 96.0471 25.0654C96.0471 25.7875 96.0471 26.5097 96.0471 27.2537C81.538 27.2537 67.0289 27.2537 52.0801 27.2537C52.0801 26.5315 52.0801 25.8094 52.0801 25.0654Z" fill="#192A3A"/>
<path d="M4.15332 4.23682C18.6624 4.23682 33.1716 4.23682 48.1203 4.23682C48.1203 4.95893 48.1203 5.68105 48.1203 6.42505C33.6112 6.42505 19.1021 6.42505 4.15332 6.42505C4.15332 5.70293 4.15332 4.98081 4.15332 4.23682Z" fill="#1A2A3A"/>
<path d="M52.0801 4.15576C66.5892 4.15576 81.0983 4.15576 96.0471 4.15576C96.0471 4.87788 96.0471 5.59999 96.0471 6.34399C81.538 6.34399 67.0289 6.34399 52.0801 6.34399C52.0801 5.62188 52.0801 4.89976 52.0801 4.15576Z" fill="#1A2A3A"/>
<path d="M94.2721 28.5504C94.2721 30.8238 94.2721 33.0971 94.2721 35.4393C89.7211 35.4393 85.1701 35.4393 80.4812 35.4393C80.4812 33.166 80.4812 30.8927 80.4812 28.5504C85.1292 28.4832 89.6293 28.4717 94.2721 28.5504Z" fill="#FEA047"/>
<path d="M67.3729 28.5504C67.3729 30.8238 67.3729 33.0971 67.3729 35.4393C62.8219 35.4393 58.2709 35.4393 53.582 35.4393C53.582 33.166 53.582 30.8927 53.582 28.5504C58.2249 28.4717 62.7249 28.4832 67.3729 28.5504Z" fill="#FEA046"/>
<path d="M52.0801 35.5204C66.5892 35.5204 81.0983 35.5204 96.0471 35.5204C96.0471 36.2158 96.0471 36.9111 96.0471 37.6276C81.538 37.6276 67.0289 37.6276 52.0801 37.6276C52.0801 36.9322 52.0801 36.2368 52.0801 35.5204Z" fill="#1A2A3A"/>
<path d="M4.15332 25.1465C18.6624 25.1465 33.1716 25.1465 48.1203 25.1465C48.1203 25.8419 48.1203 26.5372 48.1203 27.2537C33.6112 27.2537 19.1021 27.2537 4.15332 27.2537C4.15332 26.5583 4.15332 25.8629 4.15332 25.1465Z" fill="#192939"/>
<path d="M4.15332 14.6917C18.6624 14.6917 33.1716 14.6917 48.1203 14.6917C48.1203 15.387 48.1203 16.0824 48.1203 16.7988C33.6112 16.7988 19.1021 16.7988 4.15332 16.7988C4.15332 16.1035 4.15332 15.4081 4.15332 14.6917Z" fill="#1A2A39"/>
<path d="M35.2717 28.702C35.3862 28.7019 35.5007 28.7018 35.6186 28.7016C35.9925 28.7013 36.3664 28.7015 36.7403 28.7018C37.0015 28.7017 37.2627 28.7016 37.5239 28.7015C38.0688 28.7014 38.6137 28.7016 39.1587 28.702C39.8586 28.7024 40.5585 28.7022 41.2584 28.7017C41.7965 28.7014 42.3346 28.7015 42.8727 28.7017C43.131 28.7017 43.3893 28.7017 43.6476 28.7015C44.0068 28.7013 44.366 28.7016 44.7252 28.702C44.8326 28.7019 44.94 28.7017 45.0506 28.7015C45.7836 28.7033 45.7836 28.7033 45.9357 28.7936C45.9446 29.0033 45.9446 29.2107 45.9387 29.4203C45.9373 29.487 45.936 29.5536 45.9346 29.6224C45.9301 29.8392 45.9247 30.0561 45.9192 30.273C45.9163 30.4065 45.9134 30.5399 45.9106 30.6734C45.8998 31.1696 45.8878 31.6658 45.876 32.162C45.8506 33.2703 45.8253 34.3785 45.7992 35.5204C41.5636 35.5204 37.328 35.5204 32.9641 35.5204C32.919 33.3005 32.8739 31.0807 32.8275 28.7936C33.6587 28.7388 34.4421 28.7007 35.2717 28.702Z" fill="#ED7425"/>
<path d="M55.7668 27.2537C67.8427 27.2537 79.9186 27.2537 92.3604 27.2537C92.3604 27.4141 92.3604 27.5746 92.3604 27.7399C93.577 27.7399 94.7936 27.7399 96.0471 27.7399C96.0471 30.147 96.0471 32.554 96.0471 35.034C95.6866 35.034 95.3262 35.034 94.9548 35.034C94.9548 35.1678 94.9548 35.3015 94.9548 35.4393C94.7295 35.4393 94.5042 35.4393 94.272 35.4393C94.272 33.1659 94.272 30.8926 94.272 28.5504C80.8443 28.5504 67.4167 28.5504 53.5821 28.5504C53.5821 30.8237 53.5821 33.097 53.5821 35.4393C53.4469 35.4393 53.3117 35.4393 53.1724 35.4393C53.1724 35.3055 53.1724 35.1718 53.1724 35.034C52.812 35.034 52.4515 35.034 52.0801 35.034C52.0801 32.6002 52.0801 30.1664 52.0801 27.6589C53.2967 27.6589 54.5133 27.6589 55.7668 27.6589C55.7668 27.5252 55.7668 27.3914 55.7668 27.2537Z" fill="#F0EFEF"/>
<path d="M7.84 16.8799C19.9159 16.8799 31.9918 16.8799 44.4337 16.8799C44.4337 17.0136 44.4337 17.1473 44.4337 17.2851C45.6503 17.2851 46.8669 17.2851 48.1203 17.2851C48.1203 19.7189 48.1203 22.1527 48.1203 24.6603C47.7599 24.6603 47.3994 24.6603 47.028 24.6603C47.028 24.794 47.028 24.9277 47.028 25.0655C46.9379 25.0655 46.8478 25.0655 46.7549 25.0655C46.7549 22.7654 46.7549 20.4653 46.7549 18.0956C33.2822 18.0956 19.8094 18.0956 5.92839 18.0956C5.92839 20.3689 5.92839 22.6422 5.92839 24.9844C5.70309 24.9844 5.47779 24.9844 5.24567 24.9844C5.24567 24.8775 5.24567 24.7705 5.24567 24.6603C4.88519 24.6603 4.52472 24.6603 4.15332 24.6603C4.15332 22.2265 4.15332 19.7927 4.15332 17.2851C5.36992 17.2851 6.58653 17.2851 7.84 17.2851C7.84 17.1514 7.84 17.0177 7.84 16.8799Z" fill="#F0F1F3"/>
<path d="M27.3657 7.88379C31.2859 7.88379 35.206 7.88379 39.245 7.88379C39.1999 10.1036 39.1549 12.3235 39.1085 14.6106C37.4863 14.6106 35.8642 14.6106 34.1929 14.6106C32.8128 13.7004 32.8128 13.7004 32.3496 13.3594C32.197 13.2477 32.197 13.2477 32.0413 13.1337C31.9402 13.0594 31.8392 12.9851 31.7351 12.9086C31.0202 12.3862 30.2967 11.8686 29.5625 11.3557C29.0634 11.0064 28.5735 10.6531 28.0868 10.2977C27.8581 10.132 27.6279 9.96723 27.3956 9.80324C27.3323 9.75853 27.2691 9.71382 27.2039 9.66776C27.0246 9.54131 26.845 9.41504 26.6654 9.28879C26.4099 9.09947 26.4099 9.09947 26.4099 9.01843C26.7253 9.01843 27.0407 9.01843 27.3657 9.01843C27.3657 8.644 27.3657 8.26957 27.3657 7.88379Z" fill="#ED7425"/>
<path d="M55.9033 16.8799C67.9342 16.8799 79.965 16.8799 92.3604 16.8799C92.3604 17.0136 92.3604 17.1473 92.3604 17.2851C93.577 17.2851 94.7936 17.2851 96.0471 17.2851C96.0471 19.6922 96.0471 22.0992 96.0471 24.5792C95.7768 24.5792 95.5064 24.5792 95.2278 24.5792C95.2278 22.4129 95.2278 20.2465 95.2278 18.0145C88.0634 18.0145 80.899 18.0145 73.5174 18.0145C73.5174 18.175 73.5174 18.3355 73.5174 18.5008C69.0565 18.5008 64.5957 18.5008 59.9996 18.5008C59.9996 18.3403 59.9996 18.1799 59.9996 18.0145C57.5664 18.0145 55.1332 18.0145 52.6263 18.0145C52.6263 20.1809 52.6263 22.3472 52.6263 24.5792C52.446 24.5792 52.2658 24.5792 52.0801 24.5792C52.0801 22.1722 52.0801 19.7651 52.0801 17.2851C53.3417 17.2851 54.6034 17.2851 55.9033 17.2851C55.9033 17.1514 55.9033 17.0177 55.9033 16.8799Z" fill="#F2F3F5"/>
<path d="M4.0167 0.184448C4.06176 0.184448 4.10682 0.184448 4.15325 0.184448C4.15325 1.36123 4.15325 2.53801 4.15325 3.75045C4.51372 3.75045 4.8742 3.75045 5.24559 3.75045C5.24559 3.88418 5.24559 4.0179 5.24559 4.15568C19.0338 4.15568 32.8219 4.15568 47.0279 4.15568C47.0279 4.02195 47.0279 3.88823 47.0279 3.75045C47.2772 3.74794 47.2772 3.74794 47.5314 3.74539C47.6249 3.74445 47.7184 3.74351 47.8147 3.74254C48.1203 3.75045 48.1203 3.75045 48.803 3.8315C48.803 4.82106 48.803 5.81063 48.803 6.83018C47.3611 6.83018 45.9192 6.83018 44.4336 6.83018C44.4336 6.69646 44.4336 6.56273 44.4336 6.42496C45.6502 6.42496 46.8668 6.42496 48.1203 6.42496C48.1203 5.70284 48.1203 4.98072 48.1203 4.23673C33.6112 4.23673 19.102 4.23673 4.15325 4.23673C4.15325 4.95884 4.15325 5.68096 4.15325 6.42496C5.36985 6.42496 6.58645 6.42496 7.83992 6.42496C7.83992 6.58543 7.83992 6.7459 7.83992 6.91123C6.62332 6.91123 5.40672 6.91123 4.15325 6.91123C4.15325 9.31828 4.15325 11.7253 4.15325 14.2053C4.51372 14.2053 4.8742 14.2053 5.24559 14.2053C5.24559 14.3391 5.24559 14.4728 5.24559 14.6106C19.0338 14.6106 32.8219 14.6106 47.0279 14.6106C47.0279 14.4768 47.0279 14.3431 47.0279 14.2053C47.6137 14.2053 48.1995 14.2053 48.803 14.2053C48.803 15.2216 48.803 16.2379 48.803 17.2851C47.3611 17.2851 45.9192 17.2851 44.4336 17.2851C44.4336 17.1513 44.4336 17.0176 44.4336 16.8798C32.3577 16.8798 20.2818 16.8798 7.83992 16.8798C7.83992 17.0136 7.83992 17.1473 7.83992 17.2851C6.62332 17.2851 5.40672 17.2851 4.15325 17.2851C4.15325 19.7189 4.15325 22.1527 4.15325 24.6602C4.46866 24.6602 4.78408 24.6602 5.10905 24.6602C5.10905 24.7939 5.10905 24.9277 5.10905 25.0654C18.9423 25.0654 32.7755 25.0654 47.0279 25.0654C47.0279 24.9317 47.0279 24.798 47.0279 24.6602C47.6137 24.6602 48.1995 24.6602 48.803 24.6602C48.803 25.6765 48.803 26.6928 48.803 27.7399C47.3611 27.7399 45.9192 27.7399 44.4336 27.7399C44.4336 27.6062 44.4336 27.4725 44.4336 27.3347C32.3577 27.3347 20.2818 27.3347 7.83992 27.3347C7.83992 27.4684 7.83992 27.6022 7.83992 27.7399C6.62332 27.7399 5.40672 27.7399 4.15325 27.7399C4.15325 30.1737 4.15325 32.6075 4.15325 35.1151C4.51372 35.1151 4.8742 35.1151 5.24559 35.1151C5.24559 35.2488 5.24559 35.3825 5.24559 35.5203C4.88512 35.5203 4.52464 35.5203 4.15325 35.5203C4.15325 36.2424 4.15325 36.9645 4.15325 37.7085C18.6624 37.7085 33.1715 37.7085 48.1203 37.7085C48.1203 36.9864 48.1203 36.2643 48.1203 35.5203C47.8049 35.5203 47.4894 35.5203 47.1645 35.5203C47.1645 35.3866 47.1645 35.2529 47.1645 35.1151C47.7052 35.1151 48.2459 35.1151 48.803 35.1151C48.803 36.1314 48.803 37.1477 48.803 38.1948C47.3611 38.1948 45.9192 38.1948 44.4336 38.1948C44.4336 38.0611 44.4336 37.9274 44.4336 37.7896C32.3577 37.7896 20.2818 37.7896 7.83992 37.7896C7.83992 37.9233 7.83992 38.057 7.83992 38.1948C6.62332 38.1948 5.40672 38.1948 4.15325 38.1948C4.15325 38.7297 4.15325 39.2646 4.15325 39.8157C4.10819 39.8157 4.06313 39.8157 4.0167 39.8157C4.0167 39.2808 4.0167 38.7459 4.0167 38.1948C3.79141 38.1948 3.56611 38.1948 3.33398 38.1948C3.33398 37.1518 3.33398 36.1087 3.33398 35.034C3.55928 35.034 3.78458 35.034 4.0167 35.034C4.0167 32.627 4.0167 30.2199 4.0167 27.7399C3.79141 27.7399 3.56611 27.7399 3.33398 27.7399C3.33398 26.7236 3.33398 25.7073 3.33398 24.6602C3.55928 24.6602 3.78458 24.6602 4.0167 24.6602C4.0167 22.2264 4.0167 19.7926 4.0167 17.2851C3.79141 17.2851 3.56611 17.2851 3.33398 17.2851C3.33398 16.2687 3.33398 15.2524 3.33398 14.2053C3.55928 14.2053 3.78458 14.2053 4.0167 14.2053C4.0167 11.7983 4.0167 9.39122 4.0167 6.91123C3.79141 6.91123 3.56611 6.91123 3.33398 6.91123C3.33398 5.86817 3.33398 4.82512 3.33398 3.75045C3.55928 3.75045 3.78458 3.75045 4.0167 3.75045C4.0167 2.57367 4.0167 1.39689 4.0167 0.184448ZM4.15325 14.6916C4.15325 15.387 4.15325 16.0823 4.15325 16.7988C18.6624 16.7988 33.1715 16.7988 48.1203 16.7988C48.1203 16.1034 48.1203 15.408 48.1203 14.6916C33.6112 14.6916 19.102 14.6916 4.15325 14.6916ZM4.15325 25.1465C4.15325 25.8418 4.15325 26.5372 4.15325 27.2537C18.6624 27.2537 33.1715 27.2537 48.1203 27.2537C48.1203 26.5583 48.1203 25.8629 48.1203 25.1465C33.6112 25.1465 19.102 25.1465 4.15325 25.1465Z" fill="#505E6B"/>
<path d="M51.9436 0.184448C51.9886 0.184448 52.0337 0.184448 52.0801 0.184448C52.0801 1.36123 52.0801 2.53801 52.0801 3.75045C52.3955 3.75045 52.711 3.75045 53.0359 3.75045C53.0359 3.88418 53.0359 4.0179 53.0359 4.15568C52.7205 4.15568 52.4051 4.15568 52.0801 4.15568C52.0801 4.8778 52.0801 5.59991 52.0801 6.34391C66.5892 6.34391 81.0984 6.34391 96.0472 6.34391C96.0472 5.62179 96.0472 4.89968 96.0472 4.15568C95.6867 4.15568 95.3262 4.15568 94.9548 4.15568C94.9548 3.99521 94.9548 3.83474 94.9548 3.66941C95.3153 3.66941 95.6758 3.66941 96.0472 3.66941C96.0472 2.51937 96.0472 1.36933 96.0472 0.184448C96.0922 0.184448 96.1373 0.184448 96.1837 0.184448C96.1837 1.36123 96.1837 2.53801 96.1837 3.75045C96.3639 3.75045 96.5442 3.75045 96.7299 3.75045C96.7299 4.76676 96.7299 5.78307 96.7299 6.83018C96.5496 6.83018 96.3694 6.83018 96.1837 6.83018C96.1837 9.26398 96.1837 11.6978 96.1837 14.2053C96.3639 14.2053 96.5442 14.2053 96.7299 14.2053C96.7299 15.1949 96.7299 16.1845 96.7299 17.204C96.5496 17.204 96.3694 17.204 96.1837 17.204C96.1837 19.6378 96.1837 22.0716 96.1837 24.5792C96.3639 24.5792 96.5442 24.5792 96.7299 24.5792C96.7299 25.5955 96.7299 26.6118 96.7299 27.6589C96.5496 27.6589 96.3694 27.6589 96.1837 27.6589C96.1837 30.0927 96.1837 32.5265 96.1837 35.034C96.409 35.034 96.6343 35.034 96.8664 35.034C96.8664 36.0503 96.8664 37.0667 96.8664 38.1138C95.3795 38.1138 93.8925 38.1138 92.3605 38.1138C92.3605 37.98 92.3605 37.8463 92.3605 37.7085C80.2846 37.7085 68.2087 37.7085 55.7668 37.7085C55.7668 37.8423 55.7668 37.976 55.7668 38.1138C54.5502 38.1138 53.3336 38.1138 52.0801 38.1138C52.0801 38.6754 52.0801 39.2371 52.0801 39.8157C52.0351 39.8157 51.99 39.8157 51.9436 39.8157C51.9436 39.2541 51.9436 38.6924 51.9436 38.1138C51.7633 38.1138 51.5831 38.1138 51.3974 38.1138C51.3974 37.0975 51.3974 36.0811 51.3974 35.034C51.5776 35.034 51.7579 35.034 51.9436 35.034C51.9436 32.627 51.9436 30.2199 51.9436 27.7399C51.7183 27.7399 51.493 27.7399 51.2609 27.7399C51.2609 26.6969 51.2609 25.6538 51.2609 24.5792C51.4862 24.5792 51.7115 24.5792 51.9436 24.5792C51.9436 22.1454 51.9436 19.7116 51.9436 17.204C51.7633 17.204 51.5831 17.204 51.3974 17.204C51.3974 16.2144 51.3974 15.2249 51.3974 14.2053C51.5776 14.2053 51.7579 14.2053 51.9436 14.2053C51.9436 11.7715 51.9436 9.33773 51.9436 6.83018C51.7633 6.83018 51.5831 6.83018 51.3974 6.83018C51.3974 5.81387 51.3974 4.79756 51.3974 3.75045C51.5776 3.75045 51.7579 3.75045 51.9436 3.75045C51.9436 2.57367 51.9436 1.39689 51.9436 0.184448ZM55.7668 6.42496C55.7668 6.55868 55.7668 6.69241 55.7668 6.83018C54.5502 6.83018 53.3336 6.83018 52.0801 6.83018C52.0801 9.23724 52.0801 11.6443 52.0801 14.1243C52.3955 14.1243 52.711 14.1243 53.0359 14.1243C53.0359 14.2848 53.0359 14.4452 53.0359 14.6106C52.7205 14.6106 52.4051 14.6106 52.0801 14.6106C52.0801 15.3327 52.0801 16.0548 52.0801 16.7988C66.6343 16.7988 81.1885 16.7988 96.1837 16.7988C96.1837 16.0767 96.1837 15.3546 96.1837 14.6106C95.8232 14.6106 95.4627 14.6106 95.0914 14.6106C95.0914 14.4768 95.0914 14.3431 95.0914 14.2053C95.4068 14.2053 95.7222 14.2053 96.0472 14.2053C96.0472 11.7715 96.0472 9.33773 96.0472 6.83018C94.8306 6.83018 93.6139 6.83018 92.3605 6.83018C92.3605 6.69646 92.3605 6.56273 92.3605 6.42496C80.2846 6.42496 68.2087 6.42496 55.7668 6.42496ZM55.9033 16.8798C55.9033 17.0136 55.9033 17.1473 55.9033 17.2851C54.6417 17.2851 53.38 17.2851 52.0801 17.2851C52.0801 19.6921 52.0801 22.0992 52.0801 24.5792C52.3955 24.5792 52.711 24.5792 53.0359 24.5792C53.0359 24.7396 53.0359 24.9001 53.0359 25.0654C52.7205 25.0654 52.4051 25.0654 52.0801 25.0654C52.0801 25.7875 52.0801 26.5097 52.0801 27.2537C53.2967 27.2537 54.5133 27.2537 55.7668 27.2537C55.7668 27.3874 55.7668 27.5211 55.7668 27.6589C54.5502 27.6589 53.3336 27.6589 52.0801 27.6589C52.0801 30.0927 52.0801 32.5265 52.0801 35.034C52.4406 35.034 52.8011 35.034 53.1725 35.034C53.1725 35.1678 53.1725 35.3015 53.1725 35.4393C66.9606 35.4393 80.7488 35.4393 94.9548 35.4393C94.9548 35.3055 94.9548 35.1718 94.9548 35.034C95.3153 35.034 95.6758 35.034 96.0472 35.034C96.0472 32.627 96.0472 30.2199 96.0472 27.7399C94.8306 27.7399 93.6139 27.7399 92.3605 27.7399C92.3605 27.5795 92.3605 27.419 92.3605 27.2537C93.5771 27.2537 94.7937 27.2537 96.0472 27.2537C96.0472 26.5315 96.0472 25.8094 96.0472 25.0654C95.6867 25.0654 95.3262 25.0654 94.9548 25.0654C94.9548 24.905 94.9548 24.7445 94.9548 24.5792C95.3153 24.5792 95.6758 24.5792 96.0472 24.5792C96.0472 22.1721 96.0472 19.7651 96.0472 17.2851C94.8306 17.2851 93.6139 17.2851 92.3605 17.2851C92.3605 17.1513 92.3605 17.0176 92.3605 16.8798C80.3296 16.8798 68.2988 16.8798 55.9033 16.8798ZM52.0801 35.5203C52.0801 36.2157 52.0801 36.911 52.0801 37.6275C66.5892 37.6275 81.0984 37.6275 96.0472 37.6275C96.0472 36.9321 96.0472 36.2367 96.0472 35.5203C81.538 35.5203 67.0289 35.5203 52.0801 35.5203Z" fill="#455C72"/>
<path d="M20.8116 28.7936C21.3073 28.7936 21.8029 28.7936 22.3136 28.7936C22.3136 29.168 22.3136 29.5424 22.3136 29.9282C24.8369 29.9282 27.3603 29.9282 29.9601 29.9282C29.9601 29.5538 29.9601 29.1794 29.9601 28.7936C30.4557 28.7936 30.9514 28.7936 31.462 28.7936C31.462 29.1413 31.462 29.4889 31.462 29.8472C31.7775 29.8472 32.0929 29.8472 32.4178 29.8472C32.4178 31.7193 32.4178 33.5915 32.4178 35.5204C30.8408 35.5204 29.2637 35.5204 27.6388 35.5204C26.4289 34.7124 26.4289 34.7124 25.9406 34.3503C25.538 34.0555 25.1255 33.7695 24.6946 33.4892C24.2056 33.1704 23.7502 32.8412 23.3009 32.5027C22.9357 32.2339 22.5573 31.9725 22.1771 31.7112C20.4014 30.4883 20.4014 30.4883 19.8558 29.9282C20.1713 29.9282 20.4867 29.9282 20.8116 29.9282C20.8116 29.5538 20.8116 29.1794 20.8116 28.7936Z" fill="#EC7325"/>
<path d="M6.33801 28.7125C14.9894 28.7125 23.6408 28.7125 32.5544 28.7125C32.5544 29.1137 32.5544 29.5149 32.5544 29.9282C32.1939 29.9015 31.8334 29.8747 31.462 29.8472C31.462 29.4995 31.462 29.1518 31.462 28.7936C30.9664 28.7936 30.4707 28.7936 29.9601 28.7936C29.9601 29.168 29.9601 29.5424 29.9601 29.9282C27.4367 29.9282 24.9134 29.9282 22.3136 29.9282C22.3136 29.5538 22.3136 29.1793 22.3136 28.7936C21.818 28.7936 21.3223 28.7936 20.8116 28.7936C20.8116 29.168 20.8116 29.5424 20.8116 29.9282C20.5413 29.955 20.2709 29.9817 19.9924 30.0093C20.9479 30.7009 21.9049 31.3915 22.8818 32.0726C23.2732 32.346 23.657 32.6227 24.0375 32.9016C24.4229 33.1831 24.8188 33.455 25.2322 33.7222C26.0965 34.2849 26.9268 34.8864 27.6388 35.5204C24.8451 35.5204 22.0514 35.5204 19.1731 35.5204C19.1731 33.6749 19.1731 31.8295 19.1731 29.9282C18.8577 29.9282 18.5423 29.9282 18.2173 29.9282C18.2173 29.5538 18.2173 29.1793 18.2173 28.7936C17.7217 28.7936 17.226 28.7936 16.7153 28.7936C16.7153 29.168 16.7153 29.5424 16.7153 29.9282C14.192 29.9282 11.6687 29.9282 9.06888 29.9282C9.06888 29.5538 9.06888 29.1793 9.06888 28.7936C8.57323 28.7936 8.07758 28.7936 7.5669 28.7936C7.5669 29.1413 7.5669 29.4889 7.5669 29.8472C6.9586 29.8873 6.9586 29.8873 6.33801 29.9282C6.33801 29.527 6.33801 29.1259 6.33801 28.7125Z" fill="#F8B882"/>
<path d="M59.863 21.9857C64.414 21.9857 68.965 21.9857 73.6539 21.9857C73.6539 22.9753 73.6539 23.9648 73.6539 24.9844C69.1029 24.9844 64.5519 24.9844 59.863 24.9844C59.863 23.9948 59.863 23.0053 59.863 21.9857Z" fill="#EC7325"/>
<path d="M71.4693 9.42371C74.1729 9.42371 76.8765 9.42371 79.662 9.42371C79.662 9.7179 79.662 10.0121 79.662 10.3152C79.8872 10.3152 80.1125 10.3152 80.3447 10.3152C80.3447 11.7327 80.3447 13.1502 80.3447 14.6106C77.0665 14.7435 77.0665 14.7435 76.3558 14.5123C75.8885 14.2608 75.5934 13.9516 75.2998 13.6236C75.0789 13.3969 74.786 13.2186 74.4818 13.0302C74.1657 12.8266 73.8702 12.6309 73.6199 12.3971C73.3929 12.1737 73.3929 12.1737 73.0727 11.9963C72.6669 11.7554 72.2984 11.503 71.9302 11.2422C71.865 11.1965 71.7999 11.1508 71.7328 11.1037C70.7866 10.4367 70.7866 10.4367 70.7866 10.2342C71.0119 10.2342 71.2372 10.2342 71.4693 10.2342C71.4693 9.96671 71.4693 9.69926 71.4693 9.42371Z" fill="#EC7325"/>
<path d="M24.908 7.88379C25.719 7.88379 26.5301 7.88379 27.3657 7.88379C27.3657 8.25822 27.3657 8.63265 27.3657 9.01843C27.0954 9.04517 26.825 9.07192 26.5465 9.09947C26.6406 9.16519 26.7348 9.2309 26.8318 9.2986C27.448 9.72927 28.062 10.1606 28.6629 10.5988C29.1747 10.9721 29.6967 11.3397 30.2217 11.7064C30.6149 11.9814 31.0022 12.2588 31.3852 12.5388C31.7277 12.7891 32.0744 13.0364 32.4296 13.2803C32.5026 13.3304 32.5755 13.3805 32.6507 13.4321C32.7929 13.5295 32.9356 13.6266 33.0787 13.7235C33.1445 13.7685 33.2104 13.8135 33.2782 13.8599C33.3362 13.8993 33.3941 13.9386 33.4538 13.9791C33.7212 14.1803 33.9534 14.3973 34.1929 14.6106C31.4443 14.6106 28.6957 14.6106 25.8638 14.6106C25.8638 12.7652 25.8638 10.9198 25.8638 9.01843C25.5483 9.01843 25.2329 9.01843 24.908 9.01843C24.908 8.644 24.908 8.26957 24.908 7.88379Z" fill="#FEA046"/>
<path d="M32.8275 28.7936C33.233 28.7936 33.6386 28.7936 34.0564 28.7936C34.0564 29.168 34.0564 29.5424 34.0564 29.9282C33.7861 29.955 33.5157 29.9817 33.2371 30.0093C34.0053 30.5849 34.0053 30.5849 34.8074 31.1439C35.1488 31.387 35.1488 31.387 35.1488 31.5491C35.2389 31.5491 35.329 31.5491 35.4218 31.5491C35.968 31.9114 35.968 31.9114 35.968 32.1164C36.0581 32.1164 36.1483 32.1164 36.2411 32.1164C36.4241 32.239 36.4241 32.239 36.6422 32.4153C37.0556 32.7402 37.4856 33.053 37.9308 33.3625C38.5136 33.7684 39.0864 34.1784 39.6526 34.5925C39.9009 34.7716 40.1556 34.9463 40.4142 35.1202C40.747 35.3583 40.747 35.3583 40.747 35.5204C38.1787 35.5204 35.6103 35.5204 32.9641 35.5204C32.919 33.3005 32.8739 31.0807 32.8275 28.7936Z" fill="#FEA046"/>
<path d="M19.7192 28.7936C20.0797 28.7936 20.4402 28.7936 20.8116 28.7936C20.8116 29.168 20.8116 29.5424 20.8116 29.9282C20.5412 29.955 20.2709 29.9817 19.9923 30.0093C20.9479 30.7009 21.9049 31.3915 22.8817 32.0726C23.2732 32.346 23.657 32.6227 24.0374 32.9016C24.4228 33.1831 24.8188 33.455 25.2322 33.7222C26.0965 34.2849 26.9267 34.8864 27.6388 35.5204C25.0253 35.5204 22.4119 35.5204 19.7192 35.5204C19.7192 33.3005 19.7192 31.0807 19.7192 28.7936Z" fill="#FEA148"/>
<path d="M13.0287 7.88379C13.4342 7.88379 13.8398 7.88379 14.2576 7.88379C14.2576 8.25822 14.2576 8.63265 14.2576 9.01843C13.9422 9.01843 13.6267 9.01843 13.3018 9.01843C13.802 9.41363 14.3183 9.79328 14.8806 10.1581C15.231 10.3861 15.5654 10.6124 15.8705 10.8622C16.3188 11.2281 16.8186 11.566 17.3166 11.9079C17.8414 12.2688 18.3529 12.6351 18.8585 13.0055C19.0939 13.1756 19.3317 13.3437 19.5732 13.5108C19.6414 13.558 19.7096 13.6053 19.7798 13.654C19.9126 13.7458 20.0459 13.8374 20.1797 13.9287C20.5028 14.1523 20.7236 14.3439 20.9482 14.6106C18.3798 14.6106 15.8114 14.6106 13.1652 14.6106C13.1202 12.3907 13.0751 10.1709 13.0287 7.88379Z" fill="#FEA047"/>
<path d="M96.0471 0.184448C96.0922 0.184448 96.1372 0.184448 96.1837 0.184448C96.1837 1.36123 96.1837 2.53801 96.1837 3.75045C96.3639 3.75045 96.5441 3.75045 96.7298 3.75045C96.7298 4.76676 96.7298 5.78307 96.7298 6.83018C96.5496 6.83018 96.3694 6.83018 96.1837 6.83018C96.1837 9.26398 96.1837 11.6978 96.1837 14.2053C96.3639 14.2053 96.5441 14.2053 96.7298 14.2053C96.7298 15.1949 96.7298 16.1845 96.7298 17.204C96.5496 17.204 96.3694 17.204 96.1837 17.204C96.1837 19.6378 96.1837 22.0716 96.1837 24.5792C96.3639 24.5792 96.5441 24.5792 96.7298 24.5792C96.7298 25.5955 96.7298 26.6118 96.7298 27.6589C96.5496 27.6589 96.3694 27.6589 96.1837 27.6589C96.1837 30.0927 96.1837 32.5265 96.1837 35.034C96.1386 35.034 96.0935 35.034 96.0471 35.034C96.0471 32.627 96.0471 30.2199 96.0471 27.7399C94.8305 27.7399 93.6139 27.7399 92.3604 27.7399C92.3604 27.5795 92.3604 27.419 92.3604 27.2537C93.577 27.2537 94.7936 27.2537 96.0471 27.2537C96.0471 26.5315 96.0471 25.8094 96.0471 25.0654C95.6866 25.0654 95.3262 25.0654 94.9548 25.0654C94.9548 24.905 94.9548 24.7445 94.9548 24.5792C95.3152 24.5792 95.6757 24.5792 96.0471 24.5792C96.0471 22.1721 96.0471 19.7651 96.0471 17.2851C94.8305 17.2851 93.6139 17.2851 92.3604 17.2851C92.3604 17.1513 92.3604 17.0176 92.3604 16.8798C80.3296 16.8798 68.2987 16.8798 55.9033 16.8798C55.9033 17.0136 55.9033 17.1473 55.9033 17.2851C54.6416 17.2851 53.38 17.2851 52.0801 17.2851C52.0801 17.2583 52.0801 17.2316 52.0801 17.204C53.2967 17.204 54.5133 17.204 55.7668 17.204C55.7668 17.0703 55.7668 16.9366 55.7668 16.7988C69.1043 16.7988 82.4419 16.7988 96.1837 16.7988C96.1837 16.0767 96.1837 15.3546 96.1837 14.6106C95.8232 14.6106 95.4627 14.6106 95.0913 14.6106C95.0913 14.4768 95.0913 14.3431 95.0913 14.2053C95.4067 14.2053 95.7221 14.2053 96.0471 14.2053C96.0471 11.7715 96.0471 9.33773 96.0471 6.83018C94.8305 6.83018 93.6139 6.83018 92.3604 6.83018C92.3604 6.69646 92.3604 6.56273 92.3604 6.42495C80.2845 6.42495 68.2086 6.42495 55.7668 6.42495C55.7668 6.39821 55.7668 6.37146 55.7668 6.34391C69.0593 6.34391 82.3518 6.34391 96.0471 6.34391C96.0471 5.62179 96.0471 4.89968 96.0471 4.15568C95.6866 4.15568 95.3262 4.15568 94.9548 4.15568C94.9548 3.99521 94.9548 3.83474 94.9548 3.66941C95.3152 3.66941 95.6757 3.66941 96.0471 3.66941C96.0471 2.51937 96.0471 1.36933 96.0471 0.184448Z" fill="#687989"/>
<path d="M57.5419 9.01843C58.3107 9.47475 58.3107 9.47475 58.6065 9.68009C58.6719 9.72538 58.7373 9.77067 58.8046 9.81733C58.8723 9.86461 58.94 9.91188 59.0097 9.96059C59.0816 10.0106 59.1535 10.0606 59.2276 10.1121C59.751 10.4771 60.263 10.8472 60.772 11.2193C61.1457 11.4884 61.5277 11.7529 61.9113 12.0171C62.5023 12.4243 63.0828 12.8357 63.6527 13.2534C63.879 13.4175 64.1072 13.58 64.3386 13.7416C64.402 13.7859 64.4653 13.8303 64.5306 13.8761C64.7097 14.0014 64.8895 14.1263 65.0694 14.2513C65.3249 14.4485 65.3249 14.4485 65.3249 14.6106C62.7565 14.6106 60.1881 14.6106 57.5419 14.6106C57.5419 12.7652 57.5419 10.9198 57.5419 9.01843Z" fill="#FEA047"/>
<path d="M6.61108 30.0093C7.7252 30.6706 8.76261 31.3475 9.72412 32.0873C10.243 32.485 10.788 32.8671 11.3428 33.2472C11.7625 33.535 12.173 33.8263 12.5763 34.1223C13.0832 34.4942 13.6178 34.8473 14.1685 35.1965C14.3941 35.3583 14.3941 35.3583 14.3941 35.5204C11.8257 35.5204 9.2573 35.5204 6.61108 35.5204C6.61108 33.7017 6.61108 31.8831 6.61108 30.0093Z" fill="#FEA046"/>
<path d="M79.6619 9.42371C80.2927 9.42371 80.9235 9.42371 81.5735 9.42371C81.5735 9.69116 81.5735 9.95861 81.5735 10.2342C81.3482 10.2342 81.1229 10.2342 80.8908 10.2342C81.5748 10.7524 82.2832 11.2555 83.0075 11.7539C83.5277 12.1125 84.0349 12.4765 84.5369 12.8441C84.7691 13.0119 85.0033 13.178 85.241 13.343C85.3079 13.3896 85.3749 13.4361 85.4439 13.484C85.5732 13.5737 85.7029 13.6631 85.833 13.7524C86.2331 14.0298 86.5532 14.303 86.8987 14.6106C84.7358 14.6106 82.573 14.6106 80.3446 14.6106C80.3446 13.1931 80.3446 11.7756 80.3446 10.3152C80.1193 10.3152 79.894 10.3152 79.6619 10.3152C79.6619 10.021 79.6619 9.72682 79.6619 9.42371Z" fill="#FEA047"/>
<path d="M70.65 9.42371C70.9203 9.42371 71.1907 9.42371 71.4692 9.42371C71.4692 9.69116 71.4692 9.95861 71.4692 10.2342C71.244 10.2342 71.0187 10.2342 70.7865 10.2342C71.3597 10.7031 71.9723 11.1446 72.6151 11.58C73.1078 11.9186 73.1078 11.9186 73.1078 12.0982C73.3105 12.1383 73.3105 12.1383 73.5174 12.1793C73.7089 12.3068 73.7089 12.3068 73.9185 12.4781C74.4281 12.8807 74.9744 13.2607 75.5295 13.6411C76.6579 14.4155 76.6579 14.4155 76.6579 14.6106C74.5401 14.6106 72.4223 14.6106 70.2404 14.6106C70.4431 14.5705 70.4431 14.5705 70.65 14.5296C70.65 12.8446 70.65 11.1597 70.65 9.42371Z" fill="#FDA149"/>
<path d="M59.3169 18.0956C59.4971 18.0956 59.6774 18.0956 59.8631 18.0956C59.8631 19.2724 59.8631 20.4491 59.8631 21.6616C64.4141 21.6616 68.9651 21.6616 73.654 21.6616C73.654 20.4848 73.654 19.308 73.654 18.0956C73.8342 18.0956 74.0144 18.0956 74.2001 18.0956C74.2001 20.3689 74.2001 22.6422 74.2001 24.9845C74.0199 24.9845 73.8397 24.9845 73.654 24.9845C73.654 23.9949 73.654 23.0053 73.654 21.9858C69.103 21.9858 64.552 21.9858 59.8631 21.9858C59.8631 22.9753 59.8631 23.9649 59.8631 24.9845C59.6828 24.9845 59.5026 24.9845 59.3169 24.9845C59.3169 22.7111 59.3169 20.4378 59.3169 18.0956Z" fill="#DD4116"/>
<path d="M35.5583 28.7125C36.8912 28.7106 38.2241 28.7092 39.557 28.7083C40.1758 28.7079 40.7946 28.7073 41.4135 28.7064C42.0102 28.7055 42.6069 28.705 43.2036 28.7048C43.4318 28.7046 43.66 28.7043 43.8881 28.7039C44.2066 28.7033 44.5251 28.7032 44.8435 28.7033C44.9388 28.703 45.0341 28.7027 45.1322 28.7024C45.7835 28.7032 45.7835 28.7032 45.9357 28.7935C45.9445 29.0032 45.9445 29.2106 45.9386 29.4202C45.9373 29.4858 45.936 29.5515 45.9347 29.6191C45.9301 29.837 45.9246 30.055 45.9191 30.2729C45.9158 30.4236 45.9126 30.5743 45.9094 30.725C45.9008 31.1225 45.8913 31.5199 45.8817 31.9174C45.8721 32.3226 45.8632 32.7279 45.8543 33.1331C45.8367 33.9288 45.8182 34.7246 45.7991 35.5203C45.7541 35.5203 45.709 35.5203 45.6626 35.5203C45.6626 33.6481 45.6626 31.776 45.6626 29.8471C45.3472 29.8471 45.0317 29.8471 44.7068 29.8471C44.7068 29.4994 44.7068 29.1517 44.7068 28.7935C44.1661 28.7935 43.6253 28.7935 43.0682 28.7935C43.0682 29.1412 43.0682 29.4889 43.0682 29.8471C40.59 29.8471 38.1117 29.8471 35.5583 29.8471C35.5583 29.4727 35.5583 29.0983 35.5583 28.7125Z" fill="#FEA146"/>
<path d="M22.3136 28.7936C24.8369 28.7936 27.3602 28.7936 29.96 28.7936C29.96 29.168 29.96 29.5424 29.96 29.9282C27.4367 29.9282 24.9134 29.9282 22.3136 29.9282C22.3136 29.5538 22.3136 29.1794 22.3136 28.7936Z" fill="#FE9F45"/>
<path d="M9.06885 28.7936C11.5922 28.7936 14.1155 28.7936 16.7153 28.7936C16.7153 29.168 16.7153 29.5424 16.7153 29.9282C14.192 29.9282 11.6686 29.9282 9.06885 29.9282C9.06885 29.5538 9.06885 29.1794 9.06885 28.7936Z" fill="#FE9F45"/>
<path d="M28.8677 7.88379C31.391 7.88379 33.9143 7.88379 36.5141 7.88379C36.5141 8.25822 36.5141 8.63265 36.5141 9.01843C33.9908 9.01843 31.4675 9.01843 28.8677 9.01843C28.8677 8.644 28.8677 8.26957 28.8677 7.88379Z" fill="#FEA047"/>
<path d="M15.7595 7.88379C18.2828 7.88379 20.8062 7.88379 23.406 7.88379C23.406 8.25822 23.406 8.63265 23.406 9.01843C20.8826 9.01843 18.3593 9.01843 15.7595 9.01843C15.7595 8.644 15.7595 8.26957 15.7595 7.88379Z" fill="#FEA047"/>
<path d="M94.9548 35.0341C95.5856 35.0341 96.2164 35.0341 96.8664 35.0341C96.8664 36.0504 96.8664 37.0667 96.8664 38.1138C95.3794 38.1138 93.8925 38.1138 92.3604 38.1138C92.3604 37.9801 92.3604 37.8463 92.3604 37.7086C79.0679 37.7086 65.7754 37.7086 52.0801 37.7086C52.0801 37.6818 52.0801 37.6551 52.0801 37.6275C66.5892 37.6275 81.0983 37.6275 96.0471 37.6275C96.0471 36.9321 96.0471 36.2368 96.0471 35.5203C95.6866 35.5203 95.3262 35.5203 94.9548 35.5203C94.9548 35.3599 94.9548 35.1994 94.9548 35.0341Z" fill="#42566A"/>
<path d="M60.1361 7.88379C62.6144 7.88379 65.0926 7.88379 67.646 7.88379C67.646 8.23147 67.646 8.57916 67.646 8.93738C65.1677 8.93738 62.6895 8.93738 60.1361 8.93738C60.1361 8.5897 60.1361 8.24201 60.1361 7.88379Z" fill="#FEA146"/>
<path d="M51.3973 35.0341C51.9831 35.0341 52.5689 35.0341 53.1724 35.0341C53.1724 35.1678 53.1724 35.3015 53.1724 35.4393C66.9606 35.4393 80.7487 35.4393 94.9547 35.4393C94.9547 35.466 94.9547 35.4928 94.9547 35.5203C80.8061 35.5203 66.6574 35.5203 52.0801 35.5203C52.0801 36.2424 52.0801 36.9646 52.0801 37.7086C53.2967 37.7086 54.5133 37.7086 55.7667 37.7086C55.7667 37.8423 55.7667 37.976 55.7667 38.1138C54.5501 38.1138 53.3335 38.1138 52.0801 38.1138C52.0801 38.6754 52.0801 39.2371 52.0801 39.8157C52.035 39.8157 51.9899 39.8157 51.9435 39.8157C51.9435 39.2541 51.9435 38.6925 51.9435 38.1138C51.7633 38.1138 51.583 38.1138 51.3973 38.1138C51.3973 37.0975 51.3973 36.0812 51.3973 35.0341Z" fill="#616568"/>
<path d="M4.15332 3.75047C4.5138 3.75047 4.87427 3.75047 5.24567 3.75047C5.24567 3.88419 5.24567 4.01792 5.24567 4.1557C19.0338 4.1557 32.822 4.1557 47.028 4.1557C47.028 4.02197 47.028 3.88825 47.028 3.75047C47.2772 3.74796 47.2772 3.74796 47.5315 3.7454C47.6717 3.74399 47.6717 3.74399 47.8147 3.74255C48.1203 3.75047 48.1203 3.75047 48.8031 3.83151C48.8031 4.82108 48.8031 5.81065 48.8031 6.8302C47.3612 6.8302 45.9193 6.8302 44.4337 6.8302C44.4337 6.69647 44.4337 6.56275 44.4337 6.42497C45.6503 6.42497 46.8669 6.42497 48.1203 6.42497C48.1203 5.70286 48.1203 4.98074 48.1203 4.23674C33.9266 4.23674 19.7329 4.23674 5.10913 4.23674C5.10913 4.10302 5.10913 3.96929 5.10913 3.83151C4.79371 3.83151 4.47829 3.83151 4.15332 3.83151C4.15332 3.80477 4.15332 3.77802 4.15332 3.75047Z" fill="#647687"/>
<path d="M47.1645 35.1151C47.7052 35.1151 48.2459 35.1151 48.803 35.1151C48.803 36.1314 48.803 37.1477 48.803 38.1948C47.3611 38.1948 45.9192 38.1948 44.4336 38.1948C44.4336 38.0611 44.4336 37.9274 44.4336 37.7896C32.3577 37.7896 20.2818 37.7896 7.83997 37.7896C7.83997 37.7629 7.83997 37.7361 7.83997 37.7086C21.1325 37.7086 34.425 37.7086 48.1203 37.7086C48.1203 36.9865 48.1203 36.2643 48.1203 35.5203C47.8049 35.5203 47.4895 35.5203 47.1645 35.5203C47.1645 35.3866 47.1645 35.2529 47.1645 35.1151Z" fill="#586B7D"/>
<path d="M19.0366 18.0956C19.2619 18.0956 19.4872 18.0956 19.7193 18.0956C19.7193 20.3957 19.7193 22.6957 19.7193 25.0655C14.8979 25.0655 10.0766 25.0655 5.10913 25.0655C5.10913 24.9318 5.10913 24.798 5.10913 24.6603C5.15419 24.7673 5.19925 24.8742 5.24567 24.9845C9.79667 24.9845 14.3477 24.9845 19.0366 24.9845C19.0366 22.7111 19.0366 20.4378 19.0366 18.0956Z" fill="#8DBDE0"/>
<path d="M24.908 7.88379C25.719 7.88379 26.5301 7.88379 27.3657 7.88379C27.3657 8.25822 27.3657 8.63265 27.3657 9.01843C27.0503 9.01843 26.7349 9.01843 26.4099 9.01843C26.4099 10.8638 26.4099 12.7092 26.4099 14.6106C26.2297 14.6106 26.0495 14.6106 25.8638 14.6106C25.8638 12.7652 25.8638 10.9198 25.8638 9.01843C25.5483 9.01843 25.2329 9.01843 24.908 9.01843C24.908 8.644 24.908 8.26957 24.908 7.88379Z" fill="#FAB16F"/>
<path d="M94.9548 24.5792C95.5406 24.5792 96.1263 24.5792 96.7299 24.5792C96.7299 25.5955 96.7299 26.6118 96.7299 27.659C96.5496 27.659 96.3694 27.659 96.1837 27.659C96.1837 30.0928 96.1837 32.5265 96.1837 35.0341C96.1386 35.0341 96.0936 35.0341 96.0472 35.0341C96.0472 32.627 96.0472 30.22 96.0472 27.74C94.8305 27.74 93.6139 27.74 92.3605 27.74C92.3605 27.5795 92.3605 27.4191 92.3605 27.2537C93.5771 27.2537 94.7937 27.2537 96.0472 27.2537C96.0472 26.5316 96.0472 25.8095 96.0472 25.0655C95.6867 25.0655 95.3262 25.0655 94.9548 25.0655C94.9548 24.905 94.9548 24.7446 94.9548 24.5792Z" fill="#556A7F"/>
<path d="M4.0167 0.184448C4.06176 0.184448 4.10682 0.184448 4.15325 0.184448C4.15325 1.38797 4.15325 2.5915 4.15325 3.8315C4.46866 3.8315 4.78408 3.8315 5.10905 3.8315C5.10905 3.96522 5.10905 4.09895 5.10905 4.23673C4.79364 4.23673 4.47822 4.23673 4.15325 4.23673C4.15325 4.95884 4.15325 5.68096 4.15325 6.42496C5.36985 6.42496 6.58645 6.42496 7.83992 6.42496C7.83992 6.58543 7.83992 6.7459 7.83992 6.91123C6.35296 6.91123 4.866 6.91123 3.33398 6.91123C3.33398 5.86817 3.33398 4.82512 3.33398 3.75045C3.55928 3.75045 3.78458 3.75045 4.0167 3.75045C4.0167 2.57367 4.0167 1.39689 4.0167 0.184448Z" fill="#465E75"/>
<path d="M72.6981 9.42371C74.6357 9.42371 76.5732 9.42371 78.5695 9.42371C78.5695 9.7179 78.5695 10.0121 78.5695 10.3152C76.6319 10.3152 74.6944 10.3152 72.6981 10.3152C72.6981 10.021 72.6981 9.72682 72.6981 9.42371Z" fill="#FD9D44"/>
<path d="M47.0279 14.2053C47.6137 14.2053 48.1995 14.2053 48.803 14.2053C48.803 15.2216 48.803 16.2379 48.803 17.2851C47.3611 17.2851 45.9192 17.2851 44.4336 17.2851C44.4336 17.1246 44.4336 16.9641 44.4336 16.7988C45.6502 16.7988 46.8668 16.7988 48.1203 16.7988C48.1203 16.1034 48.1203 15.408 48.1203 14.6916C45.1464 14.6916 42.1724 14.6916 39.1084 14.6916C39.1084 14.6649 39.1084 14.6381 39.1084 14.6106C41.7218 14.6106 44.3353 14.6106 47.0279 14.6106C47.0279 14.4768 47.0279 14.3431 47.0279 14.2053Z" fill="#465E74"/>
<path d="M82.8024 9.42371C84.7399 9.42371 86.6775 9.42371 88.6737 9.42371C88.6737 9.69116 88.6737 9.95861 88.6737 10.2342C86.7362 10.2342 84.7986 10.2342 82.8024 10.2342C82.8024 9.96671 82.8024 9.69926 82.8024 9.42371Z" fill="#FEA046"/>
<path d="M80.4812 28.5504C80.7065 28.5504 80.9318 28.5504 81.1639 28.5504C81.1639 30.8237 81.1639 33.0971 81.1639 35.4393C80.9386 35.4393 80.7133 35.4393 80.4812 35.4393C80.4812 33.166 80.4812 30.8926 80.4812 28.5504Z" fill="#EE792A"/>
<path d="M66.6903 28.5504C66.9156 28.5504 67.1409 28.5504 67.373 28.5504C67.373 30.8237 67.373 33.0971 67.373 35.4393C67.1477 35.4393 66.9224 35.4393 66.6903 35.4393C66.6903 33.166 66.6903 30.8926 66.6903 28.5504Z" fill="#EE7829"/>
<path d="M87.9911 18.0956C88.2164 18.0956 88.4417 18.0956 88.6738 18.0956C88.6738 20.3689 88.6738 22.6422 88.6738 24.9845C88.4485 24.9845 88.2232 24.9845 87.9911 24.9845C87.9911 22.7111 87.9911 20.4378 87.9911 18.0956Z" fill="#DE4215"/>
<path d="M80.7543 18.0956C80.9796 18.0956 81.2049 18.0956 81.437 18.0956C81.437 20.3689 81.437 22.6422 81.437 24.9845C81.2117 24.9845 80.9864 24.9845 80.7543 24.9845C80.7543 22.7111 80.7543 20.4378 80.7543 18.0956Z" fill="#DE4215"/>
<path d="M3.47058 35.1151C4.05635 35.1151 4.64212 35.1151 5.24565 35.1151C5.24565 35.2488 5.24565 35.3826 5.24565 35.5203C4.88517 35.5203 4.5247 35.5203 4.1533 35.5203C4.1533 36.2425 4.1533 36.9646 4.1533 37.7086C5.3699 37.7086 6.58651 37.7086 7.83998 37.7086C7.83998 37.869 7.83998 38.0295 7.83998 38.1948C6.62337 38.1948 5.40677 38.1948 4.1533 38.1948C4.1533 38.7297 4.1533 39.2646 4.1533 39.8158C4.10824 39.8158 4.06318 39.8158 4.01676 39.8158C4.01676 39.2541 4.01676 38.6925 4.01676 38.1138C3.83652 38.1138 3.65628 38.1138 3.47058 38.1138C3.47058 37.1242 3.47058 36.1347 3.47058 35.1151Z" fill="#465F76"/>
<path d="M79.6619 9.42371C80.2927 9.42371 80.9235 9.42371 81.5735 9.42371C81.5735 9.69116 81.5735 9.95861 81.5735 10.2342C81.3482 10.2342 81.1229 10.2342 80.8908 10.2342C80.8908 11.6784 80.8908 13.1226 80.8908 14.6106C80.7105 14.6106 80.5303 14.6106 80.3446 14.6106C80.3446 13.1931 80.3446 11.7756 80.3446 10.3152C80.1193 10.3152 79.894 10.3152 79.6619 10.3152C79.6619 10.021 79.6619 9.72682 79.6619 9.42371Z" fill="#F69749"/>
<path d="M32.9641 18.0956C33.1443 18.0956 33.3245 18.0956 33.5102 18.0956C33.5102 20.3957 33.5102 22.6957 33.5102 25.0655C33.2849 25.0655 33.0596 25.0655 32.8275 25.0655C32.8726 22.7654 32.9176 20.4654 32.9641 18.0956Z" fill="#ED7526"/>
<path d="M32.5544 28.7125C33.05 28.7125 33.5457 28.7125 34.0563 28.7125C34.0563 28.7393 34.0563 28.766 34.0563 28.7936C33.6508 28.7936 33.2453 28.7936 32.8275 28.7936C32.8372 28.86 32.8469 28.9264 32.8569 28.9949C32.9587 29.7516 32.982 30.5034 32.9773 31.2623C32.9771 31.386 32.9769 31.5098 32.9767 31.6336C32.9762 31.9552 32.9749 32.2768 32.9734 32.5984C32.972 32.9283 32.9714 33.2581 32.9707 33.5879C32.9692 34.2321 32.9669 34.8762 32.964 35.5204C32.7838 35.5204 32.6035 35.5204 32.4178 35.5204C32.4146 34.8122 32.4122 34.1041 32.4108 33.396C32.41 33.067 32.4091 32.7381 32.4075 32.4091C32.406 32.0907 32.4052 31.7722 32.4049 31.4538C32.4046 31.3333 32.4041 31.2129 32.4034 31.0924C32.3987 30.2952 32.4475 29.5074 32.5544 28.7125Z" fill="#F3E7DF"/>
<path d="M35.5583 28.7125C36.8912 28.7106 38.2241 28.7092 39.557 28.7083C40.1758 28.7079 40.7946 28.7073 41.4135 28.7064C42.0102 28.7055 42.6069 28.705 43.2036 28.7048C43.4318 28.7046 43.66 28.7043 43.8881 28.7039C44.2066 28.7033 44.5251 28.7032 44.8435 28.7033C44.9388 28.703 45.0341 28.7027 45.1322 28.7024C45.7835 28.7032 45.7835 28.7032 45.9357 28.7935C45.9445 29.0032 45.9445 29.2106 45.9386 29.4202C45.9373 29.4858 45.936 29.5515 45.9347 29.6191C45.9301 29.837 45.9246 30.055 45.9191 30.2729C45.9158 30.4236 45.9126 30.5743 45.9094 30.725C45.9008 31.1225 45.8913 31.5199 45.8817 31.9174C45.8721 32.3226 45.8632 32.7279 45.8543 33.1331C45.8367 33.9288 45.8182 34.7246 45.7991 35.5203C45.7541 35.5203 45.709 35.5203 45.6626 35.5203C45.6626 33.6481 45.6626 31.776 45.6626 29.8471C45.3472 29.8471 45.0317 29.8471 44.7068 29.8471C44.7068 29.4994 44.7068 29.1517 44.7068 28.7935C41.6878 28.7935 38.6688 28.7935 35.5583 28.7935C35.5583 28.7668 35.5583 28.74 35.5583 28.7125Z" fill="#F6B884"/>
<path d="M24.6349 18.0956C25.7614 18.0956 26.8879 18.0956 28.0485 18.0956C27.9119 18.6629 27.9119 18.6629 27.6933 18.8247C27.2235 19.0233 26.9015 19.1408 26.3246 19.1998C25.6271 19.1232 25.2129 18.9582 24.7885 18.6224C24.6349 18.4198 24.6349 18.4198 24.6349 18.0956Z" fill="#ED7626"/>
<path d="M38.4258 18.0956C39.5523 18.0956 40.6788 18.0956 41.8394 18.0956C41.702 18.5849 41.5786 18.8057 40.9092 19.0935C40.2738 19.212 39.8054 19.1939 39.2109 19.0175C38.7985 18.8061 38.6196 18.6391 38.4258 18.3387C38.4258 18.2585 38.4258 18.1782 38.4258 18.0956Z" fill="#ED7626"/>
<path d="M10.844 18.0956C11.9254 18.0956 13.0068 18.0956 14.121 18.0956C13.9645 18.7462 13.9645 18.7462 13.4383 18.9871C12.9833 19.1671 12.6138 19.1877 12.0729 19.1492C11.4811 18.9632 11.1204 18.7844 10.844 18.4198C10.844 18.3128 10.844 18.2058 10.844 18.0956Z" fill="#86BFE9"/>
<path d="M58.4977 28.5504C59.5791 28.5504 60.6605 28.5504 61.7747 28.5504C61.6209 29.0981 61.6209 29.0981 61.2371 29.2646C60.622 29.5254 60.3576 29.5388 59.6258 29.4821C59.1667 29.4223 58.9363 29.3306 58.6342 29.1177C58.5892 28.9305 58.5441 28.7433 58.4977 28.5504Z" fill="#ED7526"/>
<path d="M86.0795 28.5504C87.1609 28.5504 88.2423 28.5504 89.3565 28.5504C89.199 29.1115 89.199 29.1115 88.6738 29.3609C88.1873 29.56 87.7514 29.5645 87.1718 29.523C86.7006 29.3573 86.3831 29.1449 86.0795 28.8746C86.0795 28.7676 86.0795 28.6606 86.0795 28.5504Z" fill="#ED7526"/>
<path d="M72.2886 28.5504C73.37 28.5504 74.4514 28.5504 75.5656 28.5504C75.4081 29.1115 75.4081 29.1115 74.8829 29.3609C74.3615 29.5462 73.9966 29.5402 73.4071 29.4907C72.926 29.4123 72.7096 29.2742 72.4251 29.0367C72.3801 28.8762 72.335 28.7157 72.2886 28.5504Z" fill="#ED7526"/>
<path d="M36.5142 7.88379C37.0098 7.88379 37.5055 7.88379 38.0161 7.88379C38.0161 8.39194 38.0161 8.9001 38.0161 9.42365C37.5205 9.42365 37.0248 9.42365 36.5142 9.42365C36.5142 8.9155 36.5142 8.40734 36.5142 7.88379Z" fill="#DF4517"/>
<path d="M19.3097 29.9282C19.4449 29.9282 19.58 29.9282 19.7193 29.9282C19.7193 31.7736 19.7193 33.619 19.7193 35.5204C19.5841 35.5204 19.449 35.5204 19.3097 35.5204C19.3097 33.675 19.3097 31.8296 19.3097 29.9282Z" fill="#F3F0EF"/>
<path d="M26.0002 9.01843C26.1354 9.01843 26.2706 9.01843 26.4099 9.01843C26.4099 10.8638 26.4099 12.7092 26.4099 14.6106C26.2747 14.6106 26.1395 14.6106 26.0002 14.6106C26.0002 12.7652 26.0002 10.9198 26.0002 9.01843Z" fill="#F4EBE4"/>
<path d="M32.8275 28.7936C33.233 28.7936 33.6386 28.7936 34.0564 28.7936C34.0564 29.168 34.0564 29.5424 34.0564 29.9282C33.741 29.9282 33.4256 29.9282 33.1006 29.9282C33.1006 31.7736 33.1006 33.619 33.1006 35.5204C33.0555 35.5204 33.0105 35.5204 32.9641 35.5204C32.919 33.3005 32.8739 31.0807 32.8275 28.7936Z" fill="#FDA753"/>
<path d="M18.2173 28.7936C18.6228 28.7936 19.0284 28.7936 19.4462 28.7936C19.4011 31.0134 19.3561 33.2333 19.3096 35.5204C19.2646 35.5204 19.2195 35.5204 19.1731 35.5204C19.1731 33.675 19.1731 31.8295 19.1731 29.9282C18.8577 29.9282 18.5423 29.9282 18.2173 29.9282C18.2173 29.5538 18.2173 29.1794 18.2173 28.7936Z" fill="#F79747"/>
<path d="M38.0161 7.88379C38.4216 7.88379 38.8272 7.88379 39.245 7.88379C39.1999 10.1036 39.1549 12.3235 39.1085 14.6106C39.0634 14.6106 39.0183 14.6106 38.9719 14.6106C38.9719 12.7652 38.9719 10.9198 38.9719 9.01843C38.6565 9.01843 38.3411 9.01843 38.0161 9.01843C38.0161 8.644 38.0161 8.26957 38.0161 7.88379Z" fill="#F99E53"/>
<path d="M34.0564 28.7936C34.507 28.7936 34.9576 28.7936 35.4218 28.7936C35.4669 29.3017 35.512 29.8099 35.5584 30.3334C35.0627 30.3334 34.5671 30.3334 34.0564 30.3334C34.0564 29.8253 34.0564 29.3171 34.0564 28.7936Z" fill="#DD4014"/>
<path d="M27.5022 7.88379C27.9528 7.88379 28.4034 7.88379 28.8676 7.88379C28.8676 8.39194 28.8676 8.9001 28.8676 9.42365C28.417 9.42365 27.9664 9.42365 27.5022 9.42365C27.5022 8.9155 27.5022 8.40734 27.5022 7.88379Z" fill="#DD4014"/>
<path d="M29.9601 28.7936C30.4107 28.7936 30.8613 28.7936 31.3255 28.7936C31.3255 29.3017 31.3255 29.8099 31.3255 30.3334C30.8749 30.3334 30.4243 30.3334 29.9601 30.3334C29.9601 29.8253 29.9601 29.3171 29.9601 28.7936Z" fill="#DD3F14"/>
<path d="M16.8518 28.7936C17.3024 28.7936 17.753 28.7936 18.2172 28.7936C18.2172 29.3017 18.2172 29.8099 18.2172 30.3334C17.2614 30.3334 17.2614 30.3334 16.8518 30.2524C16.8518 29.771 16.8518 29.2896 16.8518 28.7936Z" fill="#DD4115"/>
<path d="M7.70349 28.7936C8.15408 28.7936 8.60468 28.7936 9.06893 28.7936C9.06893 29.3017 9.06893 29.8099 9.06893 30.3334C8.11312 30.3334 8.11312 30.3334 7.70349 30.2524C7.70349 29.771 7.70349 29.2896 7.70349 28.7936Z" fill="#DD3F13"/>
<path d="M58.6342 7.88379C59.0847 7.88379 59.5353 7.88379 59.9996 7.88379C59.9996 8.3652 59.9996 8.84661 59.9996 9.34261C59.0438 9.42365 59.0438 9.42365 58.6342 9.34261C58.6342 8.8612 58.6342 8.37979 58.6342 7.88379Z" fill="#DD4014"/>
<path d="M67.7826 7.88379C68.2332 7.88379 68.6838 7.88379 69.148 7.88379C69.148 8.39194 69.148 8.9001 69.148 9.42365C68.6974 9.39691 68.2468 9.37016 67.7826 9.34261C67.7826 8.8612 67.7826 8.37979 67.7826 7.88379Z" fill="#DD3F14"/>
<path d="M43.2047 28.7936C43.6553 28.7936 44.1059 28.7936 44.5701 28.7936C44.5701 29.275 44.5701 29.7564 44.5701 30.2524C44.1196 30.2524 43.669 30.2524 43.2047 30.2524C43.2047 29.771 43.2047 29.2896 43.2047 28.7936Z" fill="#DD4014"/>
<path d="M23.406 7.96484C23.8566 7.96484 24.3072 7.96484 24.7714 7.96484C24.7714 8.44625 24.7714 8.92766 24.7714 9.42366C24.3208 9.42366 23.8703 9.42366 23.406 9.42366C23.406 8.94225 23.406 8.46084 23.406 7.96484Z" fill="#DD3F13"/>
<path d="M14.3941 7.96484C14.7996 7.96484 15.2052 7.96484 15.623 7.96484C15.623 8.44625 15.623 8.92766 15.623 9.42366C15.1724 9.42366 14.7218 9.42366 14.2576 9.42366C14.3252 8.70155 14.3252 8.70155 14.3941 7.96484Z" fill="#DC3F13"/>
<path d="M20.9481 28.7936C21.3537 28.7936 21.7592 28.7936 22.177 28.7936C22.177 29.275 22.177 29.7564 22.177 30.2524C21.7715 30.2524 21.3659 30.2524 20.9481 30.2524C20.9481 29.771 20.9481 29.2896 20.9481 28.7936Z" fill="#DD3E14"/>
<path d="M80.4812 10.3152C80.6164 10.3152 80.7516 10.3152 80.8908 10.3152C80.8908 11.7327 80.8908 13.1502 80.8908 14.6106C80.7557 14.6106 80.6205 14.6106 80.4812 14.6106C80.4812 13.1931 80.4812 11.7756 80.4812 10.3152Z" fill="#F4DCC8"/>
<path d="M69.1481 7.88379C69.5536 7.88379 69.9591 7.88379 70.377 7.88379C70.3806 8.05769 70.3833 8.23161 70.3855 8.40552C70.3871 8.50237 70.3887 8.59921 70.3903 8.69899C70.377 8.93738 70.377 8.93738 70.2404 9.01843C69.8758 9.02987 69.5134 9.02187 69.1481 9.01843C69.1481 8.644 69.1481 8.26957 69.1481 7.88379Z" fill="#FD9D44"/>
<path d="M29.9601 28.7125C30.8162 28.7125 31.6723 28.7125 32.5544 28.7125C32.5544 29.1137 32.5544 29.5149 32.5544 29.9282C32.1939 29.9015 31.8335 29.8747 31.4621 29.8472C31.4621 29.4995 31.4621 29.1518 31.4621 28.7936C30.9664 28.7936 30.4708 28.7936 29.9601 28.7936C29.9601 28.7668 29.9601 28.7401 29.9601 28.7125Z" fill="#FCA14C"/>
<path d="M81.7101 9.42371C82.0706 9.42371 82.431 9.42371 82.8024 9.42371C82.8024 9.82488 82.8024 10.2261 82.8024 10.6394C82.442 10.6126 82.0815 10.5859 81.7101 10.5583C81.7101 10.1839 81.7101 9.80948 81.7101 9.42371Z" fill="#DE4115"/>
<path d="M88.6738 9.42371C89.0343 9.42371 89.3948 9.42371 89.7662 9.42371C89.7662 9.79814 89.7662 10.1726 89.7662 10.5583C89.4057 10.5583 89.0452 10.5583 88.6738 10.5583C88.6738 10.1839 88.6738 9.80948 88.6738 9.42371Z" fill="#DE4215"/>
<path d="M26.2733 7.88379C26.6338 7.88379 26.9943 7.88379 27.3657 7.88379C27.3657 8.25822 27.3657 8.63265 27.3657 9.01843C27.0052 9.01843 26.6447 9.01843 26.2733 9.01843C26.2733 8.644 26.2733 8.26957 26.2733 7.88379Z" fill="#FEA147"/>
<path d="M6.47449 28.7936C6.83496 28.7936 7.19544 28.7936 7.56684 28.7936C7.56684 29.1413 7.56684 29.4889 7.56684 29.8472C7.20636 29.8739 6.84589 29.9007 6.47449 29.9282C6.47449 29.5538 6.47449 29.1794 6.47449 28.7936Z" fill="#FEA146"/>
<path d="M57.4053 7.88379C57.7657 7.88379 58.1262 7.88379 58.4976 7.88379C58.4976 8.23147 58.4976 8.57916 58.4976 8.93738C58.1371 8.96413 57.7767 8.99087 57.4053 9.01843C57.4053 8.644 57.4053 8.26957 57.4053 7.88379Z" fill="#FEA249"/>
<path d="M78.5696 9.42371C78.885 9.42371 79.2004 9.42371 79.5254 9.42371C79.5254 9.79814 79.5254 10.1726 79.5254 10.5583C79.21 10.5583 78.8946 10.5583 78.5696 10.5583C78.5696 10.1839 78.5696 9.80948 78.5696 9.42371Z" fill="#DC3E13"/>
<path d="M71.6058 9.42371C71.9213 9.42371 72.2367 9.42371 72.5616 9.42371C72.5616 9.79814 72.5616 10.1726 72.5616 10.5583C72.2462 10.5583 71.9308 10.5583 71.6058 10.5583C71.6058 10.1839 71.6058 9.80948 71.6058 9.42371Z" fill="#DC3E13"/>
<path d="M44.7068 28.7936C45.0222 28.7936 45.3376 28.7936 45.6626 28.7936C45.6626 29.1413 45.6626 29.4889 45.6626 29.8472C45.3472 29.8472 45.0318 29.8472 44.7068 29.8472C44.7068 29.4995 44.7068 29.1518 44.7068 28.7936Z" fill="#FEA146"/>
<path d="M80.4812 9.42371C80.8417 9.42371 81.2022 9.42371 81.5735 9.42371C81.5735 9.69116 81.5735 9.95861 81.5735 10.2342C81.2131 10.2609 80.8526 10.2877 80.4812 10.3152C80.4812 10.021 80.4812 9.72682 80.4812 9.42371Z" fill="#FDA856"/>
<path d="M89.7661 9.42371C90.0815 9.42371 90.3969 9.42371 90.7219 9.42371C90.7219 9.7179 90.7219 10.0121 90.7219 10.3152C90.4065 10.3152 90.0911 10.3152 89.7661 10.3152C89.7661 10.021 89.7661 9.72682 89.7661 9.42371Z" fill="#FC9C43"/>
</svg>
