<svg width="60" height="40" viewBox="0 0 60 40" fill="none" xmlns="http://www.w3.org/2000/svg">
<path d="M9.53586 0C22.0617 0 34.5876 0 47.4931 0C47.4931 1.85211 47.4931 3.70422 47.4931 5.61246C47.3457 5.61246 47.1983 5.61246 47.0465 5.61246C47.0492 5.72317 47.0519 5.83388 47.0547 5.94795C47.1445 9.65049 47.1445 9.65049 47.147 10.863C47.1476 10.9794 47.1476 10.9794 47.1482 11.0981C47.148 11.1683 47.1479 11.2385 47.1477 11.3109C47.1475 11.3972 47.1475 11.3972 47.1474 11.4852C47.1358 11.6703 47.1358 11.6703 47.0922 11.8984C47.0279 12.3295 47.0254 12.7572 47.0182 13.1925C47.0164 13.2866 47.0145 13.3808 47.0126 13.4778C47.0068 13.7773 47.0015 14.0768 46.9963 14.3764C46.9924 14.5799 46.9885 14.7835 46.9846 14.9871C46.975 15.4851 46.9659 15.983 46.9572 16.481C47.0414 16.4795 47.1255 16.478 47.2122 16.4765C47.7188 16.4847 48.1169 16.7488 48.4716 17.0991C48.5734 17.2159 48.6731 17.3345 48.7699 17.4554C48.9559 17.6801 49.1613 17.8793 49.3686 18.0846C50.8869 19.7027 50.8869 19.7027 50.8869 19.9554C50.9458 19.9554 51.0048 19.9554 51.0655 19.9554C51.1843 20.0882 51.2966 20.2269 51.406 20.3674C51.7419 20.7869 52.0927 21.1843 52.461 21.5757C52.5615 21.6826 52.6619 21.7896 52.7624 21.8965C52.8092 21.9463 52.8559 21.996 52.9041 22.0473C53.2383 22.4053 53.556 22.7765 53.8704 23.1517C53.9513 23.2482 54.0323 23.3446 54.1132 23.4409C54.1544 23.4899 54.1955 23.5389 54.2379 23.5894C54.5616 23.9717 54.9014 24.3362 55.2464 24.6993C55.9447 25.4373 56.4635 26.0436 56.4482 27.0959C56.3855 27.7567 56.0303 28.1389 55.5398 28.5571C55.0047 28.9249 54.4642 28.9272 53.8341 28.8641C53.2699 28.7202 52.9416 28.349 52.58 27.9123C52.4047 27.6993 52.4047 27.6993 52.191 27.4933C51.9358 27.2377 51.7052 26.9687 51.473 26.6926C51.0764 26.2252 50.6668 25.7733 50.245 25.3284C49.8231 24.8832 49.4261 24.4277 49.0427 23.9486C48.7395 23.5853 48.416 23.2419 48.0907 22.8982C47.7603 22.5487 47.4501 22.192 47.1358 21.8262C47.1063 25.5304 47.0769 29.2347 47.0465 33.0511C50.9958 33.0511 54.9452 33.0511 59.0142 33.0511C59.0142 33.4921 59.0142 33.9331 59.0142 34.3874C58.9258 34.3874 58.8374 34.3874 58.7463 34.3874C58.7463 34.799 58.7463 35.2106 58.7463 35.6347C58.8347 35.6347 58.9231 35.6347 59.0142 35.6347C59.0142 37.0752 59.0142 38.5157 59.0142 39.9999C39.5917 39.9999 20.1692 39.9999 0.158203 39.9999C0.158203 38.5594 0.158203 37.1188 0.158203 35.6347C0.246621 35.6347 0.335039 35.6347 0.426136 35.6347C0.426136 35.2231 0.426136 34.8115 0.426136 34.3874C0.337718 34.3874 0.2493 34.3874 0.158203 34.3874C0.158203 33.9465 0.158203 33.5055 0.158203 33.0511C3.40019 33.0511 6.64219 33.0511 9.98242 33.0511C9.98242 23.967 9.98242 14.8828 9.98242 5.52337C9.83506 5.52337 9.68769 5.52337 9.53586 5.52337C9.53586 3.70066 9.53586 1.87795 9.53586 0Z" fill="#EC7425"/>
<path d="M0.158203 33.0469C19.5807 33.0469 39.0032 33.0469 59.0142 33.0469C59.0142 33.4879 59.0142 33.9288 59.0142 34.3832C58.9258 34.3832 58.8374 34.3832 58.7463 34.3832C58.7463 34.7948 58.7463 35.2063 58.7463 35.6304C58.8347 35.6304 58.9231 35.6304 59.0142 35.6304C59.0142 37.0709 59.0142 38.5115 59.0142 39.9956C39.5917 39.9956 20.1692 39.9956 0.158203 39.9956C0.158203 38.5551 0.158203 37.1146 0.158203 35.6304C0.246621 35.6304 0.335039 35.6304 0.426136 35.6304C0.426136 35.2188 0.426136 34.8072 0.426136 34.3832C0.337718 34.3832 0.2493 34.3832 0.158203 34.3832C0.158203 33.9422 0.158203 33.5012 0.158203 33.0469Z" fill="#192939"/>
<path d="M9.53583 0C10.7147 0 11.8936 0 13.1083 0C13.1083 1.82271 13.1083 3.64543 13.1083 5.52337C12.1062 5.52337 11.1041 5.52337 10.0717 5.52337C10.4813 6.03405 10.8872 6.53952 11.3165 7.03228C11.7044 7.48053 12.0841 7.93427 12.4583 8.39398C12.6869 8.67205 12.9195 8.94648 13.1529 9.22047C13.521 9.6525 13.8826 10.0892 14.2414 10.5289C14.5126 10.858 14.7891 11.1824 15.0656 11.507C15.3228 11.8093 15.5761 12.1142 15.8267 12.422C16.1353 12.8003 16.4509 13.1717 16.77 13.5412C17.2254 14.0687 17.6694 14.6045 18.1097 15.1447C18.3196 15.4012 18.5299 15.6572 18.7404 15.9131C18.7942 15.9785 18.848 16.0439 18.9034 16.1112C19.2454 16.5255 19.5946 16.9294 19.9622 17.3214C20.0745 17.461 20.0745 17.461 20.0745 17.6392C19.9861 17.6392 19.8977 17.6392 19.8066 17.6392C19.8113 17.9678 19.8198 18.2962 19.8289 18.6247C19.8302 18.7172 19.8315 18.8097 19.8328 18.905C19.8509 19.475 19.8995 19.8547 20.2532 20.3118C20.4358 20.4382 20.4358 20.4382 20.6327 20.4844C20.7432 20.5156 20.8538 20.5468 20.9676 20.579C20.9676 21.0494 20.9676 21.5198 20.9676 22.0044C20.7715 22.0237 20.7715 22.0237 20.5713 22.0434C20.2962 22.0521 20.2962 22.0521 20.0745 22.1826C20.8113 22.212 21.5482 22.2414 22.3073 22.2717C22.3073 22.2129 22.3073 22.1541 22.3073 22.0935C21.9831 22.0641 21.6589 22.0347 21.3249 22.0044C21.3249 21.534 21.3249 21.0636 21.3249 20.579C22.0694 20.2186 22.0694 20.2186 22.3167 20.2355C22.5371 20.3348 22.6191 20.4497 22.7594 20.6458C23.0247 21.0028 23.3017 21.344 23.5912 21.6815C23.9678 22.1221 24.3382 22.5671 24.7037 23.0171C24.7676 23.0945 24.8315 23.1719 24.8973 23.2516C24.93 23.3059 24.9627 23.3601 24.9964 23.416C25.1989 23.7169 25.3377 23.855 25.7006 23.9318C26.0241 23.9534 26.3426 23.9572 26.6668 23.9532C26.8869 23.9545 27.1071 23.9561 27.3272 23.958C27.4244 23.9573 27.5215 23.9566 27.6216 23.9559C27.8446 23.9643 27.8446 23.9643 27.9339 24.0534C27.9349 24.2561 27.9307 24.4588 27.9245 24.6613C27.8286 26.2268 27.8286 26.2268 28.3908 27.6198C28.6136 27.8449 28.8481 28.0414 29.0949 28.2405C29.5415 28.7092 29.5415 28.7092 29.5415 28.9532C29.6005 28.9532 29.6594 28.9532 29.7201 28.9532C29.8593 29.1073 29.8593 29.1073 30.0271 29.3262C30.3172 29.6973 30.6142 30.0597 30.9202 30.4175C31.2928 30.8544 31.6602 31.2949 32.023 31.7399C32.1645 31.9131 32.3065 32.0857 32.4493 32.2577C32.56 32.3914 32.56 32.3914 32.673 32.5278C32.7403 32.6088 32.8077 32.6899 32.8771 32.7734C33.0246 32.9621 33.0246 32.9621 33.0246 33.0511C25.4207 33.0511 17.8167 33.0511 9.98238 33.0511C9.98238 23.967 9.98238 14.8828 9.98238 5.52337C9.83502 5.52337 9.68766 5.52337 9.53583 5.52337C9.53583 3.70066 9.53583 1.87795 9.53583 0Z" fill="#FEA047"/>
<path d="M17.3058 0C27.2676 0 37.2294 0 47.493 0C47.493 1.85211 47.493 3.70422 47.493 5.61246C47.3456 5.61246 47.1983 5.61246 47.0464 5.61246C47.0464 6.7884 47.0464 7.96435 47.0464 9.17592C46.9088 8.90136 46.8406 8.72691 46.7729 8.44096C46.2009 6.51631 44.7735 5.22497 43.0581 4.2894C41.384 3.47082 39.226 3.51418 37.4901 4.09799C36.674 4.42132 35.881 4.9013 35.2574 5.52337C35.02 5.54059 34.7919 5.54658 34.5544 5.5448C34.4809 5.54495 34.4075 5.5451 34.3318 5.54526C34.0842 5.54555 33.8367 5.54457 33.5892 5.5436C33.4123 5.54355 33.2354 5.54358 33.0585 5.54368C32.5771 5.54373 32.0957 5.54268 31.6143 5.54144C31.1117 5.54033 30.609 5.54022 30.1064 5.54001C29.154 5.53945 28.2016 5.53799 27.2492 5.5362C26.1652 5.53421 25.0812 5.53323 23.9971 5.53234C21.7667 5.53047 19.5363 5.5272 17.3058 5.52337C17.3058 3.70066 17.3058 1.87795 17.3058 0Z" fill="#FEA147"/>
<path d="M13.1083 24.0527C17.9713 24.0527 22.8343 24.0527 27.8446 24.0527C27.8446 26.3164 27.8446 28.5801 27.8446 30.9124C22.9816 30.9124 18.1186 30.9124 13.1083 30.9124C13.1083 28.6487 13.1083 26.385 13.1083 24.0527Z" fill="#CED9E0"/>
<path d="M43.2518 6.47586C44.2641 7.21344 45.0163 8.39372 45.2603 9.62626C45.4426 11.1669 45.2378 12.6467 44.2779 13.9024C44.2266 13.9718 44.1754 14.0411 44.1226 14.1126C43.4221 14.9804 42.2597 15.7323 41.152 15.8623C41.1225 15.8917 41.093 15.9211 41.0627 15.9514C39.9204 16.0555 38.7771 16.0764 37.7582 15.506C37.6737 15.4607 37.5892 15.4155 37.5021 15.3689C36.1935 14.6059 35.3313 13.4851 34.9392 12.0365C34.7666 11.3175 34.7566 10.6275 34.8109 9.89352C34.8163 9.81244 34.8217 9.73137 34.8273 9.64783C34.9875 8.45213 35.8479 7.32321 36.7489 6.57539C38.7543 5.05489 41.1751 5.12602 43.2518 6.47586Z" fill="#A9D2EE"/>
<path d="M43.9206 4.72589C44.0102 4.78652 44.0998 4.84715 44.192 4.90963C45.6469 5.93833 46.7666 7.43248 47.0873 9.21084C47.2068 10.07 47.2536 11.0526 47.0916 11.9081C47.0273 12.3372 47.0254 12.7634 47.0182 13.1968C47.0155 13.338 47.0155 13.338 47.0126 13.4821C47.0068 13.7816 47.0015 14.0811 46.9963 14.3806C46.9924 14.5842 46.9885 14.7878 46.9846 14.9914C46.975 15.4894 46.9659 15.9873 46.9572 16.4853C47.0829 16.4826 47.0829 16.4826 47.2111 16.4798C47.516 16.4858 47.6617 16.5409 47.9229 16.6913C47.9916 16.7296 48.0603 16.7678 48.1311 16.8072C48.2969 16.9308 48.2969 16.9308 48.3862 17.198C47.6624 17.9278 46.9025 18.6102 46.0976 19.2494C45.8953 19.417 45.7108 19.593 45.5282 19.7815C45.2603 19.6924 45.2603 19.6924 45.0649 19.4196C44.8767 19.0359 44.902 18.688 44.9254 18.2726C44.9448 17.8954 44.9415 17.6204 44.7454 17.284C44.569 17.09 44.393 16.9165 44.1886 16.7526C43.6668 16.8865 43.2128 17.0863 42.7322 17.3257C42.3301 17.5202 41.9448 17.6322 41.5092 17.7325C41.4503 17.7619 41.3913 17.7913 41.3306 17.8216C39.3157 17.977 37.2741 17.7137 35.6897 16.3639C35.6355 16.3158 35.5812 16.2676 35.5254 16.2181C35.4454 16.1555 35.4454 16.1555 35.3639 16.0917C33.9698 14.9861 33.1496 13.2251 32.9354 11.4965C32.77 9.65108 33.2128 7.86347 34.3532 6.38512C34.4738 6.24588 34.5967 6.10853 34.7216 5.9731C34.7885 5.89822 34.8554 5.82335 34.9243 5.74621C35.4742 5.16131 36.0764 4.75911 36.7757 4.36954C36.8349 4.33302 36.8941 4.2965 36.9551 4.25888C38.9643 3.09951 42.0799 3.42113 43.9206 4.72589ZM35.8858 7.42876C34.9832 8.6443 34.6727 9.91669 34.8109 11.4074C35.0375 12.8564 35.7206 14.0365 36.865 14.9708C37.8852 15.6774 38.7974 15.997 40.0356 15.9731C40.1824 15.9724 40.1824 15.9724 40.3321 15.9717C40.7734 16.0085 40.7734 16.0085 41.152 15.8617C41.2662 15.8415 41.3804 15.8213 41.4981 15.8005C42.9261 15.4912 43.9392 14.4026 44.7467 13.2615C45.3562 12.0837 45.5127 10.4904 45.1616 9.21467C44.8654 8.31304 44.3681 7.49461 43.6527 6.86396C43.5947 6.80919 43.5366 6.75441 43.4769 6.69797C42.8353 6.13163 42.1347 5.87029 41.3306 5.61675C41.2259 5.58322 41.1213 5.54969 41.0135 5.51514C39.0891 5.03688 37.1165 5.96679 35.8858 7.42876Z" fill="#455E75"/>
<path d="M7.39246 34.3848C13.5522 34.3848 19.712 34.3848 26.0585 34.3848C26.0585 34.7669 26.0585 35.1491 26.0585 35.5429C25.9995 35.5429 25.9406 35.5429 25.8798 35.5429C25.8798 36.5718 25.8798 37.6008 25.8798 38.6609C19.838 38.6609 13.7961 38.6609 7.57108 38.6609C7.57108 37.632 7.57108 36.603 7.57108 35.5429C7.51213 35.5429 7.45319 35.5429 7.39246 35.5429C7.39246 35.1607 7.39246 34.7785 7.39246 34.3848Z" fill="#F2F3F5"/>
<path d="M33.114 34.3848C39.2737 34.3848 45.4335 34.3848 51.78 34.3848C51.78 34.7669 51.78 35.1491 51.78 35.5429C51.6915 35.5429 51.6031 35.5429 51.512 35.5429C51.512 36.5718 51.512 37.6008 51.512 38.6609C45.4996 38.6609 39.4872 38.6609 33.2926 38.6609C33.2926 37.632 33.2926 36.603 33.2926 35.5429C33.2336 35.5429 33.1747 35.5429 33.114 35.5429C33.114 35.1607 33.114 34.7785 33.114 34.3848Z" fill="#F2F3F5"/>
<path d="M0.158203 33.0469C19.5807 33.0469 39.0032 33.0469 59.0142 33.0469C59.0142 33.4879 59.0142 33.9288 59.0142 34.3832C58.9258 34.3832 58.8374 34.3832 58.7463 34.3832C58.7463 34.7948 58.7463 35.2063 58.7463 35.6304C58.8347 35.6304 58.9231 35.6304 59.0142 35.6304C59.0142 37.0709 59.0142 38.5115 59.0142 39.9956C39.5917 39.9956 20.1692 39.9956 0.158203 39.9956C0.158203 39.9662 0.158203 39.9368 0.158203 39.9065C19.5512 39.9065 38.9442 39.9065 58.9249 39.9065C58.9249 39.5244 58.9249 39.1422 58.9249 38.7484C41.9781 38.7484 25.0313 38.7484 7.57102 38.7484C7.57102 38.719 7.57102 38.6896 7.57102 38.6593C13.6129 38.6593 19.6548 38.6593 25.8798 38.6593C25.8798 37.6304 25.8798 36.6014 25.8798 35.5413C25.9387 35.5413 25.9977 35.5413 26.0584 35.5413C26.0584 35.1591 26.0584 34.7769 26.0584 34.3832C26.0879 34.3832 26.1174 34.3832 26.1477 34.3832C26.1477 34.7948 26.1477 35.2063 26.1477 35.6304C28.3876 35.601 30.6276 35.5716 32.9354 35.5413C32.9648 35.1297 32.9943 34.7181 33.0247 34.2941C41.5717 34.2941 50.1188 34.2941 58.9249 34.2941C58.9249 33.9119 58.9249 33.5297 58.9249 33.136C39.5319 33.136 20.1389 33.136 0.158203 33.136C0.158203 33.1066 0.158203 33.0772 0.158203 33.0469ZM33.114 34.3832C33.114 34.7654 33.114 35.1475 33.114 35.5413C33.1729 35.5413 33.2319 35.5413 33.2926 35.5413C33.2926 36.5703 33.2926 37.5992 33.2926 38.6593C39.305 38.6593 45.3174 38.6593 51.5121 38.6593C51.5121 37.6304 51.5121 36.6014 51.5121 35.5413C51.6005 35.5413 51.6889 35.5413 51.78 35.5413C51.78 35.1591 51.78 34.7769 51.78 34.3832C45.6202 34.3832 39.4604 34.3832 33.114 34.3832Z" fill="#455E76"/>
<path d="M0.158203 38.663C4.48104 38.6603 8.80386 38.6638 13.1267 38.6712C13.189 38.6713 13.2512 38.6714 13.3154 38.6715C14.9007 38.6742 16.4859 38.677 18.0712 38.6799C19.1224 38.6818 20.1736 38.6837 21.2248 38.6855C21.2955 38.6856 21.3662 38.6857 21.439 38.6859C21.7983 38.6865 22.1575 38.6871 22.5168 38.6877C25.0348 38.6921 27.5529 38.6966 30.071 38.7011C32.5111 38.7054 34.9512 38.7098 37.3913 38.714C37.4671 38.7142 37.5428 38.7143 37.6209 38.7145C38.3819 38.7158 39.1429 38.7171 39.9039 38.7185C41.4529 38.7212 43.002 38.7239 44.551 38.7266C44.6577 38.7268 44.6577 38.7268 44.7666 38.727C49.4861 38.7353 54.2055 38.7437 58.9249 38.7521C58.9249 39.1343 58.9249 39.5165 58.9249 39.9102C39.5319 39.9102 20.1389 39.9102 0.158203 39.9102C0.158203 39.4987 0.158203 39.0871 0.158203 38.663Z" fill="#1A2A3A"/>
<path d="M48.922 17.8125C49.3044 17.9558 49.5387 18.2461 49.804 18.5419C49.875 18.6201 49.875 18.6201 49.9475 18.6998C50.0826 18.849 50.2169 18.9988 50.351 19.1488C50.4134 19.2177 50.4758 19.2866 50.5401 19.3576C50.8869 19.7482 50.8869 19.7482 50.8869 19.9506C50.9458 19.9506 51.0048 19.9506 51.0655 19.9506C51.1843 20.0834 51.2966 20.222 51.406 20.3626C51.7419 20.7821 52.0927 21.1795 52.461 21.5708C52.5615 21.6778 52.6619 21.7847 52.7624 21.8917C52.8325 21.9663 52.8325 21.9663 52.9041 22.0425C53.2383 22.4005 53.556 22.7716 53.8704 23.1469C53.9513 23.2433 54.0323 23.3397 54.1132 23.4361C54.175 23.5096 54.175 23.5096 54.2379 23.5846C54.5616 23.9668 54.9014 24.3313 55.2464 24.6944C55.9447 25.4325 56.4635 26.0388 56.4482 27.0911C56.3855 27.7519 56.0303 28.134 55.5398 28.5523C55.0047 28.9201 54.4642 28.9223 53.8341 28.8592C53.2699 28.7154 52.9416 28.3442 52.58 27.9075C52.4047 27.6945 52.4047 27.6945 52.191 27.4885C51.9358 27.2329 51.7052 26.9639 51.473 26.6878C51.0764 26.2204 50.6668 25.7685 50.245 25.3236C49.8227 24.8779 49.4254 24.422 49.0417 23.9424C48.7894 23.6403 48.5224 23.3548 48.2522 23.0686C47.8345 22.626 47.4396 22.1731 47.0594 21.6975C46.7911 21.3719 46.5026 21.0663 46.2117 20.7607C46.0641 20.5742 46.0641 20.5742 46.0641 20.3069C46.1858 20.1757 46.1858 20.1757 46.3599 20.0341C46.6651 19.7795 46.9608 19.5183 47.253 19.249C47.6722 18.8671 48.1031 18.5068 48.5456 18.1521C48.7459 17.9941 48.7459 17.9941 48.922 17.8125Z" fill="#1C2C3A"/>
<path d="M39.723 0C42.2871 0 44.8513 0 47.4931 0C47.4931 1.85211 47.4931 3.70422 47.4931 5.61246C47.3457 5.61246 47.1984 5.61246 47.0465 5.61246C47.0465 6.7884 47.0465 7.96435 47.0465 9.17592C46.9089 8.90136 46.8407 8.72691 46.773 8.44096C46.2774 6.77324 45.1134 5.52137 43.6527 4.6325C43.5919 4.59525 43.5311 4.558 43.4685 4.51962C42.9891 4.23814 42.5292 4.06967 41.9893 3.94208C41.9189 3.92359 41.8486 3.90511 41.7761 3.88606C41.0768 3.7147 40.4701 3.70223 39.723 3.65255C39.723 2.44721 39.723 1.24187 39.723 0Z" fill="#FEA149"/>
<path d="M51.78 34.3848C51.8095 34.3848 51.8389 34.3848 51.8693 34.3848C51.8693 34.7963 51.8693 35.2079 51.8693 35.632C54.1092 35.632 56.3491 35.632 58.6569 35.632C58.6569 35.2204 58.6569 34.8088 58.6569 34.3848C58.6864 34.3848 58.7159 34.3848 58.7463 34.3848C58.7463 34.7963 58.7463 35.2079 58.7463 35.632C58.8347 35.632 58.9231 35.632 59.0142 35.632C59.0142 37.0725 59.0142 38.513 59.0142 39.9972C39.5917 39.9972 20.1692 39.9972 0.158203 39.9972C0.158203 39.9678 0.158203 39.9384 0.158203 39.9081C19.5512 39.9081 38.9442 39.9081 58.9249 39.9081C58.9249 39.526 58.9249 39.1438 58.9249 38.75C41.9781 38.75 25.0313 38.75 7.57102 38.75C7.57102 38.7206 7.57102 38.6912 7.57102 38.6609C22.0716 38.6609 36.5721 38.6609 51.5121 38.6609C51.5121 37.632 51.5121 36.603 51.5121 35.5429C51.6005 35.5429 51.6889 35.5429 51.78 35.5429C51.78 35.1607 51.78 34.7785 51.78 34.3848Z" fill="#4A6075"/>
<path d="M13.287 0.0878906C14.5838 0.0878906 15.8806 0.0878906 17.2167 0.0878906C17.2284 0.7589 17.2402 1.42991 17.2516 2.10092C17.2569 2.41365 17.2623 2.72638 17.2678 3.0391C17.2951 4.57956 17.3132 6.1195 17.306 7.66025C16.9965 7.56049 16.727 7.46967 16.4575 7.2872C16.164 7.10525 16.164 7.10525 15.877 7.12573C15.6486 7.20169 15.4968 7.27878 15.2965 7.40413C14.9354 7.59708 14.833 7.58607 14.448 7.48208C13.9984 7.40199 13.7549 7.40429 13.287 7.48208C13.287 5.042 13.287 2.60192 13.287 0.0878906Z" fill="#DD3E13"/>
<path d="M7.30309 34.3848C7.33256 34.3848 7.36203 34.3848 7.3924 34.3848C7.3924 34.7669 7.3924 35.1491 7.3924 35.5429C7.45134 35.5429 7.51029 35.5429 7.57102 35.5429C7.57102 36.5718 7.57102 37.6008 7.57102 38.6609C5.12479 38.6609 2.67856 38.6609 0.158203 38.6609C0.158203 37.6614 0.158203 36.6618 0.158203 35.632C2.51602 35.632 4.87383 35.632 7.30309 35.632C7.30309 35.2204 7.30309 34.8088 7.30309 34.3848Z" fill="#435D76"/>
<path d="M9.53583 0C10.7147 0 11.8936 0 13.1083 0C13.1083 1.82271 13.1083 3.64543 13.1083 5.52337C12.1062 5.52337 11.1041 5.52337 10.0717 5.52337C10.0717 14.6075 10.0717 23.6917 10.0717 33.0511C10.0422 33.0511 10.0127 33.0511 9.98238 33.0511C9.98238 23.967 9.98238 14.8828 9.98238 5.52337C9.83502 5.52337 9.68766 5.52337 9.53583 5.52337C9.53583 3.70066 9.53583 1.87795 9.53583 0Z" fill="#FEA44C"/>
<path d="M0.158203 34.2969C11.0041 34.2969 21.8501 34.2969 33.0247 34.2969C33.0247 34.7085 33.0247 35.12 33.0247 35.5441C32.8752 35.6932 32.693 35.6438 32.4935 35.6443C32.3988 35.6438 32.3988 35.6438 32.3021 35.6433C32.2359 35.6433 32.1697 35.6433 32.1015 35.6433C31.8816 35.6433 31.6617 35.6426 31.4418 35.6419C31.2898 35.6417 31.1377 35.6416 30.9857 35.6415C30.5847 35.6412 30.1837 35.6403 29.7827 35.6393C29.3739 35.6384 28.965 35.638 28.5562 35.6375C27.7533 35.6366 26.9505 35.635 26.1477 35.6332C26.1477 35.2216 26.1477 34.81 26.1477 34.386C19.929 34.386 13.7103 34.386 7.30309 34.386C7.30309 34.7975 7.30309 35.2091 7.30309 35.6332C5.03369 35.6332 2.7643 35.6332 0.426136 35.6332C0.426136 35.2216 0.426136 34.81 0.426136 34.386C0.337718 34.3566 0.2493 34.3272 0.158203 34.2969Z" fill="#293D50"/>
<path d="M39.723 0C41.0788 0 42.4345 0 43.8313 0C43.8313 1.52873 43.8313 3.05745 43.8313 4.6325C43.3848 4.45433 43.3848 4.45433 43.1416 4.32418C42.7716 4.15087 42.4016 4.05178 42.006 3.95322C41.9345 3.93393 41.8629 3.91463 41.7892 3.89476C41.0815 3.71649 40.4841 3.70316 39.723 3.65255C39.723 2.44721 39.723 1.24187 39.723 0Z" fill="#DC3F15"/>
<path d="M55.2631 24.8535C55.795 25.2451 56.2125 25.7346 56.4242 26.368C56.4869 27.0032 56.4618 27.5406 56.0669 28.0606C55.6552 28.4945 55.2636 28.8201 54.653 28.8923C54.0632 28.9001 53.5943 28.8783 53.1197 28.5061C52.8648 28.2514 52.6342 27.982 52.4052 27.7043C52.3462 27.6455 52.2873 27.5867 52.2266 27.5261C52.2701 27.4945 52.3136 27.463 52.3584 27.4304C52.9926 26.9554 53.5609 26.4176 54.1383 25.8771C54.3234 25.7046 54.5103 25.5341 54.6994 25.3658C54.7513 25.3194 54.8032 25.273 54.8567 25.2252C54.9952 25.1208 54.9952 25.1208 55.2631 25.0317C55.2631 24.9729 55.2631 24.9141 55.2631 24.8535Z" fill="#1E2E3B"/>
<path d="M15.5197 17.7246C15.8302 17.8278 15.8444 17.8685 15.9896 18.1443C16.0427 18.2445 16.0427 18.2445 16.0969 18.3468C16.151 18.4522 16.151 18.4522 16.2063 18.5598C16.2434 18.6294 16.2805 18.699 16.3188 18.7707C16.5914 19.2923 16.5914 19.2923 16.5914 19.5954C16.4146 19.5954 16.2378 19.5954 16.0556 19.5954C16.0556 20.3598 16.0556 21.1242 16.0556 21.9117C16.5271 21.9117 16.9987 21.9117 17.4845 21.9117C17.4845 21.1473 17.4845 20.383 17.4845 19.5954C17.3077 19.5954 17.1309 19.5954 16.9487 19.5954C17.0809 19.1499 17.273 18.7643 17.4957 18.3594C17.529 18.298 17.5622 18.2367 17.5965 18.1735C17.6779 18.0237 17.7598 17.8741 17.8418 17.7246C17.9007 17.7246 17.9597 17.7246 18.0204 17.7246C18.1702 17.9858 18.3187 18.2477 18.467 18.5097C18.5096 18.5839 18.5522 18.6582 18.596 18.7347C18.6363 18.8062 18.6766 18.8776 18.7181 18.9513C18.7556 19.0171 18.793 19.0829 18.8315 19.1506C18.9135 19.3282 18.9135 19.3282 18.9135 19.5954C18.7367 19.5954 18.5598 19.5954 18.3777 19.5954C18.3777 20.3598 18.3777 21.1242 18.3777 21.9117C18.4955 21.9117 18.6134 21.9117 18.7349 21.9117C18.7349 22.0293 18.7349 22.1469 18.7349 22.268C17.4381 22.268 16.1413 22.268 14.8052 22.268C14.8052 22.1504 14.8052 22.0328 14.8052 21.9117C14.9231 21.9117 15.041 21.9117 15.1625 21.9117C15.1625 21.1473 15.1625 20.383 15.1625 19.5954C14.9856 19.5954 14.8088 19.5954 14.6266 19.5954C14.7457 19.1959 14.9068 18.8656 15.1234 18.5097C15.3527 18.1316 15.3527 18.1316 15.5197 17.7246Z" fill="#495F74"/>
<path d="M26.0584 34.2969C28.3573 34.2969 30.6561 34.2969 33.0247 34.2969C33.0247 34.7085 33.0247 35.12 33.0247 35.5441C32.8752 35.6932 32.693 35.6438 32.4935 35.6443C32.4303 35.6439 32.3672 35.6436 32.3021 35.6433C32.2359 35.6433 32.1697 35.6433 32.1015 35.6433C31.8816 35.6433 31.6617 35.6426 31.4418 35.6419C31.2898 35.6417 31.1377 35.6416 30.9857 35.6415C30.5847 35.6412 30.1837 35.6403 29.7827 35.6393C29.3739 35.6384 28.965 35.638 28.5562 35.6375C27.7533 35.6366 26.9505 35.635 26.1477 35.6332C26.1182 35.1922 26.0888 34.7512 26.0584 34.2969Z" fill="#22374C"/>
<path d="M42.1131 6.90752C42.4921 7.14871 42.8154 7.42043 43.1168 7.75454C43.1594 7.79668 43.202 7.83883 43.2459 7.88225C43.4718 8.11928 43.5634 8.24107 43.5634 8.57302C43.4256 8.95947 43.4256 8.95947 43.2061 9.09083C42.9159 9.15208 42.9159 9.15208 42.581 9.09083C42.4086 8.93039 42.2698 8.75571 42.1232 8.57163C41.6508 8.0258 41.0589 7.74436 40.3482 7.66545C40.0965 7.64925 39.8817 7.64531 39.6337 7.66545C39.5175 7.67458 39.5175 7.67458 39.3989 7.68389C38.8011 7.75936 38.4898 7.94551 38.0383 8.3336C37.7201 8.5564 37.5101 8.53209 37.133 8.46723C36.9544 8.36701 36.9544 8.36701 36.865 8.19997C36.8092 7.95498 36.8092 7.95498 36.865 7.66545C38.0323 5.95927 40.479 6.02681 42.1131 6.90752Z" fill="#DFEDF9"/>
<path d="M19.8067 17.7246C20.6908 17.7246 21.575 17.7246 22.486 17.7246C22.4934 18.0351 22.5007 18.3457 22.5083 18.6656C22.5116 18.7622 22.5148 18.8589 22.5182 18.9584C22.5246 19.5187 22.4682 19.8558 22.1287 20.3081C21.8355 20.4932 21.6718 20.5754 21.3249 20.5754C21.3249 21.0458 21.3249 21.5161 21.3249 22.0008C21.5184 21.998 21.5184 21.998 21.7157 21.9952C22.1064 21.9896 22.1064 21.9896 22.3074 22.0899C22.3074 22.1487 22.3074 22.2074 22.3074 22.268C21.5411 22.268 20.7748 22.268 19.9853 22.268C20.0442 22.1798 20.1032 22.0916 20.1639 22.0008C20.4353 21.9641 20.6928 21.989 20.9677 22.0008C20.9677 21.5304 20.9677 21.06 20.9677 20.5754C20.7909 20.546 20.614 20.5166 20.4318 20.4863C20.084 20.1946 19.8288 19.9253 19.7864 19.4641C19.7873 19.3839 19.7882 19.3037 19.7892 19.221C19.7897 19.1423 19.7901 19.0636 19.7906 18.9825C19.7922 18.8834 19.7938 18.7844 19.7955 18.6823C19.7992 18.3663 19.8029 18.0502 19.8067 17.7246Z" fill="#455D75"/>
<path d="M47.962 16.6821C48.23 16.8446 48.2838 16.8824 48.3862 17.1888C47.6624 17.9186 46.9025 18.601 46.0976 19.2403C45.8953 19.4078 45.7109 19.5838 45.5282 19.7723C45.2603 19.6832 45.2603 19.6832 45.1113 19.4932C44.8499 18.9319 44.9594 18.2452 45.037 17.6454C45.263 17.1758 45.6287 16.7843 46.0973 16.5471C46.7162 16.36 47.3883 16.3777 47.962 16.6821Z" fill="#1C2C3A"/>
<path d="M26.3054 17.8311C26.7138 18.0874 27.0037 18.3681 27.2195 18.7986C27.2195 18.9161 27.2195 19.0337 27.2195 19.1549C26.689 19.1549 26.1585 19.1549 25.6119 19.1549C25.6171 19.3427 25.6223 19.5304 25.6276 19.7239C25.6311 19.9067 25.6338 20.0895 25.6364 20.2723C25.6387 20.3989 25.6417 20.5255 25.6456 20.652C25.651 20.8345 25.6535 21.0168 25.6555 21.1994C25.6578 21.309 25.6602 21.4186 25.6626 21.5316C25.5976 21.9108 25.466 22.0396 25.1653 22.2729C24.7998 22.3305 24.6256 22.3341 24.3225 22.117C24.1829 21.9166 24.1829 21.9166 24.1829 21.5602C24.3008 21.5602 24.4187 21.5602 24.5402 21.5602C24.5991 21.6484 24.6581 21.7366 24.7188 21.8275C24.9398 21.7834 24.9398 21.7834 25.1653 21.7384C25.1948 20.8859 25.2243 20.0333 25.2546 19.1549C24.6947 19.1549 24.1347 19.1549 23.5577 19.1549C23.7607 18.5476 24.0195 18.0936 24.6047 17.7922C25.1528 17.6234 25.773 17.6121 26.3054 17.8311Z" fill="#495D72"/>
<path d="M24.8081 24.502C25.0734 24.502 25.3386 24.502 25.6119 24.502C25.6119 26.1483 25.6119 27.7946 25.6119 29.4908C25.3467 29.4908 25.0814 29.4908 24.8081 29.4908C24.8081 27.8445 24.8081 26.1982 24.8081 24.502Z" fill="#203040"/>
<path d="M20.0746 24.502C20.3398 24.502 20.6051 24.502 20.8784 24.502C20.8784 26.1483 20.8784 27.7946 20.8784 29.4908C20.6131 29.4908 20.3479 29.4908 20.0746 29.4908C20.0746 27.8445 20.0746 26.1982 20.0746 24.502Z" fill="#233242"/>
<path d="M18.7349 24.5898C19.0001 24.5898 19.2654 24.5898 19.5387 24.5898C19.5387 26.2362 19.5387 27.8825 19.5387 29.5787C19.2734 29.5787 19.0082 29.5787 18.7349 29.5787C18.7349 27.9324 18.7349 26.2861 18.7349 24.5898Z" fill="#223241"/>
<path d="M14.5372 24.5898C14.8025 24.5898 15.0677 24.5898 15.341 24.5898C15.341 26.2068 15.341 27.8237 15.341 29.4896C15.0758 29.4896 14.8105 29.4896 14.5372 29.4896C14.5372 27.8727 14.5372 26.2558 14.5372 24.5898Z" fill="#203040"/>
<path d="M48.3862 17.1094C48.6243 17.3469 48.8625 17.5845 49.1007 17.8221C49.0486 17.8621 48.9966 17.9022 48.943 17.9435C48.4999 18.2903 48.0738 18.649 47.6605 19.0303C47.6153 19.072 47.5701 19.1137 47.5235 19.1567C47.4791 19.1977 47.4348 19.2387 47.3891 19.2809C47.1721 19.4812 46.9545 19.6803 46.7339 19.8766C46.6814 19.9236 46.6289 19.9706 46.5748 20.019C46.4213 20.1383 46.4213 20.1383 46.2287 20.2271C46.0326 20.3094 46.0326 20.3094 45.9748 20.5838C45.7979 20.3192 45.6211 20.0546 45.4389 19.782C46.0943 19.1645 46.7489 18.5575 47.4571 18.0002C47.6831 17.8188 47.6831 17.8188 47.9114 17.5771C48.1182 17.3766 48.1182 17.3766 48.2969 17.3766C48.3263 17.2884 48.3558 17.2002 48.3862 17.1094Z" fill="#98AB34"/>
<path d="M55.2631 24.8535C55.7878 25.2655 55.7878 25.2655 55.8883 25.5662C55.024 26.3666 54.1549 27.1494 53.2376 27.8898C53.0296 28.0558 53.0296 28.0558 52.8517 28.2388C52.7413 28.1054 52.6308 27.972 52.5203 27.8386C52.4273 27.7301 52.3278 27.6271 52.2266 27.5261C52.2701 27.4945 52.3136 27.463 52.3584 27.4304C52.9926 26.9554 53.5609 26.4176 54.1383 25.8771C54.3234 25.7046 54.5103 25.5341 54.6994 25.3658C54.7513 25.3194 54.8032 25.273 54.8567 25.2252C54.9952 25.1208 54.9952 25.1208 55.2631 25.0317C55.2631 24.9729 55.2631 24.9141 55.2631 24.8535Z" fill="#99AC36"/>
<path d="M23.4684 24.502C23.6747 24.502 23.881 24.502 24.0936 24.502C24.0936 26.1483 24.0936 27.7946 24.0936 29.4908C23.8873 29.4908 23.6809 29.4908 23.4684 29.4908C23.4684 27.8445 23.4684 26.1982 23.4684 24.502Z" fill="#667582"/>
<path d="M46.8679 12.4707C46.8974 12.4707 46.9268 12.4707 46.9572 12.4707C46.9572 13.7936 46.9572 15.1166 46.9572 16.4796C46.332 16.4796 46.332 16.4796 46.0756 16.2652C45.9974 16.1749 45.921 16.083 45.8464 15.9896C45.8066 15.9429 45.7668 15.8961 45.7259 15.848C45.6286 15.7332 45.5335 15.6166 45.4389 15.4996C45.5744 15.1109 45.784 14.7909 46.0138 14.4529C46.3243 13.9846 46.55 13.5528 46.6893 13.0052C46.7488 12.827 46.8083 12.6489 46.8679 12.4707Z" fill="#E67227"/>
<path d="M44.9924 5.52734C45.6408 5.52734 46.2892 5.52734 46.9572 5.52734C46.9572 6.61509 46.9572 7.70284 46.9572 8.82355C46.9277 8.82355 46.8983 8.82355 46.8679 8.82355C46.8579 8.77578 46.8479 8.728 46.8376 8.67878C46.5584 7.57219 45.9335 6.5804 45.1399 5.7699C44.9924 5.61643 44.9924 5.61643 44.9924 5.52734Z" fill="#EA7426"/>
<path d="M24.1829 24.502C24.3598 24.502 24.5366 24.502 24.7188 24.502C24.7188 26.1483 24.7188 27.7946 24.7188 29.4908C24.542 29.4908 24.3651 29.4908 24.1829 29.4908C24.1829 27.8445 24.1829 26.1982 24.1829 24.502Z" fill="#334352"/>
<path d="M22.7539 24.5898C22.9307 24.5898 23.1076 24.5898 23.2898 24.5898C23.2898 26.2068 23.2898 27.8237 23.2898 29.4896C23.1129 29.4896 22.9361 29.4896 22.7539 29.4896C22.7539 27.8727 22.7539 26.2558 22.7539 24.5898Z" fill="#334352"/>
<path d="M21.8608 24.502C22.0082 24.502 22.1556 24.502 22.3074 24.502C22.3074 26.1483 22.3074 27.7946 22.3074 29.4908C22.16 29.4908 22.0127 29.4908 21.8608 29.4908C21.8608 27.8445 21.8608 26.1982 21.8608 24.502Z" fill="#293A49"/>
<path d="M15.1625 19.5996C15.192 19.5996 15.2215 19.5996 15.2519 19.5996C15.2519 20.364 15.2519 21.1283 15.2519 21.9159C15.4876 21.9159 15.7234 21.9159 15.9663 21.9159C15.9663 21.1515 15.9663 20.3871 15.9663 19.5996C15.9958 19.5996 16.0253 19.5996 16.0557 19.5996C16.0557 20.364 16.0557 21.1283 16.0557 21.9159C16.5272 21.9159 16.9988 21.9159 17.4846 21.9159C17.4846 21.1515 17.4846 20.3871 17.4846 19.5996C17.5141 19.5996 17.5436 19.5996 17.5739 19.5996C17.5739 20.364 17.5739 21.1283 17.5739 21.9159C17.8097 21.9159 18.0455 21.9159 18.2884 21.9159C18.2884 21.1809 18.2884 20.4459 18.2884 19.6887C18.3179 19.6887 18.3474 19.6887 18.3777 19.6887C18.3777 20.4237 18.3777 21.1586 18.3777 21.9159C18.4956 21.9159 18.6135 21.9159 18.735 21.9159C18.735 22.0335 18.735 22.1511 18.735 22.2722C17.4382 22.2722 16.1414 22.2722 14.8053 22.2722C14.8053 22.1546 14.8053 22.037 14.8053 21.9159C14.9232 21.9159 15.0411 21.9159 15.1625 21.9159C15.1625 21.1515 15.1625 20.3871 15.1625 19.5996Z" fill="#5F676E"/>
<path d="M26.5943 24.5898C26.7417 24.5898 26.889 24.5898 27.0409 24.5898C27.0409 26.2068 27.0409 27.8237 27.0409 29.4896C26.8935 29.4896 26.7461 29.4896 26.5943 29.4896C26.5943 27.8727 26.5943 26.2558 26.5943 24.5898Z" fill="#203140"/>
<path d="M17.6632 24.5898C17.8106 24.5898 17.9579 24.5898 18.1098 24.5898C18.1098 26.2068 18.1098 27.8237 18.1098 29.4896C17.9624 29.4896 17.815 29.4896 17.6632 29.4896C17.6632 27.8727 17.6632 26.2558 17.6632 24.5898Z" fill="#1A2A3A"/>
<path d="M16.3235 24.5898C16.4708 24.5898 16.6182 24.5898 16.77 24.5898C16.77 26.2068 16.77 27.8237 16.77 29.4896C16.6227 29.4896 16.4753 29.4896 16.3235 29.4896C16.3235 27.8727 16.3235 26.2558 16.3235 24.5898Z" fill="#1F2F3F"/>
<path d="M14.0015 24.5898C14.1488 24.5898 14.2962 24.5898 14.448 24.5898C14.448 26.2068 14.448 27.8237 14.448 29.4896C14.3007 29.4896 14.1533 29.4896 14.0015 29.4896C14.0015 27.8727 14.0015 26.2558 14.0015 24.5898Z" fill="#213241"/>
<path d="M24.8081 24.502C25.0734 24.502 25.3386 24.502 25.6119 24.502C25.6119 24.5314 25.6119 24.5608 25.6119 24.591C25.4645 24.591 25.3172 24.591 25.1653 24.591C25.1653 26.208 25.1653 27.8249 25.1653 29.4908C25.0475 29.4908 24.9296 29.4908 24.8081 29.4908C24.8081 27.8445 24.8081 26.1982 24.8081 24.502Z" fill="#4F5E6C"/>
<path d="M20.0746 24.502C20.3398 24.502 20.6051 24.502 20.8784 24.502C20.8784 24.5314 20.8784 24.5608 20.8784 24.591C20.731 24.591 20.5837 24.591 20.4318 24.591C20.4318 26.208 20.4318 27.8249 20.4318 29.4908C20.3139 29.4908 20.196 29.4908 20.0746 29.4908C20.0746 27.8445 20.0746 26.1982 20.0746 24.502Z" fill="#4A5968"/>
<path d="M18.7349 24.5898C18.8528 24.5898 18.9706 24.5898 19.0921 24.5898C19.0921 26.2068 19.0921 27.8237 19.0921 29.4896C19.2395 29.4896 19.3868 29.4896 19.5387 29.4896C19.5387 29.519 19.5387 29.5484 19.5387 29.5787C19.2734 29.5787 19.0082 29.5787 18.7349 29.5787C18.7349 27.9324 18.7349 26.2861 18.7349 24.5898Z" fill="#6C7B87"/>
<path d="M14.5372 24.5898C14.6551 24.5898 14.773 24.5898 14.8945 24.5898C14.8945 26.2068 14.8945 27.8237 14.8945 29.4896C14.7766 29.4896 14.6587 29.4896 14.5372 29.4896C14.5372 27.8727 14.5372 26.2558 14.5372 24.5898Z" fill="#4C5B69"/>
<path d="M26.1478 24.502C26.2362 24.502 26.3246 24.502 26.4157 24.502C26.4157 26.1483 26.4157 27.7946 26.4157 29.4908C26.3273 29.4908 26.2389 29.4908 26.1478 29.4908C26.1478 27.8445 26.1478 26.1982 26.1478 24.502Z" fill="#374756"/>
<path d="M15.5198 24.502C15.6082 24.502 15.6966 24.502 15.7877 24.502C15.7877 26.1483 15.7877 27.7946 15.7877 29.4908C15.6993 29.4908 15.6109 29.4908 15.5198 29.4908C15.5198 27.8445 15.5198 26.1982 15.5198 24.502Z" fill="#445361"/>
<path d="M25.7905 24.5898C25.8789 24.5898 25.9673 24.5898 26.0584 24.5898C26.0584 26.2068 26.0584 27.8237 26.0584 29.4896C25.97 29.4896 25.8816 29.4896 25.7905 29.4896C25.7905 27.8727 25.7905 26.2558 25.7905 24.5898Z" fill="#41515F"/>
<path d="M23.8256 24.5898C23.914 24.5898 24.0024 24.5898 24.0935 24.5898C24.0935 26.2068 24.0935 27.8237 24.0935 29.4896C24.0051 29.4896 23.9167 29.4896 23.8256 29.4896C23.8256 27.8727 23.8256 26.2558 23.8256 24.5898Z" fill="#3C4C5A"/>
<path d="M18.2883 24.5898C18.3767 24.5898 18.4652 24.5898 18.5563 24.5898C18.5563 26.2068 18.5563 27.8237 18.5563 29.4896C18.4678 29.4896 18.3794 29.4896 18.2883 29.4896C18.2883 27.8727 18.2883 26.2558 18.2883 24.5898Z" fill="#384857"/>
<path d="M21.4143 24.5898C21.5027 24.5898 21.5911 24.5898 21.6822 24.5898C21.6822 26.2068 21.6822 27.8237 21.6822 29.4896C21.5938 29.4896 21.5054 29.4896 21.4143 29.4896C21.4143 27.8727 21.4143 26.2558 21.4143 24.5898Z" fill="#303F4E"/>
<path d="M21.057 24.5898C21.1454 24.5898 21.2338 24.5898 21.3249 24.5898C21.3249 26.2068 21.3249 27.8237 21.3249 29.4896C21.2365 29.4896 21.1481 29.4896 21.057 29.4896C21.057 27.8727 21.057 26.2558 21.057 24.5898Z" fill="#2C3C4C"/>
<path d="M17.3059 24.5898C17.3943 24.5898 17.4827 24.5898 17.5738 24.5898C17.5738 26.2068 17.5738 27.8237 17.5738 29.4896C17.4854 29.4896 17.397 29.4896 17.3059 29.4896C17.3059 27.8727 17.3059 26.2558 17.3059 24.5898Z" fill="#293948"/>
<path d="M20.9677 20.6641C20.9971 20.6641 21.0266 20.6641 21.057 20.6641C21.057 21.105 21.057 21.546 21.057 22.0004C21.1159 22.0004 21.1749 22.0004 21.2356 22.0004C21.2356 21.5594 21.2356 21.1184 21.2356 20.6641C21.2651 20.6641 21.2945 20.6641 21.3249 20.6641C21.3249 21.105 21.3249 21.546 21.3249 22.0004C21.5183 21.9976 21.5183 21.9976 21.7156 21.9948C22.1064 21.9892 22.1064 21.9892 22.3073 22.0894C22.3073 22.1482 22.3073 22.207 22.3073 22.2676C21.541 22.2676 20.7747 22.2676 19.9852 22.2676C20.0736 22.1353 20.0736 22.1353 20.1639 22.0004C20.4352 21.9637 20.6927 21.9886 20.9677 22.0004C20.9677 21.5594 20.9677 21.1184 20.9677 20.6641Z" fill="#5A656F"/>
<path d="M55.8883 28.1543C55.8883 28.2425 55.8883 28.3307 55.8883 28.4216C55.4526 28.8561 55.4526 28.8561 55.0957 28.8948C55.0017 28.881 55.0017 28.881 54.9059 28.867C55.0858 28.7473 55.2663 28.6286 55.4473 28.5106C55.7071 28.3461 55.7071 28.3461 55.8883 28.1543Z" fill="#C4C9C6"/>
</svg>
