<svg width="44" height="40" viewBox="0 0 44 40" fill="none" xmlns="http://www.w3.org/2000/svg">
<path d="M25.0505 15.9947C25.5737 16.0223 26.0969 16.0494 26.6201 16.0758C26.7062 16.0801 26.7062 16.0801 26.7941 16.0846C27.632 16.1267 28.4695 16.1551 29.3082 16.1736C30.4642 16.1991 31.617 16.2541 32.7712 16.3206C33.0309 16.3355 33.2906 16.3499 33.5503 16.3643C33.6029 16.3672 33.6554 16.3701 33.7096 16.3731C33.816 16.3791 33.9225 16.385 34.029 16.3909C34.1878 16.3997 34.3467 16.4086 34.5056 16.4175C35.5668 16.4768 36.6283 16.5311 37.6898 16.5845C37.8579 16.593 38.026 16.6015 38.1941 16.61C38.5722 16.629 38.9503 16.648 39.3284 16.6669C39.7144 17.4389 39.7144 17.4389 39.7848 17.5796C39.8323 17.6745 39.8797 17.7693 39.9271 17.8642C40.0351 18.0802 40.1431 18.2962 40.251 18.5122C40.3376 18.6855 40.4246 18.8585 40.5119 19.0315C40.7496 19.5031 40.981 19.977 41.2059 20.4548C41.5994 21.2891 42.0063 22.1103 42.4634 22.9119C42.6241 23.1957 42.7594 23.4803 42.8858 23.7816C42.9845 23.9832 43.0884 24.1823 43.1927 24.3811C43.2886 24.5686 43.3469 24.6876 43.3469 24.9015C42.9547 24.9206 42.5624 24.9393 42.17 24.9577C42.0371 24.964 41.9042 24.9704 41.7712 24.9769C41.5781 24.9863 41.3849 24.9954 41.1918 25.0044C41.1342 25.0073 41.0765 25.0102 41.0172 25.0131C40.4527 25.0388 39.8957 25.0332 39.3284 25.0332C39.3284 28.6419 39.3284 32.2507 39.3284 35.9688C38.7525 36.1224 38.2674 36.2496 37.6937 36.3295C37.3295 36.3894 36.9778 36.4932 36.6234 36.5946C36.1439 36.7313 35.6737 36.8465 35.1808 36.9227C34.8173 36.9848 34.4612 37.0777 34.1036 37.1669C33.9357 37.2082 33.7677 37.2494 33.5997 37.2904C33.5352 37.3062 33.5352 37.3062 33.4693 37.3223C33.1549 37.3986 32.8398 37.4711 32.5241 37.5416C32.479 37.5516 32.434 37.5617 32.3876 37.5721C32.1712 37.6203 31.9548 37.6681 31.7383 37.7154C31.2559 37.8224 30.783 37.9478 30.3088 38.0864C30.0703 38.1525 29.8401 38.1941 29.5952 38.2292C29.0951 38.3079 28.6128 38.4356 28.1253 38.5709C27.5815 38.7217 27.0474 38.8514 26.4912 38.9466C26.1493 39.0087 25.8143 39.098 25.4779 39.1844C24.8015 39.3578 24.122 39.5094 23.4384 39.6518C23.0143 39.7404 22.594 39.8371 22.1748 39.9473C21.6179 40.0766 21.1542 39.9465 20.6193 39.7887C20.3036 39.6959 19.9933 39.6223 19.6683 39.5673C19.0945 39.4675 18.5358 39.3171 17.974 39.1646C17.5547 39.0523 17.1401 38.9628 16.7113 38.8961C16.4821 38.8587 16.2618 38.8059 16.0369 38.7479C15.9934 38.7369 15.9499 38.7258 15.9051 38.7144C15.6604 38.6517 15.4164 38.5865 15.1725 38.5205C14.6981 38.3924 14.228 38.2688 13.7435 38.1839C13.1444 38.0786 12.5569 37.9291 11.9664 37.7838C11.543 37.6803 11.1219 37.5836 10.6926 37.5086C10.0464 37.3958 9.41906 37.2088 8.79224 37.0176C8.59016 36.9639 8.39246 36.9276 8.18558 36.8985C7.55375 36.8093 6.95449 36.6456 6.34276 36.4667C5.82887 36.319 5.32104 36.2147 4.79202 36.1404C4.5455 36.1005 4.5455 36.1005 4.08436 35.9688C4.08436 32.36 4.08436 28.7513 4.08436 25.0332C3.71479 25.0332 3.34522 25.0332 2.96446 25.0332C2.71146 25.0255 2.45932 25.0167 2.20662 25.0044C2.1424 25.0015 2.07819 24.9985 2.01203 24.9955C1.81208 24.9864 1.61216 24.9769 1.41223 24.9673C1.27452 24.961 1.1368 24.9546 0.999089 24.9483C0.666046 24.9329 0.33302 24.9173 0 24.9015C0.127692 24.5725 0.291321 24.2685 0.460494 23.9596C0.608672 23.6862 0.73412 23.4091 0.856398 23.1228C0.931618 22.9792 1.00847 22.8364 1.08697 22.6946C1.20594 22.4765 1.31845 22.2642 1.41635 22.0358C1.54758 21.7296 1.70982 21.4429 1.86925 21.1506C1.98091 20.9469 1.98091 20.9469 2.07512 20.7183C2.20433 20.4168 2.3631 20.1343 2.52185 19.8475C2.63814 19.6324 2.63814 19.6324 2.73183 19.4049C2.85864 19.1098 3.01038 18.8326 3.16466 18.5513C3.3118 18.28 3.43626 18.0051 3.55735 17.7209C3.6229 17.5965 3.69006 17.4729 3.75909 17.3503C3.88524 17.1263 3.99083 16.9062 4.08436 16.6669C4.86041 16.625 5.63645 16.5832 6.4125 16.5414C6.77299 16.522 7.13348 16.5026 7.49397 16.4832C7.84294 16.4644 8.19192 16.4456 8.5409 16.4268C8.67293 16.4197 8.80496 16.4126 8.93699 16.4054C9.30347 16.3857 9.66996 16.3661 10.0365 16.3467C10.1522 16.3406 10.2679 16.3344 10.3837 16.3281C11.1021 16.2892 11.8195 16.262 12.5388 16.2482C13.5907 16.227 14.6407 16.1832 15.6913 16.1272C15.7594 16.1236 15.8275 16.12 15.8976 16.1163C16.5276 16.0828 17.1575 16.0483 17.7873 16.0134C20.2221 15.8793 22.6154 15.8657 25.0505 15.9947Z" fill="#ED7425"/>
<path d="M21.7394 16.074C21.9134 16.306 21.9929 16.4587 22.0894 16.7245C22.2477 17.1484 22.4216 17.5633 22.6018 17.9783C23.2158 19.3933 23.2158 19.3933 23.4686 20.0348C23.5784 20.3131 23.6927 20.5869 23.8186 20.8583C23.9349 21.109 24.0382 21.3614 24.1356 21.62C24.2602 21.9503 24.3959 22.2733 24.5391 22.5958C24.7038 22.9671 24.8555 23.3406 24.9982 23.7211C25.1673 24.1619 25.3558 24.5954 25.5404 25.03C25.5684 25.0965 25.5964 25.1631 25.6253 25.2316C25.6508 25.2917 25.6763 25.3518 25.7026 25.4137C25.7579 25.5602 25.7579 25.5602 25.7579 25.692C25.803 25.6883 25.8481 25.6847 25.8946 25.6809C27.1028 25.585 28.3075 25.5304 29.519 25.498C29.9314 25.4868 30.3437 25.4741 30.756 25.4614C30.8005 25.4601 30.845 25.4587 30.8908 25.4573C31.6618 25.4334 32.4307 25.3966 33.2004 25.3463C34.0956 25.2879 34.9916 25.2494 35.8879 25.2109C36.005 25.2058 36.1221 25.2007 36.2392 25.1956C36.2961 25.1931 36.3531 25.1907 36.4117 25.1881C36.7365 25.1736 37.0602 25.1532 37.3843 25.1282C38.0094 25.0914 38.6364 25.0991 39.2626 25.0991C39.2626 28.6861 39.2626 32.2731 39.2626 35.9688C38.7051 36.128 38.2522 36.2527 37.696 36.3295C37.3309 36.3889 36.9787 36.493 36.6234 36.5946C36.1439 36.7313 35.6737 36.8465 35.1809 36.9227C34.8174 36.9848 34.4612 37.0777 34.1036 37.1669C33.9357 37.2082 33.7678 37.2494 33.5998 37.2904C33.5352 37.3062 33.5352 37.3062 33.4694 37.3223C33.155 37.3986 32.8399 37.4711 32.5241 37.5416C32.4791 37.5516 32.434 37.5617 32.3876 37.5721C32.1713 37.6203 31.9548 37.6681 31.7383 37.7154C31.2559 37.8224 30.7831 37.9478 30.3089 38.0864C30.0703 38.1525 29.8402 38.1941 29.5952 38.2292C29.0951 38.3079 28.6128 38.4356 28.1253 38.5709C27.5816 38.7217 27.0474 38.8514 26.4913 38.9466C26.1494 39.0087 25.8143 39.098 25.4779 39.1844C24.7939 39.3598 24.1065 39.5128 23.4153 39.6576C23.3419 39.6729 23.2684 39.6883 23.1928 39.7042C23.0886 39.7259 23.0886 39.7259 22.9823 39.7481C22.8228 39.7831 22.6666 39.8232 22.5093 39.8668C22.2664 39.9214 22.2664 39.9214 21.7394 39.9214C21.7394 32.0517 21.7394 24.1821 21.7394 16.074Z" fill="#DD3E14"/>
<path d="M21.6735 15.8763C22.6567 15.8763 22.6567 15.8763 23.0882 15.8995C23.1376 15.902 23.1869 15.9044 23.2377 15.907C23.3433 15.9123 23.4489 15.9176 23.5545 15.9231C23.7246 15.9319 23.8947 15.9405 24.0649 15.9489C24.5482 15.973 25.0315 15.9976 25.5148 16.0223C25.8701 16.0404 26.2254 16.0583 26.5808 16.0758C26.6398 16.0787 26.6989 16.0816 26.7598 16.0846C27.6106 16.1261 28.461 16.1547 29.3126 16.1736C30.4671 16.1992 31.6184 16.2542 32.7712 16.3206C33.0309 16.3355 33.2906 16.3499 33.5503 16.3643C33.6029 16.3672 33.6554 16.3701 33.7096 16.3732C33.816 16.3791 33.9225 16.385 34.029 16.3909C34.1878 16.3997 34.3467 16.4086 34.5056 16.4175C35.5668 16.4768 36.6282 16.5311 37.6898 16.5845C37.8579 16.593 38.026 16.6015 38.1941 16.61C38.5722 16.629 38.9503 16.648 39.3284 16.6669C39.7144 17.4389 39.7144 17.4389 39.7848 17.5796C39.8323 17.6745 39.8797 17.7693 39.9271 17.8642C40.0351 18.0802 40.1431 18.2962 40.251 18.5122C40.3376 18.6855 40.4246 18.8585 40.5119 19.0315C40.7496 19.5031 40.981 19.977 41.2059 20.4548C41.5994 21.2891 42.0063 22.1103 42.4634 22.9119C42.6241 23.1957 42.7594 23.4803 42.8858 23.7816C42.9845 23.9832 43.0884 24.1823 43.1927 24.3811C43.2886 24.5686 43.3469 24.6876 43.3469 24.9015C42.9546 24.9206 42.5624 24.9393 42.17 24.9578C42.0371 24.9641 41.9042 24.9704 41.7712 24.9769C41.5781 24.9863 41.3849 24.9954 41.1918 25.0044C41.1342 25.0073 41.0765 25.0102 41.0172 25.0131C40.4527 25.0388 39.8957 25.0332 39.3284 25.0332C39.3284 28.6419 39.3284 32.2507 39.3284 35.9688C39.3067 35.9688 39.285 35.9688 39.2626 35.9688C39.2626 32.3818 39.2626 28.7948 39.2626 25.0991C38.0669 25.1643 36.8712 25.2295 35.6393 25.2967C34.0432 25.3807 34.0432 25.3807 33.3899 25.4128C33.2261 25.4208 33.0622 25.4289 32.8984 25.437C31.4177 25.5101 29.9376 25.574 28.4553 25.6036C27.9143 25.6149 27.377 25.6367 26.8373 25.6782C26.4775 25.7004 26.1181 25.6975 25.7578 25.692C25.2508 24.4964 25.2508 24.4964 25.0208 23.9174C24.7957 23.3514 24.5675 22.7891 24.3085 22.2376C24.1424 21.8819 23.9994 21.5216 23.8615 21.1542C23.7863 20.9612 23.7042 20.7743 23.6168 20.5865C23.4629 20.2557 23.3336 19.9183 23.2048 19.577C23.1302 19.3868 23.049 19.2028 22.9622 19.0178C22.8237 18.7209 22.7079 18.4195 22.5957 18.112C22.4651 17.7541 22.3187 17.4165 22.141 17.0789C22.0429 16.8774 21.9749 16.6707 21.9092 16.4569C21.873 16.3328 21.873 16.3328 21.8052 16.2057C21.7835 24.0319 21.7617 31.8581 21.7393 39.9214C21.8263 39.9431 21.9133 39.9649 22.0028 39.9873C21.8941 39.9873 21.7855 39.9873 21.6735 39.9873C21.6735 32.0307 21.6735 24.0741 21.6735 15.8763Z" fill="#EC7325"/>
<path d="M21.6735 15.8763C21.5472 16.3917 21.3753 16.8553 21.1465 17.3338C20.9627 17.7214 20.7931 18.1015 20.6636 18.5107C20.6006 18.6996 20.5168 18.8758 20.43 19.0548C20.2943 19.3424 20.171 19.6299 20.0595 19.9277C19.92 20.3 19.759 20.658 19.5873 21.0165C19.4972 21.2085 19.4972 21.2085 19.4375 21.4004C19.3494 21.6622 19.2356 21.9083 19.1207 22.1593C18.9247 22.5933 18.7463 23.0301 18.5823 23.4772C18.3064 24.2291 17.9776 24.9592 17.655 25.6919C17.4766 25.6937 17.2982 25.695 17.1197 25.696C17.0709 25.6966 17.0221 25.6971 16.9718 25.6977C16.6641 25.699 16.3604 25.6855 16.0536 25.6614C15.5744 25.6263 15.0951 25.6046 14.6151 25.5865C14.4638 25.5808 14.3126 25.5749 14.1614 25.5689C13.732 25.5521 13.3026 25.5356 12.8731 25.5192C12.557 25.5071 12.2409 25.4947 11.9247 25.4822C11.8727 25.4801 11.8206 25.4781 11.767 25.4759C10.9063 25.4414 10.0466 25.3956 9.18691 25.3412C8.60733 25.3049 8.02867 25.2811 7.4482 25.2637C6.34811 25.2272 5.24913 25.1618 4.15024 25.099C4.15024 28.686 4.15024 32.273 4.15024 35.9687C4.1285 35.9687 4.10676 35.9687 4.08436 35.9687C4.08436 32.36 4.08436 28.7512 4.08436 25.0332C3.71479 25.0332 3.34522 25.0332 2.96446 25.0332C2.71146 25.0255 2.45932 25.0167 2.20662 25.0043C2.1424 25.0014 2.07819 24.9985 2.01203 24.9955C1.81208 24.9863 1.61216 24.9768 1.41223 24.9673C1.27452 24.9609 1.1368 24.9546 0.999089 24.9482C0.666046 24.9329 0.33302 24.9172 0 24.9014C0.127692 24.5725 0.291321 24.2684 0.460494 23.9596C0.608672 23.6861 0.73412 23.409 0.856398 23.1227C0.931618 22.9791 1.00847 22.8364 1.08697 22.6945C1.20594 22.4764 1.31845 22.2642 1.41635 22.0358C1.54758 21.7296 1.70982 21.4428 1.86925 21.1505C1.98091 20.9468 1.98091 20.9468 2.07512 20.7182C2.20433 20.4167 2.3631 20.1343 2.52185 19.8474C2.63814 19.6323 2.63814 19.6323 2.73183 19.4048C2.85864 19.1098 3.01038 18.8325 3.16466 18.5512C3.3118 18.28 3.43626 18.005 3.55735 17.7208C3.6229 17.5964 3.69006 17.4728 3.75909 17.3503C3.88524 17.1262 3.99083 16.9061 4.08436 16.6668C4.86041 16.625 5.63645 16.5832 6.4125 16.5414C6.77299 16.522 7.13348 16.5026 7.49397 16.4831C7.84294 16.4643 8.19192 16.4455 8.5409 16.4267C8.67293 16.4196 8.80496 16.4125 8.93699 16.4054C9.30347 16.3856 9.66995 16.366 10.0365 16.3467C10.1522 16.3405 10.268 16.3343 10.3837 16.3281C11.1011 16.2893 11.8175 16.2619 12.5358 16.2481C13.5987 16.2267 14.6598 16.1827 15.7214 16.1272C15.8251 16.1218 15.8251 16.1218 15.9309 16.1162C16.4261 16.0902 16.9211 16.0636 17.4162 16.0369C17.9172 16.0098 18.4182 15.9831 18.9193 15.9568C19.1156 15.9464 19.3119 15.9356 19.5083 15.9248C20.2308 15.8861 20.9499 15.8672 21.6735 15.8763Z" fill="#FEA147"/>
<path d="M17.1938 0.065918C17.3765 0.0893105 17.448 0.122059 17.5775 0.256858C17.6383 0.337616 17.6383 0.337616 17.7003 0.420006C17.7463 0.479874 17.7923 0.539742 17.8397 0.601424C17.8875 0.66384 17.9352 0.726256 17.9844 0.790563C18.2972 1.17956 18.6165 1.56292 18.9396 1.94341C19.3468 2.42296 19.7459 2.90869 20.1377 3.40093C20.4275 3.7645 20.7236 4.1228 21.0198 4.48124C21.0947 4.57203 21.1696 4.66291 21.2444 4.75388C21.3302 4.85809 21.4168 4.96166 21.5036 5.06509C21.6076 5.20431 21.6076 5.20431 21.6076 5.33606C20.8032 5.33606 19.9989 5.33606 19.1701 5.33606C19.1701 7.53173 19.1701 9.72741 19.1701 11.9896C17.931 11.9896 16.6919 11.9896 15.4152 11.9896C15.4152 9.79394 15.4152 7.59827 15.4152 5.33606C14.6108 5.33606 13.8065 5.33606 12.9777 5.33606C13.2375 4.81658 13.6448 4.38862 14.0195 3.94824C14.3832 3.52082 14.737 3.08555 15.0899 2.64927C15.4609 2.191 15.8345 1.73562 16.2168 1.28675C16.5546 0.889376 16.8826 0.484424 17.1938 0.065918Z" fill="#9FB239"/>
<path d="M24.2427 0C25.4601 0 26.6775 0 27.9318 0C27.9318 2.21741 27.9318 4.43483 27.9318 6.71943C28.7361 6.71943 29.5405 6.71943 30.3692 6.71943C30.2513 6.95532 30.1372 7.11606 29.9698 7.31644C29.9166 7.38056 29.8634 7.44467 29.8085 7.51073C29.7544 7.57569 29.7003 7.64065 29.6446 7.70758C29.5484 7.82554 29.4523 7.94356 29.3564 8.06167C29.1696 8.29026 28.9805 8.51653 28.7889 8.74106C28.4747 9.10929 28.1713 9.48387 27.8743 9.86614C27.6678 10.1308 27.4545 10.3884 27.236 10.6432C26.8806 11.0578 26.5478 11.4879 26.219 11.9237C25.9077 11.869 25.7925 11.6768 25.6137 11.4337C25.5492 11.3486 25.4844 11.2636 25.4195 11.1787C25.3875 11.137 25.3555 11.0952 25.3226 11.0521C25.2002 10.8967 25.0688 10.7513 24.9344 10.6062C24.6755 10.3244 24.44 10.0297 24.2056 9.72778C23.6878 9.06228 23.1463 8.41555 22.5999 7.77346C21.8052 6.8381 21.8052 6.8381 21.8052 6.65356C22.6096 6.65356 23.4139 6.65356 24.2427 6.65356C24.2427 4.45788 24.2427 2.26221 24.2427 0Z" fill="#9EB136"/>
<path d="M26.0872 0.065918C26.6742 0.065918 27.2611 0.065918 27.8659 0.065918C27.8876 2.23985 27.9094 4.41379 27.9318 6.6536C29.1383 6.68621 29.1383 6.68621 30.3692 6.71947C30.2513 6.95536 30.1372 7.1161 29.9698 7.31648C29.9166 7.3806 29.8633 7.44471 29.8085 7.51077C29.7544 7.57573 29.7003 7.64069 29.6446 7.70763C29.5484 7.82558 29.4523 7.94361 29.3563 8.06171C29.1696 8.29031 28.9805 8.51657 28.7889 8.7411C28.5067 9.07186 28.2316 9.40653 27.9647 9.74981C27.6433 10.163 27.3084 10.5628 26.9684 10.9607C26.8119 11.1447 26.6575 11.3304 26.5031 11.5161C26.4485 11.5818 26.3938 11.6474 26.3376 11.715C26.2984 11.7622 26.2593 11.8093 26.219 11.8579C26.0654 11.6155 26.071 11.4078 26.0714 11.125C26.0713 11.0777 26.0711 11.0304 26.071 10.9817C26.0708 10.8232 26.0715 10.6647 26.0723 10.5062C26.0723 10.3925 26.0723 10.2789 26.0722 10.1653C26.0722 9.85678 26.0729 9.54825 26.0738 9.23971C26.0747 8.91731 26.0748 8.5949 26.0749 8.2725C26.0753 7.66193 26.0764 7.05137 26.0777 6.44081C26.0792 5.74573 26.0799 5.05064 26.0806 4.35556C26.082 2.92568 26.0843 1.4958 26.0872 0.065918Z" fill="#86972D"/>
<path d="M17.3256 0.329346C17.7029 0.404797 17.7397 0.459247 17.9679 0.74931C17.9964 0.784897 18.0248 0.820483 18.0541 0.857148C18.1129 0.930725 18.1714 1.00457 18.2295 1.07866C18.3529 1.23551 18.4795 1.38966 18.6061 1.54395C18.6544 1.60322 18.7027 1.6625 18.7525 1.72357C18.9198 1.92632 19.0901 2.12631 19.2608 2.32624C19.5441 2.65872 19.8157 2.99896 20.0837 3.34387C20.2934 3.61247 20.5095 3.87453 20.7306 4.13373C20.9525 4.39406 21.1733 4.65496 21.3894 4.92014C21.4318 4.97202 21.4741 5.02391 21.5178 5.07736C21.6076 5.20423 21.6076 5.20423 21.6076 5.33598C20.7815 5.33598 19.9554 5.33598 19.1043 5.33598C19.1043 7.50992 19.1043 9.68385 19.1043 11.9237C18.5173 11.9237 17.9304 11.9237 17.3256 11.9237C17.3256 8.09754 17.3256 4.27141 17.3256 0.329346Z" fill="#86972E"/>
<path d="M30.2374 6.91711C30.2809 6.96059 30.3244 7.00407 30.3692 7.04887C30.217 7.20104 30.0648 7.35322 29.908 7.51001C29.908 7.22083 30.0482 7.12996 30.2374 6.91711Z" fill="#DEE2CF"/>
<path d="M17.1938 0.065918C17.2591 0.0876573 17.3243 0.109397 17.3915 0.131795C17.2393 0.28397 17.0871 0.436146 16.9303 0.592932C16.8869 0.571193 16.8434 0.549454 16.7986 0.527056C16.929 0.37488 17.0595 0.222705 17.1938 0.065918Z" fill="#A8B952"/>
</svg>
