<svg width="31" height="40" viewBox="0 0 31 40" fill="none" xmlns="http://www.w3.org/2000/svg">
<path d="M11.7661 0.00208188C11.8187 0.00172499 11.8712 0.00136809 11.9254 0.00100038C12.0993 0.000103303 12.2732 0.000697826 12.4471 0.00138574C12.568 0.00124857 12.6888 0.00105092 12.8096 0.000795265C13.063 0.000494827 13.3163 0.000931976 13.5696 0.00188299C13.8944 0.00304253 14.219 0.00237586 14.5438 0.00115538C14.7933 0.000419262 15.0429 0.000653734 15.2925 0.00118141C15.4122 0.00131727 15.5319 0.00115053 15.6516 0.000676393C15.819 0.000158986 15.9864 0.000947899 16.1538 0.00208188C16.2033 0.00166961 16.2528 0.00125733 16.3037 0.000832559C16.5134 0.0034634 16.6605 0.0179153 16.8464 0.118533C17.0137 0.299326 16.9865 0.466522 16.9881 0.707604C16.9889 0.753708 16.9897 0.799811 16.9905 0.847312C16.9929 0.99444 16.9935 1.1415 16.9939 1.28865C16.995 1.43602 16.9965 1.58336 16.9988 1.73071C17.0007 1.86424 17.0014 1.99779 17.0021 2.13133C16.9978 2.34431 16.9978 2.34431 17.1552 2.47249C17.3529 2.49319 17.3529 2.49319 17.5879 2.48982C17.6545 2.49019 17.6545 2.49019 17.7224 2.49057C17.819 2.49104 17.9155 2.49121 18.012 2.49112C18.165 2.49105 18.318 2.49193 18.471 2.49308C18.906 2.49623 19.341 2.49789 19.776 2.49834C20.0421 2.49869 20.3081 2.50034 20.5742 2.50278C20.6754 2.50344 20.7766 2.5036 20.8778 2.50324C21.0199 2.50276 21.1618 2.50394 21.3038 2.50547C21.3845 2.50566 21.4652 2.50586 21.5484 2.50606C21.8182 2.54752 21.9669 2.64326 22.1791 2.81194C22.2729 2.99962 22.2534 3.15452 22.2512 3.36355C22.2506 3.43794 22.25 3.51232 22.2493 3.58896C22.2482 3.67482 22.2482 3.67482 22.247 3.7624C22.3168 3.76165 22.3866 3.7609 22.4586 3.76012C23.1169 3.75324 23.7752 3.74815 24.4335 3.74482C24.7719 3.74304 25.1103 3.74064 25.4488 3.7368C25.7754 3.73311 26.102 3.73108 26.4286 3.7302C26.5532 3.72957 26.6778 3.72835 26.8024 3.72651C26.977 3.72405 27.1514 3.72371 27.326 3.72387C27.3775 3.72265 27.429 3.72143 27.482 3.72017C27.7228 3.72252 27.8649 3.75087 28.0651 3.88702C28.2963 4.20494 28.2664 4.48063 28.2601 4.86447C28.2602 4.94241 28.2603 5.02036 28.2604 5.10066C28.2603 5.31677 28.2587 5.5328 28.2565 5.74889C28.2545 5.98205 28.2544 6.2152 28.2541 6.44837C28.2534 6.85242 28.2516 7.25646 28.249 7.66051C28.2453 8.2455 28.2442 8.83049 28.2438 9.41549C28.2431 10.3657 28.2414 11.3159 28.2386 12.2661C28.2385 12.323 28.2383 12.3798 28.2381 12.4384C28.2357 13.2448 28.2323 14.0512 28.2284 14.8576C28.228 14.9427 28.228 14.9427 28.2276 15.0296C28.2272 15.1146 28.2272 15.1146 28.2268 15.2013C28.2223 16.1475 28.2205 17.0936 28.2209 18.0398C28.2209 18.6231 28.2188 19.2062 28.2139 19.7894C28.2106 20.1895 28.2099 20.5895 28.211 20.9895C28.2116 21.2201 28.2107 21.4505 28.2076 21.6811C28.1451 22.7115 28.1451 22.7115 28.5281 23.6251C28.6644 23.7619 28.8142 23.8774 28.9681 23.9937C29.2886 24.387 29.5848 24.8645 29.7374 25.3499C29.7956 25.5261 29.8727 25.6913 29.9483 25.8607C30.534 27.3019 30.6819 29.1665 30.1222 30.647C30.1048 30.6942 30.0873 30.7414 30.0693 30.7901C29.709 31.7531 29.2626 32.7283 28.5255 33.4658C28.2772 33.7215 28.1749 33.8972 28.1736 34.2551C28.1755 34.3062 28.1774 34.3572 28.1794 34.4099C28.1797 34.465 28.1801 34.5202 28.1805 34.577C28.1822 34.758 28.1867 34.9388 28.1911 35.1198C28.1925 35.2461 28.1937 35.3725 28.1948 35.4989C28.1979 35.8307 28.2031 36.1625 28.2092 36.4943C28.2187 37.0257 28.2262 37.5572 28.2312 38.0888C28.2335 38.2742 28.2375 38.4595 28.2416 38.6448C28.243 38.7586 28.2444 38.8724 28.2457 38.9861C28.2473 39.0375 28.2489 39.0888 28.2506 39.1417C28.2517 39.3922 28.2294 39.5279 28.0925 39.7407C27.8529 39.9745 27.6989 39.9567 27.3698 39.9574C27.3235 39.9576 27.2771 39.9578 27.2294 39.958C27.0725 39.9586 26.9156 39.9587 26.7586 39.9588C26.6456 39.9592 26.5326 39.9595 26.4196 39.9599C26.1079 39.9608 25.7961 39.9614 25.4844 39.9618C25.2173 39.9622 24.9502 39.9629 24.6831 39.9636C23.803 39.9659 22.9229 39.9673 22.0428 39.9686C21.8138 39.9689 21.5848 39.9692 21.3557 39.9696C19.9345 39.9717 18.5133 39.9735 17.092 39.9746C16.7627 39.9749 16.4333 39.9752 16.104 39.9754C16.0221 39.9755 15.9403 39.9756 15.8559 39.9756C14.529 39.9768 13.2021 39.9796 11.8752 39.983C10.514 39.9866 9.15283 39.9885 7.79164 39.989C7.02692 39.9893 6.26222 39.9903 5.4975 39.9931C4.84641 39.9954 4.19534 39.9964 3.54425 39.9955C3.21186 39.9951 2.87951 39.9954 2.54713 39.9974C2.24305 39.9993 1.93902 39.9992 1.63493 39.9977C1.52473 39.9975 1.41453 39.998 1.30434 39.9992C1.15482 40.0008 1.00552 39.9998 0.856006 39.9983C0.77289 39.9984 0.689774 39.9985 0.604139 39.9986C0.365222 39.943 0.252982 39.8663 0.108718 39.6665C-0.00772566 39.4296 0.000403172 39.1963 0.00409932 38.9367C0.00360595 38.8764 0.0031128 38.816 0.00260448 38.7539C0.00136249 38.551 0.00254531 38.3483 0.00371188 38.1455C0.00332088 37.9989 0.00278186 37.8522 0.00210724 37.7056C0.000686923 37.3022 0.0013919 36.8989 0.00244184 36.4955C0.00320819 36.0606 0.00202538 35.6258 0.001091 35.191C-0.000333074 34.3882 -0.000207357 33.5855 0.000721172 32.7828C0.00157463 32.0413 0.00179827 31.2999 0.00139245 30.5584C0.00136652 30.5092 0.00134044 30.4601 0.00131372 30.4094C0.00120804 30.2099 0.00110047 30.0104 0.00098844 29.8108C-5.0178e-05 27.9387 0.000891769 26.0665 0.00271843 24.1943C0.00432971 22.5303 0.004185 20.8662 0.00256201 19.2021C0.000745324 17.3332 2.28037e-05 15.4643 0.00107235 13.5954C0.00118122 13.3963 0.00128739 13.1971 0.00139245 12.998C0.00141929 12.949 0.00144663 12.8999 0.00147429 12.8494C0.00186077 12.1082 0.0014082 11.3671 0.00055128 10.6259C-0.000417874 9.78346 -0.000146946 8.94102 0.0016649 8.09857C0.00255937 7.66844 0.00290239 7.23832 0.00178403 6.80819C0.000776853 6.41489 0.00132081 6.02162 0.00313384 5.62832C0.00351485 5.48561 0.00331569 5.34289 0.00249675 5.20017C0.00147275 5.00699 0.00251457 4.81393 0.00409932 4.62076C0.00330461 4.56463 0.00251063 4.50849 0.00169183 4.45066C0.00607199 4.18572 0.0214291 4.06147 0.204096 3.86355C0.441547 3.73171 0.646423 3.72623 0.91091 3.73157C0.962609 3.73153 1.01431 3.73149 1.06757 3.73145C1.23768 3.73164 1.4077 3.73375 1.5778 3.73588C1.69604 3.73639 1.81428 3.73678 1.93252 3.73705C2.24314 3.73808 2.55373 3.74075 2.86434 3.74376C3.18153 3.74654 3.49873 3.74778 3.81592 3.74914C4.43787 3.75205 5.05979 3.75669 5.68171 3.7624C5.68031 3.70023 5.68031 3.70023 5.67888 3.6368C5.67815 3.58216 5.67742 3.52752 5.67667 3.47122C5.67527 3.39014 5.67527 3.39014 5.67384 3.30743C5.68545 3.07739 5.75549 2.93216 5.88538 2.74405C6.15603 2.54096 6.35765 2.51433 6.69231 2.5121C6.73794 2.51152 6.78357 2.51094 6.83058 2.51033C6.9805 2.50864 7.13039 2.50834 7.28032 2.50802C7.3847 2.50705 7.48908 2.50598 7.59345 2.50482C7.86754 2.50198 8.14162 2.50028 8.41571 2.49888C8.85539 2.49644 9.29505 2.49232 9.73471 2.48812C9.8885 2.48682 10.0423 2.48603 10.1961 2.48531C10.2897 2.48461 10.3833 2.48391 10.4769 2.48319C10.559 2.48275 10.641 2.48231 10.7255 2.48186C10.9036 2.49335 10.9036 2.49335 10.9772 2.4046C10.9855 2.24651 10.9894 2.08819 10.9915 1.92989C10.9934 1.83204 10.9953 1.73418 10.9973 1.63632C11.0001 1.48153 11.0026 1.32674 11.0044 1.17193C11.0063 1.02287 11.0094 0.873876 11.0127 0.724842C11.014 0.635325 11.0154 0.545808 11.0168 0.453579C11.045 0.232107 11.045 0.232107 11.1163 0.118076C11.3198 -0.0196938 11.5287 0.000109906 11.7661 0.00208188Z" fill="#ECF5FA"/>
<path d="M11.7661 0.00208188C11.8187 0.00172499 11.8712 0.00136809 11.9254 0.00100038C12.0993 0.000103303 12.2732 0.000697826 12.4471 0.00138574C12.568 0.00124857 12.6888 0.00105092 12.8096 0.000795265C13.063 0.000494827 13.3163 0.000931976 13.5696 0.00188299C13.8944 0.00304253 14.219 0.00237586 14.5438 0.00115538C14.7933 0.000419262 15.0429 0.000653734 15.2925 0.00118141C15.4122 0.00131727 15.5319 0.00115053 15.6516 0.000676393C15.819 0.000158986 15.9864 0.000947899 16.1538 0.00208188C16.2033 0.00166961 16.2528 0.00125733 16.3037 0.000832559C16.5134 0.0034634 16.6605 0.0179153 16.8464 0.118533C17.0137 0.299326 16.9865 0.466522 16.9881 0.707604C16.9889 0.753708 16.9897 0.799811 16.9905 0.847312C16.9929 0.99444 16.9935 1.1415 16.9939 1.28865C16.995 1.43602 16.9965 1.58336 16.9988 1.73071C17.0007 1.86424 17.0014 1.99779 17.0021 2.13133C16.9978 2.34431 16.9978 2.34431 17.1552 2.47249C17.3529 2.49319 17.3529 2.49319 17.5879 2.48982C17.6545 2.49019 17.6545 2.49019 17.7224 2.49057C17.819 2.49104 17.9155 2.49121 18.012 2.49112C18.165 2.49105 18.318 2.49193 18.471 2.49308C18.906 2.49623 19.341 2.49789 19.776 2.49834C20.0421 2.49869 20.3081 2.50034 20.5742 2.50278C20.6754 2.50344 20.7766 2.5036 20.8778 2.50324C21.0199 2.50276 21.1618 2.50394 21.3038 2.50547C21.3845 2.50566 21.4652 2.50586 21.5484 2.50606C21.8182 2.54752 21.9669 2.64326 22.1791 2.81194C22.2729 2.99962 22.2534 3.15452 22.2512 3.36355C22.2506 3.43794 22.25 3.51232 22.2493 3.58896C22.2482 3.67482 22.2482 3.67482 22.247 3.7624C22.2063 3.77501 22.1657 3.78761 22.1239 3.80059C21.9074 3.94285 21.8395 4.13257 21.7717 4.37342C21.751 4.56026 21.7393 4.72641 21.742 4.9123C21.7424 4.95982 21.7428 5.00735 21.7431 5.05631C21.7545 5.4427 21.8198 5.68995 22.0433 6.00278C22.1105 6.02519 22.1777 6.04759 22.247 6.07067C22.3054 6.87348 22.3054 6.87348 22.0857 7.1357C21.7877 7.39824 21.5499 7.37082 21.1679 7.37104C21.0729 7.37148 21.0729 7.37148 20.976 7.37194C20.7626 7.37285 20.5491 7.37327 20.3356 7.37368C20.1831 7.37422 20.0306 7.37478 19.878 7.37537C19.376 7.37715 18.8739 7.37819 18.3719 7.37915C18.1993 7.37952 18.0267 7.37988 17.8541 7.38025C17.1362 7.38172 16.4183 7.383 15.7005 7.38375C15.5142 7.38395 15.3278 7.38415 15.1415 7.38436C15.072 7.38443 15.072 7.38443 15.0012 7.38451C14.251 7.38537 13.5007 7.38763 12.7505 7.39045C11.9804 7.39333 11.2104 7.39491 10.4403 7.39529C10.0078 7.39554 9.57541 7.39636 9.14297 7.39856C8.73619 7.40059 8.32943 7.40103 7.92264 7.40023C7.77326 7.40021 7.62388 7.40078 7.47451 7.40197C7.27068 7.4035 7.06696 7.40295 6.86313 7.40187C6.80391 7.40281 6.7447 7.40375 6.68369 7.40472C6.39658 7.40097 6.21313 7.38041 5.98551 7.19677C5.73967 6.93979 5.74165 6.81848 5.74536 6.46953C5.74597 6.39514 5.74659 6.32075 5.74722 6.24411C5.748 6.18688 5.74879 6.12964 5.7496 6.07067C5.79161 6.05527 5.83362 6.03987 5.8769 6.024C6.06251 5.92911 6.06251 5.92911 6.15694 5.59544C4.76791 5.59544 3.37887 5.59544 1.94775 5.59544C1.94775 16.3045 1.94775 27.0135 1.94775 38.047C9.99071 38.047 18.0337 38.047 26.3204 38.047C26.298 37.0836 26.2756 36.1203 26.2525 35.1277C26.5437 34.9709 26.835 34.8141 27.1351 34.6525C27.3066 34.5347 27.4667 34.4215 27.6273 34.2918C27.6648 34.2627 27.7023 34.2336 27.741 34.2037C27.9438 34.0471 27.9438 34.0471 28.0855 33.8378C28.1303 33.8378 28.1751 33.8378 28.2213 33.8378C28.2276 34.5755 28.2324 35.3132 28.2354 36.0509C28.2368 36.3934 28.2387 36.736 28.2418 37.0785C28.2447 37.4091 28.2464 37.7397 28.2471 38.0703C28.2476 38.1964 28.2485 38.3225 28.25 38.4486C28.252 38.6253 28.2523 38.8019 28.2521 38.9786C28.2531 39.0307 28.2541 39.0828 28.2551 39.1365C28.2531 39.3878 28.2296 39.5278 28.0921 39.7412C27.8528 39.9746 27.6984 39.9567 27.3698 39.9574C27.3235 39.9576 27.2771 39.9578 27.2294 39.958C27.0725 39.9586 26.9156 39.9587 26.7586 39.9588C26.6456 39.9592 26.5326 39.9595 26.4196 39.9599C26.1079 39.9608 25.7961 39.9614 25.4844 39.9618C25.2173 39.9622 24.9502 39.9629 24.6831 39.9636C23.803 39.9659 22.9229 39.9673 22.0428 39.9686C21.8138 39.9689 21.5848 39.9692 21.3557 39.9696C19.9345 39.9717 18.5133 39.9735 17.092 39.9746C16.7627 39.9749 16.4333 39.9752 16.104 39.9754C16.0221 39.9755 15.9403 39.9756 15.8559 39.9756C14.529 39.9768 13.2021 39.9796 11.8752 39.983C10.514 39.9866 9.15283 39.9885 7.79164 39.989C7.02692 39.9893 6.26222 39.9903 5.4975 39.9931C4.84641 39.9954 4.19534 39.9964 3.54425 39.9955C3.21186 39.9951 2.87951 39.9954 2.54713 39.9974C2.24305 39.9993 1.93902 39.9992 1.63493 39.9977C1.52473 39.9975 1.41453 39.998 1.30434 39.9992C1.15482 40.0008 1.00552 39.9998 0.856006 39.9983C0.77289 39.9984 0.689774 39.9985 0.604139 39.9986C0.365222 39.943 0.252982 39.8663 0.108718 39.6665C-0.00772566 39.4296 0.000403172 39.1963 0.00409932 38.9367C0.00360595 38.8764 0.0031128 38.816 0.00260448 38.7539C0.00136249 38.551 0.00254531 38.3483 0.00371188 38.1455C0.00332088 37.9989 0.00278186 37.8522 0.00210724 37.7056C0.000686923 37.3022 0.0013919 36.8989 0.00244184 36.4955C0.00320819 36.0606 0.00202538 35.6258 0.001091 35.191C-0.000333074 34.3882 -0.000207357 33.5855 0.000721172 32.7828C0.00157463 32.0413 0.00179827 31.2999 0.00139245 30.5584C0.00136652 30.5092 0.00134044 30.4601 0.00131372 30.4094C0.00120804 30.2099 0.00110047 30.0104 0.00098844 29.8108C-5.0178e-05 27.9387 0.000891769 26.0665 0.00271843 24.1943C0.00432971 22.5303 0.004185 20.8662 0.00256201 19.2021C0.000745324 17.3332 2.28037e-05 15.4643 0.00107235 13.5954C0.00118122 13.3963 0.00128739 13.1971 0.00139245 12.998C0.00141929 12.949 0.00144663 12.8999 0.00147429 12.8494C0.00186077 12.1082 0.0014082 11.3671 0.00055128 10.6259C-0.000417874 9.78346 -0.000146946 8.94102 0.0016649 8.09857C0.00255937 7.66844 0.00290239 7.23832 0.00178403 6.80819C0.000776853 6.41489 0.00132081 6.02162 0.00313384 5.62832C0.00351485 5.48561 0.00331569 5.34289 0.00249675 5.20017C0.00147275 5.00699 0.00251457 4.81393 0.00409932 4.62076C0.00330461 4.56463 0.00251063 4.50849 0.00169183 4.45066C0.00607199 4.18572 0.0214291 4.06147 0.204096 3.86355C0.441547 3.73171 0.646423 3.72623 0.91091 3.73157C0.962609 3.73153 1.01431 3.73149 1.06757 3.73145C1.23768 3.73164 1.4077 3.73375 1.5778 3.73588C1.69604 3.73639 1.81428 3.73678 1.93252 3.73705C2.24314 3.73808 2.55373 3.74075 2.86434 3.74376C3.18153 3.74654 3.49873 3.74778 3.81592 3.74914C4.43787 3.75205 5.05979 3.75669 5.68171 3.7624C5.68031 3.70023 5.68031 3.70023 5.67888 3.6368C5.67815 3.58216 5.67742 3.52752 5.67667 3.47122C5.67527 3.39014 5.67527 3.39014 5.67384 3.30743C5.68545 3.07739 5.75549 2.93216 5.88538 2.74405C6.15603 2.54096 6.35765 2.51433 6.69231 2.5121C6.73794 2.51152 6.78357 2.51094 6.83058 2.51033C6.9805 2.50864 7.13039 2.50834 7.28032 2.50802C7.3847 2.50705 7.48908 2.50598 7.59345 2.50482C7.86754 2.50198 8.14162 2.50028 8.41571 2.49888C8.85539 2.49644 9.29505 2.49232 9.73471 2.48812C9.8885 2.48682 10.0423 2.48603 10.1961 2.48531C10.2897 2.48461 10.3833 2.48391 10.4769 2.48319C10.559 2.48275 10.641 2.48231 10.7255 2.48186C10.9036 2.49335 10.9036 2.49335 10.9772 2.4046C10.9855 2.24651 10.9894 2.08819 10.9915 1.92989C10.9934 1.83204 10.9953 1.73418 10.9973 1.63632C11.0001 1.48153 11.0026 1.32674 11.0044 1.17193C11.0063 1.02287 11.0094 0.873876 11.0127 0.724842C11.014 0.635325 11.0154 0.545808 11.0168 0.453579C11.045 0.232107 11.045 0.232107 11.1163 0.118076C11.3198 -0.0196938 11.5287 0.000109906 11.7661 0.00208188Z" fill="#86BFE9"/>
<path d="M26.3204 21.8213C26.3904 21.855 26.4604 21.8887 26.5326 21.9234C27.6187 22.4775 28.4901 23.3334 29.1718 24.3332C29.2104 24.3873 29.249 24.4414 29.2888 24.4971C29.4787 24.7687 29.6253 25.0237 29.7303 25.338C29.7933 25.5171 29.8711 25.6874 29.9483 25.8608C30.534 27.3019 30.6819 29.1666 30.1223 30.647C30.0961 30.7179 30.0961 30.7179 30.0693 30.7902C29.6364 31.9472 29.0635 32.9841 28.1534 33.8379C28.0736 33.9187 28.0736 33.9187 27.9922 34.0012C26.5861 35.3906 24.77 35.9557 22.8325 35.9722C21.7611 35.9614 20.8465 35.7722 19.8708 35.3315C19.7662 35.2854 19.7662 35.2854 19.6595 35.2384C18.232 34.571 17.1556 33.4543 16.3702 32.1024C16.3467 32.062 16.3231 32.0215 16.2988 31.9798C16.1933 31.7916 16.1369 31.6811 16.1369 31.4617C16.0921 31.4617 16.0472 31.4617 16.0011 31.4617C15.8703 30.9757 15.7399 30.4896 15.615 30.0021C15.5915 29.9107 15.5915 29.9107 15.5675 29.8175C15.1464 27.9077 15.684 25.9703 16.68 24.3332C16.8484 24.0934 17.0284 23.8729 17.2231 23.6543C17.2685 23.5963 17.3139 23.5383 17.3607 23.4785C17.4722 23.3423 17.5731 23.2392 17.7111 23.1324C17.9031 22.9962 17.9031 22.9962 17.9699 22.8396C17.8672 22.8399 17.8672 22.8399 17.7625 22.8402C16.099 22.8447 14.4355 22.8481 12.7721 22.8502C11.9676 22.8512 11.1632 22.8527 10.3588 22.855C9.65788 22.857 8.95697 22.8583 8.25606 22.8588C7.88472 22.8591 7.5134 22.8597 7.14206 22.8612C6.7929 22.8625 6.44375 22.863 6.09459 22.8627C5.96612 22.8627 5.83765 22.8631 5.70918 22.8639C5.5344 22.8649 5.35967 22.8647 5.18489 22.8641C5.13351 22.8647 5.08213 22.8653 5.0292 22.8659C4.88792 22.8647 4.88792 22.8647 4.6634 22.8396C4.49367 22.585 4.50752 22.3831 4.51064 22.0886C4.51012 22.0388 4.50959 21.9891 4.50905 21.9378C4.51042 21.5669 4.51042 21.5669 4.6634 21.4139C4.86992 21.4004 5.07028 21.3955 5.27689 21.3964C5.34126 21.3962 5.40563 21.3959 5.47194 21.3956C5.68901 21.395 5.90606 21.3953 6.12312 21.3955C6.27822 21.3952 6.43333 21.3949 6.58843 21.3944C6.92324 21.3937 7.25805 21.3933 7.59286 21.3932C8.1227 21.3931 8.65253 21.3919 9.18237 21.3905C9.92575 21.3886 10.6691 21.387 11.4125 21.3859C11.4597 21.3858 11.5069 21.3857 11.5556 21.3857C12.0813 21.3849 12.607 21.3842 13.1327 21.3836C13.3229 21.3834 13.5131 21.3832 13.7032 21.383C13.7736 21.3829 13.7736 21.3829 13.8454 21.3828C14.6297 21.3819 15.414 21.3802 16.1983 21.378C16.7244 21.3765 17.2506 21.3759 17.7768 21.3761C18.1052 21.376 18.4336 21.375 18.7621 21.3738C18.9138 21.3734 19.0654 21.3734 19.2171 21.3738C19.988 21.3753 20.6882 21.3604 21.4323 21.1424C23.1185 20.8492 24.7979 21.0672 26.3204 21.8213Z" fill="#BFD156"/>
<path d="M11.7661 0.00208188C11.8187 0.00172499 11.8712 0.00136809 11.9254 0.00100038C12.0993 0.000103303 12.2732 0.000697826 12.4471 0.00138574C12.568 0.00124857 12.6888 0.00105092 12.8096 0.000795265C13.063 0.000494827 13.3163 0.000931976 13.5696 0.00188299C13.8944 0.00304253 14.219 0.00237586 14.5438 0.00115538C14.7933 0.000419262 15.0429 0.000653734 15.2924 0.00118141C15.4122 0.00131727 15.5319 0.00115053 15.6516 0.000676393C15.819 0.000158986 15.9864 0.000947899 16.1538 0.00208188C16.2033 0.00166961 16.2528 0.00125733 16.3037 0.000832559C16.5134 0.0034634 16.6605 0.0179153 16.8464 0.118533C17.0137 0.299326 16.9865 0.466522 16.9881 0.707604C16.9889 0.753708 16.9897 0.799811 16.9905 0.847312C16.9929 0.99444 16.9935 1.1415 16.9939 1.28865C16.995 1.43602 16.9965 1.58336 16.9988 1.73071C17.0007 1.86424 17.0014 1.99779 17.0021 2.13133C16.9978 2.34431 16.9978 2.34431 17.1552 2.47249C17.3529 2.49319 17.3529 2.49319 17.5879 2.48982C17.6545 2.49019 17.6545 2.49019 17.7224 2.49057C17.819 2.49104 17.9155 2.49121 18.012 2.49112C18.165 2.49105 18.318 2.49193 18.471 2.49308C18.906 2.49623 19.341 2.49789 19.776 2.49834C20.0421 2.49869 20.3081 2.50034 20.5741 2.50278C20.6754 2.50344 20.7766 2.5036 20.8778 2.50324C21.0199 2.50276 21.1618 2.50394 21.3038 2.50547C21.3845 2.50566 21.4652 2.50586 21.5484 2.50606C21.8182 2.54752 21.9669 2.64326 22.1791 2.81194C22.2729 2.99962 22.2534 3.15452 22.2512 3.36355C22.2506 3.43794 22.25 3.51232 22.2493 3.58896C22.2481 3.67482 22.2481 3.67482 22.2469 3.7624C22.2063 3.77501 22.1657 3.78761 22.1239 3.80059C21.9074 3.94285 21.8395 4.13257 21.7717 4.37342C21.751 4.56026 21.7393 4.72641 21.742 4.9123C21.7426 4.98358 21.7426 4.98358 21.7431 5.05631C21.7545 5.4427 21.8198 5.68995 22.0433 6.00278C22.1105 6.02519 22.1777 6.04759 22.2469 6.07067C22.3054 6.87348 22.3054 6.87348 22.0857 7.1357C21.7877 7.39824 21.5499 7.37082 21.1679 7.37104C21.1046 7.37134 21.0413 7.37163 20.976 7.37194C20.7626 7.37285 20.5491 7.37327 20.3356 7.37368C20.1831 7.37422 20.0306 7.37478 19.878 7.37537C19.376 7.37715 18.8739 7.37819 18.3719 7.37915C18.1993 7.37952 18.0267 7.37988 17.854 7.38025C17.1362 7.38172 16.4183 7.383 15.7005 7.38375C15.5142 7.38395 15.3278 7.38415 15.1415 7.38436C15.072 7.38443 15.072 7.38443 15.0012 7.38451C14.2509 7.38537 13.5007 7.38763 12.7505 7.39045C11.9804 7.39333 11.2104 7.39491 10.4403 7.39529C10.0078 7.39554 9.5754 7.39636 9.14297 7.39856C8.73618 7.40059 8.32942 7.40103 7.92263 7.40023C7.77326 7.40021 7.62388 7.40078 7.47451 7.40197C7.27068 7.4035 7.06695 7.40295 6.86312 7.40187C6.80391 7.40281 6.7447 7.40375 6.68369 7.40472C6.39657 7.40097 6.21313 7.38041 5.98551 7.19677C5.73967 6.93979 5.74164 6.81848 5.74536 6.46953C5.74597 6.39514 5.74658 6.32075 5.74721 6.24411C5.748 6.18688 5.74879 6.12964 5.7496 6.07067C5.81051 6.04967 5.81051 6.04967 5.87265 6.02824C6.08849 5.89257 6.1369 5.76633 6.22483 5.52755C6.25428 5.31179 6.25639 5.1001 6.25453 4.88259C6.25589 4.82632 6.25725 4.77005 6.25864 4.71207C6.25835 4.34218 6.20602 4.11915 5.95327 3.83029C5.88606 3.80789 5.81885 3.78549 5.7496 3.7624C5.70711 3.02244 5.70711 3.02244 5.87265 2.73132C6.12936 2.51862 6.35455 2.53084 6.67689 2.52752C6.7225 2.52695 6.76811 2.52639 6.81511 2.52581C6.91401 2.52463 7.01292 2.5236 7.11183 2.5227C7.26815 2.52127 7.42446 2.51944 7.58077 2.5175C7.96882 2.51276 8.35689 2.50872 8.74495 2.50466C9.07311 2.50121 9.40127 2.49749 9.72942 2.49341C9.88381 2.4916 10.0382 2.49019 10.1926 2.48879C10.2866 2.48766 10.3807 2.48652 10.4748 2.48535C10.5572 2.4845 10.6397 2.48365 10.7246 2.48277C10.9034 2.49339 10.9034 2.49339 10.9772 2.4046C10.9855 2.24651 10.9894 2.08819 10.9915 1.92989C10.9934 1.83204 10.9953 1.73418 10.9973 1.63632C11.0001 1.48153 11.0026 1.32674 11.0044 1.17193C11.0063 1.02287 11.0094 0.873876 11.0127 0.724842C11.014 0.635325 11.0154 0.545808 11.0168 0.453579C11.045 0.232107 11.045 0.232107 11.1163 0.118076C11.3198 -0.0196938 11.5287 0.000109906 11.7661 0.00208188Z" fill="#1C2C3C"/>
<path d="M22.5816 3.74926C22.638 3.7487 22.6944 3.74814 22.7525 3.74757C22.9401 3.74588 23.1276 3.74476 23.3152 3.74379C23.3791 3.74342 23.443 3.74306 23.5089 3.74269C23.8473 3.74087 24.1858 3.73956 24.5243 3.73858C24.8741 3.73745 25.2239 3.73441 25.5737 3.73095C25.8425 3.72867 26.1112 3.72788 26.3799 3.7275C26.5089 3.72704 26.6378 3.72601 26.7668 3.72438C26.9474 3.72224 27.1278 3.72223 27.3084 3.72274C27.3617 3.72162 27.415 3.72051 27.4698 3.71936C27.7141 3.72215 27.862 3.74888 28.0654 3.88684C28.2963 4.20523 28.2673 4.48268 28.2621 4.86686C28.2624 4.94506 28.2627 5.02325 28.263 5.10381C28.2635 5.32058 28.2624 5.53728 28.2607 5.75404C28.2592 5.98788 28.2597 6.22172 28.26 6.45556C28.2602 6.86062 28.2591 7.26566 28.2572 7.67071C28.2544 8.25634 28.2536 8.84196 28.2531 9.4276C28.2524 10.3778 28.2501 11.3279 28.2469 12.2781C28.2438 13.201 28.2414 14.124 28.24 15.047C28.2399 15.1039 28.2398 15.1608 28.2397 15.2194C28.2392 15.5048 28.2388 15.7902 28.2384 16.0756C28.2349 18.4434 28.2289 20.8112 28.2213 23.179C28.1348 23.1143 28.0484 23.0497 27.962 22.985C27.8897 22.9309 27.8897 22.9309 27.8161 22.8758C27.7039 22.7911 27.5931 22.7044 27.4827 22.6173C26.9496 22.1998 26.4645 21.9478 25.8451 21.6175C25.8451 16.5094 25.8451 11.4014 25.8451 6.13851C24.6801 6.13851 23.5151 6.13851 22.3148 6.13851C22.3148 6.40736 22.3148 6.6762 22.3148 6.95319C22.2476 6.9868 22.2476 6.9868 22.1791 7.02108C22.2015 6.70743 22.2239 6.39378 22.247 6.07062C22.1573 6.04822 22.0677 6.02581 21.9754 6.00273C21.6175 5.5156 21.6427 4.95177 21.7038 4.37336C21.8755 3.82611 22.042 3.75215 22.5816 3.74926Z" fill="#86BFE9"/>
<path d="M28.0855 25.2836C28.3433 25.3965 28.5078 25.5633 28.6923 25.7716C28.8003 26.0576 28.8218 26.3406 28.7644 26.6414C28.5835 26.9537 28.3552 27.2228 28.1194 27.4943C28.0842 27.5352 28.0489 27.5761 28.0125 27.6183C27.6978 27.9811 27.3727 28.3338 27.0454 28.6853C26.8608 28.8846 26.6812 29.0873 26.5036 29.2928C26.3683 29.4478 26.2297 29.5995 26.0912 29.7516C25.8839 29.9809 25.686 30.2146 25.4929 30.456C25.1601 30.8678 24.7981 31.2499 24.4351 31.6351C24.143 31.9452 23.8647 32.2663 23.5886 32.5906C23.5351 32.6521 23.4816 32.7136 23.4265 32.777C23.378 32.8335 23.3296 32.8901 23.2796 32.9483C23.0426 33.1736 22.8121 33.2462 22.4888 33.248C22.4399 33.2491 22.3909 33.2503 22.3405 33.2514C21.869 33.1794 21.6027 32.8725 21.3007 32.5351C21.2585 32.4889 21.2163 32.4426 21.1728 32.395C21.0549 32.2655 20.9379 32.1353 20.8212 32.0047C20.7762 31.9546 20.7313 31.9044 20.6849 31.8528C20.5707 31.7234 20.4582 31.5927 20.346 31.4616C19.8814 30.9203 19.4132 30.384 18.9276 29.8614C18.5662 29.4725 18.2179 29.0756 17.8807 28.6654C17.8139 28.5841 17.8139 28.5841 17.7457 28.5012C17.52 28.1831 17.4605 27.9294 17.5116 27.5481C17.6049 27.255 17.8131 27.0484 18.0377 26.8451C18.2904 26.7188 18.5767 26.7477 18.8524 26.7772C19.1701 26.8875 19.4062 27.1119 19.6536 27.332C19.9658 27.5916 20.3048 27.8182 20.6365 28.0522C20.801 28.1688 20.9639 28.2876 21.1267 28.4065C21.5656 28.7267 22.0081 29.0418 22.4506 29.357C22.9077 29.0305 23.3261 28.6655 23.7487 28.2965C23.9876 28.0879 24.2282 27.8815 24.4703 27.6767C24.5064 27.6462 24.5424 27.6157 24.5796 27.5843C24.8112 27.389 25.0454 27.1971 25.2808 27.0063C25.5785 26.7642 25.8633 26.5109 26.1469 26.2526C26.4451 25.9872 26.7548 25.7358 27.0671 25.4873C27.134 25.4292 27.134 25.4292 27.2021 25.37C27.4705 25.2002 27.7811 25.2375 28.0855 25.2836Z" fill="#DC3F14"/>
<path d="M1.94775 5.59546C3.33679 5.59546 4.72583 5.59546 6.15695 5.59546C6.08906 5.93491 6.08906 5.93491 5.95328 6.07069C5.88607 6.07069 5.81886 6.07069 5.74961 6.07069C5.74961 6.29473 5.74961 6.51877 5.74961 6.74959C5.72721 6.74959 5.7048 6.74959 5.68172 6.74959C5.68172 6.54796 5.68172 6.34633 5.68172 6.13858C4.60634 6.13858 3.53096 6.13858 2.42299 6.13858C2.42299 16.5115 2.42299 26.8845 2.42299 37.5718C10.1523 37.5718 17.8816 37.5718 25.8451 37.5718C25.8451 36.8325 25.8451 36.0931 25.8451 35.3314C26.1167 35.1956 26.1167 35.1956 26.3204 35.1956C26.3204 36.1366 26.3204 37.0776 26.3204 38.047C18.2774 38.047 10.2344 38.047 1.94775 38.047C1.94775 27.338 1.94775 16.629 1.94775 5.59546Z" fill="#ABD3EE"/>
<path d="M7.58266 3.89819C11.8842 3.89819 16.1857 3.89819 20.6176 3.89819C20.5952 4.01021 20.5728 4.12223 20.5497 4.23764C20.5359 4.43416 20.5371 4.63047 20.537 4.82744C20.5361 4.87851 20.5353 4.92957 20.5345 4.98218C20.5334 5.39803 20.6006 5.71407 20.6855 6.13857C16.3392 6.13857 11.9928 6.13857 7.51477 6.13857C7.55958 5.86973 7.60439 5.60088 7.65055 5.32389C7.6689 5.07863 7.6689 5.07863 7.66328 4.86563C7.66284 4.79737 7.66241 4.72911 7.66195 4.65878C7.64861 4.40422 7.61428 4.15113 7.58266 3.89819Z" fill="#425C75"/>
<path d="M5.10343 13.6565C5.19707 13.657 5.19707 13.657 5.2926 13.6576C5.39168 13.6573 5.39168 13.6573 5.49275 13.6571C5.71547 13.6567 5.93818 13.6573 6.1609 13.6579C6.31999 13.6578 6.47909 13.6577 6.63819 13.6575C7.07133 13.6571 7.50446 13.6577 7.93759 13.6583C8.34409 13.6589 8.75059 13.6588 9.15709 13.6588C9.96247 13.6588 10.7678 13.6594 11.5732 13.6604C12.3555 13.6613 13.1378 13.6618 13.9201 13.6618C13.9683 13.6618 14.0165 13.6618 14.0662 13.6618C14.1383 13.6618 14.1383 13.6618 14.2119 13.6618C15.0564 13.6617 15.9009 13.6621 16.7453 13.6626C17.1055 13.6629 17.4656 13.663 17.8258 13.663C18.2495 13.6631 18.6731 13.6635 19.0968 13.6642C19.2528 13.6644 19.4087 13.6645 19.5647 13.6644C19.7767 13.6644 19.9886 13.6648 20.2005 13.6653C20.2944 13.6651 20.2944 13.6651 20.3902 13.665C20.8135 13.6666 20.8135 13.6666 20.8891 13.7422C20.8958 13.8326 20.898 13.9232 20.8981 14.0138C20.8982 14.0684 20.8983 14.123 20.8984 14.1793C20.8981 14.2367 20.8979 14.2941 20.8976 14.3533C20.8978 14.4107 20.8981 14.4681 20.8984 14.5272C20.8982 14.6091 20.8982 14.6091 20.8981 14.6927C20.898 14.7431 20.898 14.7935 20.8979 14.8455C20.8891 14.9643 20.8891 14.9643 20.8212 15.0322C20.6127 15.0388 20.4056 15.041 20.1971 15.0403C20.0976 15.0404 20.0976 15.0404 19.9961 15.0405C19.7721 15.0406 19.548 15.0402 19.324 15.0399C19.1642 15.0398 19.0043 15.0399 18.8444 15.0399C18.4089 15.0399 17.9734 15.0395 17.5379 15.039C17.1293 15.0386 16.7207 15.0386 16.3121 15.0385C15.5027 15.0384 14.6932 15.0379 13.8837 15.0373C13.0972 15.0367 12.3106 15.0362 11.5241 15.0359C11.4756 15.0359 11.4272 15.0359 11.3773 15.0358C11.1342 15.0357 10.8912 15.0357 10.6482 15.0356C8.63058 15.0349 6.613 15.0337 4.59542 15.0322C4.48817 14.8177 4.51501 14.5885 4.5148 14.3533C4.51397 14.3032 4.51314 14.2531 4.51228 14.2016C4.51193 14.071 4.51925 13.9404 4.52753 13.8101C4.71109 13.6266 4.85408 13.6579 5.10343 13.6565Z" fill="#1F2F3E"/>
<path d="M5.10349 11.0767C5.19713 11.0772 5.19713 11.0772 5.29267 11.0777C5.39174 11.0775 5.39174 11.0775 5.49282 11.0772C5.71553 11.0768 5.93824 11.0774 6.16096 11.078C6.32006 11.0779 6.47916 11.0778 6.63826 11.0776C7.07139 11.0773 7.50452 11.0778 7.93766 11.0785C8.34416 11.079 8.75066 11.079 9.15716 11.079C9.96253 11.0789 10.7679 11.0795 11.5733 11.0805C12.3556 11.0815 13.1379 11.082 13.9202 11.0819C13.9684 11.0819 14.0166 11.0819 14.0662 11.0819C14.1384 11.0819 14.1384 11.0819 14.212 11.0819C15.0565 11.0819 15.9009 11.0822 16.7454 11.0828C17.1055 11.083 17.4657 11.0831 17.8259 11.0832C18.2495 11.0832 18.6732 11.0837 19.0969 11.0843C19.2528 11.0845 19.4088 11.0846 19.5648 11.0846C19.7767 11.0846 19.9887 11.0849 20.2006 11.0854C20.2945 11.0853 20.2945 11.0853 20.3902 11.0851C20.8135 11.0868 20.8135 11.0868 20.8892 11.1624C20.8958 11.2527 20.898 11.3434 20.8982 11.434C20.8983 11.4886 20.8984 11.5432 20.8984 11.5994C20.8982 11.6568 20.8979 11.7143 20.8976 11.7734C20.8979 11.8308 20.8982 11.8882 20.8984 11.9474C20.8983 12.0293 20.8983 12.0293 20.8982 12.1129C20.8981 12.1633 20.898 12.2137 20.8979 12.2656C20.8892 12.3844 20.8892 12.3844 20.8213 12.4523C20.6139 12.4593 20.408 12.4617 20.2006 12.4614C20.1017 12.4616 20.1017 12.4616 20.0008 12.4619C19.778 12.4623 19.5552 12.4622 19.3325 12.4622C19.1735 12.4624 19.0145 12.4626 18.8555 12.4629C18.4224 12.4635 17.9893 12.4636 17.5561 12.4637C17.2406 12.4637 16.9251 12.4639 16.6096 12.4641C15.7618 12.4647 14.914 12.4649 14.0662 12.4649C13.994 12.4649 13.994 12.4649 13.9202 12.4649C13.872 12.4649 13.8237 12.4649 13.774 12.4649C12.9918 12.4649 12.2096 12.4655 11.4273 12.4665C10.625 12.4674 9.82271 12.4679 9.0204 12.4678C8.56961 12.4678 8.11882 12.468 7.66803 12.4687C7.24426 12.4694 6.82049 12.4694 6.39672 12.4689C6.24077 12.4688 6.08482 12.469 5.92887 12.4694C5.7168 12.4699 5.50474 12.4696 5.29267 12.4691C5.23024 12.4694 5.16781 12.4698 5.10349 12.4702C4.67888 12.4678 4.67887 12.4678 4.5276 12.3165C4.51412 12.1326 4.5087 11.9572 4.51062 11.7734C4.5101 11.7233 4.50957 11.6733 4.50903 11.6217C4.51084 11.1262 4.62114 11.0793 5.10349 11.0767Z" fill="#1D2D3C"/>
<path d="M5.10133 16.236C5.19451 16.2365 5.19451 16.2365 5.28957 16.237C5.38815 16.2366 5.38815 16.2366 5.48873 16.2363C5.71035 16.2358 5.93196 16.2362 6.15359 16.2366C6.31191 16.2364 6.47023 16.2362 6.62855 16.2359C7.05958 16.2353 7.49061 16.2355 7.92165 16.236C8.32624 16.2363 8.73084 16.236 9.13543 16.2358C9.98561 16.2354 10.8358 16.2359 11.686 16.2366C12.416 16.2372 13.1461 16.2371 13.8761 16.2365C14.7232 16.2358 15.5703 16.2355 16.4173 16.2359C16.866 16.2361 17.3146 16.2361 17.7633 16.2357C18.185 16.2353 18.6067 16.2356 19.0284 16.2364C19.1836 16.2365 19.3388 16.2365 19.494 16.2362C19.705 16.2358 19.916 16.2363 20.1271 16.237C20.1892 16.2367 20.2513 16.2364 20.3153 16.236C20.7378 16.2387 20.7378 16.2387 20.8891 16.39C20.9008 16.5863 20.9049 16.7752 20.9018 16.9713C20.9018 17.0521 20.9018 17.0521 20.9017 17.1345C20.8986 17.5346 20.8986 17.5346 20.8212 17.612C20.6127 17.6187 20.4056 17.6208 20.197 17.6202C20.0976 17.6203 20.0976 17.6203 19.9961 17.6203C19.7721 17.6205 19.548 17.6201 19.324 17.6197C19.1642 17.6197 19.0043 17.6197 18.8444 17.6197C18.4089 17.6198 17.9734 17.6194 17.5379 17.6189C17.1293 17.6185 16.7207 17.6184 16.3121 17.6184C15.5027 17.6182 14.6932 17.6178 13.8837 17.6171C13.0972 17.6165 12.3106 17.616 11.5241 17.6157C11.4756 17.6157 11.4272 17.6157 11.3773 17.6157C11.1342 17.6156 10.8912 17.6155 10.6482 17.6154C8.63058 17.6147 6.613 17.6135 4.59542 17.612C4.48817 17.3975 4.51501 17.1684 4.5148 16.9331C4.51397 16.883 4.51314 16.833 4.51228 16.7814C4.51193 16.6508 4.51925 16.5203 4.52753 16.39C4.71065 16.2069 4.85252 16.2376 5.10133 16.236Z" fill="#1F2F3E"/>
<path d="M4.59546 18.902C6.66137 18.9004 8.72728 18.8992 10.7932 18.8985C11.0368 18.8984 11.2805 18.8983 11.5241 18.8982C11.5726 18.8982 11.6211 18.8982 11.6711 18.8982C12.4576 18.8979 13.244 18.8973 14.0305 18.8967C14.8368 18.8961 15.6432 18.8957 16.4496 18.8956C16.9028 18.8955 17.3559 18.8953 17.8091 18.8948C18.2351 18.8943 18.6611 18.8942 19.0871 18.8943C19.244 18.8943 19.4008 18.8941 19.5577 18.8939C19.7708 18.8935 19.9839 18.8936 20.1971 18.8938C20.2915 18.8935 20.2915 18.8935 20.3878 18.8932C20.8135 18.8942 20.8135 18.8942 20.8891 18.9698C20.8959 19.1629 20.8986 19.3539 20.8976 19.5469C20.8979 19.6011 20.8981 19.6553 20.8984 19.7111C20.8977 20.1154 20.8977 20.1154 20.8212 20.1919C20.6137 20.1987 20.4077 20.201 20.2001 20.2005C20.1011 20.2006 20.1011 20.2006 20.0001 20.2008C19.7772 20.2011 19.5543 20.2009 19.3314 20.2007C19.1723 20.2007 19.0132 20.2009 18.8541 20.201C18.4207 20.2013 17.9873 20.2012 17.5538 20.201C17.1472 20.2008 16.7405 20.201 16.3338 20.2011C15.4793 20.2012 14.6247 20.201 13.7702 20.2007C13.0362 20.2004 12.3022 20.2004 11.5681 20.2007C10.7167 20.2011 9.86536 20.2012 9.01398 20.201C8.56293 20.2009 8.11188 20.2009 7.66082 20.2011C7.23688 20.2013 6.81295 20.2012 6.38901 20.2008C6.23292 20.2007 6.07683 20.2007 5.92075 20.2009C5.70865 20.2011 5.49656 20.2008 5.28447 20.2005C5.19053 20.2007 5.19053 20.2007 5.09469 20.2009C4.6711 20.1996 4.6711 20.1996 4.59546 20.124C4.5896 20.0328 4.58819 19.9414 4.58883 19.85C4.58904 19.7951 4.58926 19.7402 4.58949 19.6836C4.59006 19.6259 4.59063 19.5682 4.59121 19.5087C4.59152 19.4507 4.59182 19.3928 4.59214 19.333C4.59294 19.1893 4.59416 19.0456 4.59546 18.902Z" fill="#192A3A"/>
<path d="M5.01468 21.473C5.0755 21.4732 5.13632 21.4734 5.19899 21.4736C5.29514 21.4735 5.29514 21.4735 5.39323 21.4734C5.60974 21.4733 5.82626 21.4737 6.04278 21.4741C6.19729 21.4741 6.35181 21.4741 6.50633 21.474C6.92726 21.474 7.34819 21.4744 7.76912 21.4749C8.20848 21.4753 8.64784 21.4754 9.0872 21.4754C9.82511 21.4756 10.563 21.4761 11.3009 21.4767C12.0611 21.4773 12.8213 21.4778 13.5815 21.4781C13.6517 21.4781 13.6517 21.4781 13.7234 21.4781C13.9583 21.4782 14.1932 21.4783 14.4281 21.4784C16.3781 21.4791 18.3281 21.4803 20.2781 21.4818C20.1121 21.6478 19.9548 21.7065 19.7392 21.8C19.2534 22.0201 18.7539 22.2663 18.3677 22.6411C18.1168 22.8099 17.9091 22.8088 17.6172 22.8044C17.5615 22.8046 17.5057 22.8048 17.4483 22.8051C17.2617 22.8055 17.0752 22.804 16.8886 22.8025C16.7547 22.8025 16.6209 22.8025 16.4871 22.8027C16.1238 22.8027 15.7606 22.8011 15.3973 22.7992C15.0176 22.7975 14.638 22.7974 14.2583 22.7971C13.5394 22.7962 12.8205 22.794 12.1016 22.7913C11.2832 22.7882 10.4647 22.7867 9.64628 22.7854C7.96266 22.7825 6.27905 22.7778 4.59545 22.7717C4.48771 22.5562 4.51784 22.3249 4.51907 22.0886C4.51881 22.0379 4.51855 21.9873 4.51828 21.9351C4.51913 21.4665 4.55163 21.4742 5.01468 21.473Z" fill="#1B2B3A"/>
<path d="M11.7661 0.00208188C11.8187 0.00172499 11.8713 0.00136809 11.9254 0.00100038C12.0993 0.000103303 12.2732 0.000697826 12.4472 0.00138574C12.568 0.00124857 12.6888 0.00105092 12.8096 0.000795265C13.063 0.000494827 13.3163 0.000931976 13.5697 0.00188299C13.8944 0.00304253 14.2191 0.00237586 14.5438 0.00115538C14.7933 0.000419262 15.0429 0.000653734 15.2925 0.00118141C15.4122 0.00131727 15.5319 0.00115053 15.6516 0.000676393C15.819 0.000158986 15.9864 0.000947899 16.1538 0.00208188C16.2033 0.00166961 16.2528 0.00125733 16.3038 0.000832559C16.5135 0.0034634 16.6605 0.0179153 16.8464 0.118533C17.0137 0.299326 16.9866 0.466522 16.9881 0.707604C16.9889 0.753708 16.9897 0.799811 16.9905 0.847312C16.9929 0.99444 16.9936 1.1415 16.994 1.28865C16.9951 1.43602 16.9966 1.58336 16.9988 1.73071C17.0008 1.86424 17.0014 1.99779 17.0021 2.13133C16.9978 2.34431 16.9978 2.34431 17.1552 2.47249C17.3558 2.49509 17.3558 2.49509 17.5944 2.49413C17.6394 2.49482 17.6845 2.4955 17.7309 2.4962C17.88 2.4983 18.0292 2.49945 18.1783 2.5006C18.2816 2.50187 18.3849 2.5032 18.4883 2.50458C18.7604 2.50807 19.0325 2.51076 19.3046 2.51328C19.5822 2.516 19.8597 2.51947 20.1373 2.52287C20.6821 2.52945 21.2269 2.53518 21.7717 2.54038C21.7717 2.56278 21.7717 2.58519 21.7717 2.60827C16.6413 2.60827 11.5108 2.60827 6.22485 2.60827C6.22485 2.58586 6.22485 2.56346 6.22485 2.54038C6.28339 2.53968 6.34193 2.53898 6.40224 2.53826C6.95271 2.53162 7.50319 2.52466 8.05366 2.51734C8.33669 2.51359 8.61972 2.50996 8.90276 2.50661C9.17568 2.50338 9.4486 2.49983 9.72151 2.49605C9.82586 2.49466 9.93022 2.49339 10.0346 2.49224C10.1802 2.49061 10.3259 2.48857 10.4716 2.48643C10.5962 2.48484 10.5962 2.48484 10.7233 2.48323C10.9033 2.49352 10.9033 2.49352 10.9772 2.4046C10.9855 2.24651 10.9894 2.08819 10.9915 1.92989C10.9934 1.83204 10.9953 1.73418 10.9973 1.63632C11.0001 1.48153 11.0026 1.32674 11.0044 1.17193C11.0063 1.02287 11.0094 0.873876 11.0127 0.724842C11.0141 0.635325 11.0154 0.545808 11.0168 0.453579C11.0451 0.232107 11.0451 0.232107 11.1163 0.118076C11.3198 -0.0196938 11.5287 0.000109906 11.7661 0.00208188Z" fill="#263B4F"/>
<path d="M21.8396 5.59546C23.3183 5.59546 24.7969 5.59546 26.3204 5.59546C26.3204 10.95 26.3204 16.3045 26.3204 21.8212C25.913 21.6855 25.913 21.6855 25.8451 21.6176C25.8385 21.4184 25.8363 21.2209 25.837 21.0218C25.8369 20.9585 25.8368 20.8952 25.8368 20.83C25.8367 20.6163 25.8371 20.4026 25.8374 20.1889C25.8374 20.0364 25.8374 19.8839 25.8374 19.7314C25.8374 19.3159 25.8378 18.9005 25.8382 18.485C25.8387 18.0514 25.8387 17.6177 25.8388 17.1841C25.839 16.4558 25.8394 15.7274 25.84 14.9991C25.8406 14.2488 25.8411 13.4985 25.8414 12.7482C25.8414 12.702 25.8414 12.6558 25.8415 12.6081C25.8415 12.3763 25.8416 12.1444 25.8417 11.9126C25.8424 9.98791 25.8437 8.06325 25.8451 6.13858C24.6801 6.13858 23.5151 6.13858 22.3148 6.13858C22.3148 6.40743 22.3148 6.67627 22.3148 6.95327C22.27 6.97567 22.2252 6.99807 22.1791 7.02116C22.2015 6.7075 22.2239 6.39385 22.2469 6.07069C22.1573 6.04829 22.0677 6.02588 21.9754 6.0028C21.8396 5.79913 21.8396 5.79913 21.8396 5.59546Z" fill="#AAD2EE"/>
<path d="M7.37899 3.76245C11.7477 3.76245 16.1165 3.76245 20.6176 3.76245C20.6176 3.80726 20.6176 3.85207 20.6176 3.89823C16.3161 3.89823 12.0145 3.89823 7.58266 3.89823C7.62747 4.07746 7.67227 4.25669 7.71844 4.44135C7.76299 4.99038 7.76696 5.63423 7.51477 6.13861C11.8611 6.13861 16.2074 6.13861 20.6855 6.13861C20.6855 6.16102 20.6855 6.18342 20.6855 6.2065C18.9617 6.21125 17.238 6.21485 15.5142 6.21706C14.7139 6.21811 13.9136 6.21954 13.1133 6.22187C12.4159 6.22389 11.7186 6.22521 11.0213 6.22567C10.6518 6.22593 10.2824 6.22656 9.91297 6.22804C9.56559 6.22941 9.21822 6.22985 8.87084 6.22954C8.74303 6.2296 8.61522 6.23 8.48741 6.23078C8.31352 6.23179 8.13968 6.23155 7.96579 6.23099C7.91468 6.23159 7.86356 6.23218 7.8109 6.23279C7.67034 6.23156 7.67034 6.23156 7.44688 6.2065C7.40207 6.13929 7.35726 6.07208 7.3111 6.00283C7.34252 5.8902 7.37464 5.7777 7.41098 5.66656C7.4776 5.40869 7.46358 5.14732 7.45961 4.88264C7.45954 4.79955 7.45954 4.79955 7.45947 4.71477C7.45709 4.38529 7.42638 4.09422 7.37899 3.76245Z" fill="#23384C"/>
<path d="M12.7146 0.884636C12.7776 0.883994 12.8406 0.883352 12.9055 0.88269C13.0073 0.883309 13.0073 0.883309 13.1112 0.88394C13.216 0.883647 13.216 0.883647 13.323 0.883349C13.4708 0.883211 13.6187 0.883587 13.7666 0.884437C13.9929 0.885526 14.2192 0.884448 14.4455 0.883144C14.5891 0.883279 14.7327 0.88354 14.8763 0.88394C14.978 0.883321 14.978 0.883321 15.0817 0.88269C15.1449 0.883332 15.2081 0.883974 15.2732 0.884636C15.3287 0.884798 15.3841 0.88496 15.4413 0.885127C15.6323 0.917539 15.7261 0.981356 15.8653 1.11466C15.8992 1.31833 15.8992 1.31833 15.8653 1.522C15.6729 1.70603 15.5373 1.75136 15.2743 1.7531C15.2113 1.75397 15.1483 1.75483 15.0834 1.75571C15.0159 1.75552 14.9483 1.75532 14.8787 1.75511C14.8089 1.75547 14.7391 1.75582 14.6672 1.75619C14.5198 1.75662 14.3723 1.75653 14.2248 1.75596C13.9991 1.75538 13.7734 1.75733 13.5477 1.75949C13.4044 1.7596 13.2611 1.75956 13.1178 1.75935C13.0503 1.76012 12.9827 1.76088 12.9131 1.76166C12.4474 1.75695 12.4474 1.75695 12.2221 1.59866C12.1313 1.45411 12.1313 1.45411 12.1355 1.28014C12.2535 0.97333 12.3894 0.885587 12.7146 0.884636Z" fill="#E7E9EC"/>
<path d="M22.6543 13.6653C22.7089 13.6653 22.7635 13.6652 22.8198 13.6651C22.8772 13.6653 22.9346 13.6656 22.9937 13.6659C23.0798 13.6655 23.0798 13.6655 23.1677 13.6651C23.2223 13.6652 23.2769 13.6653 23.3332 13.6653C23.3836 13.6654 23.434 13.6655 23.4859 13.6656C23.6047 13.6744 23.6047 13.6744 23.6726 13.7423C23.6793 13.8326 23.6815 13.9232 23.6816 14.0138C23.6818 14.0957 23.6818 14.0957 23.6819 14.1793C23.6816 14.2367 23.6814 14.2941 23.6811 14.3533C23.6815 14.4394 23.6815 14.4394 23.6819 14.5272C23.6818 14.5818 23.6817 14.6365 23.6816 14.6927C23.6816 14.7431 23.6815 14.7935 23.6814 14.8455C23.6726 14.9643 23.6726 14.9643 23.6047 15.0322C23.5144 15.0389 23.4237 15.0411 23.3332 15.0412C23.2786 15.0413 23.224 15.0414 23.1677 15.0415C23.1103 15.0412 23.0529 15.0409 22.9937 15.0407C22.9363 15.0409 22.8789 15.0412 22.8198 15.0415C22.7651 15.0414 22.7105 15.0413 22.6543 15.0412C22.6039 15.0411 22.5535 15.041 22.5015 15.041C22.3827 15.0322 22.3827 15.0322 22.3148 14.9643C22.3081 14.874 22.3059 14.7833 22.3058 14.6927C22.3057 14.6381 22.3056 14.5835 22.3055 14.5272C22.3058 14.4698 22.3061 14.4124 22.3063 14.3533C22.3061 14.2959 22.3058 14.2384 22.3055 14.1793C22.3056 14.1247 22.3057 14.0701 22.3058 14.0138C22.3059 13.9634 22.306 13.913 22.306 13.8611C22.3232 13.6294 22.4542 13.6657 22.6543 13.6653Z" fill="#1F2F3F"/>
<path d="M22.6543 11.0855C22.7089 11.0854 22.7635 11.0853 22.8198 11.0852C22.8772 11.0855 22.9346 11.0858 22.9937 11.086C23.0798 11.0857 23.0798 11.0857 23.1677 11.0852C23.2223 11.0853 23.2769 11.0854 23.3332 11.0855C23.3836 11.0856 23.434 11.0857 23.4859 11.0857C23.6047 11.0945 23.6047 11.0945 23.6726 11.1624C23.6793 11.2527 23.6815 11.3434 23.6816 11.434C23.6818 11.5159 23.6818 11.5159 23.6819 11.5995C23.6816 11.6569 23.6814 11.7143 23.6811 11.7734C23.6815 11.8595 23.6815 11.8595 23.6819 11.9474C23.6818 12.002 23.6817 12.0566 23.6816 12.1129C23.6816 12.1633 23.6815 12.2137 23.6814 12.2656C23.6726 12.3844 23.6726 12.3844 23.6047 12.4523C23.5144 12.459 23.4237 12.4612 23.3332 12.4614C23.2786 12.4614 23.224 12.4615 23.1677 12.4616C23.1103 12.4614 23.0529 12.4611 22.9937 12.4608C22.9363 12.4611 22.8789 12.4613 22.8198 12.4616C22.7651 12.4615 22.7105 12.4614 22.6543 12.4614C22.6039 12.4613 22.5535 12.4612 22.5015 12.4611C22.3827 12.4523 22.3827 12.4523 22.3148 12.3844C22.3081 12.2941 22.3059 12.2035 22.3058 12.1129C22.3057 12.0583 22.3056 12.0037 22.3055 11.9474C22.3058 11.89 22.3061 11.8326 22.3063 11.7734C22.3061 11.716 22.3058 11.6586 22.3055 11.5995C22.3056 11.5449 22.3057 11.4902 22.3058 11.434C22.3059 11.3836 22.306 11.3332 22.306 11.2812C22.3232 11.0495 22.4542 11.0858 22.6543 11.0855Z" fill="#1E2E3D"/>
<path d="M22.9555 16.2415C23.0091 16.2407 23.0627 16.2398 23.118 16.239C23.2577 16.2386 23.3974 16.2459 23.5368 16.2542C23.6726 16.39 23.6726 16.39 23.6883 16.6533C23.688 16.7593 23.687 16.8653 23.6854 16.9713C23.6853 17.0252 23.6853 17.079 23.6852 17.1345C23.6822 17.5346 23.6822 17.5346 23.6047 17.612C23.5144 17.6187 23.4237 17.6209 23.3332 17.621C23.2786 17.6211 23.224 17.6212 23.1677 17.6213C23.1103 17.621 23.0529 17.6208 22.9937 17.6205C22.9363 17.6208 22.8789 17.621 22.8198 17.6213C22.7651 17.6212 22.7105 17.6211 22.6543 17.621C22.6039 17.621 22.5535 17.6209 22.5015 17.6208C22.3827 17.612 22.3827 17.612 22.3148 17.5441C22.3081 17.4538 22.3059 17.3631 22.3058 17.2726C22.3057 17.218 22.3056 17.1633 22.3055 17.1071C22.3058 17.0497 22.3061 16.9923 22.3063 16.9331C22.3061 16.8757 22.3058 16.8183 22.3055 16.7591C22.3056 16.7045 22.3057 16.6499 22.3058 16.5937C22.3059 16.5433 22.306 16.4928 22.306 16.4409C22.3291 16.1286 22.7183 16.2417 22.9555 16.2415Z" fill="#1E2F3E"/>
<path d="M22.3148 18.902C22.7629 18.902 23.211 18.902 23.6726 18.902C23.674 19.1022 23.6754 19.3024 23.6769 19.5087C23.6775 19.5719 23.6781 19.6351 23.6787 19.7002C23.6789 19.7497 23.6791 19.7991 23.6793 19.8501C23.6798 19.9263 23.6798 19.9263 23.6803 20.0041C23.6726 20.124 23.6726 20.124 23.6047 20.1919C23.5144 20.1986 23.4237 20.2008 23.3332 20.2009C23.2786 20.201 23.224 20.2011 23.1677 20.2012C23.1103 20.2009 23.0529 20.2007 22.9937 20.2004C22.9363 20.2006 22.8789 20.2009 22.8197 20.2012C22.7651 20.2011 22.7105 20.201 22.6543 20.2009C22.6039 20.2008 22.5535 20.2008 22.5015 20.2007C22.3827 20.1919 22.3827 20.1919 22.3148 20.124C22.309 20.0328 22.3075 19.9414 22.3082 19.8501C22.3084 19.8006 22.3085 19.7512 22.3087 19.7002C22.3093 19.637 22.3099 19.5738 22.3106 19.5087C22.312 19.3085 22.3134 19.1083 22.3148 18.902Z" fill="#1B2B3B"/>
<path d="M24.8947 27.3203C24.9395 27.3427 24.9843 27.3651 25.0305 27.3882C24.5925 27.795 24.1524 28.1846 23.6726 28.5423C23.6278 28.5199 23.583 28.4975 23.5369 28.4744C23.6868 28.3457 23.8367 28.217 23.9866 28.0883C24.0286 28.0523 24.0705 28.0163 24.1137 27.9792C24.3722 27.7574 24.6324 27.5378 24.8947 27.3203Z" fill="#D8561D"/>
</svg>
