<svg width="57" height="40" viewBox="0 0 57 40" fill="none" xmlns="http://www.w3.org/2000/svg">
<path d="M30.3721 0.244632C30.7846 0.340749 31.1981 0.418945 31.6154 0.490677C32.5539 0.654327 33.4843 0.856239 34.4153 1.05768C35.071 1.19866 35.7263 1.32421 36.3886 1.43057C37.0018 1.53039 37.6073 1.66135 38.2139 1.79481C39.087 1.98768 39.087 1.98768 39.9682 2.13787C40.6961 2.24393 41.4124 2.40992 42.1309 2.56585C42.8637 2.72445 43.5953 2.86967 44.3357 2.98823C44.9842 3.09378 45.6225 3.24028 46.2624 3.38785C46.9156 3.53781 47.5634 3.6538 48.2293 3.73616C48.6499 3.79574 49.0575 3.89642 49.4694 3.99918C50.1446 4.1618 50.8164 4.29646 51.5034 4.3982C52.4441 4.53804 53.3628 4.74704 54.2869 4.96975C54.8626 5.10776 55.4293 5.2133 56.0171 5.28871C56.3197 5.33697 56.6173 5.41389 56.9146 5.48822C56.9146 16.8447 56.9146 28.2011 56.9146 39.9017C55.2154 39.9911 55.2154 39.9911 54.4119 39.9893C54.3192 39.9895 54.2265 39.9896 54.131 39.9897C53.878 39.9899 53.625 39.9898 53.372 39.9896C53.0951 39.9894 52.8183 39.9896 52.5414 39.9898C52.0575 39.9901 51.5737 39.9901 51.0898 39.9899C50.3703 39.9896 49.6508 39.9897 48.9312 39.99C47.6458 39.9904 46.3604 39.9904 45.075 39.9901C43.9501 39.9899 42.8253 39.9899 41.7005 39.99C41.5884 39.99 41.5884 39.99 41.474 39.99C41.1707 39.99 40.8673 39.99 40.564 39.9901C37.7207 39.9903 34.8774 39.9901 32.0341 39.9897C29.5098 39.9893 26.9855 39.9893 24.4612 39.9897C21.6227 39.9901 18.7843 39.9903 15.9458 39.99C15.643 39.99 15.3403 39.99 15.0376 39.99C14.963 39.99 14.8885 39.99 14.8117 39.9899C13.6877 39.9899 12.5636 39.99 11.4396 39.9902C10.1612 39.9904 8.88286 39.9903 7.6045 39.9899C6.88965 39.9897 6.1748 39.9897 5.45996 39.99C4.98182 39.9901 4.50369 39.99 4.02555 39.9897C3.75357 39.9895 3.4816 39.9894 3.20962 39.9897C2.91555 39.99 2.62148 39.9897 2.32741 39.9893C2.2445 39.9895 2.16158 39.9897 2.07616 39.9899C1.37922 39.9882 0.699608 39.9428 0 39.9017C0 28.5452 0 17.1888 0 5.48822C0.955495 5.22763 0.955495 5.22763 1.34823 5.17618C1.88884 5.0988 2.41985 4.98911 2.95376 4.87509C3.61417 4.73605 4.27425 4.60151 4.93915 4.48579C5.87929 4.32155 6.81144 4.11823 7.74417 3.91679C8.26186 3.80561 8.77704 3.69594 9.30136 3.62023C9.97059 3.52339 10.6289 3.37338 11.2895 3.23032C12.0302 3.0699 12.7664 2.91435 13.5169 2.80602C14.1577 2.70205 14.7911 2.55314 15.4254 2.41549C16.1587 2.25678 16.8908 2.11146 17.6317 1.99275C18.1682 1.90542 18.6969 1.79066 19.2267 1.6696C19.9934 1.49484 20.7573 1.33081 21.5364 1.22199C22.2641 1.11473 22.9804 0.942802 23.697 0.778693C24.2713 0.648311 24.842 0.545658 25.4258 0.467962C25.7901 0.412753 26.1461 0.330815 26.5048 0.247465C27.9153 -0.0791006 28.9643 -0.0849033 30.3721 0.244632Z" fill="#20354A"/>
<path d="M30.3721 0.244632C30.7846 0.340749 31.1981 0.418945 31.6154 0.490677C32.5539 0.654327 33.4843 0.856239 34.4153 1.05768C35.071 1.19866 35.7263 1.32421 36.3886 1.43057C37.0018 1.53039 37.6073 1.66135 38.2139 1.79481C39.087 1.98768 39.087 1.98768 39.9682 2.13787C40.6961 2.24393 41.4124 2.40992 42.1309 2.56585C42.8637 2.72445 43.5953 2.86967 44.3357 2.98823C44.9842 3.09378 45.6225 3.24028 46.2624 3.38785C46.9156 3.53781 47.5634 3.6538 48.2293 3.73616C48.6499 3.79574 49.0575 3.89642 49.4694 3.99918C50.1446 4.1618 50.8164 4.29646 51.5034 4.3982C52.4441 4.53804 53.3628 4.74704 54.2869 4.96975C54.8626 5.10776 55.4293 5.2133 56.0171 5.28871C56.3197 5.33697 56.6173 5.41389 56.9146 5.48822C56.9146 16.8447 56.9146 28.2011 56.9146 39.9017C56.4264 39.9017 55.9382 39.9017 55.4353 39.9017C55.4353 30.1896 55.4353 20.4775 55.4353 10.4712C37.5784 10.4712 19.7216 10.4712 1.3236 10.4712C1.3236 20.1832 1.3236 29.8953 1.3236 39.9017C0.886809 39.9017 0.450022 39.9017 0 39.9017C0 28.5452 0 17.1888 0 5.48822C0.955495 5.22763 0.955495 5.22763 1.34823 5.17618C1.88884 5.0988 2.41985 4.98911 2.95376 4.87509C3.61417 4.73605 4.27425 4.60151 4.93915 4.48579C5.87929 4.32155 6.81144 4.11823 7.74417 3.91679C8.26186 3.80561 8.77704 3.69594 9.30136 3.62023C9.97059 3.52339 10.6289 3.37338 11.2895 3.23032C12.0302 3.0699 12.7664 2.91435 13.5169 2.80602C14.1577 2.70205 14.7911 2.55314 15.4254 2.41549C16.1587 2.25678 16.8908 2.11146 17.6317 1.99275C18.1682 1.90542 18.6969 1.79066 19.2267 1.6696C19.9934 1.49484 20.7573 1.33081 21.5364 1.22199C22.2641 1.11473 22.9804 0.942802 23.697 0.778693C24.2713 0.648311 24.842 0.545658 25.4258 0.467962C25.7901 0.412753 26.1461 0.330815 26.5048 0.247465C27.9153 -0.0791006 28.9643 -0.0849033 30.3721 0.244632Z" fill="#BFD255"/>
<path d="M11.3674 21.9164C14.0138 21.9164 16.6602 21.9164 19.3868 21.9164C19.3611 24.2288 19.3354 26.5412 19.3089 28.9236C19.4117 28.9236 19.5145 28.9236 19.6204 28.9236C19.5947 26.6113 19.569 24.2989 19.5425 21.9164C22.1889 21.9164 24.8353 21.9164 27.5619 21.9164C27.5362 24.3059 27.5105 26.6953 27.4841 29.1572C27.7667 29.1572 28.0493 29.1572 28.3405 29.1572C28.3405 32.7029 28.3405 36.2486 28.3405 39.9017C28.3919 39.9017 28.4433 39.9017 28.4962 39.9017C28.4705 37.5893 28.4448 35.2769 28.4184 32.8944C31.0905 32.8944 33.7626 32.8944 36.5157 32.8944C36.5157 33.2798 36.5157 33.6652 36.5157 34.0623C36.4643 34.0623 36.4129 34.0623 36.3599 34.0623C36.3599 35.9893 36.3599 37.9163 36.3599 39.9017C36.4627 39.9017 36.5655 39.9017 36.6714 39.9017C36.6714 37.3324 36.6714 34.763 36.6714 32.1158C38.881 32.1158 41.0906 32.1158 43.3672 32.1158C43.3672 32.7068 43.3672 33.2977 43.3672 33.9066C45.6282 33.9066 47.8892 33.9066 50.2188 33.9066C50.2188 35.885 50.2188 37.8634 50.2188 39.9017C51.9402 39.9017 53.6617 39.9017 55.4353 39.9017C55.4353 39.9274 55.4353 39.9531 55.4353 39.9796C37.5784 39.9796 19.7216 39.9796 1.32361 39.9796C1.32361 39.9539 1.32361 39.9282 1.32361 39.9017C2.81382 39.9017 4.30403 39.9017 5.8394 39.9017C5.8394 36.356 5.8394 32.8103 5.8394 29.1572C7.68932 29.1572 9.53924 29.1572 11.4452 29.1572C11.4195 26.7677 11.3938 24.3783 11.3674 21.9164Z" fill="#F7923D"/>
<path d="M8.95374 16.3107C21.7747 16.3107 34.5957 16.3107 47.8051 16.3107C47.8051 22.1174 47.8051 27.924 47.8051 33.9067C46.3406 33.9067 44.8761 33.9067 43.3672 33.9067C43.3672 33.3158 43.3672 32.7248 43.3672 32.116C41.1576 32.116 38.948 32.116 36.6714 32.116C36.6714 34.6853 36.6714 37.2546 36.6714 39.9018C36.5686 39.9018 36.4658 39.9018 36.3599 39.9018C36.3599 37.9748 36.3599 36.0478 36.3599 34.0624C36.4113 34.0624 36.4627 34.0624 36.5157 34.0624C36.5157 33.677 36.5157 33.2916 36.5157 32.8945C33.8435 32.8945 31.1714 32.8945 28.4184 32.8945C28.4441 33.2799 28.4698 33.6653 28.4962 34.0624C28.502 34.2852 28.5054 34.5081 28.5051 34.731C28.5051 34.7882 28.5051 34.8453 28.5051 34.9041C28.505 35.0874 28.5044 35.2706 28.5038 35.4538C28.5037 35.5831 28.5036 35.7123 28.5035 35.8416C28.5032 36.1776 28.5024 36.5135 28.5016 36.8495C28.5008 37.1941 28.5004 37.5386 28.5 37.8831C28.4992 38.556 28.4979 39.2289 28.4962 39.9018C28.4448 39.9018 28.3935 39.9018 28.3405 39.9018C28.3405 36.3561 28.3405 32.8104 28.3405 29.1573C28.0579 29.1573 27.7753 29.1573 27.4841 29.1573C27.4823 28.3857 27.4809 27.614 27.48 26.8424C27.4796 26.484 27.4791 26.1255 27.4782 25.7671C27.4773 25.4203 27.4769 25.0735 27.4767 24.7267C27.4765 24.5953 27.4763 24.4639 27.4758 24.3325C27.4753 24.1465 27.4752 23.9605 27.4752 23.7744C27.4749 23.7218 27.4747 23.6692 27.4744 23.6151C27.4755 23.0446 27.5237 22.4901 27.5619 21.9165C24.9155 21.9165 22.2691 21.9165 19.5425 21.9165C19.5682 22.3019 19.5939 22.6873 19.6204 23.0844C19.6261 23.3072 19.6296 23.5301 19.6292 23.753C19.6292 23.8101 19.6292 23.8672 19.6292 23.9261C19.6292 24.1093 19.6286 24.2925 19.628 24.4758C19.6278 24.605 19.6277 24.7343 19.6276 24.8635C19.6273 25.1995 19.6266 25.5355 19.6257 25.8715C19.6249 26.216 19.6245 26.5605 19.6242 26.9051C19.6233 27.578 19.622 28.2509 19.6204 28.9238C19.5176 28.9238 19.4148 28.9238 19.3089 28.9238C19.3071 28.1826 19.3057 27.4414 19.3049 26.7002C19.3045 26.3559 19.3039 26.0116 19.303 25.6673C19.3022 25.3341 19.3017 25.0009 19.3015 24.6678C19.3014 24.5416 19.3011 24.4154 19.3007 24.2893C19.3001 24.1105 19.3 23.9317 19.3001 23.753C19.2999 23.6518 19.2997 23.5507 19.2996 23.4465C19.3128 22.9358 19.3528 22.4262 19.3868 21.9165C16.7404 21.9165 14.094 21.9165 11.3673 21.9165C11.393 22.3019 11.4187 22.6873 11.4452 23.0844C11.451 23.3151 11.4553 23.5438 11.454 23.7744C11.4541 23.8338 11.4541 23.8932 11.4541 23.9544C11.454 24.1453 11.4534 24.3361 11.4528 24.5269C11.4527 24.6614 11.4526 24.7958 11.4525 24.9303C11.4522 25.2801 11.4514 25.6299 11.4506 25.9797C11.4498 26.3384 11.4494 26.697 11.449 27.0556C11.4482 27.7562 11.4468 28.4568 11.4452 29.1573C10.623 29.1573 9.80084 29.1573 8.95374 29.1573C8.95374 24.9179 8.95374 20.6785 8.95374 16.3107Z" fill="#1A2A3A"/>
<path d="M1.32361 10.4711C19.1805 10.4711 37.0373 10.4711 55.4353 10.4711C55.4353 20.1831 55.4353 29.8952 55.4353 39.9016C54.5103 39.9016 53.5854 39.9016 52.6324 39.9016C52.6324 31.1145 52.6324 22.3274 52.6324 13.274C36.6254 13.274 20.6185 13.274 4.12652 13.274C4.12652 22.0611 4.12652 30.8482 4.12652 39.9016C3.20156 39.9016 2.2766 39.9016 1.32361 39.9016C1.32361 30.1895 1.32361 20.4774 1.32361 10.4711Z" fill="#435C75"/>
<path d="M30.3721 0.244632C30.7847 0.340749 31.1981 0.418945 31.6154 0.490677C32.5539 0.654327 33.4844 0.856239 34.4153 1.05768C35.0711 1.19866 35.7264 1.32421 36.3886 1.43057C37.0018 1.53039 37.6073 1.66135 38.2139 1.79481C39.087 1.98768 39.087 1.98768 39.9682 2.13787C40.6961 2.24393 41.4124 2.40992 42.1309 2.56585C42.8637 2.72445 43.5953 2.86967 44.3357 2.98823C44.9842 3.09378 45.6225 3.24028 46.2624 3.38785C46.9156 3.53781 47.5634 3.6538 48.2293 3.73616C48.6499 3.79574 49.0575 3.89642 49.4694 3.99918C50.1446 4.1618 50.8164 4.29646 51.5034 4.3982C52.4441 4.53804 53.3628 4.74718 54.287 4.96973C54.8764 5.11114 55.4518 5.21342 56.0551 5.28111C56.2917 5.33251 56.2917 5.33251 56.5253 5.56608C38.0261 5.56608 19.5269 5.56608 0.467163 5.56608C0.467163 5.489 0.467163 5.41192 0.467163 5.33251C0.542135 5.32106 0.617108 5.30962 0.694352 5.29783C1.56071 5.16135 2.41745 4.98814 3.27562 4.80764C3.82891 4.6918 4.38228 4.58277 4.93916 4.48579C5.8793 4.32154 6.81145 4.11823 7.74418 3.91679C8.26187 3.80561 8.77705 3.69594 9.30137 3.62023C9.9706 3.52339 10.629 3.37338 11.2895 3.23032C12.0302 3.0699 12.7664 2.91435 13.5169 2.80602C14.1577 2.70205 14.7911 2.55314 15.4254 2.41549C16.1587 2.25678 16.8908 2.11146 17.6317 1.99275C18.1682 1.90542 18.6969 1.79066 19.2267 1.6696C19.9934 1.49484 20.7573 1.33081 21.5364 1.22199C22.2641 1.11473 22.9804 0.942802 23.697 0.778693C24.2713 0.648311 24.842 0.545658 25.4258 0.467962C25.7901 0.412753 26.1461 0.330815 26.5049 0.247465C27.9153 -0.0791006 28.9643 -0.0849033 30.3721 0.244632Z" fill="#9EB134"/>
<path d="M4.12653 13.274C20.1335 13.274 36.1404 13.274 52.6324 13.274C52.384 13.4728 52.1755 13.6355 51.9082 13.7929C51.8457 13.83 51.7831 13.8672 51.7186 13.9054C51.6524 13.9444 51.5862 13.9833 51.518 14.0234C51.083 14.2818 50.6483 14.54 50.2204 14.8102C50.1214 14.8724 50.0223 14.9342 49.9228 14.9956C49.6421 15.1689 49.3677 15.3478 49.0971 15.5366C48.1257 16.194 47.3812 16.3685 46.2224 16.3513C46.061 16.3524 45.8995 16.3539 45.7381 16.3557C45.2989 16.3596 44.8599 16.3577 44.4208 16.3548C43.9454 16.3527 43.4701 16.356 42.9948 16.3585C42.1189 16.3624 41.2432 16.3621 40.3673 16.3595C39.558 16.3572 38.7487 16.3566 37.9394 16.3577C37.8586 16.3578 37.8586 16.3578 37.7762 16.3579C37.5575 16.3582 37.3389 16.3585 37.1203 16.3588C35.0725 16.3617 33.0248 16.3591 30.9771 16.354C29.161 16.3496 27.345 16.35 25.5289 16.3545C23.4847 16.3595 21.4406 16.3615 19.3964 16.3586C19.1781 16.3583 18.9599 16.358 18.7417 16.3577C18.6879 16.3576 18.6342 16.3575 18.5789 16.3575C17.7704 16.3564 16.9619 16.3576 16.1535 16.36C15.2334 16.3627 14.3135 16.3619 13.3934 16.3569C12.9246 16.3545 12.4558 16.3535 11.9869 16.3566C11.5567 16.3594 11.1267 16.3578 10.6966 16.3529C10.5419 16.3519 10.3872 16.3524 10.2326 16.3547C9.08714 16.3703 8.35531 16.0738 7.41824 15.4208C7.1864 15.2608 6.94863 15.1113 6.70989 14.9618C6.39315 14.7636 6.07749 14.5636 5.76155 14.3641C5.24769 14.0557 4.73382 13.7474 4.20438 13.4298C4.20438 22.1655 4.20438 30.9012 4.20438 39.9017C4.17869 39.9017 4.153 39.9017 4.12653 39.9017C4.12653 31.1146 4.12653 22.3274 4.12653 13.274Z" fill="#334453"/>
<path d="M28.4183 32.8944C31.0904 32.8944 33.7625 32.8944 36.5156 32.8944C36.5156 33.2798 36.5156 33.6652 36.5156 34.0623C36.4642 34.0623 36.4128 34.0623 36.3599 34.0623C36.3599 35.9893 36.3599 37.9163 36.3599 39.9017C35.8894 39.9209 35.4189 39.9402 34.9341 39.9601C34.7875 39.9686 34.6408 39.9771 34.4897 39.9858C33.4997 40.0189 33.4997 40.0189 33.1224 39.7001C32.8995 39.475 32.7213 39.23 32.5448 38.9674C32.4689 38.8666 32.3928 38.7659 32.3161 38.6657C32.2815 38.6175 32.2469 38.5693 32.2112 38.5197C32.0241 38.2742 31.8222 38.0426 31.6203 37.8092C31.2897 37.4271 30.968 37.0402 30.6546 36.6438C30.5009 36.4513 30.3411 36.265 30.1796 36.079C30.0208 35.8927 29.867 35.7025 29.7127 35.5124C29.4331 35.1682 29.1429 34.8372 28.8414 34.5121C28.7298 34.3737 28.7298 34.3737 28.7298 34.218C28.6784 34.218 28.627 34.218 28.5741 34.218C28.5741 36.0936 28.5741 37.9692 28.5741 39.9017C28.5484 39.9017 28.5227 39.9017 28.4962 39.9017C28.4705 37.5893 28.4448 35.2769 28.4183 32.8944Z" fill="#EB7325"/>
<path d="M36.6714 32.1158C38.881 32.1158 41.0906 32.1158 43.3672 32.1158C43.3672 32.7068 43.3672 33.2977 43.3672 33.9066C43.4186 33.9066 43.47 33.9066 43.5229 33.9066C43.5229 35.885 43.5229 37.8634 43.5229 39.9017C42.3667 39.9017 41.2105 39.9017 40.0193 39.9017C40.0193 37.3581 40.0193 34.8144 40.0193 32.1937C39.377 32.1937 38.7346 32.1937 38.0728 32.1937C38.0728 32.6562 38.0728 33.1187 38.0728 33.5952C37.7902 33.6209 37.5076 33.6465 37.2164 33.673C37.2164 33.1848 37.2164 32.6967 37.2164 32.1937C37.0365 32.1937 36.8567 32.1937 36.6714 32.1937C36.6714 32.168 36.6714 32.1423 36.6714 32.1158Z" fill="#EC7325"/>
<path d="M36.6714 32.1937C36.8512 32.1937 37.0311 32.1937 37.2164 32.1937C37.2164 32.6819 37.2164 33.1701 37.2164 33.673C37.2678 33.6473 37.3192 33.6217 37.3721 33.5952C37.6034 33.5952 37.8346 33.5952 38.0728 33.5952C38.0728 33.1327 38.0728 32.6702 38.0728 32.1937C38.7152 32.1937 39.3575 32.1937 40.0193 32.1937C40.0193 34.7374 40.0193 37.281 40.0193 39.9017C38.9145 39.9017 37.8097 39.9017 36.6714 39.9017C36.6714 37.3581 36.6714 34.8144 36.6714 32.1937Z" fill="#FDA046"/>
<path d="M44.0679 33.9066C46.0977 33.9066 48.1275 33.9066 50.2188 33.9066C50.2188 35.885 50.2188 37.8634 50.2188 39.9017C49.0883 39.9017 47.9577 39.9017 46.793 39.9017C46.793 37.949 46.793 35.9963 46.793 33.9845C46.1763 33.9845 45.5597 33.9845 44.9244 33.9845C44.9244 34.447 44.9244 34.9094 44.9244 35.3859C44.6417 35.3859 44.3591 35.3859 44.0679 35.3859C44.0679 34.8978 44.0679 34.4096 44.0679 33.9066Z" fill="#EC7425"/>
<path d="M25.0705 30.0916C25.8156 30.0916 26.5607 30.0916 27.3284 30.0916C27.3284 33.0206 27.3284 35.9496 27.3284 38.9674C26.5833 38.9674 25.8382 38.9674 25.0705 38.9674C25.0705 36.0384 25.0705 33.1093 25.0705 30.0916Z" fill="#EF782A"/>
<path d="M19.5425 30.0916C20.262 30.0916 20.9814 30.0916 21.7226 30.0916C21.7226 33.0206 21.7226 35.9496 21.7226 38.9674C21.0032 38.9674 20.2838 38.9674 19.5425 38.9674C19.5425 36.0384 19.5425 33.1093 19.5425 30.0916Z" fill="#ED7327"/>
<path d="M11.4452 23.1621C11.7313 23.391 11.9006 23.5373 12.1119 23.8142C12.3726 24.1483 12.6426 24.4717 12.9196 24.7923C13.2577 25.1841 13.5888 25.5806 13.9151 25.9824C14.1143 26.2254 14.3171 26.4652 14.5206 26.7047C14.9025 27.1544 15.2782 27.6087 15.6496 28.0672C15.7096 28.141 15.7696 28.2147 15.8314 28.2907C15.8886 28.3615 15.9458 28.4322 16.0048 28.5052C16.0563 28.5688 16.1078 28.6324 16.1608 28.698C16.2724 28.8458 16.2724 28.8458 16.2724 28.9236C14.6794 28.9236 13.0864 28.9236 11.4452 28.9236C11.4452 27.0223 11.4452 25.121 11.4452 23.1621Z" fill="#FEA046"/>
<path d="M19.6204 23.24C19.6717 23.24 19.7231 23.24 19.7761 23.24C19.8831 23.3574 19.9842 23.4802 20.0826 23.605C20.1764 23.7222 20.1764 23.7222 20.2721 23.8419C20.3054 23.8836 20.3387 23.9253 20.3731 23.9682C20.5467 24.1828 20.726 24.3925 20.905 24.6025C21.1716 24.9159 21.4345 25.2316 21.6933 25.5514C21.9196 25.8298 22.1523 26.0991 22.3941 26.3641C22.654 26.6496 22.8939 26.943 23.1273 27.2503C23.3533 27.5381 23.5922 27.8148 23.832 28.0912C23.8668 28.1318 23.9017 28.1723 23.9376 28.2141C23.9683 28.2496 23.9991 28.2851 24.0308 28.3217C24.1811 28.514 24.3122 28.7206 24.4476 28.9237C22.8546 28.9237 21.2616 28.9237 19.6204 28.9237C19.6204 27.0481 19.6204 25.1724 19.6204 23.24Z" fill="#FEA046"/>
<path d="M28.5741 34.218C28.6255 34.218 28.6769 34.218 28.7298 34.218C28.8385 34.337 28.9413 34.4614 29.0412 34.5878C29.1037 34.6658 29.1661 34.7438 29.2304 34.8242C29.2632 34.8653 29.296 34.9065 29.3298 34.9489C29.7062 35.418 30.0927 35.8796 30.4914 36.3299C30.7389 36.6103 30.9708 36.9015 31.203 37.1946C31.3999 37.4386 31.6019 37.6777 31.8052 37.9163C32.1146 38.2795 32.4156 38.6479 32.7115 39.0221C32.9018 39.2571 33.1016 39.4828 33.304 39.7073C33.4013 39.8238 33.4013 39.8238 33.4013 39.9017C31.8083 39.9017 30.2154 39.9017 28.5741 39.9017C28.5741 38.0261 28.5741 36.1505 28.5741 34.218Z" fill="#FDA046"/>
<path d="M21.6277 28.918C22.2606 28.9189 22.8935 28.9193 23.5265 28.9197C24.8197 28.9205 26.1129 28.9219 27.4062 28.9237C27.4062 29.0264 27.4062 29.1292 27.4062 29.2351C24.066 29.2351 20.7259 29.2351 17.2846 29.2351C17.2846 32.7551 17.2846 36.2751 17.2846 39.9017C17.1561 39.9017 17.0276 39.9017 16.8953 39.9017C16.8953 36.3817 16.8953 32.8617 16.8953 29.2351C13.2468 29.2351 9.59837 29.2351 5.83936 29.2351C5.83936 29.2094 5.83936 29.1837 5.83936 29.1572C7.68927 29.1572 9.53919 29.1572 11.4452 29.1572C11.4452 29.1058 11.4452 29.0545 11.4452 29.0015C14.8396 28.934 18.2326 28.9131 21.6277 28.918Z" fill="#D25223"/>
<path d="M6.77368 30.0916C7.05631 30.0916 7.33893 30.0916 7.63013 30.0916C7.63013 33.0206 7.63013 35.9496 7.63013 38.9674C7.3475 38.9674 7.06487 38.9674 6.77368 38.9674C6.77368 36.0384 6.77368 33.1093 6.77368 30.0916Z" fill="#EB6E24"/>
<path d="M18.1411 30.0916C18.398 30.0916 18.6549 30.0916 18.9196 30.0916C18.9196 33.0206 18.9196 35.9496 18.9196 38.9674C18.6627 38.9674 18.4058 38.9674 18.1411 38.9674C18.1411 36.0384 18.1411 33.1093 18.1411 30.0916Z" fill="#EC7124"/>
<path d="M23.7469 30.0916C24.0038 30.0916 24.2608 30.0916 24.5255 30.0916C24.5255 33.0206 24.5255 35.9496 24.5255 38.9674C24.2685 38.9674 24.0116 38.9674 23.7469 38.9674C23.7469 36.0384 23.7469 33.1093 23.7469 30.0916Z" fill="#ED7426"/>
<path d="M22.3454 30.0916C22.6023 30.0916 22.8593 30.0916 23.124 30.0916C23.124 33.0206 23.124 35.9496 23.124 38.9674C22.8671 38.9674 22.6101 38.9674 22.3454 38.9674C22.3454 36.0384 22.3454 33.1093 22.3454 30.0916Z" fill="#ED7525"/>
<path d="M12.3795 30.0916C12.6364 30.0916 12.8934 30.0916 13.1581 30.0916C13.1581 33.0206 13.1581 35.9496 13.1581 38.9674C12.9012 38.9674 12.6442 38.9674 12.3795 38.9674C12.3795 36.0384 12.3795 33.1093 12.3795 30.0916Z" fill="#EC7224"/>
<path d="M10.978 30.0916C11.235 30.0916 11.4919 30.0916 11.7566 30.0916C11.7566 33.0206 11.7566 35.9496 11.7566 38.9674C11.4997 38.9674 11.2427 38.9674 10.978 38.9674C10.978 36.0384 10.978 33.1093 10.978 30.0916Z" fill="#EB6F24"/>
<path d="M9.57666 30.0916C9.83359 30.0916 10.0905 30.0916 10.3552 30.0916C10.3552 33.0206 10.3552 35.9496 10.3552 38.9674C10.0983 38.9674 9.84138 38.9674 9.57666 38.9674C9.57666 36.0384 9.57666 33.1093 9.57666 30.0916Z" fill="#EC7124"/>
<path d="M8.17511 30.0916C8.43204 30.0916 8.68898 30.0916 8.9537 30.0916C8.9537 33.0206 8.9537 35.9496 8.9537 38.9674C8.69676 38.9674 8.43983 38.9674 8.17511 38.9674C8.17511 36.0384 8.17511 33.1093 8.17511 30.0916Z" fill="#EC7024"/>
<path d="M15.1824 30.0916C15.4394 30.0916 15.6963 30.0916 15.961 30.0916C15.961 32.9949 15.961 35.8982 15.961 38.8896C15.7041 38.8896 15.4472 38.8896 15.1824 38.8896C15.1824 35.9862 15.1824 33.0829 15.1824 30.0916Z" fill="#EC7324"/>
<path d="M13.7809 30.0916C14.0379 30.0916 14.2948 30.0916 14.5595 30.0916C14.5595 32.9949 14.5595 35.8982 14.5595 38.8896C14.3026 38.8896 14.0457 38.8896 13.7809 38.8896C13.7809 35.9862 13.7809 33.0829 13.7809 30.0916Z" fill="#ED7525"/>
<path d="M13.0024 21.9164C14.5697 21.9164 16.137 21.9164 17.7518 21.9164C17.7518 22.3018 17.7518 22.6872 17.7518 23.0843C16.1845 23.0843 14.6172 23.0843 13.0024 23.0843C13.0024 22.6989 13.0024 22.3135 13.0024 21.9164Z" fill="#FC9F46"/>
<path d="M21.1775 21.9164C22.7448 21.9164 24.3121 21.9164 25.9269 21.9164C25.9012 22.3018 25.8755 22.6872 25.849 23.0843C24.3074 23.0843 22.7658 23.0843 21.1775 23.0843C21.1775 22.6989 21.1775 22.3135 21.1775 21.9164Z" fill="#FC9F46"/>
<path d="M30.1313 32.8944C31.6729 32.8944 33.2145 32.8944 34.8028 32.8944C34.8028 33.2798 34.8028 33.6652 34.8028 34.0623C33.2612 34.0623 31.7196 34.0623 30.1313 34.0623C30.1313 33.6769 30.1313 33.2915 30.1313 32.8944Z" fill="#FDA046"/>
<path d="M25.9269 30.1694C26.1067 30.1694 26.2866 30.1694 26.4719 30.1694C26.4719 33.0471 26.4719 35.9247 26.4719 38.8896C26.292 38.8896 26.1122 38.8896 25.9269 38.8896C25.9269 36.0119 25.9269 33.1343 25.9269 30.1694Z" fill="#FEA046"/>
<path d="M20.3989 30.1694C20.5788 30.1694 20.7586 30.1694 20.9439 30.1694C20.9439 33.0471 20.9439 35.9247 20.9439 38.8896C20.7641 38.8896 20.5842 38.8896 20.3989 38.8896C20.3989 36.0119 20.3989 33.1343 20.3989 30.1694Z" fill="#FEA146"/>
<path d="M1.16789 5.33255C1.1422 5.35824 1.1165 5.38393 1.09003 5.41041C19.358 5.41041 37.6259 5.41041 56.4474 5.41041C56.4731 5.46179 56.4988 5.51318 56.5253 5.56612C38.0261 5.56612 19.5269 5.56612 0.467163 5.56612C0.467163 5.48904 0.467163 5.41196 0.467163 5.33255C0.730183 5.26679 0.908983 5.24625 1.16789 5.33255Z" fill="#ACBF42"/>
<path d="M36.6714 32.1158C38.881 32.1158 41.0906 32.1158 43.3672 32.1158C43.3672 32.7068 43.3672 33.2977 43.3672 33.9066C43.4186 33.9066 43.47 33.9066 43.5229 33.9066C43.5229 35.885 43.5229 37.8634 43.5229 39.9017C43.4459 39.9017 43.3688 39.9017 43.2894 39.9017C43.2894 37.3581 43.2894 34.8144 43.2894 32.1937C43.1095 32.1937 42.9297 32.1937 42.7444 32.1937C42.7444 32.6562 42.7444 33.1187 42.7444 33.5952C42.4874 33.5952 42.2305 33.5952 41.9658 33.5952C41.9658 33.1327 41.9658 32.6702 41.9658 32.1937C40.6811 32.1937 39.3964 32.1937 38.0728 32.1937C38.0728 32.6562 38.0728 33.1187 38.0728 33.5952C37.7902 33.6209 37.5076 33.6465 37.2164 33.673C37.2164 33.1848 37.2164 32.6967 37.2164 32.1937C37.0365 32.1937 36.8567 32.1937 36.6714 32.1937C36.6714 32.168 36.6714 32.1423 36.6714 32.1158Z" fill="#C55323"/>
<path d="M26.7834 30.7924C26.9632 30.7924 27.1431 30.7924 27.3284 30.7924C27.3284 33.4131 27.3284 36.0338 27.3284 38.7339C27.1485 38.7339 26.9687 38.7339 26.7834 38.7339C26.7834 36.1132 26.7834 33.4925 26.7834 30.7924Z" fill="#ED7425"/>
<path d="M21.1775 30.7924C21.3573 30.7924 21.5372 30.7924 21.7225 30.7924C21.7225 33.4131 21.7225 36.0338 21.7225 38.7339C21.5426 38.7339 21.3628 38.7339 21.1775 38.7339C21.1775 36.1132 21.1775 33.4925 21.1775 30.7924Z" fill="#EC7124"/>
<path d="M21.6277 28.918C22.2606 28.9189 22.8936 28.9193 23.5265 28.9197C24.8197 28.9205 26.113 28.9219 27.4062 28.9237C27.4062 29.0264 27.4062 29.1292 27.4062 29.2351C26.2497 29.2375 25.0931 29.2391 23.9366 29.24C23.8492 29.24 23.7617 29.2401 23.6716 29.2402C20.767 29.2421 17.8629 29.2265 14.9586 29.1962C14.8695 29.1952 14.7804 29.1943 14.6886 29.1933C13.6074 29.182 12.5263 29.17 11.4452 29.1572C11.4452 29.1058 11.4452 29.0545 11.4452 29.0015C14.8396 28.934 18.2326 28.9131 21.6277 28.918Z" fill="#DB4417"/>
<path d="M12.3795 30.0916C12.6364 30.0916 12.8934 30.0916 13.1581 30.0916C13.1581 30.3228 13.1581 30.554 13.1581 30.7923C12.9782 30.7923 12.7984 30.7923 12.6131 30.7923C12.6131 33.413 12.6131 36.0337 12.6131 38.7338C12.7929 38.7338 12.9728 38.7338 13.1581 38.7338C13.1581 38.8109 13.1581 38.888 13.1581 38.9674C12.9012 38.9674 12.6442 38.9674 12.3795 38.9674C12.3795 36.0384 12.3795 33.1093 12.3795 30.0916Z" fill="#E04717"/>
<path d="M9.57666 30.0916C9.83359 30.0916 10.0905 30.0916 10.3552 30.0916C10.3552 30.3228 10.3552 30.554 10.3552 30.7923C10.1754 30.7923 9.99554 30.7923 9.81024 30.7923C9.81024 33.413 9.81024 36.0337 9.81024 38.7338C9.99009 38.7338 10.1699 38.7338 10.3552 38.7338C10.3552 38.8109 10.3552 38.888 10.3552 38.9674C10.0983 38.9674 9.84138 38.9674 9.57666 38.9674C9.57666 36.0384 9.57666 33.1093 9.57666 30.0916Z" fill="#DF4617"/>
<path d="M22.3454 30.0916C22.6023 30.0916 22.8593 30.0916 23.124 30.0916C23.124 30.3228 23.124 30.554 23.124 30.7923C22.9441 30.7923 22.7643 30.7923 22.579 30.7923C22.579 33.413 22.579 36.0337 22.579 38.7338C22.7588 38.7338 22.9387 38.7338 23.124 38.7338C23.124 38.8109 23.124 38.888 23.124 38.9674C22.8671 38.9674 22.6101 38.9674 22.3454 38.9674C22.3454 36.0384 22.3454 33.1093 22.3454 30.0916Z" fill="#DE4416"/>
<path d="M18.1411 30.0916C18.398 30.0916 18.6549 30.0916 18.9196 30.0916C18.9196 30.3228 18.9196 30.554 18.9196 30.7923C18.7398 30.7923 18.5599 30.7923 18.3746 30.7923C18.3746 33.413 18.3746 36.0337 18.3746 38.7338C18.5545 38.7338 18.7343 38.7338 18.9196 38.7338C18.9196 38.8109 18.9196 38.888 18.9196 38.9674C18.6627 38.9674 18.4058 38.9674 18.1411 38.9674C18.1411 36.0384 18.1411 33.1093 18.1411 30.0916Z" fill="#DF4517"/>
<path d="M8.17511 30.0916C8.43204 30.0916 8.68898 30.0916 8.9537 30.0916C8.9537 30.3228 8.9537 30.554 8.9537 30.7923C8.77384 30.7923 8.59399 30.7923 8.40869 30.7923C8.40869 33.413 8.40869 36.0337 8.40869 38.7338C8.58854 38.7338 8.76839 38.7338 8.9537 38.7338C8.9537 38.8109 8.9537 38.888 8.9537 38.9674C8.69676 38.9674 8.43983 38.9674 8.17511 38.9674C8.17511 36.0384 8.17511 33.1093 8.17511 30.0916Z" fill="#E04819"/>
<path d="M15.1824 30.0916C15.4394 30.0916 15.6963 30.0916 15.961 30.0916C15.961 30.3228 15.961 30.554 15.961 30.7923C15.7812 30.7923 15.6013 30.7923 15.416 30.7923C15.416 33.413 15.416 36.0337 15.416 38.7338C15.5959 38.7338 15.7757 38.7338 15.961 38.7338C15.961 38.7852 15.961 38.8366 15.961 38.8896C15.7041 38.8896 15.4472 38.8896 15.1824 38.8896C15.1824 35.9862 15.1824 33.0829 15.1824 30.0916Z" fill="#E14B19"/>
<path d="M26.5498 30.0916C26.8067 30.0916 27.0637 30.0916 27.3284 30.0916C27.3284 30.3228 27.3284 30.554 27.3284 30.7923C27.1485 30.7923 26.9687 30.7923 26.7834 30.7923C26.7834 33.413 26.7834 36.0337 26.7834 38.7338C26.9632 38.7338 27.1431 38.7338 27.3284 38.7338C27.3284 38.7852 27.3284 38.8366 27.3284 38.8896C27.0715 38.8896 26.8145 38.8896 26.5498 38.8896C26.5498 35.9862 26.5498 33.0829 26.5498 30.0916Z" fill="#DE4415"/>
<path d="M20.9439 30.0916C21.2008 30.0916 21.4578 30.0916 21.7225 30.0916C21.7225 30.3228 21.7225 30.554 21.7225 30.7923C21.5426 30.7923 21.3628 30.7923 21.1775 30.7923C21.1775 33.413 21.1775 36.0337 21.1775 38.7338C21.3573 38.7338 21.5372 38.7338 21.7225 38.7338C21.7225 38.7852 21.7225 38.8366 21.7225 38.8896C21.4656 38.8896 21.2086 38.8896 20.9439 38.8896C20.9439 35.9862 20.9439 33.0829 20.9439 30.0916Z" fill="#DD4014"/>
<path d="M13.7809 30.0916C14.0379 30.0916 14.2948 30.0916 14.5595 30.0916C14.5595 30.3228 14.5595 30.554 14.5595 30.7923C14.3797 30.7923 14.1998 30.7923 14.0145 30.7923C14.0145 33.413 14.0145 36.0337 14.0145 38.7338C14.1944 38.7338 14.3742 38.7338 14.5595 38.7338C14.5595 38.7852 14.5595 38.8366 14.5595 38.8896C14.3026 38.8896 14.0457 38.8896 13.7809 38.8896C13.7809 35.9862 13.7809 33.0829 13.7809 30.0916Z" fill="#DE4214"/>
<path d="M23.7469 30.0916C24.0038 30.0916 24.2608 30.0916 24.5255 30.0916C24.5255 30.3228 24.5255 30.554 24.5255 30.7923C24.3456 30.7923 24.1658 30.7923 23.9805 30.7923C23.9805 33.413 23.9805 36.0337 23.9805 38.7338C24.1346 38.7338 24.2888 38.7338 24.4476 38.7338C24.4476 38.7852 24.4476 38.8366 24.4476 38.8896C24.2164 38.8896 23.9851 38.8896 23.7469 38.8896C23.7469 35.9862 23.7469 33.0829 23.7469 30.0916Z" fill="#E04718"/>
<path d="M25.1483 30.0916C25.4052 30.0916 25.6622 30.0916 25.9269 30.0916C25.9269 30.3228 25.9269 30.554 25.9269 30.7923C25.747 30.7923 25.5672 30.7923 25.3819 30.7923C25.3819 33.413 25.3819 36.0337 25.3819 38.7338C25.5361 38.7338 25.6902 38.7338 25.849 38.7338C25.849 38.7852 25.849 38.8366 25.849 38.8896C25.6178 38.8896 25.3866 38.8896 25.1483 38.8896C25.1483 35.9862 25.1483 33.0829 25.1483 30.0916Z" fill="#DF4516"/>
<path d="M37.6057 37.488C37.8467 37.7612 37.9749 37.9935 38.0728 38.3445C37.9958 38.3445 37.9187 38.3445 37.8393 38.3445C37.8393 38.6271 37.8393 38.9097 37.8393 39.2009C38.0191 39.2009 38.199 39.2009 38.3843 39.2009C38.3843 38.9183 38.3843 38.6357 38.3843 38.3445C38.3072 38.3445 38.2301 38.3445 38.1507 38.3445C38.2544 38.0652 38.3711 37.8122 38.54 37.5659C38.5914 37.5659 38.6428 37.5659 38.6957 37.5659C38.9293 38.0038 38.9293 38.0038 38.9293 38.2666C38.8779 38.2666 38.8265 38.2666 38.7736 38.2666C38.7736 38.6006 38.7736 38.9346 38.7736 39.2788C38.8249 39.2788 38.8763 39.2788 38.9293 39.2788C38.9293 39.3302 38.9293 39.3816 38.9293 39.4345C38.3897 39.4345 37.8502 39.4345 37.2943 39.4345C37.2943 39.3831 37.2943 39.3317 37.2943 39.2788C37.3456 39.2788 37.397 39.2788 37.45 39.2788C37.45 38.9448 37.45 38.6108 37.45 38.2666C37.3986 38.2666 37.3472 38.2666 37.2943 38.2666C37.3383 37.9584 37.4351 37.7476 37.6057 37.488Z" fill="#62686D"/>
<path d="M44.3793 37.488C44.4307 37.488 44.4821 37.488 44.5351 37.488C44.7686 38.0038 44.7686 38.0038 44.7686 38.2666C44.7172 38.2666 44.6659 38.2666 44.6129 38.2666C44.6129 38.6006 44.6129 38.9346 44.6129 39.2788C44.8185 39.2788 45.024 39.2788 45.2358 39.2788C45.2358 38.9448 45.2358 38.6108 45.2358 38.2666C45.1844 38.2666 45.133 38.2666 45.0801 38.2666C45.1137 37.8967 45.1834 37.7278 45.4694 37.488C45.5346 37.6014 45.5994 37.7149 45.664 37.8287C45.7182 37.9235 45.7182 37.9235 45.7735 38.0203C45.8587 38.1888 45.8587 38.1888 45.8587 38.3445C45.7816 38.3445 45.7045 38.3445 45.6251 38.3445C45.6636 38.884 45.6636 38.884 45.7029 39.4345C45.1891 39.4345 44.6752 39.4345 44.1458 39.4345C44.1715 39.0748 44.1972 38.7151 44.2236 38.3445C44.1465 38.3445 44.0695 38.3445 43.9901 38.3445C44.085 38.0305 44.1893 37.7572 44.3793 37.488Z" fill="#556371"/>
<path d="M46.8708 33.9066C47.9757 33.9066 49.0805 33.9066 50.2188 33.9066C50.2188 35.885 50.2188 37.8634 50.2188 39.9017C50.1931 39.9017 50.1674 39.9017 50.1409 39.9017C50.1409 37.949 50.1409 35.9963 50.1409 33.9845C49.9611 33.9845 49.7812 33.9845 49.5959 33.9845C49.5959 34.447 49.5959 34.9094 49.5959 35.3859C49.339 35.3859 49.082 35.3859 48.8173 35.3859C48.8173 34.9234 48.8173 34.461 48.8173 33.9845C48.175 33.9845 47.5326 33.9845 46.8708 33.9845C46.8708 33.9588 46.8708 33.9331 46.8708 33.9066Z" fill="#BD4820"/>
<path d="M19.6204 30.1694C19.8516 30.1694 20.0828 30.1694 20.3211 30.1694C20.3211 30.375 20.3211 30.5805 20.3211 30.7923C20.1412 30.7923 19.9614 30.7923 19.7761 30.7923C19.7761 33.413 19.7761 36.0337 19.7761 38.7339C19.9559 38.7339 20.1358 38.7339 20.3211 38.7339C20.3211 38.7853 20.3211 38.8366 20.3211 38.8896C20.0898 38.8896 19.8586 38.8896 19.6204 38.8896C19.6204 36.0119 19.6204 33.1343 19.6204 30.1694Z" fill="#DE4115"/>
<path d="M6.85156 30.1694C7.0828 30.1694 7.31404 30.1694 7.55229 30.1694C7.55229 30.375 7.55229 30.5805 7.55229 30.7923C7.37244 30.7923 7.19258 30.7923 7.00728 30.7923C7.00728 33.413 7.00728 36.0337 7.00728 38.7339C7.18713 38.7339 7.36699 38.7339 7.55229 38.7339C7.55229 38.7853 7.55229 38.8366 7.55229 38.8896C7.32105 38.8896 7.08981 38.8896 6.85156 38.8896C6.85156 36.0119 6.85156 33.1343 6.85156 30.1694Z" fill="#DE4014"/>
<path d="M11.0559 30.1694C11.2615 30.1694 11.467 30.1694 11.6788 30.1694C11.6788 30.375 11.6788 30.5805 11.6788 30.7923C11.5246 30.7923 11.3705 30.7923 11.2116 30.7923C11.2116 33.413 11.2116 36.0337 11.2116 38.7339C11.3915 38.7339 11.5713 38.7339 11.7566 38.7339C11.7566 38.7853 11.7566 38.8366 11.7566 38.8896C11.5254 38.8896 11.2942 38.8896 11.0559 38.8896C11.0559 36.0119 11.0559 33.1343 11.0559 30.1694Z" fill="#DD4114"/>
<path d="M25.9269 21.9164C26.2095 21.9164 26.4921 21.9164 26.7833 21.9164C26.7833 22.4559 26.7833 22.9955 26.7833 23.5514C26.5007 23.5257 26.2181 23.5 25.9269 23.4736C25.9269 22.9597 25.9269 22.4458 25.9269 21.9164Z" fill="#DC4115"/>
<path d="M17.7518 21.9164C18.0344 21.9164 18.317 21.9164 18.6082 21.9164C18.6082 22.4302 18.6082 22.9441 18.6082 23.4736C18.3256 23.4992 18.043 23.5249 17.7518 23.5514C17.7518 23.0119 17.7518 22.4723 17.7518 21.9164Z" fill="#DB3E13"/>
<path d="M12.1459 21.9164C12.4286 21.9164 12.7112 21.9164 13.0024 21.9164C13.0024 22.4559 13.0024 22.9955 13.0024 23.5514C12.7198 23.5257 12.4371 23.5 12.1459 23.4736C12.1459 22.9597 12.1459 22.4458 12.1459 21.9164Z" fill="#DC3F14"/>
<path d="M20.321 21.9164C20.6037 21.9164 20.8863 21.9164 21.1775 21.9164C21.1775 22.4559 21.1775 22.9955 21.1775 23.5514C21.049 23.5257 20.9206 23.5 20.7882 23.4736C20.634 23.4736 20.4799 23.4736 20.321 23.4736C20.321 22.9597 20.321 22.4458 20.321 21.9164Z" fill="#DC4015"/>
<path d="M34.8806 32.8944C35.1375 32.8944 35.3945 32.8944 35.6592 32.8944C35.6592 33.4083 35.6592 33.9221 35.6592 34.4516C35.1142 34.5294 35.1142 34.5294 34.8806 34.4516C34.8806 33.9377 34.8806 33.4238 34.8806 32.8944Z" fill="#DD3F14"/>
<path d="M29.2748 32.8944C29.5318 32.8944 29.7887 32.8944 30.0534 32.8944C30.0534 33.4083 30.0534 33.9221 30.0534 34.4516C29.7965 34.4516 29.5396 34.4516 29.2748 34.4516C29.2748 33.9377 29.2748 33.4238 29.2748 32.8944Z" fill="#DC3F14"/>
<path d="M37.2164 32.1937C37.499 32.1937 37.7816 32.1937 38.0728 32.1937C38.0728 32.6562 38.0728 33.1187 38.0728 33.5952C37.7902 33.6209 37.5076 33.6466 37.2164 33.673C37.2164 33.1849 37.2164 32.6967 37.2164 32.1937Z" fill="#E04718"/>
<path d="M44.0679 33.9066C44.3249 33.9066 44.5818 33.9066 44.8465 33.9066C44.8465 34.3948 44.8465 34.883 44.8465 35.3859C44.5896 35.3859 44.3327 35.3859 44.0679 35.3859C44.0679 34.8978 44.0679 34.4096 44.0679 33.9066Z" fill="#DD4216"/>
<path d="M41.9658 32.1937C42.2227 32.1937 42.4796 32.1937 42.7443 32.1937C42.7443 32.6562 42.7443 33.1187 42.7443 33.5952C42.4874 33.5952 42.2305 33.5952 41.9658 33.5952C41.9658 33.1327 41.9658 32.6702 41.9658 32.1937Z" fill="#DD4013"/>
<path d="M15.2603 30.1694C15.4658 30.1694 15.6713 30.1694 15.8831 30.1694C15.8831 30.375 15.8831 30.5805 15.8831 30.7923C15.7033 30.7923 15.5234 30.7923 15.3381 30.7923C15.3381 33.413 15.3381 36.0337 15.3381 38.7339C15.3124 38.7339 15.2867 38.7339 15.2603 38.7339C15.2603 35.9076 15.2603 33.0813 15.2603 30.1694Z" fill="#DC3E13"/>
<path d="M35.7371 32.8944C35.994 32.8944 36.2509 32.8944 36.5156 32.8944C36.5156 33.2798 36.5156 33.6652 36.5156 34.0623C36.2587 34.0623 36.0018 34.0623 35.7371 34.0623C35.7371 33.6769 35.7371 33.2915 35.7371 32.8944Z" fill="#F49B45"/>
<path d="M28.4183 32.8944C28.6753 32.8944 28.9322 32.8944 29.1969 32.8944C29.1969 33.2798 29.1969 33.6652 29.1969 34.0623C28.94 34.0623 28.6831 34.0623 28.4183 34.0623C28.4183 33.6769 28.4183 33.2915 28.4183 32.8944Z" fill="#F59B45"/>
<path d="M26.7834 21.9164C27.0403 21.9164 27.2973 21.9164 27.562 21.9164C27.562 22.3018 27.562 22.6872 27.562 23.0843C27.305 23.0843 27.0481 23.0843 26.7834 23.0843C26.7834 22.6989 26.7834 22.3135 26.7834 21.9164Z" fill="#F59A44"/>
<path d="M19.5425 21.9164C19.7738 21.9164 20.005 21.9164 20.2433 21.9164C20.2433 22.3018 20.2433 22.6872 20.2433 23.0843C20.012 23.0843 19.7808 23.0843 19.5425 23.0843C19.5425 22.6989 19.5425 22.3135 19.5425 21.9164Z" fill="#FB9E45"/>
<path d="M18.686 21.9164C18.9173 21.9164 19.1485 21.9164 19.3868 21.9164C19.3868 22.3018 19.3868 22.6872 19.3868 23.0843C19.1555 23.0843 18.9243 23.0843 18.686 23.0843C18.686 22.6989 18.686 22.3135 18.686 21.9164Z" fill="#FB9F46"/>
<path d="M11.3674 21.9164C11.5986 21.9164 11.8299 21.9164 12.0681 21.9164C12.0681 22.3018 12.0681 22.6872 12.0681 23.0843C11.8369 23.0843 11.6056 23.0843 11.3674 23.0843C11.3674 22.6989 11.3674 22.3135 11.3674 21.9164Z" fill="#FA9E45"/>
<path d="M38.5399 37.5659C38.5913 37.5659 38.6427 37.5659 38.6957 37.5659C38.9292 38.0039 38.9292 38.0039 38.9292 38.2666C38.8779 38.2666 38.8265 38.2666 38.7735 38.2666C38.7992 38.6264 38.8249 38.9861 38.8514 39.3567C38.6972 39.3567 38.5431 39.3567 38.3842 39.3567C38.4099 38.997 38.4356 38.6373 38.4621 38.2666C38.385 38.2666 38.3079 38.2666 38.2285 38.2666C38.3109 38.0017 38.3849 37.7984 38.5399 37.5659Z" fill="#485F74"/>
<path d="M45.3916 37.488C45.6183 37.744 45.7417 37.924 45.7809 38.2666C45.7038 38.2666 45.6267 38.2666 45.5473 38.2666C45.5473 38.5749 45.5473 38.8833 45.5473 39.2009C45.4702 39.2009 45.3931 39.2009 45.3137 39.2009C45.3137 38.8926 45.3137 38.5843 45.3137 38.2666C45.2366 38.2666 45.1596 38.2666 45.0801 38.2666C45.1175 37.9381 45.1709 37.7374 45.3916 37.488Z" fill="#4E6172"/>
<path d="M45.7808 38.1888C45.8065 38.2402 45.8322 38.2916 45.8586 38.3446C45.7816 38.3446 45.7045 38.3446 45.6251 38.3446C45.6636 38.8841 45.6636 38.8841 45.7029 39.4346C45.1891 39.4346 44.6752 39.4346 44.1458 39.4346C44.1714 39.3832 44.1971 39.3318 44.2236 39.2789C44.5576 39.2789 44.8916 39.2789 45.2358 39.2789C45.2358 38.9448 45.2358 38.6108 45.2358 38.2667C45.2615 38.2667 45.2872 38.2667 45.3136 38.2667C45.3136 38.575 45.3136 38.8833 45.3136 39.201C45.3907 39.201 45.4678 39.201 45.5472 39.201C45.5472 38.8927 45.5472 38.5844 45.5472 38.2667C45.6243 38.241 45.7014 38.2153 45.7808 38.1888Z" fill="#65696D"/>
<path d="M1.16789 5.33255C1.1422 5.35824 1.1165 5.38393 1.09003 5.41041C1.32127 5.44895 1.32127 5.44895 1.55718 5.48826C1.55718 5.51396 1.55718 5.53965 1.55718 5.56612C1.19748 5.56612 0.83777 5.56612 0.467163 5.56612C0.467163 5.48904 0.467163 5.41196 0.467163 5.33255C0.730183 5.26679 0.908983 5.24625 1.16789 5.33255Z" fill="#B1C256"/>
<path d="M30.3721 0.244632C30.7846 0.340749 31.1981 0.418945 31.6154 0.490677C32.5539 0.654327 33.4843 0.856239 34.4153 1.05768C35.071 1.19866 35.7263 1.32421 36.3886 1.43057C37.0018 1.53039 37.6073 1.66135 38.2139 1.79481C39.087 1.98768 39.087 1.98768 39.9682 2.13787C40.6961 2.24393 41.4124 2.40992 42.1309 2.56585C42.8637 2.72445 43.5953 2.86967 44.3357 2.98823C44.9842 3.09378 45.6225 3.24028 46.2624 3.38785C46.9156 3.53781 47.5634 3.6538 48.2293 3.73616C48.6499 3.79574 49.0575 3.89642 49.4694 3.99918C50.1446 4.1618 50.8164 4.29646 51.5034 4.3982C52.4441 4.53804 53.3628 4.74704 54.2869 4.96975C54.8626 5.10776 55.4293 5.2133 56.0171 5.28871C56.3197 5.33697 56.6173 5.41389 56.9146 5.48822C56.9146 16.8447 56.9146 28.2011 56.9146 39.9017C55.2154 39.9911 55.2154 39.9911 54.4119 39.9893C54.3192 39.9895 54.2265 39.9896 54.131 39.9897C53.878 39.9899 53.625 39.9898 53.372 39.9896C53.0951 39.9894 52.8183 39.9896 52.5414 39.9898C52.0575 39.9901 51.5737 39.9901 51.0898 39.9899C50.3703 39.9896 49.6508 39.9897 48.9312 39.99C47.6458 39.9904 46.3604 39.9904 45.075 39.9901C43.9501 39.9899 42.8253 39.9899 41.7005 39.99C41.5884 39.99 41.5884 39.99 41.474 39.99C41.1707 39.99 40.8673 39.99 40.564 39.9901C37.7207 39.9903 34.8774 39.9901 32.0341 39.9897C29.5098 39.9893 26.9855 39.9893 24.4612 39.9897C21.6227 39.9901 18.7843 39.9903 15.9458 39.99C15.643 39.99 15.3403 39.99 15.0376 39.99C14.963 39.99 14.8885 39.99 14.8117 39.9899C13.6877 39.9899 12.5636 39.99 11.4396 39.9902C10.1612 39.9904 8.88286 39.9903 7.6045 39.9899C6.88965 39.9897 6.1748 39.9897 5.45996 39.99C4.98182 39.9901 4.50369 39.99 4.02555 39.9897C3.75357 39.9895 3.4816 39.9894 3.20962 39.9897C2.91555 39.99 2.62148 39.9897 2.32741 39.9893C2.2445 39.9895 2.16158 39.9897 2.07616 39.9899C1.37922 39.9882 0.699608 39.9428 0 39.9017C0 28.5452 0 17.1888 0 5.48822C0.955495 5.22763 0.955495 5.22763 1.34823 5.17618C1.88884 5.0988 2.41985 4.98911 2.95376 4.87509C3.61417 4.73605 4.27425 4.60151 4.93915 4.48579C5.87929 4.32155 6.81144 4.11823 7.74417 3.91679C8.26186 3.80561 8.77704 3.69594 9.30136 3.62023C9.97059 3.52339 10.6289 3.37338 11.2895 3.23032C12.0302 3.0699 12.7664 2.91435 13.5169 2.80602C14.1577 2.70205 14.7911 2.55314 15.4254 2.41549C16.1587 2.25678 16.8908 2.11146 17.6317 1.99275C18.1682 1.90542 18.6969 1.79066 19.2267 1.6696C19.9934 1.49484 20.7573 1.33081 21.5364 1.22199C22.2641 1.11473 22.9804 0.942802 23.697 0.778693C24.2713 0.648311 24.842 0.545658 25.4258 0.467962C25.7901 0.412753 26.1461 0.330815 26.5048 0.247465C27.9153 -0.0791006 28.9643 -0.0849033 30.3721 0.244632Z" fill="#20354A"/>
<path d="M30.3721 0.244632C30.7846 0.340749 31.1981 0.418945 31.6154 0.490677C32.5539 0.654327 33.4843 0.856239 34.4153 1.05768C35.071 1.19866 35.7263 1.32421 36.3886 1.43057C37.0018 1.53039 37.6073 1.66135 38.2139 1.79481C39.087 1.98768 39.087 1.98768 39.9682 2.13787C40.6961 2.24393 41.4124 2.40992 42.1309 2.56585C42.8637 2.72445 43.5953 2.86967 44.3357 2.98823C44.9842 3.09378 45.6225 3.24028 46.2624 3.38785C46.9156 3.53781 47.5634 3.6538 48.2293 3.73616C48.6499 3.79574 49.0575 3.89642 49.4694 3.99918C50.1446 4.1618 50.8164 4.29646 51.5034 4.3982C52.4441 4.53804 53.3628 4.74704 54.2869 4.96975C54.8626 5.10776 55.4293 5.2133 56.0171 5.28871C56.3197 5.33697 56.6173 5.41389 56.9146 5.48822C56.9146 16.8447 56.9146 28.2011 56.9146 39.9017C56.4264 39.9017 55.9382 39.9017 55.4353 39.9017C55.4353 30.1896 55.4353 20.4775 55.4353 10.4712C37.5784 10.4712 19.7216 10.4712 1.3236 10.4712C1.3236 20.1832 1.3236 29.8953 1.3236 39.9017C0.886809 39.9017 0.450022 39.9017 0 39.9017C0 28.5452 0 17.1888 0 5.48822C0.955495 5.22763 0.955495 5.22763 1.34823 5.17618C1.88884 5.0988 2.41985 4.98911 2.95376 4.87509C3.61417 4.73605 4.27425 4.60151 4.93915 4.48579C5.87929 4.32155 6.81144 4.11823 7.74417 3.91679C8.26186 3.80561 8.77704 3.69594 9.30136 3.62023C9.97059 3.52339 10.6289 3.37338 11.2895 3.23032C12.0302 3.0699 12.7664 2.91435 13.5169 2.80602C14.1577 2.70205 14.7911 2.55314 15.4254 2.41549C16.1587 2.25678 16.8908 2.11146 17.6317 1.99275C18.1682 1.90542 18.6969 1.79066 19.2267 1.6696C19.9934 1.49484 20.7573 1.33081 21.5364 1.22199C22.2641 1.11473 22.9804 0.942802 23.697 0.778693C24.2713 0.648311 24.842 0.545658 25.4258 0.467962C25.7901 0.412753 26.1461 0.330815 26.5048 0.247465C27.9153 -0.0791006 28.9643 -0.0849033 30.3721 0.244632Z" fill="#BFD255"/>
<path d="M11.3674 21.9164C14.0138 21.9164 16.6602 21.9164 19.3868 21.9164C19.3611 24.2288 19.3354 26.5412 19.3089 28.9236C19.4117 28.9236 19.5145 28.9236 19.6204 28.9236C19.5947 26.6113 19.569 24.2989 19.5425 21.9164C22.1889 21.9164 24.8353 21.9164 27.5619 21.9164C27.5362 24.3059 27.5105 26.6953 27.4841 29.1572C27.7667 29.1572 28.0493 29.1572 28.3405 29.1572C28.3405 32.7029 28.3405 36.2486 28.3405 39.9017C28.3919 39.9017 28.4433 39.9017 28.4962 39.9017C28.4705 37.5893 28.4448 35.2769 28.4184 32.8944C31.0905 32.8944 33.7626 32.8944 36.5157 32.8944C36.5157 33.2798 36.5157 33.6652 36.5157 34.0623C36.4643 34.0623 36.4129 34.0623 36.3599 34.0623C36.3599 35.9893 36.3599 37.9163 36.3599 39.9017C36.4627 39.9017 36.5655 39.9017 36.6714 39.9017C36.6714 37.3324 36.6714 34.763 36.6714 32.1158C38.881 32.1158 41.0906 32.1158 43.3672 32.1158C43.3672 32.7068 43.3672 33.2977 43.3672 33.9066C45.6282 33.9066 47.8892 33.9066 50.2188 33.9066C50.2188 35.885 50.2188 37.8634 50.2188 39.9017C51.9402 39.9017 53.6617 39.9017 55.4353 39.9017C55.4353 39.9274 55.4353 39.9531 55.4353 39.9796C37.5784 39.9796 19.7216 39.9796 1.32361 39.9796C1.32361 39.9539 1.32361 39.9282 1.32361 39.9017C2.81382 39.9017 4.30403 39.9017 5.8394 39.9017C5.8394 36.356 5.8394 32.8103 5.8394 29.1572C7.68932 29.1572 9.53924 29.1572 11.4452 29.1572C11.4195 26.7677 11.3938 24.3783 11.3674 21.9164Z" fill="#F7923D"/>
<path d="M8.95374 16.3107C21.7747 16.3107 34.5957 16.3107 47.8051 16.3107C47.8051 22.1174 47.8051 27.924 47.8051 33.9067C46.3406 33.9067 44.8761 33.9067 43.3672 33.9067C43.3672 33.3158 43.3672 32.7248 43.3672 32.116C41.1576 32.116 38.948 32.116 36.6714 32.116C36.6714 34.6853 36.6714 37.2546 36.6714 39.9018C36.5686 39.9018 36.4658 39.9018 36.3599 39.9018C36.3599 37.9748 36.3599 36.0478 36.3599 34.0624C36.4113 34.0624 36.4627 34.0624 36.5157 34.0624C36.5157 33.677 36.5157 33.2916 36.5157 32.8945C33.8435 32.8945 31.1714 32.8945 28.4184 32.8945C28.4441 33.2799 28.4698 33.6653 28.4962 34.0624C28.502 34.2852 28.5054 34.5081 28.5051 34.731C28.5051 34.7882 28.5051 34.8453 28.5051 34.9041C28.505 35.0874 28.5044 35.2706 28.5038 35.4538C28.5037 35.5831 28.5036 35.7123 28.5035 35.8416C28.5032 36.1776 28.5024 36.5135 28.5016 36.8495C28.5008 37.1941 28.5004 37.5386 28.5 37.8831C28.4992 38.556 28.4979 39.2289 28.4962 39.9018C28.4448 39.9018 28.3935 39.9018 28.3405 39.9018C28.3405 36.3561 28.3405 32.8104 28.3405 29.1573C28.0579 29.1573 27.7753 29.1573 27.4841 29.1573C27.4823 28.3857 27.4809 27.614 27.48 26.8424C27.4796 26.484 27.4791 26.1255 27.4782 25.7671C27.4773 25.4203 27.4769 25.0735 27.4767 24.7267C27.4765 24.5953 27.4763 24.4639 27.4758 24.3325C27.4753 24.1465 27.4752 23.9605 27.4752 23.7744C27.4749 23.7218 27.4747 23.6692 27.4744 23.6151C27.4755 23.0446 27.5237 22.4901 27.5619 21.9165C24.9155 21.9165 22.2691 21.9165 19.5425 21.9165C19.5682 22.3019 19.5939 22.6873 19.6204 23.0844C19.6261 23.3072 19.6296 23.5301 19.6292 23.753C19.6292 23.8101 19.6292 23.8672 19.6292 23.9261C19.6292 24.1093 19.6286 24.2925 19.628 24.4758C19.6278 24.605 19.6277 24.7343 19.6276 24.8635C19.6273 25.1995 19.6266 25.5355 19.6257 25.8715C19.6249 26.216 19.6245 26.5605 19.6242 26.9051C19.6233 27.578 19.622 28.2509 19.6204 28.9238C19.5176 28.9238 19.4148 28.9238 19.3089 28.9238C19.3071 28.1826 19.3057 27.4414 19.3049 26.7002C19.3045 26.3559 19.3039 26.0116 19.303 25.6673C19.3022 25.3341 19.3017 25.0009 19.3015 24.6678C19.3014 24.5416 19.3011 24.4154 19.3007 24.2893C19.3001 24.1105 19.3 23.9317 19.3001 23.753C19.2999 23.6518 19.2997 23.5507 19.2996 23.4465C19.3128 22.9358 19.3528 22.4262 19.3868 21.9165C16.7404 21.9165 14.094 21.9165 11.3673 21.9165C11.393 22.3019 11.4187 22.6873 11.4452 23.0844C11.451 23.3151 11.4553 23.5438 11.454 23.7744C11.4541 23.8338 11.4541 23.8932 11.4541 23.9544C11.454 24.1453 11.4534 24.3361 11.4528 24.5269C11.4527 24.6614 11.4526 24.7958 11.4525 24.9303C11.4522 25.2801 11.4514 25.6299 11.4506 25.9797C11.4498 26.3384 11.4494 26.697 11.449 27.0556C11.4482 27.7562 11.4468 28.4568 11.4452 29.1573C10.623 29.1573 9.80084 29.1573 8.95374 29.1573C8.95374 24.9179 8.95374 20.6785 8.95374 16.3107Z" fill="#1A2A3A"/>
<path d="M1.32361 10.4711C19.1805 10.4711 37.0373 10.4711 55.4353 10.4711C55.4353 20.1831 55.4353 29.8952 55.4353 39.9016C54.5103 39.9016 53.5854 39.9016 52.6324 39.9016C52.6324 31.1145 52.6324 22.3274 52.6324 13.274C36.6254 13.274 20.6185 13.274 4.12652 13.274C4.12652 22.0611 4.12652 30.8482 4.12652 39.9016C3.20156 39.9016 2.2766 39.9016 1.32361 39.9016C1.32361 30.1895 1.32361 20.4774 1.32361 10.4711Z" fill="#435C75"/>
<path d="M30.3721 0.244632C30.7847 0.340749 31.1981 0.418945 31.6154 0.490677C32.5539 0.654327 33.4844 0.856239 34.4153 1.05768C35.0711 1.19866 35.7264 1.32421 36.3886 1.43057C37.0018 1.53039 37.6073 1.66135 38.2139 1.79481C39.087 1.98768 39.087 1.98768 39.9682 2.13787C40.6961 2.24393 41.4124 2.40992 42.1309 2.56585C42.8637 2.72445 43.5953 2.86967 44.3357 2.98823C44.9842 3.09378 45.6225 3.24028 46.2624 3.38785C46.9156 3.53781 47.5634 3.6538 48.2293 3.73616C48.6499 3.79574 49.0575 3.89642 49.4694 3.99918C50.1446 4.1618 50.8164 4.29646 51.5034 4.3982C52.4441 4.53804 53.3628 4.74718 54.287 4.96973C54.8764 5.11114 55.4518 5.21342 56.0551 5.28111C56.2917 5.33251 56.2917 5.33251 56.5253 5.56608C38.0261 5.56608 19.5269 5.56608 0.467163 5.56608C0.467163 5.489 0.467163 5.41192 0.467163 5.33251C0.542135 5.32106 0.617108 5.30962 0.694352 5.29783C1.56071 5.16135 2.41745 4.98814 3.27562 4.80764C3.82891 4.6918 4.38228 4.58277 4.93916 4.48579C5.8793 4.32154 6.81145 4.11823 7.74418 3.91679C8.26187 3.80561 8.77705 3.69594 9.30137 3.62023C9.9706 3.52339 10.629 3.37338 11.2895 3.23032C12.0302 3.0699 12.7664 2.91435 13.5169 2.80602C14.1577 2.70205 14.7911 2.55314 15.4254 2.41549C16.1587 2.25678 16.8908 2.11146 17.6317 1.99275C18.1682 1.90542 18.6969 1.79066 19.2267 1.6696C19.9934 1.49484 20.7573 1.33081 21.5364 1.22199C22.2641 1.11473 22.9804 0.942802 23.697 0.778693C24.2713 0.648311 24.842 0.545658 25.4258 0.467962C25.7901 0.412753 26.1461 0.330815 26.5049 0.247465C27.9153 -0.0791006 28.9643 -0.0849033 30.3721 0.244632Z" fill="#9EB134"/>
<path d="M4.12653 13.274C20.1335 13.274 36.1404 13.274 52.6324 13.274C52.384 13.4728 52.1755 13.6355 51.9082 13.7929C51.8457 13.83 51.7831 13.8672 51.7186 13.9054C51.6524 13.9444 51.5862 13.9833 51.518 14.0234C51.083 14.2818 50.6483 14.54 50.2204 14.8102C50.1214 14.8724 50.0223 14.9342 49.9228 14.9956C49.6421 15.1689 49.3677 15.3478 49.0971 15.5366C48.1257 16.194 47.3812 16.3685 46.2224 16.3513C46.061 16.3524 45.8995 16.3539 45.7381 16.3557C45.2989 16.3596 44.8599 16.3577 44.4208 16.3548C43.9454 16.3527 43.4701 16.356 42.9948 16.3585C42.1189 16.3624 41.2432 16.3621 40.3673 16.3595C39.558 16.3572 38.7487 16.3566 37.9394 16.3577C37.8586 16.3578 37.8586 16.3578 37.7762 16.3579C37.5575 16.3582 37.3389 16.3585 37.1203 16.3588C35.0725 16.3617 33.0248 16.3591 30.9771 16.354C29.161 16.3496 27.345 16.35 25.5289 16.3545C23.4847 16.3595 21.4406 16.3615 19.3964 16.3586C19.1781 16.3583 18.9599 16.358 18.7417 16.3577C18.6879 16.3576 18.6342 16.3575 18.5789 16.3575C17.7704 16.3564 16.9619 16.3576 16.1535 16.36C15.2334 16.3627 14.3135 16.3619 13.3934 16.3569C12.9246 16.3545 12.4558 16.3535 11.9869 16.3566C11.5567 16.3594 11.1267 16.3578 10.6966 16.3529C10.5419 16.3519 10.3872 16.3524 10.2326 16.3547C9.08714 16.3703 8.35531 16.0738 7.41824 15.4208C7.1864 15.2608 6.94863 15.1113 6.70989 14.9618C6.39315 14.7636 6.07749 14.5636 5.76155 14.3641C5.24769 14.0557 4.73382 13.7474 4.20438 13.4298C4.20438 22.1655 4.20438 30.9012 4.20438 39.9017C4.17869 39.9017 4.153 39.9017 4.12653 39.9017C4.12653 31.1146 4.12653 22.3274 4.12653 13.274Z" fill="#334453"/>
<path d="M28.4183 32.8944C31.0904 32.8944 33.7625 32.8944 36.5156 32.8944C36.5156 33.2798 36.5156 33.6652 36.5156 34.0623C36.4642 34.0623 36.4128 34.0623 36.3599 34.0623C36.3599 35.9893 36.3599 37.9163 36.3599 39.9017C35.8894 39.9209 35.4189 39.9402 34.9341 39.9601C34.7875 39.9686 34.6408 39.9771 34.4897 39.9858C33.4997 40.0189 33.4997 40.0189 33.1224 39.7001C32.8995 39.475 32.7213 39.23 32.5448 38.9674C32.4689 38.8666 32.3928 38.7659 32.3161 38.6657C32.2815 38.6175 32.2469 38.5693 32.2112 38.5197C32.0241 38.2742 31.8222 38.0426 31.6203 37.8092C31.2897 37.4271 30.968 37.0402 30.6546 36.6438C30.5009 36.4513 30.3411 36.265 30.1796 36.079C30.0208 35.8927 29.867 35.7025 29.7127 35.5124C29.4331 35.1682 29.1429 34.8372 28.8414 34.5121C28.7298 34.3737 28.7298 34.3737 28.7298 34.218C28.6784 34.218 28.627 34.218 28.5741 34.218C28.5741 36.0936 28.5741 37.9692 28.5741 39.9017C28.5484 39.9017 28.5227 39.9017 28.4962 39.9017C28.4705 37.5893 28.4448 35.2769 28.4183 32.8944Z" fill="#EB7325"/>
<path d="M36.6714 32.1158C38.881 32.1158 41.0906 32.1158 43.3672 32.1158C43.3672 32.7068 43.3672 33.2977 43.3672 33.9066C43.4186 33.9066 43.47 33.9066 43.5229 33.9066C43.5229 35.885 43.5229 37.8634 43.5229 39.9017C42.3667 39.9017 41.2105 39.9017 40.0193 39.9017C40.0193 37.3581 40.0193 34.8144 40.0193 32.1937C39.377 32.1937 38.7346 32.1937 38.0728 32.1937C38.0728 32.6562 38.0728 33.1187 38.0728 33.5952C37.7902 33.6209 37.5076 33.6465 37.2164 33.673C37.2164 33.1848 37.2164 32.6967 37.2164 32.1937C37.0365 32.1937 36.8567 32.1937 36.6714 32.1937C36.6714 32.168 36.6714 32.1423 36.6714 32.1158Z" fill="#EC7325"/>
<path d="M36.6714 32.1937C36.8512 32.1937 37.0311 32.1937 37.2164 32.1937C37.2164 32.6819 37.2164 33.1701 37.2164 33.673C37.2678 33.6473 37.3192 33.6217 37.3721 33.5952C37.6034 33.5952 37.8346 33.5952 38.0728 33.5952C38.0728 33.1327 38.0728 32.6702 38.0728 32.1937C38.7152 32.1937 39.3575 32.1937 40.0193 32.1937C40.0193 34.7374 40.0193 37.281 40.0193 39.9017C38.9145 39.9017 37.8097 39.9017 36.6714 39.9017C36.6714 37.3581 36.6714 34.8144 36.6714 32.1937Z" fill="#FDA046"/>
<path d="M44.0679 33.9066C46.0977 33.9066 48.1275 33.9066 50.2188 33.9066C50.2188 35.885 50.2188 37.8634 50.2188 39.9017C49.0883 39.9017 47.9577 39.9017 46.793 39.9017C46.793 37.949 46.793 35.9963 46.793 33.9845C46.1763 33.9845 45.5597 33.9845 44.9244 33.9845C44.9244 34.447 44.9244 34.9094 44.9244 35.3859C44.6417 35.3859 44.3591 35.3859 44.0679 35.3859C44.0679 34.8978 44.0679 34.4096 44.0679 33.9066Z" fill="#EC7425"/>
<path d="M25.0705 30.0916C25.8156 30.0916 26.5607 30.0916 27.3284 30.0916C27.3284 33.0206 27.3284 35.9496 27.3284 38.9674C26.5833 38.9674 25.8382 38.9674 25.0705 38.9674C25.0705 36.0384 25.0705 33.1093 25.0705 30.0916Z" fill="#EF782A"/>
<path d="M19.5425 30.0916C20.262 30.0916 20.9814 30.0916 21.7226 30.0916C21.7226 33.0206 21.7226 35.9496 21.7226 38.9674C21.0032 38.9674 20.2838 38.9674 19.5425 38.9674C19.5425 36.0384 19.5425 33.1093 19.5425 30.0916Z" fill="#ED7327"/>
<path d="M11.4452 23.1621C11.7313 23.391 11.9006 23.5373 12.1119 23.8142C12.3726 24.1483 12.6426 24.4717 12.9196 24.7923C13.2577 25.1841 13.5888 25.5806 13.9151 25.9824C14.1143 26.2254 14.3171 26.4652 14.5206 26.7047C14.9025 27.1544 15.2782 27.6087 15.6496 28.0672C15.7096 28.141 15.7696 28.2147 15.8314 28.2907C15.8886 28.3615 15.9458 28.4322 16.0048 28.5052C16.0563 28.5688 16.1078 28.6324 16.1608 28.698C16.2724 28.8458 16.2724 28.8458 16.2724 28.9236C14.6794 28.9236 13.0864 28.9236 11.4452 28.9236C11.4452 27.0223 11.4452 25.121 11.4452 23.1621Z" fill="#FEA046"/>
<path d="M19.6204 23.24C19.6717 23.24 19.7231 23.24 19.7761 23.24C19.8831 23.3574 19.9842 23.4802 20.0826 23.605C20.1764 23.7222 20.1764 23.7222 20.2721 23.8419C20.3054 23.8836 20.3387 23.9253 20.3731 23.9682C20.5467 24.1828 20.726 24.3925 20.905 24.6025C21.1716 24.9159 21.4345 25.2316 21.6933 25.5514C21.9196 25.8298 22.1523 26.0991 22.3941 26.3641C22.654 26.6496 22.8939 26.943 23.1273 27.2503C23.3533 27.5381 23.5922 27.8148 23.832 28.0912C23.8668 28.1318 23.9017 28.1723 23.9376 28.2141C23.9683 28.2496 23.9991 28.2851 24.0308 28.3217C24.1811 28.514 24.3122 28.7206 24.4476 28.9237C22.8546 28.9237 21.2616 28.9237 19.6204 28.9237C19.6204 27.0481 19.6204 25.1724 19.6204 23.24Z" fill="#FEA046"/>
<path d="M28.5741 34.218C28.6255 34.218 28.6769 34.218 28.7298 34.218C28.8385 34.337 28.9413 34.4614 29.0412 34.5878C29.1037 34.6658 29.1661 34.7438 29.2304 34.8242C29.2632 34.8653 29.296 34.9065 29.3298 34.9489C29.7062 35.418 30.0927 35.8796 30.4914 36.3299C30.7389 36.6103 30.9708 36.9015 31.203 37.1946C31.3999 37.4386 31.6019 37.6777 31.8052 37.9163C32.1146 38.2795 32.4156 38.6479 32.7115 39.0221C32.9018 39.2571 33.1016 39.4828 33.304 39.7073C33.4013 39.8238 33.4013 39.8238 33.4013 39.9017C31.8083 39.9017 30.2154 39.9017 28.5741 39.9017C28.5741 38.0261 28.5741 36.1505 28.5741 34.218Z" fill="#FDA046"/>
<path d="M21.6277 28.918C22.2606 28.9189 22.8935 28.9193 23.5265 28.9197C24.8197 28.9205 26.1129 28.9219 27.4062 28.9237C27.4062 29.0264 27.4062 29.1292 27.4062 29.2351C24.066 29.2351 20.7259 29.2351 17.2846 29.2351C17.2846 32.7551 17.2846 36.2751 17.2846 39.9017C17.1561 39.9017 17.0276 39.9017 16.8953 39.9017C16.8953 36.3817 16.8953 32.8617 16.8953 29.2351C13.2468 29.2351 9.59837 29.2351 5.83936 29.2351C5.83936 29.2094 5.83936 29.1837 5.83936 29.1572C7.68927 29.1572 9.53919 29.1572 11.4452 29.1572C11.4452 29.1058 11.4452 29.0545 11.4452 29.0015C14.8396 28.934 18.2326 28.9131 21.6277 28.918Z" fill="#D25223"/>
<path d="M6.77368 30.0916C7.05631 30.0916 7.33893 30.0916 7.63013 30.0916C7.63013 33.0206 7.63013 35.9496 7.63013 38.9674C7.3475 38.9674 7.06487 38.9674 6.77368 38.9674C6.77368 36.0384 6.77368 33.1093 6.77368 30.0916Z" fill="#EB6E24"/>
<path d="M18.1411 30.0916C18.398 30.0916 18.6549 30.0916 18.9196 30.0916C18.9196 33.0206 18.9196 35.9496 18.9196 38.9674C18.6627 38.9674 18.4058 38.9674 18.1411 38.9674C18.1411 36.0384 18.1411 33.1093 18.1411 30.0916Z" fill="#EC7124"/>
<path d="M23.7469 30.0916C24.0038 30.0916 24.2608 30.0916 24.5255 30.0916C24.5255 33.0206 24.5255 35.9496 24.5255 38.9674C24.2685 38.9674 24.0116 38.9674 23.7469 38.9674C23.7469 36.0384 23.7469 33.1093 23.7469 30.0916Z" fill="#ED7426"/>
<path d="M22.3454 30.0916C22.6023 30.0916 22.8593 30.0916 23.124 30.0916C23.124 33.0206 23.124 35.9496 23.124 38.9674C22.8671 38.9674 22.6101 38.9674 22.3454 38.9674C22.3454 36.0384 22.3454 33.1093 22.3454 30.0916Z" fill="#ED7525"/>
<path d="M12.3795 30.0916C12.6364 30.0916 12.8934 30.0916 13.1581 30.0916C13.1581 33.0206 13.1581 35.9496 13.1581 38.9674C12.9012 38.9674 12.6442 38.9674 12.3795 38.9674C12.3795 36.0384 12.3795 33.1093 12.3795 30.0916Z" fill="#EC7224"/>
<path d="M10.978 30.0916C11.235 30.0916 11.4919 30.0916 11.7566 30.0916C11.7566 33.0206 11.7566 35.9496 11.7566 38.9674C11.4997 38.9674 11.2427 38.9674 10.978 38.9674C10.978 36.0384 10.978 33.1093 10.978 30.0916Z" fill="#EB6F24"/>
<path d="M9.57666 30.0916C9.83359 30.0916 10.0905 30.0916 10.3552 30.0916C10.3552 33.0206 10.3552 35.9496 10.3552 38.9674C10.0983 38.9674 9.84138 38.9674 9.57666 38.9674C9.57666 36.0384 9.57666 33.1093 9.57666 30.0916Z" fill="#EC7124"/>
<path d="M8.17511 30.0916C8.43204 30.0916 8.68898 30.0916 8.9537 30.0916C8.9537 33.0206 8.9537 35.9496 8.9537 38.9674C8.69676 38.9674 8.43983 38.9674 8.17511 38.9674C8.17511 36.0384 8.17511 33.1093 8.17511 30.0916Z" fill="#EC7024"/>
<path d="M15.1824 30.0916C15.4394 30.0916 15.6963 30.0916 15.961 30.0916C15.961 32.9949 15.961 35.8982 15.961 38.8896C15.7041 38.8896 15.4472 38.8896 15.1824 38.8896C15.1824 35.9862 15.1824 33.0829 15.1824 30.0916Z" fill="#EC7324"/>
<path d="M13.7809 30.0916C14.0379 30.0916 14.2948 30.0916 14.5595 30.0916C14.5595 32.9949 14.5595 35.8982 14.5595 38.8896C14.3026 38.8896 14.0457 38.8896 13.7809 38.8896C13.7809 35.9862 13.7809 33.0829 13.7809 30.0916Z" fill="#ED7525"/>
<path d="M13.0024 21.9164C14.5697 21.9164 16.137 21.9164 17.7518 21.9164C17.7518 22.3018 17.7518 22.6872 17.7518 23.0843C16.1845 23.0843 14.6172 23.0843 13.0024 23.0843C13.0024 22.6989 13.0024 22.3135 13.0024 21.9164Z" fill="#FC9F46"/>
<path d="M21.1775 21.9164C22.7448 21.9164 24.3121 21.9164 25.9269 21.9164C25.9012 22.3018 25.8755 22.6872 25.849 23.0843C24.3074 23.0843 22.7658 23.0843 21.1775 23.0843C21.1775 22.6989 21.1775 22.3135 21.1775 21.9164Z" fill="#FC9F46"/>
<path d="M30.1313 32.8944C31.6729 32.8944 33.2145 32.8944 34.8028 32.8944C34.8028 33.2798 34.8028 33.6652 34.8028 34.0623C33.2612 34.0623 31.7196 34.0623 30.1313 34.0623C30.1313 33.6769 30.1313 33.2915 30.1313 32.8944Z" fill="#FDA046"/>
<path d="M25.9269 30.1694C26.1067 30.1694 26.2866 30.1694 26.4719 30.1694C26.4719 33.0471 26.4719 35.9247 26.4719 38.8896C26.292 38.8896 26.1122 38.8896 25.9269 38.8896C25.9269 36.0119 25.9269 33.1343 25.9269 30.1694Z" fill="#FEA046"/>
<path d="M20.3989 30.1694C20.5788 30.1694 20.7586 30.1694 20.9439 30.1694C20.9439 33.0471 20.9439 35.9247 20.9439 38.8896C20.7641 38.8896 20.5842 38.8896 20.3989 38.8896C20.3989 36.0119 20.3989 33.1343 20.3989 30.1694Z" fill="#FEA146"/>
<path d="M1.16789 5.33255C1.1422 5.35824 1.1165 5.38393 1.09003 5.41041C19.358 5.41041 37.6259 5.41041 56.4474 5.41041C56.4731 5.46179 56.4988 5.51318 56.5253 5.56612C38.0261 5.56612 19.5269 5.56612 0.467163 5.56612C0.467163 5.48904 0.467163 5.41196 0.467163 5.33255C0.730183 5.26679 0.908983 5.24625 1.16789 5.33255Z" fill="#ACBF42"/>
<path d="M36.6714 32.1158C38.881 32.1158 41.0906 32.1158 43.3672 32.1158C43.3672 32.7068 43.3672 33.2977 43.3672 33.9066C43.4186 33.9066 43.47 33.9066 43.5229 33.9066C43.5229 35.885 43.5229 37.8634 43.5229 39.9017C43.4459 39.9017 43.3688 39.9017 43.2894 39.9017C43.2894 37.3581 43.2894 34.8144 43.2894 32.1937C43.1095 32.1937 42.9297 32.1937 42.7444 32.1937C42.7444 32.6562 42.7444 33.1187 42.7444 33.5952C42.4874 33.5952 42.2305 33.5952 41.9658 33.5952C41.9658 33.1327 41.9658 32.6702 41.9658 32.1937C40.6811 32.1937 39.3964 32.1937 38.0728 32.1937C38.0728 32.6562 38.0728 33.1187 38.0728 33.5952C37.7902 33.6209 37.5076 33.6465 37.2164 33.673C37.2164 33.1848 37.2164 32.6967 37.2164 32.1937C37.0365 32.1937 36.8567 32.1937 36.6714 32.1937C36.6714 32.168 36.6714 32.1423 36.6714 32.1158Z" fill="#C55323"/>
<path d="M26.7834 30.7924C26.9632 30.7924 27.1431 30.7924 27.3284 30.7924C27.3284 33.4131 27.3284 36.0338 27.3284 38.7339C27.1485 38.7339 26.9687 38.7339 26.7834 38.7339C26.7834 36.1132 26.7834 33.4925 26.7834 30.7924Z" fill="#ED7425"/>
<path d="M21.1775 30.7924C21.3573 30.7924 21.5372 30.7924 21.7225 30.7924C21.7225 33.4131 21.7225 36.0338 21.7225 38.7339C21.5426 38.7339 21.3628 38.7339 21.1775 38.7339C21.1775 36.1132 21.1775 33.4925 21.1775 30.7924Z" fill="#EC7124"/>
<path d="M21.6277 28.918C22.2606 28.9189 22.8936 28.9193 23.5265 28.9197C24.8197 28.9205 26.113 28.9219 27.4062 28.9237C27.4062 29.0264 27.4062 29.1292 27.4062 29.2351C26.2497 29.2375 25.0931 29.2391 23.9366 29.24C23.8492 29.24 23.7617 29.2401 23.6716 29.2402C20.767 29.2421 17.8629 29.2265 14.9586 29.1962C14.8695 29.1952 14.7804 29.1943 14.6886 29.1933C13.6074 29.182 12.5263 29.17 11.4452 29.1572C11.4452 29.1058 11.4452 29.0545 11.4452 29.0015C14.8396 28.934 18.2326 28.9131 21.6277 28.918Z" fill="#DB4417"/>
<path d="M12.3795 30.0916C12.6364 30.0916 12.8934 30.0916 13.1581 30.0916C13.1581 30.3228 13.1581 30.554 13.1581 30.7923C12.9782 30.7923 12.7984 30.7923 12.6131 30.7923C12.6131 33.413 12.6131 36.0337 12.6131 38.7338C12.7929 38.7338 12.9728 38.7338 13.1581 38.7338C13.1581 38.8109 13.1581 38.888 13.1581 38.9674C12.9012 38.9674 12.6442 38.9674 12.3795 38.9674C12.3795 36.0384 12.3795 33.1093 12.3795 30.0916Z" fill="#E04717"/>
<path d="M9.57666 30.0916C9.83359 30.0916 10.0905 30.0916 10.3552 30.0916C10.3552 30.3228 10.3552 30.554 10.3552 30.7923C10.1754 30.7923 9.99554 30.7923 9.81024 30.7923C9.81024 33.413 9.81024 36.0337 9.81024 38.7338C9.99009 38.7338 10.1699 38.7338 10.3552 38.7338C10.3552 38.8109 10.3552 38.888 10.3552 38.9674C10.0983 38.9674 9.84138 38.9674 9.57666 38.9674C9.57666 36.0384 9.57666 33.1093 9.57666 30.0916Z" fill="#DF4617"/>
<path d="M22.3454 30.0916C22.6023 30.0916 22.8593 30.0916 23.124 30.0916C23.124 30.3228 23.124 30.554 23.124 30.7923C22.9441 30.7923 22.7643 30.7923 22.579 30.7923C22.579 33.413 22.579 36.0337 22.579 38.7338C22.7588 38.7338 22.9387 38.7338 23.124 38.7338C23.124 38.8109 23.124 38.888 23.124 38.9674C22.8671 38.9674 22.6101 38.9674 22.3454 38.9674C22.3454 36.0384 22.3454 33.1093 22.3454 30.0916Z" fill="#DE4416"/>
<path d="M18.1411 30.0916C18.398 30.0916 18.6549 30.0916 18.9196 30.0916C18.9196 30.3228 18.9196 30.554 18.9196 30.7923C18.7398 30.7923 18.5599 30.7923 18.3746 30.7923C18.3746 33.413 18.3746 36.0337 18.3746 38.7338C18.5545 38.7338 18.7343 38.7338 18.9196 38.7338C18.9196 38.8109 18.9196 38.888 18.9196 38.9674C18.6627 38.9674 18.4058 38.9674 18.1411 38.9674C18.1411 36.0384 18.1411 33.1093 18.1411 30.0916Z" fill="#DF4517"/>
<path d="M8.17511 30.0916C8.43204 30.0916 8.68898 30.0916 8.9537 30.0916C8.9537 30.3228 8.9537 30.554 8.9537 30.7923C8.77384 30.7923 8.59399 30.7923 8.40869 30.7923C8.40869 33.413 8.40869 36.0337 8.40869 38.7338C8.58854 38.7338 8.76839 38.7338 8.9537 38.7338C8.9537 38.8109 8.9537 38.888 8.9537 38.9674C8.69676 38.9674 8.43983 38.9674 8.17511 38.9674C8.17511 36.0384 8.17511 33.1093 8.17511 30.0916Z" fill="#E04819"/>
<path d="M15.1824 30.0916C15.4394 30.0916 15.6963 30.0916 15.961 30.0916C15.961 30.3228 15.961 30.554 15.961 30.7923C15.7812 30.7923 15.6013 30.7923 15.416 30.7923C15.416 33.413 15.416 36.0337 15.416 38.7338C15.5959 38.7338 15.7757 38.7338 15.961 38.7338C15.961 38.7852 15.961 38.8366 15.961 38.8896C15.7041 38.8896 15.4472 38.8896 15.1824 38.8896C15.1824 35.9862 15.1824 33.0829 15.1824 30.0916Z" fill="#E14B19"/>
<path d="M26.5498 30.0916C26.8067 30.0916 27.0637 30.0916 27.3284 30.0916C27.3284 30.3228 27.3284 30.554 27.3284 30.7923C27.1485 30.7923 26.9687 30.7923 26.7834 30.7923C26.7834 33.413 26.7834 36.0337 26.7834 38.7338C26.9632 38.7338 27.1431 38.7338 27.3284 38.7338C27.3284 38.7852 27.3284 38.8366 27.3284 38.8896C27.0715 38.8896 26.8145 38.8896 26.5498 38.8896C26.5498 35.9862 26.5498 33.0829 26.5498 30.0916Z" fill="#DE4415"/>
<path d="M20.9439 30.0916C21.2008 30.0916 21.4578 30.0916 21.7225 30.0916C21.7225 30.3228 21.7225 30.554 21.7225 30.7923C21.5426 30.7923 21.3628 30.7923 21.1775 30.7923C21.1775 33.413 21.1775 36.0337 21.1775 38.7338C21.3573 38.7338 21.5372 38.7338 21.7225 38.7338C21.7225 38.7852 21.7225 38.8366 21.7225 38.8896C21.4656 38.8896 21.2086 38.8896 20.9439 38.8896C20.9439 35.9862 20.9439 33.0829 20.9439 30.0916Z" fill="#DD4014"/>
<path d="M13.7809 30.0916C14.0379 30.0916 14.2948 30.0916 14.5595 30.0916C14.5595 30.3228 14.5595 30.554 14.5595 30.7923C14.3797 30.7923 14.1998 30.7923 14.0145 30.7923C14.0145 33.413 14.0145 36.0337 14.0145 38.7338C14.1944 38.7338 14.3742 38.7338 14.5595 38.7338C14.5595 38.7852 14.5595 38.8366 14.5595 38.8896C14.3026 38.8896 14.0457 38.8896 13.7809 38.8896C13.7809 35.9862 13.7809 33.0829 13.7809 30.0916Z" fill="#DE4214"/>
<path d="M23.7469 30.0916C24.0038 30.0916 24.2608 30.0916 24.5255 30.0916C24.5255 30.3228 24.5255 30.554 24.5255 30.7923C24.3456 30.7923 24.1658 30.7923 23.9805 30.7923C23.9805 33.413 23.9805 36.0337 23.9805 38.7338C24.1346 38.7338 24.2888 38.7338 24.4476 38.7338C24.4476 38.7852 24.4476 38.8366 24.4476 38.8896C24.2164 38.8896 23.9851 38.8896 23.7469 38.8896C23.7469 35.9862 23.7469 33.0829 23.7469 30.0916Z" fill="#E04718"/>
<path d="M25.1483 30.0916C25.4052 30.0916 25.6622 30.0916 25.9269 30.0916C25.9269 30.3228 25.9269 30.554 25.9269 30.7923C25.747 30.7923 25.5672 30.7923 25.3819 30.7923C25.3819 33.413 25.3819 36.0337 25.3819 38.7338C25.5361 38.7338 25.6902 38.7338 25.849 38.7338C25.849 38.7852 25.849 38.8366 25.849 38.8896C25.6178 38.8896 25.3866 38.8896 25.1483 38.8896C25.1483 35.9862 25.1483 33.0829 25.1483 30.0916Z" fill="#DF4516"/>
<path d="M37.6057 37.488C37.8467 37.7612 37.9749 37.9935 38.0728 38.3445C37.9958 38.3445 37.9187 38.3445 37.8393 38.3445C37.8393 38.6271 37.8393 38.9097 37.8393 39.2009C38.0191 39.2009 38.199 39.2009 38.3843 39.2009C38.3843 38.9183 38.3843 38.6357 38.3843 38.3445C38.3072 38.3445 38.2301 38.3445 38.1507 38.3445C38.2544 38.0652 38.3711 37.8122 38.54 37.5659C38.5914 37.5659 38.6428 37.5659 38.6957 37.5659C38.9293 38.0038 38.9293 38.0038 38.9293 38.2666C38.8779 38.2666 38.8265 38.2666 38.7736 38.2666C38.7736 38.6006 38.7736 38.9346 38.7736 39.2788C38.8249 39.2788 38.8763 39.2788 38.9293 39.2788C38.9293 39.3302 38.9293 39.3816 38.9293 39.4345C38.3897 39.4345 37.8502 39.4345 37.2943 39.4345C37.2943 39.3831 37.2943 39.3317 37.2943 39.2788C37.3456 39.2788 37.397 39.2788 37.45 39.2788C37.45 38.9448 37.45 38.6108 37.45 38.2666C37.3986 38.2666 37.3472 38.2666 37.2943 38.2666C37.3383 37.9584 37.4351 37.7476 37.6057 37.488Z" fill="#62686D"/>
<path d="M44.3793 37.488C44.4307 37.488 44.4821 37.488 44.5351 37.488C44.7686 38.0038 44.7686 38.0038 44.7686 38.2666C44.7172 38.2666 44.6659 38.2666 44.6129 38.2666C44.6129 38.6006 44.6129 38.9346 44.6129 39.2788C44.8185 39.2788 45.024 39.2788 45.2358 39.2788C45.2358 38.9448 45.2358 38.6108 45.2358 38.2666C45.1844 38.2666 45.133 38.2666 45.0801 38.2666C45.1137 37.8967 45.1834 37.7278 45.4694 37.488C45.5346 37.6014 45.5994 37.7149 45.664 37.8287C45.7182 37.9235 45.7182 37.9235 45.7735 38.0203C45.8587 38.1888 45.8587 38.1888 45.8587 38.3445C45.7816 38.3445 45.7045 38.3445 45.6251 38.3445C45.6636 38.884 45.6636 38.884 45.7029 39.4345C45.1891 39.4345 44.6752 39.4345 44.1458 39.4345C44.1715 39.0748 44.1972 38.7151 44.2236 38.3445C44.1465 38.3445 44.0695 38.3445 43.9901 38.3445C44.085 38.0305 44.1893 37.7572 44.3793 37.488Z" fill="#556371"/>
<path d="M46.8708 33.9066C47.9757 33.9066 49.0805 33.9066 50.2188 33.9066C50.2188 35.885 50.2188 37.8634 50.2188 39.9017C50.1931 39.9017 50.1674 39.9017 50.1409 39.9017C50.1409 37.949 50.1409 35.9963 50.1409 33.9845C49.9611 33.9845 49.7812 33.9845 49.5959 33.9845C49.5959 34.447 49.5959 34.9094 49.5959 35.3859C49.339 35.3859 49.082 35.3859 48.8173 35.3859C48.8173 34.9234 48.8173 34.461 48.8173 33.9845C48.175 33.9845 47.5326 33.9845 46.8708 33.9845C46.8708 33.9588 46.8708 33.9331 46.8708 33.9066Z" fill="#BD4820"/>
<path d="M19.6204 30.1694C19.8516 30.1694 20.0828 30.1694 20.3211 30.1694C20.3211 30.375 20.3211 30.5805 20.3211 30.7923C20.1412 30.7923 19.9614 30.7923 19.7761 30.7923C19.7761 33.413 19.7761 36.0337 19.7761 38.7339C19.9559 38.7339 20.1358 38.7339 20.3211 38.7339C20.3211 38.7853 20.3211 38.8366 20.3211 38.8896C20.0898 38.8896 19.8586 38.8896 19.6204 38.8896C19.6204 36.0119 19.6204 33.1343 19.6204 30.1694Z" fill="#DE4115"/>
<path d="M6.85156 30.1694C7.0828 30.1694 7.31404 30.1694 7.55229 30.1694C7.55229 30.375 7.55229 30.5805 7.55229 30.7923C7.37244 30.7923 7.19258 30.7923 7.00728 30.7923C7.00728 33.413 7.00728 36.0337 7.00728 38.7339C7.18713 38.7339 7.36699 38.7339 7.55229 38.7339C7.55229 38.7853 7.55229 38.8366 7.55229 38.8896C7.32105 38.8896 7.08981 38.8896 6.85156 38.8896C6.85156 36.0119 6.85156 33.1343 6.85156 30.1694Z" fill="#DE4014"/>
<path d="M11.0559 30.1694C11.2615 30.1694 11.467 30.1694 11.6788 30.1694C11.6788 30.375 11.6788 30.5805 11.6788 30.7923C11.5246 30.7923 11.3705 30.7923 11.2116 30.7923C11.2116 33.413 11.2116 36.0337 11.2116 38.7339C11.3915 38.7339 11.5713 38.7339 11.7566 38.7339C11.7566 38.7853 11.7566 38.8366 11.7566 38.8896C11.5254 38.8896 11.2942 38.8896 11.0559 38.8896C11.0559 36.0119 11.0559 33.1343 11.0559 30.1694Z" fill="#DD4114"/>
<path d="M25.9269 21.9164C26.2095 21.9164 26.4921 21.9164 26.7833 21.9164C26.7833 22.4559 26.7833 22.9955 26.7833 23.5514C26.5007 23.5257 26.2181 23.5 25.9269 23.4736C25.9269 22.9597 25.9269 22.4458 25.9269 21.9164Z" fill="#DC4115"/>
<path d="M17.7518 21.9164C18.0344 21.9164 18.317 21.9164 18.6082 21.9164C18.6082 22.4302 18.6082 22.9441 18.6082 23.4736C18.3256 23.4992 18.043 23.5249 17.7518 23.5514C17.7518 23.0119 17.7518 22.4723 17.7518 21.9164Z" fill="#DB3E13"/>
<path d="M12.1459 21.9164C12.4286 21.9164 12.7112 21.9164 13.0024 21.9164C13.0024 22.4559 13.0024 22.9955 13.0024 23.5514C12.7198 23.5257 12.4371 23.5 12.1459 23.4736C12.1459 22.9597 12.1459 22.4458 12.1459 21.9164Z" fill="#DC3F14"/>
<path d="M20.321 21.9164C20.6037 21.9164 20.8863 21.9164 21.1775 21.9164C21.1775 22.4559 21.1775 22.9955 21.1775 23.5514C21.049 23.5257 20.9206 23.5 20.7882 23.4736C20.634 23.4736 20.4799 23.4736 20.321 23.4736C20.321 22.9597 20.321 22.4458 20.321 21.9164Z" fill="#DC4015"/>
<path d="M34.8806 32.8944C35.1375 32.8944 35.3945 32.8944 35.6592 32.8944C35.6592 33.4083 35.6592 33.9221 35.6592 34.4516C35.1142 34.5294 35.1142 34.5294 34.8806 34.4516C34.8806 33.9377 34.8806 33.4238 34.8806 32.8944Z" fill="#DD3F14"/>
<path d="M29.2748 32.8944C29.5318 32.8944 29.7887 32.8944 30.0534 32.8944C30.0534 33.4083 30.0534 33.9221 30.0534 34.4516C29.7965 34.4516 29.5396 34.4516 29.2748 34.4516C29.2748 33.9377 29.2748 33.4238 29.2748 32.8944Z" fill="#DC3F14"/>
<path d="M37.2164 32.1937C37.499 32.1937 37.7816 32.1937 38.0728 32.1937C38.0728 32.6562 38.0728 33.1187 38.0728 33.5952C37.7902 33.6209 37.5076 33.6466 37.2164 33.673C37.2164 33.1849 37.2164 32.6967 37.2164 32.1937Z" fill="#E04718"/>
<path d="M44.0679 33.9066C44.3249 33.9066 44.5818 33.9066 44.8465 33.9066C44.8465 34.3948 44.8465 34.883 44.8465 35.3859C44.5896 35.3859 44.3327 35.3859 44.0679 35.3859C44.0679 34.8978 44.0679 34.4096 44.0679 33.9066Z" fill="#DD4216"/>
<path d="M41.9658 32.1937C42.2227 32.1937 42.4796 32.1937 42.7443 32.1937C42.7443 32.6562 42.7443 33.1187 42.7443 33.5952C42.4874 33.5952 42.2305 33.5952 41.9658 33.5952C41.9658 33.1327 41.9658 32.6702 41.9658 32.1937Z" fill="#DD4013"/>
<path d="M15.2603 30.1694C15.4658 30.1694 15.6713 30.1694 15.8831 30.1694C15.8831 30.375 15.8831 30.5805 15.8831 30.7923C15.7033 30.7923 15.5234 30.7923 15.3381 30.7923C15.3381 33.413 15.3381 36.0337 15.3381 38.7339C15.3124 38.7339 15.2867 38.7339 15.2603 38.7339C15.2603 35.9076 15.2603 33.0813 15.2603 30.1694Z" fill="#DC3E13"/>
<path d="M35.7371 32.8944C35.994 32.8944 36.2509 32.8944 36.5156 32.8944C36.5156 33.2798 36.5156 33.6652 36.5156 34.0623C36.2587 34.0623 36.0018 34.0623 35.7371 34.0623C35.7371 33.6769 35.7371 33.2915 35.7371 32.8944Z" fill="#F49B45"/>
<path d="M28.4183 32.8944C28.6753 32.8944 28.9322 32.8944 29.1969 32.8944C29.1969 33.2798 29.1969 33.6652 29.1969 34.0623C28.94 34.0623 28.6831 34.0623 28.4183 34.0623C28.4183 33.6769 28.4183 33.2915 28.4183 32.8944Z" fill="#F59B45"/>
<path d="M26.7834 21.9164C27.0403 21.9164 27.2973 21.9164 27.562 21.9164C27.562 22.3018 27.562 22.6872 27.562 23.0843C27.305 23.0843 27.0481 23.0843 26.7834 23.0843C26.7834 22.6989 26.7834 22.3135 26.7834 21.9164Z" fill="#F59A44"/>
<path d="M19.5425 21.9164C19.7738 21.9164 20.005 21.9164 20.2433 21.9164C20.2433 22.3018 20.2433 22.6872 20.2433 23.0843C20.012 23.0843 19.7808 23.0843 19.5425 23.0843C19.5425 22.6989 19.5425 22.3135 19.5425 21.9164Z" fill="#FB9E45"/>
<path d="M18.686 21.9164C18.9173 21.9164 19.1485 21.9164 19.3868 21.9164C19.3868 22.3018 19.3868 22.6872 19.3868 23.0843C19.1555 23.0843 18.9243 23.0843 18.686 23.0843C18.686 22.6989 18.686 22.3135 18.686 21.9164Z" fill="#FB9F46"/>
<path d="M11.3674 21.9164C11.5986 21.9164 11.8299 21.9164 12.0681 21.9164C12.0681 22.3018 12.0681 22.6872 12.0681 23.0843C11.8369 23.0843 11.6056 23.0843 11.3674 23.0843C11.3674 22.6989 11.3674 22.3135 11.3674 21.9164Z" fill="#FA9E45"/>
<path d="M38.5399 37.5659C38.5913 37.5659 38.6427 37.5659 38.6957 37.5659C38.9292 38.0039 38.9292 38.0039 38.9292 38.2666C38.8779 38.2666 38.8265 38.2666 38.7735 38.2666C38.7992 38.6264 38.8249 38.9861 38.8514 39.3567C38.6972 39.3567 38.5431 39.3567 38.3842 39.3567C38.4099 38.997 38.4356 38.6373 38.4621 38.2666C38.385 38.2666 38.3079 38.2666 38.2285 38.2666C38.3109 38.0017 38.3849 37.7984 38.5399 37.5659Z" fill="#485F74"/>
<path d="M45.3916 37.488C45.6183 37.744 45.7417 37.924 45.7809 38.2666C45.7038 38.2666 45.6267 38.2666 45.5473 38.2666C45.5473 38.5749 45.5473 38.8833 45.5473 39.2009C45.4702 39.2009 45.3931 39.2009 45.3137 39.2009C45.3137 38.8926 45.3137 38.5843 45.3137 38.2666C45.2366 38.2666 45.1596 38.2666 45.0801 38.2666C45.1175 37.9381 45.1709 37.7374 45.3916 37.488Z" fill="#4E6172"/>
<path d="M45.7808 38.1888C45.8065 38.2402 45.8322 38.2916 45.8586 38.3446C45.7816 38.3446 45.7045 38.3446 45.6251 38.3446C45.6636 38.8841 45.6636 38.8841 45.7029 39.4346C45.1891 39.4346 44.6752 39.4346 44.1458 39.4346C44.1714 39.3832 44.1971 39.3318 44.2236 39.2789C44.5576 39.2789 44.8916 39.2789 45.2358 39.2789C45.2358 38.9448 45.2358 38.6108 45.2358 38.2667C45.2615 38.2667 45.2872 38.2667 45.3136 38.2667C45.3136 38.575 45.3136 38.8833 45.3136 39.201C45.3907 39.201 45.4678 39.201 45.5472 39.201C45.5472 38.8927 45.5472 38.5844 45.5472 38.2667C45.6243 38.241 45.7014 38.2153 45.7808 38.1888Z" fill="#65696D"/>
<path d="M1.16789 5.33255C1.1422 5.35824 1.1165 5.38393 1.09003 5.41041C1.32127 5.44895 1.32127 5.44895 1.55718 5.48826C1.55718 5.51396 1.55718 5.53965 1.55718 5.56612C1.19748 5.56612 0.83777 5.56612 0.467163 5.56612C0.467163 5.48904 0.467163 5.41196 0.467163 5.33255C0.730183 5.26679 0.908983 5.24625 1.16789 5.33255Z" fill="#B1C256"/>
</svg>
