<svg width="81" height="40" viewBox="0 0 81 40" fill="none" xmlns="http://www.w3.org/2000/svg">
<path d="M18.1367 0C32.6723 0 47.208 0 62.184 0C62.184 2.10948 62.184 4.21896 62.184 6.39236C61.9863 6.39236 61.7885 6.39236 61.5848 6.39236C61.5848 13.1163 61.5848 19.8403 61.5848 26.768C62.1781 26.323 62.1781 26.323 62.7833 25.8691C63.2361 25.7181 63.4604 25.6449 63.9043 25.6385C64.0467 25.6347 64.0467 25.6347 64.192 25.6309C64.3894 25.6274 64.5868 25.6242 64.7843 25.6215C65.4825 25.6092 65.4825 25.6092 66.0794 25.2698C66.1123 25.2039 66.1453 25.1379 66.1793 25.07C66.4806 25.2054 66.693 25.3577 66.9283 25.5887C66.9946 25.6534 67.0609 25.7181 67.1292 25.7847C67.2347 25.8894 67.2347 25.8894 67.3423 25.9963C67.4152 26.0682 67.488 26.1401 67.563 26.2142C67.7165 26.3663 67.8697 26.5186 68.0226 26.6711C68.2577 26.905 68.4945 27.1369 68.7315 27.3688C68.8803 27.5167 69.029 27.6647 69.1776 27.8128C69.249 27.8823 69.3204 27.9517 69.3939 28.0232C69.4586 28.0885 69.5233 28.1538 69.59 28.2211C69.6475 28.2782 69.7051 28.3352 69.7644 28.394C69.8748 28.5658 69.8749 28.5658 69.8557 28.7733C69.7353 29.0597 69.5345 29.2184 69.3068 29.4273C68.8209 29.9001 68.488 30.3639 68.1769 30.963C68.1256 31.0601 68.0744 31.1571 68.0216 31.2572C67.7462 31.7929 67.5021 32.332 67.2858 32.8939C67.0712 33.4247 66.8224 33.9408 66.5788 34.4588C66.5129 34.4588 66.4469 34.4588 66.379 34.4588C66.3543 34.5288 66.3296 34.5989 66.3041 34.6711C65.4812 36.5639 63.6736 37.6353 61.9843 38.6538C61.8551 38.7336 61.8551 38.7336 61.7233 38.8149C59.965 39.8365 57.829 39.9887 55.8442 39.9838C55.5819 39.9835 55.3197 39.9858 55.0574 39.9883C53.7826 39.993 52.4175 39.9595 51.1972 39.5527C51.0973 39.353 51.0973 39.353 51.0973 38.5539C44.0108 38.5869 36.9242 38.6198 29.623 38.6538C29.623 38.8845 29.623 39.1152 29.623 39.353C29.5231 39.5527 29.5231 39.5527 29.3544 39.6114C28.0575 39.8843 26.8135 40.0138 25.4885 39.9988C25.2085 39.9959 24.9287 39.9968 24.6486 39.9981C22.2988 39.9954 20.1686 39.5576 18.1367 38.3541C18.0475 38.3024 18.0475 38.3024 17.9565 38.2496C16.3645 37.318 15.2131 36.1117 14.2226 34.5649C14.181 34.5006 14.1394 34.4362 14.0965 34.3699C13.8254 33.9358 13.6272 33.4975 13.444 33.02C12.8061 31.3913 12.0369 29.9642 10.7455 28.7656C10.883 28.4568 11.0404 28.2466 11.2797 28.009C11.3477 27.941 11.4157 27.8731 11.4857 27.8031C11.559 27.7308 11.6322 27.6586 11.7077 27.5842C11.7828 27.5094 11.8579 27.4346 11.9352 27.3575C12.1749 27.1189 12.4153 26.881 12.6558 26.6431C12.8185 26.4814 12.9812 26.3196 13.1438 26.1578C13.5425 25.7614 13.9416 25.3655 14.3412 24.9701C14.3861 25.0125 14.431 25.0549 14.4773 25.0985C14.9301 25.5233 14.9301 25.5233 15.5211 25.6463C15.6058 25.6484 15.6905 25.6505 15.7778 25.6527C15.8641 25.652 15.9503 25.6513 16.0392 25.6506C17.1558 25.6664 17.6339 25.7003 18.6361 26.3685C18.6361 19.7764 18.6361 13.1842 18.6361 6.39236C18.4713 6.39236 18.3065 6.39236 18.1367 6.39236C18.1367 4.28288 18.1367 2.1734 18.1367 0Z" fill="#EC7425"/>
<path d="M18.1367 0C19.5211 0 20.9054 0 22.3317 0C22.3317 2.10948 22.3317 4.21896 22.3317 6.39236C21.1451 6.39236 19.9585 6.39236 18.736 6.39236C19.4218 7.27416 20.113 8.14371 20.8526 8.98067C21.5019 9.72951 22.1136 10.5116 22.7312 11.2865C22.5664 11.6491 22.4016 12.0116 22.2318 12.3852C22.4296 12.3852 22.6273 12.3852 22.8311 12.3852C22.8311 13.2751 22.8311 14.1651 22.8311 15.082C22.7322 15.082 22.6333 15.082 22.5315 15.082C22.5315 15.2138 22.5315 15.3457 22.5315 15.4815C24.0147 15.4815 25.4979 15.4815 27.0261 15.4815C27.0261 15.5145 27.0261 15.5474 27.0261 15.5814C26.8283 15.6143 26.6306 15.6473 26.4268 15.6813C26.511 15.7787 26.5952 15.8762 26.682 15.9766C26.7925 16.105 26.9031 16.2333 27.0136 16.3617C27.0691 16.4259 27.1246 16.4901 27.1818 16.5562C27.2352 16.6183 27.2886 16.6804 27.3437 16.7444C27.3928 16.8014 27.442 16.8585 27.4927 16.9172C27.6254 17.0796 27.6254 17.0796 27.8251 17.3792C28.0095 17.4252 28.0095 17.4252 28.2245 17.419C28.308 17.4203 28.3915 17.4216 28.4775 17.4228C28.5692 17.4227 28.661 17.4226 28.7555 17.4224C28.852 17.4234 28.9485 17.4244 29.0479 17.4255C29.3678 17.4285 29.6877 17.4294 30.0077 17.4303C30.2291 17.432 30.4505 17.4338 30.6719 17.4358C31.2555 17.4405 31.839 17.4435 32.4226 17.4461C33.1224 17.4496 33.8221 17.4553 34.5219 17.4606C35.5857 17.4685 36.6495 17.4735 37.7133 17.4791C37.7133 20.1489 37.7133 22.8187 37.7133 25.5694C36.2795 25.6189 36.2795 25.6189 34.8168 25.6693C35.4737 26.4913 35.4737 26.4913 36.1464 27.2986C36.2405 27.4093 36.3345 27.52 36.4285 27.6306C36.5238 27.7426 36.6192 27.8546 36.7145 27.9666C37.31 28.6668 37.9008 29.3699 38.4811 30.0828C38.7845 30.4517 39.0936 30.8155 39.4029 31.1793C39.6905 31.5183 39.9738 31.8602 40.254 32.2052C40.5991 32.6294 40.9521 33.0458 41.309 33.46C41.7403 33.9606 42.1629 34.467 42.5794 34.9801C42.837 35.2942 43.0995 35.6039 43.3628 35.9133C43.7575 36.3773 44.1417 36.8479 44.5192 37.3261C44.762 37.6255 45.0186 37.9111 45.2793 38.195C45.4041 38.3541 45.4041 38.3541 45.4041 38.5539C40.1963 38.5869 34.9886 38.6198 29.623 38.6538C29.623 38.8845 29.623 39.1152 29.623 39.353C29.5231 39.5527 29.5231 39.5527 29.3544 39.6114C28.0575 39.8843 26.8135 40.0138 25.4885 39.9988C25.2085 39.9959 24.9287 39.9968 24.6486 39.9981C22.2988 39.9954 20.1686 39.5576 18.1367 38.3541C18.0475 38.3024 18.0475 38.3024 17.9565 38.2496C16.3645 37.318 15.2131 36.1117 14.2226 34.5649C14.181 34.5006 14.1394 34.4362 14.0965 34.3699C13.8254 33.9358 13.6272 33.4975 13.444 33.02C12.8061 31.3913 12.0369 29.9642 10.7455 28.7656C10.883 28.4568 11.0404 28.2466 11.2797 28.009C11.3477 27.941 11.4157 27.8731 11.4857 27.8031C11.559 27.7308 11.6322 27.6586 11.7077 27.5842C11.7828 27.5094 11.8579 27.4346 11.9352 27.3575C12.1749 27.1189 12.4153 26.881 12.6558 26.6431C12.8185 26.4814 12.9812 26.3196 13.1438 26.1578C13.5425 25.7614 13.9416 25.3655 14.3412 24.9701C14.3861 25.0125 14.431 25.0549 14.4773 25.0985C14.9301 25.5233 14.9301 25.5233 15.5211 25.6463C15.6058 25.6484 15.6905 25.6505 15.7778 25.6527C15.8641 25.652 15.9503 25.6513 16.0392 25.6506C17.1558 25.6664 17.6339 25.7003 18.6361 26.3685C18.6361 19.7764 18.6361 13.1842 18.6361 6.39236C18.4713 6.39236 18.3065 6.39236 18.1367 6.39236C18.1367 4.28288 18.1367 2.1734 18.1367 0Z" fill="#FEA047"/>
<path d="M27.126 0C35.7287 0 44.3314 0 53.1948 0C53.1948 2.10948 53.1948 4.21896 53.1948 6.39236C44.5921 6.39236 35.9894 6.39236 27.126 6.39236C27.126 4.28288 27.126 2.1734 27.126 0Z" fill="#FEA046"/>
<path d="M18.1367 0C19.5211 0 20.9054 0 22.3317 0C22.3317 2.10948 22.3317 4.21896 22.3317 6.39236C21.1451 6.39236 19.9585 6.39236 18.736 6.39236C18.7213 9.004 18.7129 11.6156 18.713 14.2273C18.7128 15.44 18.7104 16.6526 18.7028 17.8653C18.6961 18.9225 18.6937 19.9796 18.6962 21.0369C18.6974 21.5965 18.6966 22.156 18.6907 22.7156C18.6851 23.2429 18.6853 23.7699 18.6897 24.2972C18.6903 24.4902 18.6889 24.6832 18.6853 24.8762C18.6388 25.9664 18.6388 25.9664 19.0913 26.9166C19.3795 27.2037 19.7007 27.4347 20.0344 27.6669C20.3871 27.9467 20.7115 28.233 21.002 28.5783C21.1641 28.7699 21.3212 28.9543 21.5034 29.1269C21.6325 29.265 21.6325 29.265 21.6325 29.4648C21.6985 29.4648 21.7644 29.4648 21.8323 29.4648C21.9918 29.6572 22.1406 29.8502 22.288 30.0516C23.33 31.4377 24.4915 32.5012 25.9274 33.46C25.7701 33.8977 25.6165 34.0938 25.2282 34.3589C24.7009 34.5347 24.1222 34.5799 23.6001 34.3636C23.0738 34.0287 22.6197 33.5908 22.1743 33.1563C21.7312 32.7313 21.2949 32.3884 20.6712 32.3239C20.3488 32.3597 20.1174 32.4031 19.8347 32.5611C19.7089 32.9383 19.6612 33.2697 19.7348 33.6598C19.9947 34.1499 20.3272 34.5229 20.8335 34.7584C20.8993 34.791 20.9651 34.8236 21.0329 34.8572C22.0565 35.345 23.0522 35.3926 24.167 35.4139C27.1677 35.4795 27.1677 35.4795 27.8938 36.1014C28.1479 36.4024 28.1359 36.6991 28.131 37.0744C28.1301 37.1644 28.1292 37.2544 28.1283 37.3471C28.1265 37.4501 28.1265 37.4501 28.1248 37.5551C26.2135 37.8785 24.2432 37.868 22.3317 37.5551C22.0987 37.5215 21.8656 37.4881 21.6325 37.4552C21.6325 37.5211 21.6325 37.5871 21.6325 37.655C22.6824 37.8484 23.7265 37.8751 24.7913 37.8735C24.8951 37.8734 24.8951 37.8734 25.0011 37.8733C25.7009 37.8716 26.3988 37.861 27.0975 37.8177C27.1972 37.8115 27.297 37.8054 27.3998 37.7991C27.5813 37.7867 27.7627 37.7723 27.9438 37.7553C28.5316 37.7128 28.842 37.8078 29.3233 38.1544C29.3563 38.2203 29.3893 38.2862 29.4232 38.3541C34.6969 38.3871 39.9706 38.4201 45.4041 38.454C45.4041 38.487 45.4041 38.5199 45.4041 38.5539C40.1963 38.5869 34.9886 38.6198 29.623 38.6538C29.623 38.8845 29.623 39.1152 29.623 39.353C29.5231 39.5527 29.5231 39.5527 29.3544 39.6114C28.0575 39.8843 26.8135 40.0138 25.4885 39.9988C25.2085 39.9959 24.9287 39.9968 24.6486 39.9981C22.2988 39.9954 20.1686 39.5576 18.1367 38.3541C18.0475 38.3024 18.0475 38.3024 17.9565 38.2496C16.3645 37.318 15.2131 36.1117 14.2226 34.5649C14.181 34.5006 14.1394 34.4362 14.0965 34.3699C13.8254 33.9358 13.6272 33.4975 13.444 33.02C12.8061 31.3913 12.0369 29.9642 10.7455 28.7656C10.883 28.4568 11.0404 28.2466 11.2797 28.009C11.3477 27.941 11.4157 27.8731 11.4857 27.8031C11.559 27.7308 11.6322 27.6586 11.7077 27.5842C11.7828 27.5094 11.8579 27.4346 11.9352 27.3575C12.1749 27.1189 12.4153 26.881 12.6558 26.6431C12.8185 26.4814 12.9812 26.3196 13.1438 26.1578C13.5425 25.7614 13.9416 25.3655 14.3412 24.9701C14.3861 25.0125 14.431 25.0549 14.4773 25.0985C14.9301 25.5233 14.9301 25.5233 15.5211 25.6463C15.6058 25.6484 15.6905 25.6505 15.7778 25.6527C15.8641 25.652 15.9503 25.6513 16.0392 25.6506C17.1558 25.6664 17.6339 25.7003 18.6361 26.3685C18.6361 19.7764 18.6361 13.1842 18.6361 6.39236C18.4713 6.39236 18.3065 6.39236 18.1367 6.39236C18.1367 4.28288 18.1367 2.1734 18.1367 0Z" fill="#FDC95D"/>
<path d="M20.434 17.579C26.1361 17.579 31.8383 17.579 37.7133 17.579C37.7133 20.2158 37.7133 22.8527 37.7133 25.5694C32.0111 25.5694 26.3089 25.5694 20.434 25.5694C20.434 22.9326 20.434 20.2957 20.434 17.579Z" fill="#DAE5EB"/>
<path d="M66.1793 25.0701C66.4806 25.2055 66.693 25.3578 66.9283 25.5887C66.9946 25.6534 67.0609 25.7181 67.1292 25.7848C67.1995 25.8546 67.2699 25.9244 67.3423 25.9963C67.4152 26.0682 67.488 26.1402 67.563 26.2143C67.7165 26.3663 67.8697 26.5186 68.0227 26.6712C68.2577 26.905 68.4946 27.137 68.7315 27.3689C68.8803 27.5168 69.0291 27.6648 69.1777 27.8129C69.249 27.8823 69.3204 27.9517 69.3939 28.0232C69.4586 28.0885 69.5233 28.1538 69.59 28.2211C69.6763 28.3067 69.6763 28.3067 69.7644 28.3941C69.8749 28.5659 69.8749 28.5659 69.8557 28.7733C69.7354 29.0598 69.5345 29.2184 69.3068 29.4274C68.8209 29.9001 68.488 30.3639 68.1769 30.963C68.1257 31.0601 68.0744 31.1572 68.0216 31.2572C67.7462 31.793 67.5021 32.332 67.2858 32.8939C67.0713 33.4248 66.8224 33.9408 66.5788 34.4588C66.5129 34.4588 66.447 34.4588 66.379 34.4588C66.342 34.5639 66.342 34.5639 66.3041 34.6711C65.4812 36.5639 63.6736 37.6354 61.9843 38.6538C61.8982 38.707 61.812 38.7602 61.7233 38.815C59.965 39.8366 57.8291 39.9888 55.8442 39.9838C55.5819 39.9835 55.3197 39.9858 55.0574 39.9884C53.7826 39.993 52.4175 39.9595 51.1972 39.5528C51.0343 39.2269 51.0285 38.9047 51.0973 38.5539C51.3033 38.2218 51.5438 37.9312 51.8964 37.7549C52.1251 37.7452 52.3541 37.7419 52.583 37.7424C52.7064 37.7422 52.8297 37.7419 52.9568 37.7416C53.2947 37.7549 53.2947 37.7549 53.4661 37.8044C53.8038 37.879 54.1412 37.8731 54.4855 37.8751C54.602 37.8759 54.602 37.8759 54.7208 37.8768C54.8857 37.8777 55.0506 37.8784 55.2155 37.8788C55.4621 37.8797 55.7086 37.8828 55.9552 37.886C56.9999 37.8928 57.9696 37.7887 58.9879 37.5551C58.8089 37.5697 58.63 37.5843 58.451 37.5988C58.3514 37.607 58.2517 37.6151 58.149 37.6234C57.957 37.6403 57.7649 37.6579 57.5734 37.6802C56.8542 37.7618 56.1405 37.7741 55.4172 37.7736C55.2938 37.7736 55.1705 37.7736 55.0435 37.7736C52.7999 37.7595 52.7999 37.7595 52.4956 37.4553C52.4162 37.043 52.4151 36.6936 52.6306 36.3261C53.0557 35.8149 53.426 35.5917 54.1027 35.5289C54.2107 35.527 54.3187 35.5251 54.43 35.5232C54.5507 35.5204 54.6713 35.5176 54.7956 35.5147C54.9224 35.5123 55.0493 35.51 55.1799 35.5076C57.9228 35.4955 57.9228 35.4955 60.3862 34.4588C60.7105 34.0794 60.9502 33.727 61.0542 33.2353C60.9608 32.8617 60.7779 32.7044 60.4861 32.4612C60.1755 32.3059 59.9305 32.3327 59.5872 32.3614C59.0687 32.6263 58.6693 33.0439 58.2419 33.4347C57.509 34.0873 56.965 34.5105 55.9606 34.4904C55.4452 34.4299 55.1826 34.1636 54.8553 33.7846C54.8018 33.7105 54.7482 33.6363 54.693 33.5599C54.9489 33.3523 55.2065 33.1501 55.4726 32.9556C56.1211 32.4778 56.7129 31.969 57.2837 31.4C57.345 31.3392 57.4063 31.2784 57.4695 31.2157C57.8296 30.8501 58.1456 30.4695 58.448 30.0552C59.4485 28.6946 60.6543 27.5033 61.9843 26.4684C62.0586 26.4085 62.1329 26.3487 62.2094 26.287C62.3112 26.2068 62.3112 26.2068 62.415 26.1251C62.4723 26.0799 62.5296 26.0347 62.5887 25.9881C63.2665 25.5738 64.017 25.6322 64.7843 25.6216C65.4825 25.6092 65.4825 25.6092 66.0794 25.2698C66.1124 25.2039 66.1453 25.138 66.1793 25.0701Z" fill="#FDC95C"/>
<path d="M6.75032 14.6825C7.04096 14.8141 7.24916 14.9562 7.47537 15.1804C7.53741 15.2414 7.59945 15.3025 7.66338 15.3654C7.73028 15.4322 7.79718 15.4991 7.8661 15.5679C7.9731 15.6737 7.9731 15.6737 8.08227 15.7816C8.31784 16.0147 8.55264 16.2486 8.78734 16.4827C8.95047 16.6449 9.11361 16.8072 9.27676 16.9694C9.61843 17.3094 9.95965 17.6499 10.3006 17.9906C10.7386 18.4279 11.1781 18.8637 11.618 19.2991C11.9553 19.6334 12.2915 19.9689 12.6274 20.3047C12.7891 20.4659 12.9511 20.6267 13.1136 20.7871C13.3401 21.0109 13.565 21.2362 13.7895 21.462C13.8574 21.5285 13.9253 21.5949 13.9953 21.6633C14.0559 21.7249 14.1165 21.7866 14.179 21.85C14.2324 21.9032 14.2857 21.9563 14.3407 22.0111C14.4411 22.1735 14.4411 22.1735 14.4233 22.3753C14.2821 22.7156 14.0067 22.9508 13.7494 23.2068C13.6877 23.2694 13.626 23.3319 13.5624 23.3964C13.3581 23.603 13.1527 23.8085 12.9472 24.0139C12.805 24.1569 12.6627 24.2999 12.5206 24.4429C12.2224 24.7424 11.9237 25.0413 11.6245 25.3398C11.2406 25.7231 10.8585 26.1083 10.4769 26.4939C10.1838 26.7896 9.88953 27.0842 9.59494 27.3784C9.45353 27.52 9.31252 27.662 9.17192 27.8044C8.97559 28.0029 8.77776 28.1998 8.57946 28.3963C8.52128 28.4558 8.4631 28.5153 8.40316 28.5766C8.23894 28.7374 8.23894 28.7374 7.94889 28.9654C7.61712 28.9362 7.45079 28.8042 7.22072 28.5729C7.15799 28.5106 7.09525 28.4483 7.0306 28.3841C6.92909 28.2809 6.92909 28.2809 6.82552 28.1757C6.75338 28.1036 6.68123 28.0315 6.60689 27.9572C6.36839 27.7185 6.13096 27.4787 5.89353 27.239C5.72846 27.0733 5.56332 26.9078 5.39811 26.7423C4.9633 26.3063 4.5294 25.8695 4.09567 25.4324C3.653 24.9867 3.20948 24.5418 2.76602 24.0968C1.89591 23.2235 1.02676 22.3492 0.158203 21.4744C0.351414 21.0527 0.641021 20.7651 0.967441 20.4427C1.02982 20.3803 1.0922 20.3179 1.15646 20.2536C1.36244 20.0478 1.56911 19.8426 1.7758 19.6375C1.91888 19.4948 2.06191 19.3521 2.2049 19.2093C2.58114 18.8338 2.95797 18.4589 3.33493 18.0842C3.71958 17.7016 4.10366 17.3184 4.48779 16.9353C5.24142 16.1838 5.99567 15.4329 6.75032 14.6825Z" fill="#9EB135"/>
<path d="M73.7702 14.6825C74.2294 15.0664 74.6655 15.464 75.0866 15.8892C75.1438 15.9466 75.2011 16.004 75.2601 16.0631C75.383 16.1865 75.5059 16.3099 75.6286 16.4334C75.8227 16.6289 76.0172 16.8239 76.2117 17.019C76.6238 17.4322 77.0355 17.8458 77.4471 18.2595C77.926 18.7407 78.4051 19.2218 78.8845 19.7025C79.0763 19.8949 79.2677 20.0876 79.4592 20.2803C79.5761 20.3975 79.6929 20.5148 79.8098 20.632C79.8631 20.6858 79.9164 20.7396 79.9713 20.795C80.2407 21.0691 80.2407 21.0691 80.5621 21.2746C80.4103 21.661 80.1828 21.8178 79.863 22.0737C79.6765 22.2826 79.4966 22.4957 79.3187 22.712C79.2676 22.765 79.2165 22.8181 79.1638 22.8727C79.0979 22.8727 79.032 22.8727 78.964 22.8727C78.9387 22.9319 78.9133 22.9912 78.8872 23.0522C78.7507 23.2966 78.6127 23.4214 78.396 23.5968C78.0407 23.8968 77.7376 24.2151 77.4397 24.5715C77.2264 24.8159 76.9974 25.0421 76.7667 25.2698C76.6251 25.4113 76.4836 25.5528 76.3422 25.6943C75.2185 26.818 74.0949 27.9416 72.9712 29.0653C72.6139 28.917 72.42 28.7192 72.1699 28.4271C71.6401 27.824 71.078 27.2575 70.5101 26.6908C70.4006 26.5812 70.2911 26.4716 70.1816 26.362C69.9541 26.1344 69.7265 25.907 69.4987 25.6797C69.2076 25.3892 68.9171 25.0982 68.6266 24.8072C68.4014 24.5816 68.176 24.3564 67.9505 24.1311C67.8432 24.0239 67.736 23.9166 67.6289 23.8093C67.4794 23.6595 67.3295 23.51 67.1796 23.3606C67.0947 23.2758 67.0098 23.191 66.9223 23.1036C66.6845 22.8782 66.4382 22.6738 66.1793 22.4732C66.3119 22.1793 66.4558 21.9722 66.6837 21.745C66.7462 21.6823 66.8086 21.6195 66.873 21.5549C66.9414 21.4872 67.0098 21.4195 67.0802 21.3498C67.1524 21.2777 67.2245 21.2055 67.2988 21.1312C67.5372 20.8929 67.7763 20.6554 68.0154 20.4178C68.1809 20.2527 68.3463 20.0876 68.5117 19.9224C68.947 19.4878 69.383 19.0538 69.8191 18.62C70.264 18.1771 70.7083 17.7337 71.1527 17.2903C72.0246 16.4205 72.8972 15.5513 73.7702 14.6825Z" fill="#9EB134"/>
<path d="M22.3317 0C23.8808 0 25.43 0 27.0261 0C27.0261 2.90053 27.0261 5.80106 27.0261 8.78949C26.5266 8.68961 26.5266 8.68961 26.1896 8.47736C25.9088 8.31086 25.8235 8.29009 25.4779 8.29009C25.1868 8.37326 25.0159 8.44767 24.7663 8.60221C24.4292 8.78949 24.4292 8.78949 24.1919 8.77076C24.1054 8.74398 24.0189 8.7172 23.9298 8.68961C23.7848 8.66079 23.639 8.63619 23.4928 8.6147C23.3866 8.59693 23.3866 8.59693 23.2782 8.57881C22.9421 8.57907 22.9421 8.57907 22.3317 8.88937C22.3317 5.95588 22.3317 3.02239 22.3317 0Z" fill="#DD3E13"/>
<path d="M53.1948 0C54.744 0 56.2931 0 57.8892 0C57.8892 2.90053 57.8892 5.80106 57.8892 8.78949C57.4556 8.70277 57.29 8.6459 56.9403 8.42118C56.6063 8.21832 56.6063 8.21832 56.2287 8.23391C56.1504 8.28541 56.0721 8.33691 55.9915 8.38997C55.361 8.79464 55.361 8.79464 55.0426 8.77077C54.9602 8.74398 54.8778 8.7172 54.7929 8.68961C54.1462 8.5528 53.9117 8.63019 53.1948 8.78949C53.1948 5.88896 53.1948 2.98843 53.1948 0Z" fill="#DD3E14"/>
<path d="M18.1367 0C19.5211 0 20.9054 0 22.3317 0C22.3317 2.10948 22.3317 4.21896 22.3317 6.39236C21.4325 6.42017 21.4325 6.42017 20.5151 6.44854C20.3267 6.45466 20.1383 6.46079 19.9443 6.4671C19.7939 6.47149 19.6436 6.47584 19.4933 6.48014C19.4161 6.48281 19.3388 6.48548 19.2592 6.48823C18.8583 6.49914 18.5348 6.47198 18.1367 6.39236C18.1367 4.28288 18.1367 2.1734 18.1367 0Z" fill="#FEA146"/>
<path d="M57.9891 0C59.3734 0 60.7578 0 62.1841 0C62.1841 2.10948 62.1841 4.21896 62.1841 6.39236C60.7997 6.39236 59.4154 6.39236 57.9891 6.39236C57.9891 4.28288 57.9891 2.1734 57.9891 0Z" fill="#FEA147"/>
<path d="M78.964 19.9761C79.364 20.1761 79.5686 20.3632 79.8754 20.6815C80.1866 21.0213 80.1866 21.0213 80.5621 21.2745C80.4103 21.6609 80.1827 21.8177 79.8629 22.0736C79.6765 22.2825 79.4966 22.4956 79.3187 22.7119C79.2675 22.7649 79.2164 22.818 79.1638 22.8726C79.0978 22.8726 79.0319 22.8726 78.964 22.8726C78.9386 22.9318 78.9133 22.9911 78.8871 23.0521C78.7506 23.2965 78.6127 23.4213 78.3959 23.5967C78.0406 23.8967 77.7376 24.215 77.4397 24.5714C77.2264 24.8158 76.9973 25.042 76.7666 25.2697C76.6251 25.4112 76.4836 25.5527 76.3421 25.6942C75.2185 26.8179 74.0948 27.9416 72.9712 29.0652C72.5985 28.8926 72.3836 28.6872 72.1097 28.3785C72.0322 28.2923 71.9547 28.206 71.8748 28.1171C71.6727 27.8666 71.6727 27.8666 71.473 27.4671C73.945 24.9951 76.4171 22.523 78.964 19.9761Z" fill="#87982F"/>
<path d="M1.55653 20.076C2.1293 20.3431 2.55973 20.7519 2.96461 21.2321C3.40714 21.7433 3.88551 22.2161 4.36567 22.6917C4.45361 22.7792 4.54155 22.8666 4.63215 22.9568C4.80006 23.1238 4.96809 23.2907 5.13628 23.4574C5.30476 23.6248 5.47225 23.7931 5.63915 23.962C5.83233 24.1524 6.0305 24.3282 6.23843 24.502C6.58407 24.8008 6.88317 25.1202 7.17598 25.4704C7.49079 25.8312 7.83783 26.1587 8.18532 26.4875C8.30213 26.5997 8.41891 26.712 8.53569 26.8242C8.5962 26.8806 8.65671 26.9369 8.71906 26.9949C8.89073 27.1617 8.89073 27.1617 9.14746 27.4672C9.10586 27.9044 8.81436 28.1514 8.51696 28.4473C8.44405 28.5244 8.44405 28.5244 8.36967 28.6032C8.22473 28.7489 8.22473 28.7489 7.94889 28.9654C7.6172 28.9348 7.45095 28.8043 7.22072 28.5729C7.15798 28.5106 7.09524 28.4483 7.0306 28.3841C6.96293 28.3153 6.89525 28.2466 6.82552 28.1757C6.75338 28.1036 6.68123 28.0315 6.60689 27.9572C6.36839 27.7185 6.13096 27.4787 5.89353 27.239C5.72846 27.0733 5.56332 26.9078 5.39811 26.7423C4.9633 26.3063 4.52939 25.8695 4.09567 25.4324C3.653 24.9867 3.20947 24.5418 2.76602 24.0968C1.89591 23.2235 1.02676 22.3492 0.158203 21.4744C0.413695 20.9353 0.748591 20.6755 1.25689 20.3757C1.43183 20.2176 1.43183 20.2176 1.55653 20.076Z" fill="#86972E"/>
<path d="M66.3791 22.6729C66.8 22.9254 67.1079 23.1734 67.447 23.5152C67.5015 23.5693 67.556 23.6234 67.6121 23.6792C67.791 23.8572 67.9692 24.036 68.1473 24.2148C68.2717 24.339 68.3962 24.4633 68.5206 24.5875C68.7809 24.8475 69.0408 25.1078 69.3004 25.3684C69.6335 25.7026 69.9674 26.0359 70.3016 26.3689C70.5585 26.6251 70.815 26.8817 71.0712 27.1385C71.1942 27.2616 71.3174 27.3846 71.4406 27.5074C71.6126 27.6788 71.7838 27.8509 71.9549 28.0231C72.0061 28.0738 72.0573 28.1246 72.11 28.1769C72.3371 28.4068 72.4678 28.5539 72.5717 28.8654C72.5186 28.9113 72.4656 28.9571 72.4109 29.0043C72.054 29.3144 71.7009 29.6227 71.3731 29.9641C70.988 29.8058 70.7407 29.5581 70.4492 29.265C70.3156 29.1321 70.3156 29.1321 70.1792 28.9965C69.9748 28.7656 69.9748 28.7656 69.9748 28.5658C69.9157 28.5392 69.8566 28.5126 69.7957 28.4852C69.5704 28.3634 69.4242 28.2391 69.2444 28.0579C69.1821 27.9955 69.1197 27.9332 69.0555 27.8689C68.9892 27.8016 68.9229 27.7343 68.8546 27.6649C68.7854 27.5955 68.7163 27.526 68.645 27.4544C68.424 27.2323 68.2037 27.0095 67.9834 26.7867C67.8355 26.6378 67.6876 26.4889 67.5396 26.3401C67.2076 26.0061 66.8757 25.6719 66.545 25.3364C66.4387 25.2297 66.3313 25.1241 66.2226 25.0199C66.1049 24.9069 65.9917 24.7891 65.8797 24.6705C65.8797 24.6045 65.8797 24.5386 65.8797 24.4707C65.8179 24.448 65.7561 24.4254 65.6924 24.402C65.4802 24.2709 65.4802 24.2709 65.2804 23.7715C65.643 23.409 66.0055 23.0464 66.3791 22.6729Z" fill="#E0EDF4"/>
<path d="M14.2414 22.573C14.7951 23.1268 14.7951 23.1268 15.0092 23.397C15.2106 23.6734 15.2106 23.6734 15.4399 23.7716C15.2897 24.1236 15.0865 24.3485 14.8157 24.6167C14.6842 24.7477 14.6842 24.7477 14.5501 24.8813C14.4543 24.9757 14.3586 25.07 14.2628 25.1644C14.1648 25.2619 14.0668 25.3593 13.9688 25.4569C13.7113 25.713 13.4533 25.9687 13.195 26.2241C12.7813 26.6336 12.3682 27.0437 11.9554 27.4542C11.8111 27.5975 11.6664 27.7405 11.5217 27.8834C11.4343 27.9701 11.347 28.0568 11.257 28.1461C11.1798 28.2225 11.1025 28.2989 11.0229 28.3777C10.8392 28.5543 10.8392 28.5543 10.7455 28.7656C10.6796 28.7656 10.6137 28.7656 10.5458 28.7656C10.5458 28.8315 10.5458 28.8974 10.5458 28.9654C10.385 29.1273 10.385 29.1273 10.1712 29.3087C10.1017 29.3683 10.0322 29.4279 9.96054 29.4893C9.76005 29.6536 9.55589 29.8105 9.34721 29.9642C9.27859 29.8944 9.20996 29.8246 9.13926 29.7527C9.04926 29.6618 8.95926 29.5709 8.86654 29.4772C8.77731 29.3869 8.68809 29.2965 8.59616 29.2034C8.35277 28.9555 8.35277 28.9555 8.04877 28.7656C10.0923 26.722 12.1359 24.6785 14.2414 22.573Z" fill="#E0EDF4"/>
<path d="M23.3305 10.1879C23.7224 10.5072 23.8932 10.8926 24.1057 11.3388C24.2121 11.5515 24.3247 11.7412 24.4604 11.9358C24.6289 12.1855 24.6289 12.1855 24.6289 12.3852C24.3982 12.3852 24.1675 12.3852 23.9298 12.3852C23.9298 13.2752 23.9298 14.1651 23.9298 15.082C24.4901 15.082 25.0504 15.082 25.6278 15.082C25.6278 14.1921 25.6278 13.3021 25.6278 12.3852C25.397 12.3852 25.1663 12.3852 24.9286 12.3852C24.9929 12.0736 25.1006 11.83 25.2567 11.5534C25.3238 11.4337 25.3238 11.4337 25.3923 11.3115C25.4625 11.1879 25.4625 11.1879 25.5341 11.0618C25.5813 10.9779 25.6285 10.8939 25.6771 10.8074C25.7934 10.6007 25.9101 10.3942 26.0273 10.1879C26.4247 10.5361 26.6504 10.9421 26.9012 11.3989C26.9423 11.4717 26.9834 11.5444 27.0257 11.6194C27.3257 12.1586 27.3257 12.1586 27.3257 12.3852C27.095 12.3852 26.8643 12.3852 26.6266 12.3852C26.6266 13.2752 26.6266 14.1651 26.6266 15.082C26.7584 15.082 26.8902 15.082 27.0261 15.082C27.0261 15.2139 27.0261 15.3457 27.0261 15.4815C25.5429 15.4815 24.0596 15.4815 22.5315 15.4815C22.5315 15.3497 22.5315 15.2179 22.5315 15.082C22.6303 15.082 22.7292 15.082 22.8311 15.082C22.8311 14.1921 22.8311 13.3021 22.8311 12.3852C22.6333 12.3852 22.4356 12.3852 22.2318 12.3852C22.2952 12.0885 22.3919 11.8462 22.5346 11.5788C22.5744 11.5039 22.6141 11.429 22.6551 11.3519C22.6967 11.2747 22.7383 11.1975 22.7812 11.118C22.8227 11.0397 22.8643 10.9613 22.9072 10.8806C23.2161 10.3023 23.2161 10.3023 23.3305 10.1879Z" fill="#4C5F72"/>
<path d="M28.2247 10.0879C29.2794 10.0879 30.3341 10.0879 31.4208 10.0879C31.4363 10.6317 31.4363 10.6317 31.452 11.1866C31.4566 11.2992 31.4611 11.4119 31.4658 11.528C31.4751 12.2063 31.3771 12.668 30.9214 13.1842C30.6352 13.437 30.4163 13.5837 30.0225 13.5837C30.0225 14.1111 30.0225 14.6385 30.0225 15.1818C30.3521 15.1818 30.6817 15.1818 31.0213 15.1818C31.0543 15.2807 31.0872 15.3796 31.1212 15.4814C30.2642 15.4814 29.4072 15.4814 28.5243 15.4814C28.5573 15.3826 28.5902 15.2837 28.6242 15.1818C28.9538 15.1818 29.2834 15.1818 29.623 15.1818C29.623 14.6215 29.623 14.0611 29.623 13.4838C29.3923 13.4509 29.1615 13.4179 28.9238 13.384C28.728 13.2064 28.728 13.2064 28.5867 12.9907C28.5145 12.8843 28.5145 12.8843 28.4408 12.7757C28.2387 12.444 28.2128 12.252 28.2149 11.8631C28.2151 11.7703 28.2154 11.6775 28.2157 11.582C28.2166 11.4638 28.2175 11.3457 28.2184 11.224C28.2205 10.8491 28.2225 10.4742 28.2247 10.0879Z" fill="#485D73"/>
<path d="M36.0154 10.45C36.5503 10.8679 36.8769 11.1996 37.0142 11.8858C36.355 11.8858 35.6957 11.8858 35.0166 11.8858C35.0223 12.1035 35.0281 12.3212 35.0341 12.5455C35.038 12.7574 35.041 12.9693 35.044 13.1812C35.0465 13.328 35.0499 13.4748 35.0542 13.6215C35.0603 13.833 35.0631 14.0444 35.0653 14.256C35.0679 14.3831 35.0706 14.5102 35.0732 14.6411C35.0014 15.0729 34.8588 15.2165 34.5171 15.4815C34.1676 15.5439 34.1676 15.5439 33.818 15.4815C33.5246 15.2505 33.5246 15.2505 33.3186 14.9821C33.3186 14.8832 33.3186 14.7843 33.3186 14.6824C33.4834 14.6824 33.6482 14.6824 33.818 14.6824C33.8509 14.7483 33.8839 14.8143 33.9179 14.8822C34.0843 14.8864 34.2509 14.8862 34.4173 14.8822C34.6057 14.6938 34.5414 14.3686 34.5488 14.1171C34.5508 14.0507 34.5529 13.9843 34.555 13.916C34.5616 13.7033 34.5675 13.4906 34.5733 13.2778C34.5776 13.1339 34.582 12.99 34.5864 12.8461C34.5972 12.4927 34.6071 12.1393 34.617 11.7859C33.9908 11.7859 33.3645 11.7859 32.7193 11.7859C32.8583 11.0907 33.0728 10.7876 33.6366 10.3891C34.3292 10.0019 35.3578 10.0267 36.0154 10.45Z" fill="#4A5E72"/>
<path d="M23.73 18.0784C24.0596 18.0784 24.3893 18.0784 24.7288 18.0784C24.9002 18.2498 24.8415 18.4751 24.8417 18.709C24.842 18.8224 24.8423 18.9357 24.8426 19.0525C24.8424 19.1758 24.8422 19.2992 24.842 19.4264C24.8421 19.5521 24.8422 19.6779 24.8423 19.8074C24.8424 20.074 24.8422 20.3406 24.8417 20.6072C24.8412 20.9492 24.8415 21.2913 24.8421 21.6333C24.8426 21.9589 24.8422 22.2845 24.842 22.6101C24.8422 22.7332 24.8424 22.8564 24.8426 22.9834C24.8423 23.097 24.842 23.2106 24.8417 23.3277C24.8416 23.4281 24.8415 23.5285 24.8414 23.632C24.8287 23.8714 24.8287 23.8714 24.7288 24.0712C24.5311 24.0712 24.3333 24.0712 24.1296 24.0712C24.1296 24.3678 24.1296 24.6645 24.1296 24.9701C23.9977 24.9701 23.8659 24.9701 23.73 24.9701C23.73 22.6958 23.73 20.4216 23.73 18.0784Z" fill="#7C92A4"/>
<path d="M32.9191 18.0784C33.2487 18.0784 33.5783 18.0784 33.9179 18.0784C33.9179 20.023 33.9179 21.9677 33.9179 23.9713C33.5883 23.9713 33.2587 23.9713 32.9191 23.9713C32.9191 22.0266 32.9191 20.082 32.9191 18.0784Z" fill="#7C91A4"/>
<path d="M28.5243 18.0784C28.8539 18.0784 29.1835 18.0784 29.5231 18.0784C29.5254 18.832 29.5272 19.5856 29.5283 20.3392C29.5288 20.6891 29.5295 21.0389 29.5306 21.3888C29.5319 21.7907 29.5324 22.1926 29.5329 22.5945C29.5334 22.7207 29.5339 22.8469 29.5344 22.9769C29.5344 23.0929 29.5344 23.2088 29.5344 23.3283C29.5347 23.431 29.5349 23.5337 29.5351 23.6395C29.5231 23.8714 29.5231 23.8714 29.4232 23.9713C29.1266 23.9713 28.8299 23.9713 28.5243 23.9713C28.5243 22.0266 28.5243 20.082 28.5243 18.0784Z" fill="#71879B"/>
<path d="M34.1176 18.0784C34.4143 18.0784 34.7109 18.0784 35.0165 18.0784C35.0165 20.023 35.0165 21.9677 35.0165 23.9713C34.7199 23.9713 34.4232 23.9713 34.1176 23.9713C34.1176 22.0266 34.1176 20.082 34.1176 18.0784Z" fill="#49637B"/>
<path d="M36.1152 18.0784C36.313 18.0784 36.5108 18.0784 36.7145 18.0784C36.7145 20.023 36.7145 21.9677 36.7145 23.9713C36.5168 23.9713 36.319 23.9713 36.1152 23.9713C36.1152 22.0266 36.1152 20.082 36.1152 18.0784Z" fill="#4F6880"/>
<path d="M21.4328 18.0784C21.6306 18.0784 21.8283 18.0784 22.0321 18.0784C22.0321 20.023 22.0321 21.9677 22.0321 23.9713C21.8343 23.9713 21.6366 23.9713 21.4328 23.9713C21.4328 22.0266 21.4328 20.082 21.4328 18.0784Z" fill="#597187"/>
<path d="M24.2294 18.1782C24.4272 18.1782 24.625 18.1782 24.8287 18.1782C24.8287 20.057 24.8287 21.9357 24.8287 23.8714C24.631 23.8714 24.4332 23.8714 24.2294 23.8714C24.2294 21.9927 24.2294 20.1139 24.2294 18.1782Z" fill="#546C83"/>
<path d="M71.3731 27.567C71.8251 27.9344 72.2115 28.3072 72.5716 28.7656C72.1721 29.1651 71.7726 29.5646 71.3731 29.9642C71.0283 29.8166 70.8088 29.6208 70.5491 29.3524C70.4785 29.28 70.4079 29.2077 70.3352 29.1331C70.2822 29.0777 70.2292 29.0224 70.1745 28.9653C70.333 28.5755 70.5874 28.3326 70.8861 28.0414C70.977 27.9524 71.0679 27.8633 71.1616 27.7715C71.2314 27.704 71.3012 27.6365 71.3731 27.567Z" fill="#ACD3EB"/>
<path d="M31.7205 18.0784C31.8853 18.0784 32.0501 18.0784 32.2199 18.0784C32.2199 20.023 32.2199 21.9677 32.2199 23.9713C32.0551 23.9713 31.8903 23.9713 31.7205 23.9713C31.7205 22.0266 31.7205 20.082 31.7205 18.0784Z" fill="#4B647C"/>
<path d="M22.5314 18.0784C22.6962 18.0784 22.861 18.0784 23.0308 18.0784C23.0308 20.023 23.0308 21.9677 23.0308 23.9713C22.866 23.9713 22.7012 23.9713 22.5314 23.9713C22.5314 22.0266 22.5314 20.082 22.5314 18.0784Z" fill="#4C657D"/>
<path d="M33.4185 18.1782C33.5833 18.1782 33.7481 18.1782 33.9179 18.1782C33.9179 20.057 33.9179 21.9357 33.9179 23.8714C33.7531 23.8714 33.5883 23.8714 33.4185 23.8714C33.4185 21.9927 33.4185 20.1139 33.4185 18.1782Z" fill="#466078"/>
<path d="M30.6218 18.1782C30.7866 18.1782 30.9514 18.1782 31.1212 18.1782C31.1212 20.057 31.1212 21.9357 31.1212 23.8714C30.9564 23.8714 30.7916 23.8714 30.6218 23.8714C30.6218 21.9927 30.6218 20.1139 30.6218 18.1782Z" fill="#435D75"/>
<path d="M28.9238 18.1782C29.0886 18.1782 29.2534 18.1782 29.4232 18.1782C29.4232 20.057 29.4232 21.9357 29.4232 23.8714C29.2584 23.8714 29.0936 23.8714 28.9238 23.8714C28.9238 21.9927 28.9238 20.1139 28.9238 18.1782Z" fill="#4A647C"/>
<path d="M27.4256 18.1782C27.5904 18.1782 27.7552 18.1782 27.925 18.1782C27.925 20.057 27.925 21.9357 27.925 23.8714C27.7602 23.8714 27.5954 23.8714 27.4256 23.8714C27.4256 21.9927 27.4256 20.1139 27.4256 18.1782Z" fill="#465F78"/>
<path d="M25.7277 18.1782C25.8925 18.1782 26.0573 18.1782 26.2271 18.1782C26.2271 20.057 26.2271 21.9357 26.2271 23.8714C26.0623 23.8714 25.8975 23.8714 25.7277 23.8714C25.7277 21.9927 25.7277 20.1139 25.7277 18.1782Z" fill="#48617A"/>
<path d="M9.14745 27.6669C9.53128 27.8588 9.72719 28.0257 10.0214 28.3286C10.1012 28.4102 10.1811 28.4918 10.2633 28.5759C10.3236 28.6385 10.3838 28.7011 10.4459 28.7656C10.2984 29.1103 10.1025 29.3298 9.83413 29.5896C9.76177 29.6601 9.68941 29.7307 9.61486 29.8034C9.5595 29.8564 9.50414 29.9095 9.4471 29.9641C9.06625 29.6432 8.7007 29.3176 8.34841 28.9653C8.24953 28.8994 8.15065 28.8335 8.04877 28.7656C8.41133 28.403 8.7739 28.0404 9.14745 27.6669Z" fill="#ABD3EC"/>
<path d="M34.1176 18.0784C34.4143 18.0784 34.7109 18.0784 35.0165 18.0784C35.0165 18.1113 35.0165 18.1443 35.0165 18.1782C34.8517 18.1782 34.6869 18.1782 34.5171 18.1782C34.5171 20.057 34.5171 21.9358 34.5171 23.8714C34.6819 23.8714 34.8467 23.8714 35.0165 23.8714C35.0165 23.9044 35.0165 23.9374 35.0165 23.9713C34.7199 23.9713 34.4232 23.9713 34.1176 23.9713C34.1176 22.0266 34.1176 20.082 34.1176 18.0784Z" fill="#768C9F"/>
<path d="M23.9298 12.7847C24.3053 13.1602 24.6625 13.5336 25.0098 13.9333C25.0599 13.9888 25.1101 14.0443 25.1617 14.1015C25.4834 14.4734 25.5279 14.564 25.5279 15.0819C25.0005 15.0819 24.4732 15.0819 23.9298 15.0819C23.9298 14.3238 23.9298 13.5657 23.9298 12.7847Z" fill="#FC9F46"/>
<path d="M30.1224 18.0784C30.2213 18.0784 30.3201 18.0784 30.422 18.0784C30.422 20.023 30.422 21.9677 30.422 23.9713C30.3231 23.9713 30.2243 23.9713 30.1224 23.9713C30.1224 22.0266 30.1224 20.082 30.1224 18.0784Z" fill="#556E85"/>
<path d="M35.7157 18.0784C35.8146 18.0784 35.9135 18.0784 36.0153 18.0784C36.0153 20.023 36.0153 21.9677 36.0153 23.9713C35.9165 23.9713 35.8176 23.9713 35.7157 23.9713C35.7157 22.0266 35.7157 20.082 35.7157 18.0784Z" fill="#556D84"/>
<path d="M35.2163 18.0784C35.3152 18.0784 35.4141 18.0784 35.516 18.0784C35.516 20.023 35.516 21.9677 35.516 23.9713C35.4171 23.9713 35.3182 23.9713 35.2163 23.9713C35.2163 22.0266 35.2163 20.082 35.2163 18.0784Z" fill="#546D84"/>
<path d="M32.5195 18.0784C32.6184 18.0784 32.7173 18.0784 32.8192 18.0784C32.8192 20.023 32.8192 21.9677 32.8192 23.9713C32.7203 23.9713 32.6214 23.9713 32.5195 23.9713C32.5195 22.0266 32.5195 20.082 32.5195 18.0784Z" fill="#526B82"/>
<path d="M29.7229 18.0784C29.8218 18.0784 29.9207 18.0784 30.0225 18.0784C30.0225 20.023 30.0225 21.9677 30.0225 23.9713C29.9237 23.9713 29.8248 23.9713 29.7229 23.9713C29.7229 22.0266 29.7229 20.082 29.7229 18.0784Z" fill="#587087"/>
<path d="M26.5267 18.0784C26.6256 18.0784 26.7244 18.0784 26.8263 18.0784C26.8263 20.023 26.8263 21.9677 26.8263 23.9713C26.7274 23.9713 26.6286 23.9713 26.5267 23.9713C26.5267 22.0266 26.5267 20.082 26.5267 18.0784Z" fill="#566F85"/>
<path d="M22.132 18.0784C22.2308 18.0784 22.3297 18.0784 22.4316 18.0784C22.4316 20.023 22.4316 21.9677 22.4316 23.9713C22.3327 23.9713 22.2338 23.9713 22.132 23.9713C22.132 22.0266 22.132 20.082 22.132 18.0784Z" fill="#506981"/>
<path d="M31.3209 18.0784C31.4198 18.0784 31.5187 18.0784 31.6206 18.0784C31.6206 19.9901 31.6206 21.9018 31.6206 23.8714C31.5217 23.8714 31.4228 23.8714 31.3209 23.8714C31.3209 21.9597 31.3209 20.048 31.3209 18.0784Z" fill="#4E677F"/>
<path d="M25.3281 18.0784C25.427 18.0784 25.5259 18.0784 25.6278 18.0784C25.6278 19.9901 25.6278 21.9018 25.6278 23.8714C25.5289 23.8714 25.43 23.8714 25.3281 23.8714C25.3281 21.9597 25.3281 20.048 25.3281 18.0784Z" fill="#4C657D"/>
<path d="M26.9262 18.1782C27.0251 18.1782 27.124 18.1782 27.2259 18.1782C27.2259 20.0899 27.2259 22.0017 27.2259 23.9713C27.127 23.9713 27.0281 23.9713 26.9262 23.9713C26.9262 22.0596 26.9262 20.1479 26.9262 18.1782Z" fill="#5D748A"/>
<path d="M23.3305 18.1782C23.4294 18.1782 23.5283 18.1782 23.6301 18.1782C23.6301 20.0899 23.6301 22.0017 23.6301 23.9713C23.5313 23.9713 23.4324 23.9713 23.3305 23.9713C23.3305 22.0596 23.3305 20.1479 23.3305 18.1782Z" fill="#4E677F"/>
<path d="M32.2198 18.1782C32.3187 18.1782 32.4176 18.1782 32.5195 18.1782C32.5195 20.057 32.5195 21.9357 32.5195 23.8714C32.4206 23.8714 32.3217 23.8714 32.2198 23.8714C32.2198 21.9927 32.2198 20.1139 32.2198 18.1782Z" fill="#BBCCD7"/>
<path d="M21.6325 37.4552C22.1061 37.4455 22.5448 37.4809 23.0121 37.555C24.5017 37.7647 26.0805 37.7399 27.5738 37.5671C27.8695 37.5529 28.1347 37.5978 28.4244 37.6549C28.4244 37.6879 28.4244 37.7209 28.4244 37.7548C26.2476 38.0478 23.7723 38.2462 21.6325 37.6549C21.6325 37.589 21.6325 37.5231 21.6325 37.4552Z" fill="#FEAD4C"/>
<path d="M59.0878 37.4552C59.0548 37.5212 59.0219 37.5871 58.9879 37.655C58.756 37.7211 58.5346 37.7722 58.2981 37.8154C58.1913 37.835 58.1913 37.835 58.0824 37.855C57.3148 37.984 56.5548 37.9965 55.7781 37.9882C55.5421 37.9859 55.3063 37.9862 55.0703 37.9868C54.0654 37.9848 53.0897 37.9036 52.0961 37.7549C52.0961 37.7219 52.0961 37.689 52.0961 37.655C52.2625 37.6351 52.429 37.6167 52.5955 37.5988C52.6882 37.5884 52.7809 37.578 52.8764 37.5672C53.1789 37.5557 53.4543 37.5881 53.7531 37.6299C54.2807 37.6849 54.8124 37.674 55.3422 37.6737C55.4664 37.6738 55.5905 37.6739 55.7184 37.6739C56.5147 37.6694 57.2834 37.6256 58.0691 37.4989C58.4121 37.452 58.7419 37.4482 59.0878 37.4552Z" fill="#F28D35"/>
<path d="M25.7276 18.0784C25.9254 18.0784 26.1232 18.0784 26.3269 18.0784C26.3269 20.023 26.3269 21.9677 26.3269 23.9713C25.8325 24.0208 25.8325 24.0208 25.3281 24.0712C25.3281 24.0053 25.3281 23.9394 25.3281 23.8714C25.427 23.8714 25.5259 23.8714 25.6278 23.8714C25.6275 23.8003 25.6273 23.7292 25.6271 23.656C25.6251 22.9872 25.6236 22.3185 25.6226 21.6497C25.6221 21.3059 25.6214 20.962 25.6202 20.6182C25.6189 20.2232 25.6185 19.8283 25.618 19.4334C25.6175 19.3094 25.617 19.1854 25.6165 19.0576C25.6164 18.9436 25.6164 18.8296 25.6164 18.7122C25.6162 18.6113 25.616 18.5104 25.6158 18.4064C25.6278 18.1782 25.6278 18.1782 25.7276 18.0784ZM25.7276 18.1782C25.7276 20.057 25.7276 21.9358 25.7276 23.8714C25.8925 23.8714 26.0573 23.8714 26.2271 23.8714C26.2271 21.9927 26.2271 20.1139 26.2271 18.1782C26.0622 18.1782 25.8974 18.1782 25.7276 18.1782Z" fill="#98ABBC"/>
<path d="M28.6242 15.1819C28.7231 15.2148 28.8219 15.2478 28.9238 15.2818C29.0935 15.2965 29.2636 15.3065 29.4338 15.3134C29.581 15.3196 29.581 15.3196 29.7312 15.326C29.8847 15.3319 29.8847 15.3319 30.0412 15.3379C30.1964 15.3444 30.1964 15.3444 30.3547 15.351C30.6102 15.3616 30.8657 15.3718 31.1212 15.3816C31.1212 15.4146 31.1212 15.4476 31.1212 15.4815C30.2642 15.4815 29.4072 15.4815 28.5243 15.4815C28.5573 15.3826 28.5902 15.2838 28.6242 15.1819Z" fill="#5C6069"/>
<path d="M21.6325 37.4552C22.1951 37.4312 22.6858 37.5166 23.2306 37.6549C23.2306 37.6879 23.2306 37.7209 23.2306 37.7548C23.0392 37.7575 22.8477 37.7595 22.6563 37.7611C22.4964 37.7628 22.4964 37.7628 22.3332 37.7646C22.0786 37.7563 21.8743 37.7295 21.6325 37.6549C21.6325 37.589 21.6325 37.5231 21.6325 37.4552Z" fill="#FEA749"/>
<path d="M59.0878 37.4553C59.0548 37.5212 59.0218 37.5871 58.9879 37.655C58.7 37.751 58.5186 37.7655 58.22 37.7612C58.099 37.7598 58.099 37.7598 57.9754 37.7584C57.8833 37.7567 57.8833 37.7567 57.7893 37.7549C57.7893 37.689 57.7893 37.6231 57.7893 37.5552C58.2282 37.4695 58.6409 37.4463 59.0878 37.4553Z" fill="#F0852F"/>
<path d="M33.6182 10.3876C33.6842 10.4205 33.7501 10.4535 33.818 10.4875C33.5543 10.7511 33.2906 11.0148 33.0189 11.2865C32.986 11.2206 32.953 11.1547 32.9191 11.0867C33.1521 10.8537 33.3852 10.6206 33.6182 10.3876Z" fill="#646166"/>
</svg>
