<svg width="24" height="24" viewBox="0 0 24 24" fill="none" xmlns="http://www.w3.org/2000/svg">
<path d="M7.33067 7.04744C7.50599 6.86861 7.78034 6.85235 7.97366 6.99867L8.02905 7.04744L11.986 11.084L15.943 7.04744C16.1183 6.86861 16.3927 6.85235 16.586 6.99867L16.6414 7.04744C16.8167 7.22628 16.8327 7.50613 16.6892 7.70333L16.6414 7.75983L12.3352 12.1524C12.1599 12.3312 11.8856 12.3475 11.6922 12.2011L11.6368 12.1524L7.33067 7.75983C7.13782 7.56311 7.13782 7.24416 7.33067 7.04744Z" fill="#76787A"/>
<path d="M16.6554 16.4526C16.4801 16.6314 16.2057 16.6477 16.0124 16.5013L15.957 16.4526L12 12.416L8.04306 16.4526C7.86775 16.6314 7.5934 16.6477 7.40007 16.5013L7.34469 16.4526C7.16937 16.2737 7.15343 15.9939 7.29687 15.7967L7.34469 15.7402L11.6509 11.3476C11.8262 11.1688 12.1005 11.1525 12.2939 11.2989L12.3492 11.3476L16.6554 15.7402C16.8483 15.9369 16.8483 16.2558 16.6554 16.4526Z" fill="#76787A"/>
</svg>
