<svg width="25" height="25" viewBox="0 0 25 25" fill="none" xmlns="http://www.w3.org/2000/svg">
<path d="M19.8059 9.96826C19.8059 9.96826 19.2629 16.7033 18.9479 19.5403C18.7979 20.8953 17.9609 21.6893 16.5899 21.7143C13.9809 21.7613 11.3689 21.7643 8.76087 21.7093C7.44187 21.6823 6.61887 20.8783 6.47187 19.5473C6.15487 16.6853 5.61487 9.96826 5.61487 9.96826" stroke="black" stroke-width="1.5" stroke-linecap="round" stroke-linejoin="round"/>
<path d="M21.1892 6.73975H4.23117" stroke="black" stroke-width="1.5" stroke-linecap="round" stroke-linejoin="round"/>
<path d="M17.9216 6.73973C17.1366 6.73973 16.4606 6.18473 16.3066 5.41573L16.0636 4.19973C15.9136 3.63873 15.4056 3.25073 14.8266 3.25073H10.5936C10.0146 3.25073 9.50657 3.63873 9.35657 4.19973L9.11357 5.41573C8.95957 6.18473 8.28357 6.73973 7.49857 6.73973" stroke="black" stroke-width="1.5" stroke-linecap="round" stroke-linejoin="round"/>
</svg>
