<svg width="25" height="25" viewBox="0 0 25 25" fill="none" xmlns="http://www.w3.org/2000/svg">
<path d="M12.3193 3.28906H8.58027C5.50527 3.28906 3.57727 5.46606 3.57727 8.54806V16.8621C3.57727 19.9441 5.49627 22.1211 8.58027 22.1211H17.4043C20.4893 22.1211 22.4083 19.9441 22.4083 16.8621V12.8341" stroke="black" stroke-width="1.5" stroke-linecap="round" stroke-linejoin="round"/>
<path fill-rule="evenodd" clip-rule="evenodd" d="M9.65478 11.421L17.1278 3.94799C18.0588 3.01799 19.5678 3.01799 20.4988 3.94799L21.7158 5.16499C22.6468 6.09599 22.6468 7.60599 21.7158 8.53599L14.2068 16.045C13.7998 16.452 13.2478 16.681 12.6718 16.681H8.92578L9.01978 12.901C9.03378 12.345 9.26078 11.815 9.65478 11.421Z" stroke="black" stroke-width="1.5" stroke-linecap="round" stroke-linejoin="round"/>
<path d="M15.9922 5.10254L20.5582 9.66854" stroke="black" stroke-width="1.5" stroke-linecap="round" stroke-linejoin="round"/>
</svg>
