<svg width="24" height="24" viewBox="0 0 24 24" fill="none" xmlns="http://www.w3.org/2000/svg">
<path d="M9.76106 14.3432C9.18606 13.7692 8.83606 12.9892 8.83606 12.1142C8.83606 10.3612 10.2481 8.94824 12.0001 8.94824C12.8671 8.94824 13.6651 9.29924 14.2301 9.87324" stroke="black" stroke-width="1.5" stroke-linecap="round" stroke-linejoin="round"/>
<path d="M15.1052 12.6753C14.8732 13.9653 13.8572 14.9833 12.5682 15.2173" stroke="black" stroke-width="1.5" stroke-linecap="round" stroke-linejoin="round"/>
<path d="M6.655 17.4485C5.068 16.2025 3.724 14.3825 2.75 12.1135C3.734 9.83455 5.087 8.00455 6.684 6.74855C8.271 5.49255 10.102 4.81055 12 4.81055C13.909 4.81055 15.739 5.50255 17.336 6.76755" stroke="black" stroke-width="1.5" stroke-linecap="round" stroke-linejoin="round"/>
<path d="M19.448 8.96729C20.136 9.88129 20.741 10.9363 21.25 12.1133C19.283 16.6703 15.807 19.4153 12 19.4153C11.137 19.4153 10.286 19.2753 9.46802 19.0023" stroke="black" stroke-width="1.5" stroke-linecap="round" stroke-linejoin="round"/>
<path d="M19.8874 4.22607L4.1134 20.0001" stroke="black" stroke-width="1.5" stroke-linecap="round" stroke-linejoin="round"/>
</svg>
